<svg width="175" height="51" viewBox="0 0 175 51" fill="none" xmlns="http://www.w3.org/2000/svg">
<path d="M66.5439 50.2593C65.4262 50.3457 64.4375 50.3951 63.5778 50.4074C62.632 50.4321 61.6433 50.4383 60.6117 50.4259C59.408 50.4259 58.2474 50.4259 57.1297 50.4259C55.9261 50.4383 54.7224 50.4568 53.5188 50.4815C53.0889 50.5062 52.6591 50.5123 52.2292 50.5C51.7993 50.4876 51.2835 50.4753 50.6817 50.463C50.5097 50.4506 50.2948 50.4444 50.0369 50.4444C49.693 50.4568 49.3921 50.463 49.1341 50.463C47.5866 50.5123 46.0391 50.537 44.4915 50.537C42.944 50.537 41.3535 50.5432 39.72 50.5555C37.7426 50.5555 35.7652 50.5555 33.7878 50.5555C31.8104 50.5679 29.79 50.5802 27.7266 50.5926C27.5547 50.5926 27.3827 50.5864 27.2108 50.5741C26.9528 50.5741 26.7379 50.5802 26.5659 50.5926C24.8465 50.679 23.127 50.7222 21.4075 50.7222C19.6021 50.7222 17.8396 50.7346 16.1201 50.7592C15.3464 50.7592 14.5296 50.7592 13.6699 50.7592C12.8101 50.7716 11.9934 50.7901 11.2196 50.8148C10.4458 50.8642 9.71506 50.8827 9.02727 50.8704C8.33948 50.858 7.6087 50.8333 6.83493 50.7963C6.23311 50.8333 5.6313 50.8642 5.02948 50.8889C4.34169 50.9259 3.69688 50.9629 3.09507 51C1.6335 51 0.601815 50.9197 0 50.7592C5.39642e-09 50.6975 8.09462e-09 50.6667 8.09462e-09 50.6667C1.88875e-08 50.5432 0.0859729 50.4197 0.257919 50.2963C0.343897 50.1852 0.472858 50.0617 0.644804 49.9259C1.24662 49.7901 1.93441 49.6481 2.70818 49.5C3.39598 49.3518 4.42766 49.2346 5.80324 49.1481C7.35077 49.1235 8.94129 49.1173 10.5748 49.1296C12.1223 49.1543 13.6269 49.1111 15.0884 49C17.2378 49.0741 19.3871 49.1049 21.5365 49.0926C23.5999 49.0926 25.7492 49.1049 27.9845 49.1296H33.4009C33.8308 49.1296 34.2606 49.1235 34.6905 49.1111C35.1204 49.1111 35.5502 49.1049 35.9801 49.0926C37.0118 49.0432 37.9575 49.0247 38.8172 49.037C42.2562 49.1358 45.6952 49.1358 49.1341 49.037C49.8219 49.0123 50.4667 49.0123 51.0685 49.037C53.9917 49.0864 57.4306 49.1235 61.3854 49.1482C65.3402 49.1852 69.0801 49.2037 72.605 49.2037C73.8946 49.2037 75.2702 49.1975 76.7318 49.1852C78.1073 49.1728 79.397 49.1975 80.6006 49.2593H88.9831C90.7025 49.284 92.465 49.2963 94.2705 49.2963C95.9899 49.3086 97.7094 49.3148 99.4289 49.3148C100.633 49.3148 101.75 49.321 102.782 49.3333C103.814 49.3457 104.888 49.3766 106.006 49.4259C108.241 49.5124 110.52 49.5679 112.841 49.5926C115.162 49.6296 117.483 49.6482 119.805 49.6482C120.75 49.6482 121.696 49.642 122.642 49.6296C123.502 49.6296 124.404 49.6173 125.35 49.5926C127.413 49.5679 129.434 49.5679 131.411 49.5926C133.389 49.6173 135.366 49.6728 137.343 49.7593C138.031 49.7346 138.633 49.7099 139.149 49.6852C139.579 49.6728 140.095 49.6667 140.696 49.6667C143.19 49.6543 145.597 49.6482 147.918 49.6482C150.24 49.6482 152.604 49.6482 155.011 49.6482C155.871 49.6235 156.731 49.6173 157.59 49.6296C158.364 49.6543 159.224 49.6729 160.169 49.6852C160.943 49.6975 161.76 49.7161 162.62 49.7407C163.394 49.7654 164.21 49.7778 165.07 49.7778C165.758 49.7161 166.403 49.642 167.004 49.5556C167.606 49.4815 168.251 49.4136 168.939 49.3519C170.142 49.4012 171.088 49.4506 171.776 49.5C172.464 49.5494 173.109 49.6173 173.71 49.7037C173.968 49.7284 174.183 49.7531 174.355 49.7778C174.441 49.8148 174.613 49.858 174.871 49.9074C174.957 49.9691 175 50.0247 175 50.0741C174.914 50.1358 174.656 50.2346 174.226 50.3704C173.796 50.4074 173.324 50.4444 172.808 50.4815C172.292 50.5185 171.733 50.5556 171.131 50.5926C170.443 50.642 169.756 50.679 169.068 50.7037H157.203C155.742 50.7037 154.237 50.6852 152.69 50.6481C150.798 50.5494 148.735 50.5556 146.5 50.6667C146.07 50.6296 145.554 50.5988 144.952 50.5741C144.264 50.5494 143.534 50.5123 142.76 50.463C142.588 50.463 142.373 50.4753 142.115 50.5C141.771 50.5247 141.384 50.537 140.954 50.537C140.181 50.537 139.364 50.5247 138.504 50.5C137.644 50.4753 136.828 50.463 136.054 50.463C135.108 50.4753 134.248 50.4877 133.475 50.5C132.701 50.5247 131.884 50.5432 131.024 50.5556C129.735 50.5679 128.488 50.5741 127.284 50.5741C125.995 50.5741 124.705 50.5802 123.416 50.5926C122.642 50.642 121.911 50.6605 121.223 50.6481C120.536 50.6481 119.805 50.6481 119.031 50.6481C117.913 50.6481 116.925 50.6173 116.065 50.5556C115.119 50.4938 114.173 50.4506 113.228 50.4259C112.712 50.4506 112.239 50.4691 111.809 50.4815C111.379 50.4938 110.949 50.5123 110.52 50.537C109.918 50.537 109.316 50.5062 108.714 50.4444C108.112 50.3951 107.467 50.4012 106.78 50.463C106.35 50.4753 105.963 50.4753 105.619 50.463C105.275 50.463 104.931 50.463 104.587 50.463C103.298 50.4506 102.008 50.4321 100.719 50.4074C99.4289 50.3951 98.1393 50.4198 96.8497 50.4815H96.3338C94.3564 50.4198 92.422 50.3951 90.5306 50.4074C88.6392 50.4321 86.7907 50.4568 84.9853 50.4815H83.6957C82.0622 50.4197 80.4286 50.3951 78.7951 50.4074C77.1616 50.4197 75.4851 50.4259 73.7657 50.4259C72.562 50.4012 71.3584 50.3827 70.1548 50.3704C68.9511 50.358 67.7475 50.321 66.5439 50.2593ZM7.22181 49.7778C8.16753 49.7901 9.15623 49.7963 10.1879 49.7963C11.2196 49.7963 12.2083 49.7839 13.154 49.7593C13.326 49.7593 13.4979 49.7469 13.6699 49.7222C13.8418 49.6975 13.8848 49.6728 13.7988 49.6481C13.5409 49.5864 13.197 49.5556 12.7671 49.5556C11.9934 49.5802 11.2196 49.5988 10.4458 49.6111C9.67207 49.6358 8.85532 49.6605 7.99558 49.6852C7.82363 49.6852 7.73765 49.6975 7.73765 49.7222C7.65168 49.7469 7.52272 49.7716 7.35078 49.7963H6.44804C6.2761 49.8086 6.19012 49.821 6.19012 49.8333C6.10415 49.858 5.97519 49.8704 5.80324 49.8704C5.97519 49.8827 6.23312 49.8889 6.57701 49.8889C6.74895 49.8765 6.87792 49.858 6.96389 49.8333C6.96389 49.8086 7.04987 49.7901 7.22181 49.7778ZM104.458 49.7778C102.997 49.7778 101.578 49.7778 100.203 49.7778C98.7411 49.7901 97.3225 49.7963 95.9469 49.7963C94.3994 49.784 92.8519 49.7778 91.3044 49.7778C89.7568 49.7778 88.2093 49.7778 86.6618 49.7778H75.0553C74.6254 49.7778 74.1525 49.784 73.6367 49.7963C73.1209 49.821 72.3901 49.8457 71.4444 49.8704C73.6797 49.9321 75.7001 49.9691 77.5055 49.9815C79.225 49.9938 80.9875 50.0123 82.7929 50.037C86.7477 50.0988 90.7025 50.1235 94.6573 50.1111C98.6121 50.0988 102.524 50.0988 106.393 50.1111C107.167 50.1111 108.069 50.0864 109.101 50.037C108.155 49.9753 107.296 49.9259 106.522 49.8889C105.748 49.8642 105.06 49.8272 104.458 49.7778ZM51.3265 49.9074C51.1545 49.8827 51.0685 49.8704 51.0685 49.8704C50.8106 49.8827 50.6387 49.8889 50.5527 49.8889C50.4667 49.9012 50.3808 49.9074 50.2948 49.9074C50.0368 49.9444 49.9079 49.9691 49.9079 49.9815C49.8219 49.9938 49.8219 50.0062 49.9079 50.0185C50.0798 50.0185 50.1658 50.0185 50.1658 50.0185C50.1658 50.0309 50.2088 50.037 50.2948 50.037H50.4237C51.0256 50.037 51.3265 49.9938 51.3265 49.9074ZM122.126 50.1482C121.696 50.1358 121.18 50.1296 120.578 50.1296C120.407 50.1296 120.192 50.1543 119.934 50.2037C120.364 50.216 120.75 50.2222 121.094 50.2222C121.352 50.2222 121.696 50.1975 122.126 50.1482Z" fill="#1C98A6"/>
<path d="M0.113645 2.72626C0.143948 2.28974 0.178039 1.91274 0.215917 1.59526C0.253796 1.27779 0.321978 1.07937 0.420462 1C0.49622 1 0.575765 1.05953 0.659098 1.17858C0.787886 1.377 0.85228 1.77384 0.85228 2.3691C0.844704 3.40089 0.856067 4.45252 0.88637 5.52399C0.916673 6.31768 0.916673 7.1312 0.88637 7.96457C0.848491 8.8773 0.837128 9.80988 0.852279 10.7623C0.867431 11.7544 0.867431 12.7465 0.852279 13.7386C0.852279 13.8577 0.856067 13.9569 0.863643 14.0362C0.878794 14.1553 0.88637 14.2743 0.88637 14.3934C0.924249 15.068 0.928037 15.6434 0.897733 16.1197C0.852279 16.834 0.83334 17.5483 0.840915 18.2626C0.848491 18.9769 0.848491 19.7111 0.840915 20.4651L0.840915 21.8937C0.840915 22.3302 0.833339 22.6477 0.818188 22.8461C0.772733 23.2826 0.750006 23.739 0.750006 24.2152C0.757582 24.6914 0.768946 25.1875 0.784097 25.7034C0.776521 25.9018 0.765157 26.1201 0.750006 26.3582C0.74243 26.636 0.738642 26.8741 0.738642 27.0725C0.731067 27.2709 0.727279 27.4693 0.727279 27.6677C0.734854 27.8662 0.738642 28.0646 0.738642 28.263C0.753794 28.8583 0.765157 29.4535 0.772733 30.0488C0.787885 30.6837 0.787885 31.2988 0.772733 31.8941L0.772733 32.4298C0.810612 33.1442 0.825763 33.8783 0.818187 34.6323C0.818187 35.426 0.818187 36.2197 0.818187 37.0134C0.810611 37.688 0.810611 38.3626 0.818187 39.0373C0.833339 39.7119 0.833339 40.3865 0.818187 41.0611C0.84849 41.6564 0.859854 42.2517 0.852278 42.8469C0.844702 43.4422 0.844702 44.0375 0.852278 44.6327C0.867429 45.228 0.890156 45.7836 0.920459 46.2995C0.950762 46.855 0.977278 47.4305 1 48.0257C0.977277 48.5019 0.928035 48.8392 0.852278 49.0377C0.784096 49.2361 0.72349 49.494 0.67046 49.8115C0.602278 49.8909 0.537884 49.9504 0.477278 49.9901C0.416672 50.0298 0.352279 49.9504 0.284097 49.752C0.276521 49.6726 0.268945 49.5932 0.26137 49.5139C0.253794 49.4742 0.246218 49.4147 0.238643 49.3353C0.223491 49.1766 0.20834 49.0178 0.193188 48.8591C0.185612 48.74 0.174249 48.6011 0.159097 48.4424C0.0984913 47.8074 0.0568247 47.1527 0.0340976 46.478C0.0113704 45.8034 6.88398e-06 45.1288 6.91347e-06 44.4541C0.00758257 44.1367 0.0113704 43.8589 0.0113704 43.6208C0.0113704 43.3827 0.0113704 43.1049 0.0113705 42.7874C0.026522 42.3509 0.0340978 41.9144 0.0340978 41.4778C0.0416734 41.0413 0.0378856 40.6048 0.0227344 40.1683C0.0151585 39.6524 0.0227342 39.1563 0.0454614 38.6801C0.0681888 38.2039 0.0719767 37.7277 0.0568252 37.2515C0.0947039 36.2197 0.106068 35.2077 0.0909161 34.2156C0.0833405 33.2235 0.0833405 32.2314 0.0909162 31.2393C0.0909162 30.8822 0.0909163 30.5448 0.0909163 30.2274C0.0909163 29.9099 0.0984921 29.5924 0.113644 29.275C0.113644 28.9575 0.113644 28.64 0.113644 28.3225C0.113644 28.0051 0.121219 27.6677 0.136371 27.3106C0.151522 26.9931 0.151522 26.6756 0.136371 26.3582C0.128795 26.0804 0.125007 25.7827 0.125007 25.4653C0.109856 25.2669 0.109856 25.0883 0.125007 24.9295C0.162886 24.374 0.178038 23.8184 0.170462 23.2628C0.162886 22.7469 0.151523 22.2112 0.136371 21.6556C0.128795 21.4572 0.125007 21.2389 0.125007 21.0008C0.125007 20.7627 0.125007 20.5444 0.125007 20.346C0.117432 18.6396 0.113644 16.953 0.113644 15.2863C0.113644 13.6592 0.113644 11.9727 0.113644 10.2266C0.0984929 9.71067 0.0947051 9.21462 0.102281 8.73841C0.109857 8.30188 0.12122 7.84552 0.136372 7.36931C0.151523 6.93278 0.159099 6.5161 0.159099 6.11926C0.166675 5.7621 0.178038 5.36526 0.19319 4.92873C0.200766 4.2541 0.174251 3.51994 0.113645 2.72626ZM0.227279 45.6447C0.24243 45.9621 0.253794 46.2399 0.26137 46.478C0.276521 46.7558 0.291673 47.0535 0.306824 47.3709C0.329551 47.49 0.352279 47.6289 0.375006 47.7876C0.397733 47.9463 0.428036 48.0852 0.465915 48.2043C0.47349 48.2837 0.484854 48.3035 0.500006 48.2638C0.515157 48.2241 0.530309 48.2043 0.54546 48.2043L0.556824 48.0257C0.587127 47.113 0.579551 46.1606 0.534097 45.1685C0.473491 45.2478 0.416673 45.3272 0.363643 45.4066C0.318188 45.4859 0.272733 45.5653 0.227279 45.6447Z" fill="#1C98A6"/>
<path d="M107.836 0.740741C108.948 0.654321 109.931 0.604938 110.786 0.592592C111.726 0.567901 112.709 0.561728 113.735 0.574074C114.931 0.574074 116.085 0.574074 117.197 0.574074C118.394 0.561728 119.59 0.54321 120.787 0.518519C121.214 0.493827 121.642 0.487654 122.069 0.5C122.497 0.512346 123.01 0.524691 123.608 0.537037C123.779 0.549383 123.993 0.555556 124.249 0.555556C124.591 0.54321 124.89 0.537037 125.147 0.537037C126.685 0.487654 128.224 0.462963 129.763 0.462963C131.301 0.462963 132.883 0.45679 134.507 0.444444C136.473 0.444444 138.439 0.444444 140.405 0.444444C142.371 0.432099 144.38 0.419753 146.432 0.407407C146.603 0.407407 146.774 0.41358 146.945 0.425926C147.201 0.425926 147.415 0.419753 147.586 0.407407C149.296 0.320987 151.005 0.277778 152.715 0.277778C154.51 0.277778 156.262 0.265432 157.972 0.24074C158.741 0.24074 159.553 0.24074 160.408 0.24074C161.263 0.228395 162.075 0.209876 162.845 0.185185C163.614 0.135802 164.34 0.117284 165.024 0.12963C165.708 0.141975 166.435 0.166666 167.204 0.203703C167.803 0.166666 168.401 0.135802 168.999 0.111111C169.683 0.0740739 170.324 0.0370369 170.923 0C172.376 0 173.402 0.0802468 174 0.24074C174 0.302469 174 0.333333 174 0.333333C174 0.45679 173.915 0.580247 173.744 0.703704C173.658 0.814815 173.53 0.938272 173.359 1.07407C172.761 1.20988 172.077 1.35185 171.307 1.5C170.623 1.64815 169.598 1.76543 168.23 1.85185C166.691 1.87654 165.11 1.88272 163.486 1.87037C161.947 1.84568 160.451 1.88889 158.998 2C156.861 1.92593 154.724 1.89506 152.587 1.90741C150.535 1.90741 148.398 1.89506 146.175 1.87037H140.79C140.363 1.87037 139.935 1.87654 139.508 1.88889C139.08 1.88889 138.653 1.89506 138.225 1.90741C137.2 1.95679 136.259 1.97531 135.405 1.96296C131.985 1.8642 128.566 1.8642 125.147 1.96296C124.463 1.98765 123.822 1.98765 123.223 1.96296C120.317 1.91358 116.898 1.87654 112.965 1.85185C109.033 1.81482 105.315 1.7963 101.81 1.7963C100.528 1.7963 99.1599 1.80247 97.7067 1.81482C96.339 1.82716 95.0567 1.80247 93.86 1.74074H85.5254C83.8158 1.71605 82.0634 1.7037 80.2682 1.7037C78.5586 1.69136 76.8489 1.68519 75.1393 1.68519C73.9425 1.68519 72.8312 1.67901 71.8055 1.66667C70.7797 1.65432 69.7111 1.62346 68.5999 1.57407C66.3773 1.48765 64.112 1.4321 61.804 1.40741C59.4959 1.37037 57.1879 1.35185 54.8799 1.35185C53.9396 1.35185 52.9993 1.35802 52.059 1.37037C51.2041 1.37037 50.3066 1.38272 49.3662 1.40741C47.3147 1.4321 45.3058 1.4321 43.3397 1.40741C41.3736 1.38272 39.4075 1.32716 37.4414 1.24074C36.7575 1.26543 36.1592 1.29012 35.6463 1.31481C35.2189 1.32716 34.706 1.33333 34.1076 1.33333C31.6286 1.34568 29.2351 1.35185 26.927 1.35185C24.619 1.35185 22.2682 1.35185 19.8747 1.35185C19.0199 1.37654 18.1651 1.38272 17.3102 1.37037C16.5409 1.34568 15.6861 1.32716 14.7458 1.31481C13.9764 1.30247 13.1643 1.28395 12.3095 1.25926C11.5402 1.23457 10.7281 1.22222 9.87325 1.22222C9.18939 1.28395 8.54827 1.35802 7.94989 1.44444C7.35151 1.51852 6.71039 1.58642 6.02653 1.64815C4.82977 1.59877 3.88946 1.54938 3.2056 1.5C2.52174 1.45062 1.88062 1.38272 1.28224 1.2963C1.02579 1.27161 0.812086 1.24691 0.64112 1.22222C0.555638 1.18519 0.384672 1.14198 0.128224 1.09259C0.0427414 1.03086 0 0.975309 0 0.925926C0.0854828 0.864197 0.341931 0.765432 0.769344 0.629629C1.19676 0.592592 1.66691 0.555556 2.17981 0.518519C2.6927 0.481481 3.24834 0.444444 3.84672 0.407407C4.53058 0.358024 5.21444 0.320987 5.8983 0.296296H17.6949C19.1481 0.296296 20.6441 0.314815 22.1828 0.351852C24.0634 0.450617 26.115 0.444444 28.3375 0.333333C28.7649 0.37037 29.2778 0.401235 29.8762 0.425926C30.5601 0.450617 31.2867 0.487654 32.056 0.537037C32.227 0.537037 32.4407 0.524691 32.6971 0.5C33.0391 0.475308 33.4237 0.462963 33.8511 0.462963C34.6205 0.462963 35.4326 0.475308 36.2874 0.5C37.1422 0.524691 37.9543 0.537037 38.7237 0.537037C39.664 0.524691 40.5188 0.512346 41.2881 0.5C42.0575 0.475308 42.8696 0.45679 43.7244 0.444444C45.0066 0.432099 46.2461 0.425926 47.4429 0.425926C48.7251 0.425926 50.0074 0.419753 51.2896 0.407407C52.059 0.358024 52.7856 0.339506 53.4694 0.351852C54.1533 0.351852 54.8799 0.351852 55.6492 0.351852C56.7605 0.351852 57.7435 0.382716 58.5984 0.444444C59.5387 0.506173 60.479 0.549383 61.4193 0.574074C61.9322 0.549383 62.4024 0.530864 62.8298 0.518519C63.2572 0.506173 63.6846 0.487654 64.112 0.462963C64.7104 0.462963 65.3088 0.493827 65.9071 0.555556C66.5055 0.604938 67.1466 0.598765 67.8305 0.537037C68.2579 0.524691 68.6426 0.524691 68.9845 0.537037C69.3265 0.537037 69.6684 0.537037 70.0103 0.537037C71.2926 0.549383 72.5748 0.567901 73.857 0.592592C75.1393 0.604938 76.4215 0.580247 77.7038 0.518519H78.2167C80.1828 0.580247 82.1061 0.604938 83.9867 0.592592C85.8674 0.567901 87.7052 0.54321 89.5004 0.518519H90.7826C92.4068 0.580247 94.0309 0.604938 95.6551 0.592592C97.2793 0.580247 98.9462 0.574074 100.656 0.574074C101.853 0.598765 103.049 0.617284 104.246 0.629629C105.443 0.641975 106.64 0.679012 107.836 0.740741ZM166.819 1.22222C165.879 1.20988 164.896 1.2037 163.87 1.2037C162.845 1.2037 161.861 1.21605 160.921 1.24074C160.75 1.24074 160.579 1.25309 160.408 1.27778C160.237 1.30247 160.195 1.32716 160.28 1.35185C160.536 1.41358 160.878 1.44444 161.306 1.44444C162.075 1.41975 162.845 1.40123 163.614 1.38889C164.383 1.3642 165.195 1.33951 166.05 1.31481C166.221 1.31481 166.307 1.30247 166.307 1.27778C166.392 1.25309 166.52 1.2284 166.691 1.2037H167.589C167.76 1.19136 167.845 1.17901 167.845 1.16667C167.931 1.14198 168.059 1.12963 168.23 1.12963C168.059 1.11728 167.802 1.11111 167.461 1.11111C167.29 1.12346 167.161 1.14198 167.076 1.16667C167.076 1.19136 166.99 1.20988 166.819 1.22222ZM70.1385 1.22222C71.5917 1.22222 73.0022 1.22222 74.3699 1.22222C75.8231 1.20988 77.2336 1.2037 78.6013 1.2037C80.14 1.21605 81.6787 1.22222 83.2174 1.22222C84.7561 1.22222 86.2948 1.22222 87.8335 1.22222H99.3736C99.801 1.22222 100.271 1.21605 100.784 1.2037C101.297 1.17901 102.024 1.15432 102.964 1.12963C100.741 1.0679 98.7325 1.03086 96.9374 1.01852C95.2277 1.00617 93.4753 0.987654 91.6802 0.962963C87.748 0.901235 83.8158 0.876543 79.8836 0.888889C75.9514 0.901235 72.0619 0.901235 68.2152 0.888889C67.4458 0.888889 66.5483 0.91358 65.5225 0.962963C66.4628 1.02469 67.3176 1.07407 68.087 1.11111C68.8563 1.1358 69.5402 1.17284 70.1385 1.22222ZM122.967 1.09259C123.138 1.11728 123.223 1.12963 123.223 1.12963C123.48 1.11728 123.651 1.11111 123.736 1.11111C123.822 1.09877 123.907 1.09259 123.993 1.09259C124.249 1.05556 124.377 1.03086 124.377 1.01852C124.463 1.00617 124.463 0.993827 124.377 0.981482C124.206 0.981482 124.121 0.981482 124.121 0.981482C124.121 0.969136 124.078 0.962963 123.993 0.962963H123.864C123.266 0.962963 122.967 1.00617 122.967 1.09259ZM52.5718 0.851852C52.9993 0.864198 53.5122 0.87037 54.1105 0.87037C54.2815 0.87037 54.4952 0.845679 54.7517 0.796296C54.3242 0.783951 53.9396 0.777778 53.5976 0.777778C53.3412 0.777778 52.9993 0.802469 52.5718 0.851852Z" fill="#1C98A6"/>
<path d="M174.886 48.2737C174.856 48.7103 174.822 49.0873 174.784 49.4047C174.746 49.7222 174.678 49.9206 174.58 50C174.504 50 174.424 49.9405 174.341 49.8214C174.212 49.623 174.148 49.2262 174.148 48.6309C174.155 47.5991 174.144 46.5475 174.114 45.476C174.083 44.6823 174.083 43.8688 174.114 43.0354C174.152 42.1227 174.163 41.1901 174.148 40.2377C174.133 39.2456 174.133 38.2535 174.148 37.2614C174.148 37.1423 174.144 37.0431 174.136 36.9638C174.121 36.8447 174.114 36.7257 174.114 36.6066C174.076 35.932 174.072 35.3565 174.102 34.8803C174.148 34.166 174.167 33.4517 174.159 32.7374C174.152 32.0231 174.152 31.2889 174.159 30.5349V29.1063C174.159 28.6698 174.167 28.3523 174.182 28.1539C174.227 27.7174 174.25 27.261 174.25 26.7848C174.242 26.3086 174.231 25.8125 174.216 25.2966C174.223 25.0982 174.235 24.8799 174.25 24.6418C174.258 24.364 174.261 24.1259 174.261 23.9275C174.269 23.7291 174.273 23.5307 174.273 23.3323C174.265 23.1338 174.261 22.9354 174.261 22.737C174.246 22.1417 174.235 21.5465 174.227 20.9512C174.212 20.3163 174.212 19.7012 174.227 19.1059V18.5702C174.189 17.8558 174.174 17.1217 174.182 16.3677C174.182 15.574 174.182 14.7803 174.182 13.9866C174.189 13.312 174.189 12.6374 174.182 11.9627C174.167 11.2881 174.167 10.6135 174.182 9.93885C174.152 9.34359 174.14 8.74833 174.148 8.15307C174.155 7.55781 174.155 6.96254 174.148 6.36728C174.133 5.77202 174.11 5.21644 174.08 4.70055C174.049 4.14497 174.023 3.56955 174 2.97429C174.023 2.49808 174.072 2.16076 174.148 1.96234C174.216 1.76392 174.277 1.50597 174.33 1.1885C174.398 1.10913 174.462 1.04961 174.523 1.00992C174.583 0.970238 174.648 1.04961 174.716 1.24803C174.723 1.32739 174.731 1.40676 174.739 1.48613C174.746 1.52581 174.754 1.58534 174.761 1.66471C174.777 1.82345 174.792 1.98218 174.807 2.14092C174.814 2.25997 174.826 2.39887 174.841 2.5576C174.902 3.19255 174.943 3.84734 174.966 4.52197C174.989 5.1966 175 5.87123 175 6.54586C174.992 6.86333 174.989 7.14112 174.989 7.37923C174.989 7.61733 174.989 7.89512 174.989 8.21259C174.973 8.64912 174.966 9.08564 174.966 9.52217C174.958 9.9587 174.962 10.3952 174.977 10.8317C174.985 11.3476 174.977 11.8437 174.955 12.3199C174.932 12.7961 174.928 13.2723 174.943 13.7485C174.905 14.7803 174.894 15.7923 174.909 16.7844C174.917 17.7765 174.917 18.7686 174.909 19.7607C174.909 20.1178 174.909 20.4552 174.909 20.7726C174.909 21.0901 174.902 21.4076 174.886 21.725C174.886 22.0425 174.886 22.36 174.886 22.6775C174.886 22.9949 174.879 23.3323 174.864 23.6894C174.848 24.0069 174.848 24.3244 174.864 24.6418C174.871 24.9196 174.875 25.2173 174.875 25.5347C174.89 25.7331 174.89 25.9117 174.875 26.0705C174.837 26.626 174.822 27.1816 174.83 27.7372C174.837 28.2531 174.848 28.7888 174.864 29.3444C174.871 29.5428 174.875 29.7611 174.875 29.9992C174.875 30.2373 174.875 30.4556 174.875 30.654C174.883 32.3604 174.886 34.047 174.886 35.7137C174.886 37.3408 174.886 39.0273 174.886 40.7734C174.902 41.2893 174.905 41.7854 174.898 42.2616C174.89 42.6981 174.879 43.1545 174.864 43.6307C174.848 44.0672 174.841 44.4839 174.841 44.8807C174.833 45.2379 174.822 45.6347 174.807 46.0713C174.799 46.7459 174.826 47.4801 174.886 48.2737ZM174.773 5.35534C174.758 5.03786 174.746 4.76007 174.739 4.52197C174.723 4.24418 174.708 3.94655 174.693 3.62907C174.67 3.51002 174.648 3.37113 174.625 3.21239C174.602 3.05365 174.572 2.91476 174.534 2.79571C174.527 2.71634 174.515 2.6965 174.5 2.73618C174.485 2.77586 174.47 2.79571 174.455 2.79571L174.443 2.97429C174.413 3.88702 174.42 4.83944 174.466 5.83154C174.527 5.75218 174.583 5.67281 174.636 5.59344C174.682 5.51407 174.727 5.4347 174.773 5.35534Z" fill="#1C98A6"/>
</svg>
