<svg width="25" height="25" viewBox="0 0 25 25" fill="none" xmlns="http://www.w3.org/2000/svg">
<path d="M7.7335 1.51914C8.132 1.30003 8.56787 1.14179 9.0411 1.04441C9.51432 0.92268 9.96264 0.72792 10.3861 0.460124C10.4608 0.387088 10.5479 0.35057 10.6476 0.35057C10.7472 0.326225 10.8468 0.314053 10.9465 0.314053C11.5442 0.216672 12.1544 0.131464 12.7771 0.0584282C13.3998 -0.0389524 14.0224 -0.0146069 14.6451 0.131465C14.7696 0.180154 14.8817 0.192327 14.9813 0.167982C15.1059 0.143637 15.2304 0.119292 15.3549 0.0949454C15.8032 0.289707 16.2391 0.49664 16.6625 0.715747C17.0859 0.910508 17.472 1.1783 17.8207 1.51914C18.2441 1.64086 18.5928 1.83562 18.8667 2.10342C19.1656 2.34687 19.4521 2.63901 19.726 2.97984C20.274 3.24764 20.7721 3.58847 21.2204 4.00234C21.6687 4.4162 22.1046 4.85442 22.528 5.31697C22.6526 5.4387 22.7522 5.59694 22.8269 5.7917C22.9265 5.96212 22.9888 6.12036 23.0137 6.26643C23.0635 6.50988 23.1258 6.74116 23.2005 6.96027C23.3001 7.15503 23.4122 7.36196 23.5367 7.58107C23.7111 7.9219 23.8605 8.27491 23.9851 8.64008C24.1096 8.98091 24.259 9.32174 24.4334 9.66258C24.4583 9.75996 24.4832 9.85734 24.5081 9.95472C24.533 10.0278 24.5455 10.0886 24.5455 10.1373C24.5455 10.5268 24.5828 10.892 24.6575 11.2328C24.7572 11.5737 24.8194 11.9145 24.8443 12.2553C24.9689 13.0587 25.0187 13.8621 24.9938 14.6655C24.9689 15.4445 24.8692 16.2236 24.6949 17.0026C24.6949 17.4895 24.5704 17.9156 24.3213 18.2807C24.0971 18.6459 23.9352 19.0598 23.8356 19.5223C23.6115 19.8145 23.3997 20.1066 23.2005 20.3988C23.0012 20.6909 22.7895 20.9709 22.5654 21.2387C22.4907 21.3117 22.4658 21.3482 22.4907 21.3482C21.345 22.6385 19.9377 23.5271 18.269 24.014C18.1196 24.0627 17.9701 24.1236 17.8207 24.1966C17.6961 24.2453 17.5592 24.2818 17.4097 24.3062C17.061 24.4279 16.6874 24.5374 16.2889 24.6348C15.9153 24.7079 15.5168 24.7444 15.0934 24.7444C14.67 24.72 14.2217 24.72 13.7484 24.7444C13.3001 24.7687 12.8518 24.8418 12.4035 24.9635C12.2042 24.9878 11.9925 25 11.7684 25C11.5442 24.9757 11.2827 24.9635 10.9838 24.9635C10.6849 24.8418 10.3362 24.72 9.93773 24.5983C9.53923 24.4766 9.15318 24.3062 8.77958 24.0871C8.60523 23.9653 8.40598 23.868 8.18182 23.7949C7.95766 23.7219 7.72105 23.6488 7.47198 23.5758C7.24782 23.5515 7.03611 23.5149 6.83686 23.4663C6.63761 23.4176 6.45081 23.3689 6.27646 23.3202C5.97758 23.2228 5.71606 23.1011 5.49191 22.955C5.29265 22.8089 5.08095 22.6385 4.85679 22.4438C4.533 22.1273 4.20922 21.7986 3.88543 21.4578C3.58655 21.0926 3.21295 20.7883 2.76463 20.5448C2.66501 20.4718 2.50311 20.3014 2.27895 20.0336C2.00498 19.5223 1.75592 18.9868 1.53176 18.4268C1.3076 17.8669 1.09589 17.3069 0.896637 16.747C0.797011 16.6983 0.747198 16.6009 0.747198 16.4549C0.697385 15.8949 0.597758 15.3472 0.448319 14.8116C0.298879 14.276 0.161893 13.7282 0.0373599 13.1683C-0.0124533 12.7301 -0.0124533 12.3284 0.0373599 11.9632C0.11208 11.6224 0.199253 11.3059 0.298879 11.0137C0.398506 10.7216 0.485679 10.4173 0.560399 10.1008C0.784558 9.20002 1.10834 8.37229 1.53176 7.61759C1.95517 6.83854 2.39103 6.0595 2.83935 5.28046C2.88917 5.18307 2.95143 5.09787 3.02615 5.02483C3.12578 4.92745 3.2005 4.85442 3.25031 4.80573C3.54919 4.46489 3.86052 4.14841 4.18431 3.85627C4.50809 3.53978 4.83188 3.19895 5.15567 2.83377L7.7335 1.51914ZM6.6127 3.9293C5.8655 4.61096 5.15567 5.31697 4.48319 6.04733C3.81071 6.75334 3.2005 7.53238 2.65255 8.38446C2.20423 9.04178 1.90535 9.80865 1.75592 10.6851C1.73101 10.8555 1.69365 11.0502 1.64384 11.2694C1.59402 11.4641 1.54421 11.6589 1.4944 11.8536C1.61893 12.0241 1.69365 12.2188 1.71856 12.4379C1.74346 12.657 1.74346 12.8761 1.71856 13.0952C1.66874 13.2657 1.63138 13.4482 1.60648 13.643C1.58157 13.8378 1.54421 14.0082 1.4944 14.1543C1.61893 14.4464 1.71856 14.7142 1.79328 14.9576C1.86799 15.1767 1.91781 15.3837 1.94271 15.5784C2.01743 15.8706 2.0797 16.1506 2.12951 16.4183C2.17933 16.6861 2.22914 16.9539 2.27895 17.2217C2.32877 17.3435 2.39103 17.4652 2.46575 17.5869C2.56538 17.7086 2.62765 17.8304 2.65255 17.9521C2.80199 18.366 3.02615 18.719 3.32503 19.0111C3.62391 19.3032 3.92279 19.5832 4.22167 19.851C4.52055 20.1188 4.81943 20.3501 5.11831 20.5448C5.41719 20.7153 5.71606 20.91 6.01494 21.1291C6.31382 21.2995 6.6127 21.4821 6.91158 21.6769C7.23537 21.8717 7.58406 22.0786 7.95766 22.2977C8.20672 22.3707 8.45579 22.4681 8.70486 22.5898C8.95392 22.6872 9.22789 22.7724 9.52677 22.8455C9.87547 22.8941 10.1993 22.9307 10.4981 22.955C10.8219 22.9794 11.1582 23.028 11.5068 23.1011H11.8431C12.3163 23.2472 12.7895 23.3202 13.2628 23.3202C13.7609 23.2958 14.259 23.2958 14.7572 23.3202C14.9813 23.3202 15.1806 23.2958 15.3549 23.2472C15.5542 23.1985 15.7534 23.1498 15.9527 23.1011C16.5504 22.9307 17.1233 22.7481 17.6712 22.5533C18.2192 22.3342 18.7796 22.1029 19.3524 21.8595C20.3238 21.4213 21.0834 20.7883 21.6314 19.9606C22.0548 19.3032 22.4782 18.5607 22.9016 17.733C22.9763 17.7086 23.0137 17.6113 23.0137 17.4408C23.0635 17.1 23.1382 16.7714 23.2379 16.4549C23.3375 16.114 23.4122 15.7489 23.462 15.3593C23.5118 15.0915 23.5243 14.8359 23.4994 14.5925C23.4994 14.3247 23.462 14.069 23.3873 13.8256C23.3126 13.4604 23.2628 13.0831 23.2379 12.6935C23.2129 12.2797 23.1756 11.8902 23.1258 11.525C23.1258 11.3302 23.1133 11.1476 23.0884 10.9772C23.0884 10.8068 23.0635 10.6364 23.0137 10.466C22.8144 9.88168 22.6152 9.30957 22.4159 8.74964C22.2167 8.16535 21.868 7.64193 21.3699 7.17938C21.2453 7.15503 21.1582 7.082 21.1083 6.96027C20.9091 6.59509 20.6725 6.26643 20.3985 5.97429C20.1245 5.68215 19.8132 5.39001 19.4645 5.09787C18.9664 4.58662 18.4433 4.11189 17.8954 3.67368C17.721 3.62499 17.5467 3.5763 17.3724 3.52761C17.2229 3.47892 17.0486 3.43023 16.8493 3.38154C16.6501 3.25981 16.4508 3.16243 16.2516 3.0894C16.0772 3.01636 15.8904 2.94333 15.6912 2.87029C15.3923 2.69987 15.0809 2.56598 14.7572 2.4686C14.4583 2.37122 14.1345 2.34687 13.7858 2.39556C13.5367 2.39556 13.3001 2.34687 13.076 2.24949C12.8767 2.15211 12.6526 2.0669 12.4035 1.99387C12.254 1.99387 12.0797 1.99387 11.8804 1.99387C11.7061 1.99387 11.5193 2.01821 11.32 2.0669C10.9963 2.11559 10.5604 2.21297 10.0125 2.35904C9.48941 2.48077 9.12827 2.59032 8.92902 2.6877C8.58032 2.93115 8.20672 3.13809 7.80822 3.3085C7.43462 3.45457 7.03611 3.66151 6.6127 3.9293Z" fill="black"/>
</svg>
