<svg width="62" height="62" viewBox="0 0 62 62" fill="none" xmlns="http://www.w3.org/2000/svg">
<path d="M11.7614 3.46147C12.2545 4.12885 12.7475 4.79622 13.2406 5.46359C13.7882 6.07267 14.4477 6.62184 15.2191 7.11111C15.7441 7.26669 16.2258 7.70731 16.6643 8.43298C16.9767 8.93513 17.3164 9.40812 17.6833 9.85196C18.0446 10.1824 18.4661 10.568 18.9478 11.0086L20.122 12.0826C20.982 13.1938 21.921 14.1609 22.939 14.9839C23.8968 15.7518 24.8847 16.5472 25.9026 17.3701C27.1558 18.3 28.3544 19.2882 29.4985 20.3347C30.6369 21.2678 31.8327 22.1993 33.0859 23.1292C33.6824 23.5666 34.2516 24.0331 34.7935 24.5288C35.39 24.9662 35.9046 25.4911 36.3375 26.1034C36.409 26.3852 36.5953 26.6638 36.8964 26.9392C37.1373 27.1595 37.4082 27.4074 37.7093 27.6828C39.6192 29.1052 41.4228 30.7008 43.1201 32.4697C44.872 34.1804 46.7057 35.8036 48.6212 37.3393C48.7417 37.4495 48.9195 37.558 49.1547 37.665C49.3899 37.7719 49.5404 37.9096 49.6063 38.0781C50.2913 39.1374 51.1127 40.051 52.0705 40.8189C53.0226 41.4734 53.9474 42.1571 54.845 42.8699C54.9824 43.3201 55.117 43.7137 55.2488 44.0506C55.4351 44.3292 55.5941 44.637 55.7259 44.9739C56.3904 46.7718 57.1583 48.3398 58.0296 49.6777C58.5999 50.7403 59.173 51.8596 59.749 53.0355C60.2647 54.1564 60.8077 55.2481 61.378 56.3107C62.0857 57.8236 62.1895 59.325 61.6894 60.815C61.1871 61.1129 60.7338 61.2392 60.3293 61.1937C59.9248 61.1483 59.4873 61.0187 59.0169 60.8048C58.5409 60.4775 58.095 60.1778 57.6791 59.9057C57.2633 59.6335 56.8174 59.3338 56.3413 59.0065C55.8596 58.5659 55.4108 58.2095 54.995 57.9373C54.5189 57.6101 53.9639 57.427 53.3299 57.388C52.7391 57.064 52.4136 56.8744 52.3533 56.8193C51.4501 55.9932 50.4708 55.3678 49.4152 54.9433C48.4143 54.4604 47.386 54.0068 46.3305 53.5822C45.7942 53.1999 45.3671 52.701 45.049 52.0855C44.7309 51.47 44.3253 50.8285 43.8323 50.1611C42.9893 49.39 42.0588 48.593 41.0408 47.7701C40.0774 46.8888 39.1412 45.9784 38.2323 45.0389C37.8052 44.54 37.3535 44.1269 36.8775 43.7996C36.456 43.4141 35.9771 43.0301 35.4409 42.6478C34.2422 41.6596 33.0464 40.7281 31.8535 39.8533C30.6549 38.8651 29.4591 37.9336 28.2661 37.0588C27.489 36.4562 26.7693 35.8519 26.1069 35.2461C25.4445 34.6402 24.8367 33.976 24.2834 33.2536C23.7904 32.5862 23.2729 32.0047 22.731 31.509C22.1834 30.8999 21.663 30.2617 21.17 29.5943C20.995 29.5424 20.757 29.3788 20.4559 29.1034C19.0391 28.3484 17.8433 27.4169 16.8685 26.3089C15.8881 25.0875 14.8042 24.0961 13.617 23.3347C12.5104 21.8898 11.2431 20.6765 9.81493 19.6947C8.44133 18.6547 7.11945 17.4996 5.84928 16.2296C5.71751 15.8927 5.55847 15.585 5.37216 15.3064C5.24039 14.9694 5.07851 14.605 4.88653 14.213C4.09241 13.2703 3.27101 12.3566 2.42233 11.4722C1.56799 10.4743 0.773863 9.53155 0.0399503 8.64387C-0.00540024 7.73686 -0.0121403 7.02746 0.0197305 6.51566C-0.00861297 5.94878 0.0533665 5.46453 0.205669 5.06288C0.297753 4.60616 0.447219 4.14783 0.654067 3.68789C0.860911 3.22795 1.17402 2.59473 1.59338 1.78823C2.04108 1.5486 2.51606 1.27982 3.01831 0.981899C3.52056 0.683973 4.05575 0.470274 4.62389 0.340804C5.34999 -0.076937 6.24363 -0.0168534 7.30483 0.521055C7.42525 0.631209 7.57579 0.768905 7.75644 0.93414C7.99162 1.04107 8.16943 1.14962 8.28986 1.25978C8.71703 1.7587 9.25613 2.19771 9.90715 2.57682C10.498 2.90085 11.116 3.19574 11.7614 3.46147ZM52.8643 44.6284C52.0213 43.8573 51.4106 43.1365 51.0323 42.4659C50.5938 41.7402 50.1036 41.1295 49.5617 40.6338C48.8448 40.0863 48.158 39.5662 47.5013 39.0738C46.8389 38.4679 46.2067 37.8896 45.6045 37.3388C44.4002 36.2372 43.1386 35.1373 41.8195 34.0389C40.5005 32.9406 39.2388 31.8407 38.0345 30.7391C37.8539 30.5739 37.7278 30.3503 37.6562 30.0685C36.9223 29.1808 36.1668 28.4356 35.3896 27.833C34.6069 27.117 33.7667 26.4026 32.8691 25.6898L29.7079 22.7982C28.799 21.8586 27.6907 20.9531 26.383 20.0815C25.0037 18.9281 23.6846 17.8297 22.4258 16.7864C21.1068 15.6881 19.7905 14.6464 18.4772 13.6615C18.242 13.5545 18.0642 13.446 17.9437 13.3358C17.7631 13.1706 17.5279 13.0637 17.2382 13.015C17.2438 13.1284 17.2768 13.2126 17.337 13.2677L17.4273 13.3503C17.9692 13.846 18.5112 14.3417 19.0531 14.8374C19.6496 15.2748 20.1614 15.743 20.5886 16.2419C21.2509 16.8478 21.8258 17.4277 22.3132 17.9817C22.8006 18.5357 23.3152 19.0606 23.8572 19.5563C26.5009 21.8663 29.0601 24.2072 31.5345 26.5787C32.4491 27.6317 33.4154 28.5696 34.4333 29.3925C35.4456 30.1021 36.3818 31.0125 37.2418 32.1237C38.5552 33.1087 39.8441 34.1795 41.1087 35.3362C42.3129 36.4377 43.49 37.5684 44.6397 38.7283C45.4827 39.4994 46.3558 40.298 47.259 41.1242C48.2168 41.8921 49.1445 42.6324 50.042 43.3452C50.3431 43.6206 50.7015 43.8944 51.1174 44.1665C51.473 44.3836 52.0553 44.5376 52.8643 44.6284ZM9.80851 16.1186C9.80851 16.1186 9.8744 16.287 10.0062 16.6239C10.9753 17.6186 11.9199 18.699 12.8402 19.8653C13.7547 20.9182 14.8085 21.8821 16.0014 22.7569L16.5434 23.2526C17.4034 24.3638 18.3753 25.4151 19.4592 26.4066C20.5374 27.2846 21.6428 28.1335 22.7756 28.9532C23.2459 29.1671 23.6345 29.4684 23.9412 29.8572C24.1878 30.1908 24.4917 30.5229 24.853 30.8534C25.346 31.5208 25.9237 32.1574 26.5861 32.7632C27.1882 33.314 27.875 33.834 28.6465 34.3233C29.3577 34.7575 30.0445 35.2775 30.7069 35.8834C31.309 36.4342 31.8867 37.0708 32.44 37.7932C32.6865 38.1269 32.9904 38.459 33.3517 38.7895C33.6528 39.0649 33.9539 39.3402 34.255 39.6156C35.0923 40.2734 35.8995 40.9035 36.6766 41.5062C37.4538 42.1088 38.2309 42.7115 39.008 43.3141C39.7851 43.9167 40.5651 44.5761 41.3479 45.2921C42.125 45.8947 42.9021 46.4974 43.6792 47.1C43.8599 47.2652 44.1854 47.4548 44.6558 47.6687C44.6933 47.2702 44.5615 46.9333 44.2605 46.6579C43.4777 45.9419 42.6977 45.2826 41.9206 44.68C41.1378 43.9639 40.355 43.2479 39.5722 42.5319C38.9474 41.5276 38.2163 40.6966 37.379 40.0389C36.4814 39.3261 35.5839 38.6133 34.6863 37.9005C34.4455 37.6802 34.2046 37.4599 33.9638 37.2396C33.7775 36.961 33.594 36.7391 33.4133 36.5738C33.0407 36.0166 32.6465 35.6019 32.2306 35.3297C31.8091 34.9442 31.3905 34.6153 30.9746 34.3432C30.5099 34.2427 30.1543 34.0256 29.9078 33.6919C29.0648 32.9208 28.1945 32.1788 27.297 31.466C26.3937 30.6399 25.5451 29.7554 24.7509 28.8126C23.7762 27.7046 22.6321 26.6582 21.3187 25.6732C20.6018 25.1256 19.9122 24.5489 19.2498 23.9431C18.5272 23.2821 17.8592 22.5629 17.2457 21.7853C15.1325 19.7442 12.9432 17.904 10.6777 16.2645C10.5573 16.1543 10.4124 16.13 10.2431 16.1915C10.1284 16.1947 9.98349 16.1704 9.80851 16.1186ZM58.5897 55.7077C57.6071 53.2943 56.6745 51.3052 55.7918 49.7405C54.9637 48.1175 54.3718 47.1974 54.0162 46.9803C53.5026 47.0515 53.0549 47.2911 52.6731 47.6992C52.2856 47.9939 51.9009 48.3453 51.5191 48.7534C51.4213 49.0967 51.2662 49.4417 51.0537 49.7883C50.8957 50.0765 50.7406 50.4215 50.5883 50.8231C50.2497 50.9462 49.9986 51.0951 49.8349 51.27C49.6111 51.3898 49.3026 51.5404 48.9094 51.7217C48.6855 51.8415 48.5821 52.0715 48.5991 52.4116C48.6161 52.7518 48.715 53.0044 48.8956 53.1697C49.1365 53.39 49.3143 53.4985 49.429 53.4953C50.6709 54.1985 51.907 54.7882 53.1375 55.2646C54.3078 55.6859 55.511 56.1915 56.7472 56.7812C57.1085 57.1117 57.5948 57.0697 58.2061 56.6552C58.3152 56.5386 58.3942 56.3944 58.4431 56.2227C58.4317 55.996 58.4806 55.8243 58.5897 55.7077ZM2.72618 7.2061C3.20223 7.53335 3.64817 7.83306 4.064 8.10523C4.41962 8.32233 4.74797 8.56857 5.04904 8.84396C5.46487 9.11613 5.85343 9.41745 6.21472 9.74792C6.57601 10.0784 6.96174 10.323 7.3719 10.4818C7.49233 10.592 7.60992 10.6454 7.72468 10.6422C7.77923 10.5839 7.89399 10.5807 8.06897 10.6326C8.40191 10.3962 8.67747 10.1614 8.89566 9.92817C9.11384 9.69498 9.3593 9.43264 9.63203 9.14115C9.90476 8.84967 10.1803 8.61487 10.4587 8.43676C10.7917 8.20035 11.0945 7.9364 11.3672 7.64491C11.3502 7.30479 11.3417 7.13473 11.3417 7.13473C10.9089 6.52243 10.3914 5.94089 9.78924 5.39011C9.18709 4.83933 8.72698 4.25618 8.40891 3.64066C7.62612 2.92465 6.86033 2.54876 6.11155 2.51299C5.71839 2.69432 5.29796 2.9048 4.85026 3.14443C4.40255 3.38406 3.92758 3.65283 3.42533 3.95076C3.33324 4.40748 3.21388 4.89335 3.06725 5.40837C2.92062 5.92339 2.80693 6.52263 2.72618 7.2061ZM46.8883 49.2239C46.7133 49.172 46.5685 49.1477 46.4537 49.1509C46.2787 49.0991 46.1611 49.0456 46.1009 48.9905C45.8714 48.997 45.7021 49.0585 45.593 49.1751L45.61 49.5152C45.6702 49.5703 45.7605 49.6529 45.881 49.7631C45.9957 49.7598 46.1133 49.8133 46.2338 49.9235C46.2996 50.0919 46.4746 50.1438 46.7587 50.079C46.928 50.0175 47.0371 49.9009 47.086 49.7293C47.0746 49.5025 47.0087 49.3341 46.8883 49.2239Z" fill="#2F2D2E"/>
</svg>
