<svg width="47" height="90" viewBox="0 0 47 90" fill="none" xmlns="http://www.w3.org/2000/svg">
<path d="M42.1383 0C43.4861 0.504205 44.16 1.17648 44.16 2.01681C44.16 2.77311 44.0156 3.4874 43.7268 4.15967C43.5342 4.83193 43.0047 5.42017 42.1383 5.92438C41.7532 5.92438 41.32 5.96639 40.8386 6.05042C40.3572 6.05042 39.8759 6.05042 39.3945 6.05042C38.9132 6.30252 38.6725 6.51261 38.6725 6.68068C38.0948 8.36135 37.6135 10.084 37.2284 11.8487C36.8433 13.5294 36.6989 15.2521 36.7952 17.0168C36.8914 18.4454 36.8914 19.8319 36.7952 21.1765C36.7952 22.437 36.7952 23.7815 36.7952 25.2101C36.6989 25.8824 36.6508 26.5126 36.6508 27.1008C36.747 27.6891 36.7952 28.2773 36.7952 28.8655C36.8914 29.874 36.9877 30.9244 37.084 32.0168C37.1803 33.1092 37.2765 34.2017 37.3728 35.2941C37.3728 35.6303 37.3728 35.9244 37.3728 36.1765C37.4691 36.3445 37.5172 36.6387 37.5172 37.0588C37.5172 37.7311 37.2765 38.2773 36.7952 38.6975C36.6026 38.6975 36.5064 38.8235 36.5064 39.0756C35.1585 39.7479 34.0033 40.6303 33.0406 41.7227C32.1741 42.7311 31.3558 43.7815 30.5856 44.874C30.1043 45.5462 29.5748 46.2185 28.9971 46.8908C28.4195 47.563 27.89 48.2773 27.4086 49.0336C27.4086 49.4538 27.5049 49.7479 27.6975 49.916C28.0826 50.5042 28.4195 51.0924 28.7083 51.6807C28.9971 52.2689 29.3341 52.8992 29.7192 53.5714C30.2005 54.3277 30.6338 55.084 31.0188 55.8403C31.5002 56.5126 32.0297 57.1849 32.6073 57.8571C32.6073 58.0252 32.7999 58.2773 33.185 58.6134C33.3775 58.7815 33.5701 58.9076 33.7626 58.9916C34.5328 59.1597 35.2548 59.2857 35.9287 59.3698C36.6026 59.4538 37.3247 59.5378 38.0948 59.6218C38.865 59.6218 39.3945 59.5798 39.6833 59.4958C40.7423 59.2437 41.705 59.2437 42.5715 59.4958C43.4379 59.7479 44.4007 59.958 45.4596 60.1261C45.941 60.2101 46.3261 60.5462 46.6149 61.1345C47 61.7227 47.0963 62.2269 46.9037 62.6471C46.7112 63.1513 46.5186 63.6555 46.3261 64.1597C46.1336 64.6639 45.8447 65.084 45.4596 65.4202C44.3044 66.4286 43.2454 67.479 42.2827 68.5714C41.4162 69.6639 40.3091 70.6303 38.9613 71.4706C38.865 71.5546 38.7687 71.6807 38.6725 71.8487C37.2284 72.9412 36.8914 74.2017 37.6616 75.6303C38.3355 76.8908 39.0094 78.1933 39.6833 79.5378C40.4535 80.7983 41.3681 82.0168 42.4271 83.1933C42.6196 83.8655 42.8122 84.4958 43.0047 85.084C43.1973 85.5882 43.3898 86.0504 43.5823 86.4706C43.5823 87.479 43.101 88.1092 42.1383 88.3613C40.0203 87.9412 38.2392 87.521 36.7952 87.1008C35.4474 86.6807 34.0033 86.0924 32.4629 85.3361C32.0778 85.1681 31.7409 85.042 31.4521 84.958C31.1633 84.8739 30.8263 84.7899 30.4412 84.7059C29.7673 84.4538 29.0934 84.2857 28.4195 84.2017C27.8419 84.0336 27.168 83.8235 26.3978 83.5714C25.8202 83.4034 25.2425 83.2773 24.6649 83.1933C24.1835 83.0252 23.654 82.8571 23.0764 82.6891C21.151 83.3613 19.2737 84.0756 17.4445 84.8319C15.6153 85.5042 13.8824 86.3025 12.2458 87.2269C11.3794 87.7311 10.4648 88.2353 9.50205 88.7395C8.6356 89.1597 7.72102 89.5798 6.7583 90C5.89185 89.916 5.31422 89.6218 5.0254 89.1176C4.73658 88.6975 4.54404 88.1513 4.44777 87.479C5.0254 86.3025 5.5549 85.1681 6.03626 84.0756C6.61389 82.9832 7.19152 81.8908 7.76915 80.7983C8.53933 79.2017 9.50205 77.8992 10.6573 76.8908C10.8499 76.6387 10.9943 76.3866 11.0905 76.1345C11.2831 75.8824 11.3794 75.5462 11.3794 75.1261C11.0905 74.7899 10.7536 74.4958 10.3685 74.2437C10.0797 73.9076 9.74273 73.5714 9.35764 73.2353C7.72102 72.2269 6.13253 71.2605 4.59218 70.3361C3.91827 69.916 3.24437 69.4538 2.57046 68.9496C1.89656 68.4454 1.22265 67.9412 0.54875 67.437C0.259934 67.1849 0.115526 66.6387 0.115526 65.7983C0.404342 64.6218 1.12638 63.6975 2.28165 63.0252C3.91827 63.0252 5.5549 62.8992 7.19152 62.6471C8.15424 62.563 9.02069 62.437 9.79087 62.2689C10.6573 62.1008 11.4756 61.9328 12.2458 61.7647C12.5346 61.5966 12.7753 61.4706 12.9678 61.3866C13.2567 61.3025 13.4492 61.1765 13.5455 61.0084C14.2194 59.6639 14.9414 58.4454 15.7116 57.3529C16.578 56.1765 17.3964 55 18.1665 53.8235C18.3591 53.4874 18.5516 53.1933 18.7442 52.9412C18.9367 52.521 18.9848 52.1008 18.8886 51.6807C18.8886 51.2605 18.696 50.8403 18.3109 50.4202C18.0221 49.8319 17.5889 49.3697 17.0113 49.0336C16.8187 48.7815 16.578 48.5714 16.2892 48.4034C16.0967 48.1513 15.9041 47.8992 15.7116 47.6471C14.9414 46.0504 13.8824 44.6218 12.5346 43.3613C11.2831 42.1008 9.98341 40.8824 8.6356 39.7059C8.15424 39.2857 7.76915 38.9076 7.48034 38.5714C7.38406 38.1513 7.28779 37.7731 7.19152 37.437C7.19152 37.0168 7.14338 36.5546 7.04711 36.0504C6.85457 35.6303 6.71016 35.2101 6.61389 34.7899C6.61389 34.2857 6.51762 33.7815 6.32507 33.2773C6.42134 32.8571 6.56575 32.395 6.7583 31.8908C6.95084 31.3866 7.09525 30.8403 7.19152 30.2521C7.28779 29.8319 7.28779 29.4118 7.19152 28.9916C7.19152 28.4874 7.19152 28.0252 7.19152 27.605C7.38406 26.1765 7.4322 24.8319 7.33593 23.5714C7.33593 22.2269 7.52847 20.8403 7.91356 19.4118C8.00983 18.7395 7.9617 18.1092 7.76915 17.521C7.67288 16.8487 7.72102 16.1765 7.91356 15.5042C8.1061 14.916 8.20238 14.3277 8.20238 13.7395C8.29865 13.0672 8.34678 12.395 8.34678 11.7227C8.34678 11.5546 8.29865 11.3445 8.20238 11.0924C8.1061 10.8403 8.00983 10.6303 7.91356 10.4622C7.81729 10.2941 7.67288 10.2101 7.48034 10.2101C7.38406 10.1261 7.28779 10 7.19152 9.83193C6.71016 9.7479 6.2288 9.78992 5.74744 9.95799C5.36235 10.042 4.97726 10.1681 4.59218 10.3361C3.91827 10.3361 3.2925 10.2101 2.71487 9.95799C2.23351 9.70589 1.75215 9.45378 1.27079 9.20168C0.789431 8.86555 0.404342 8.52941 0.115526 8.19328C-0.0770176 7.85715 -0.0288817 7.35295 0.259934 6.68068C0.548751 6.51261 0.837567 6.30252 1.12638 6.05042C1.51147 5.79832 1.89656 5.63025 2.28165 5.54622C3.53318 5.29412 4.78472 5 6.03626 4.66387C7.28779 4.32773 8.58746 4.20169 9.93527 4.28572C11.0905 4.28572 12.1014 4.15967 12.9678 3.90757C13.4492 3.82353 13.8343 3.78152 14.1231 3.78152C14.5082 3.69748 14.797 3.65547 14.9896 3.65547C16.6262 3.4874 18.1665 3.36135 19.6106 3.27731C21.0547 3.19328 22.4506 2.94118 23.7984 2.52101C25.1463 2.18488 26.4941 1.97479 27.8419 1.89076C29.286 1.72269 30.6819 1.51261 32.0297 1.26051C32.9924 1.09244 33.8589 0.966389 34.629 0.882357C35.4955 0.798324 36.3619 0.714289 37.2284 0.630251C37.9986 0.630251 38.7687 0.588235 39.5389 0.504203C40.3091 0.336138 41.1755 0.16807 42.1383 0ZM28.2751 24.5798C28.0826 24.5798 27.9381 24.6219 27.8419 24.7059C27.7456 24.7059 27.6012 24.7479 27.4086 24.8319V25.3361C27.4086 25.4202 27.4568 25.4622 27.5531 25.4622C27.6493 25.4622 27.6975 25.5462 27.6975 25.7143C27.89 25.3782 27.9863 25.2101 27.9863 25.2101C28.1788 24.958 28.2751 24.7059 28.2751 24.4538C28.3714 24.2017 28.612 24.0336 28.9971 23.9496V23.3193L28.7083 23.0672C28.5158 23.0672 28.4195 23.2353 28.4195 23.5714C28.4195 23.9916 28.3714 24.3277 28.2751 24.5798ZM26.2534 28.9916C26.0608 29.0756 25.8202 29.2437 25.5313 29.4958L25.3869 29.6219C25.3869 29.7059 25.4351 29.7899 25.5313 29.874C25.5313 30.042 25.5795 30.126 25.6757 30.126C25.6757 30.126 25.772 29.958 25.9646 29.6219V28.8655C26.4459 29.0336 26.6866 28.9916 26.6866 28.7395C26.8792 28.5714 26.8792 28.4454 26.6866 28.3613C26.5903 28.2773 26.4941 28.2773 26.3978 28.3613C26.3015 28.3613 26.2534 28.5714 26.2534 28.9916ZM23.0764 45.5042C22.595 45.5042 22.2581 45.5462 22.0655 45.6303C21.5842 45.6303 21.4879 45.7983 21.7767 46.1345H22.21L22.932 45.5042C23.1245 45.3361 23.2689 45.2521 23.3652 45.2521C23.4615 45.1681 23.5578 45.084 23.654 45H23.5096C23.4134 45 23.3652 45 23.3652 45C23.3652 44.916 23.3171 44.874 23.2208 44.874C23.0283 44.958 22.9801 45.1681 23.0764 45.5042ZM40.983 64.1597C40.8867 64.0756 40.7905 63.9916 40.6942 63.9076C40.6942 63.7395 40.5979 63.6555 40.4054 63.6555C40.1166 63.5714 39.6352 63.5294 38.9613 63.5294C37.9023 63.2773 36.8433 63.1513 35.7843 63.1513C34.8216 63.0672 33.8107 63.1933 32.7517 63.5294H31.1633C30.3931 63.4454 29.7192 63.1513 29.1415 62.6471C28.6602 62.1429 28.3714 61.5126 28.2751 60.7563V59.8739C27.7937 59.1176 27.3605 58.4454 26.9754 57.8571C26.6866 57.2689 26.4459 56.7227 26.2534 56.2185C26.0608 55.9664 25.8683 55.7143 25.6757 55.4622C25.5795 55.1261 25.4351 54.8319 25.2425 54.5798C24.8574 54.1597 24.4242 53.8235 23.9429 53.5714C23.5578 53.2353 23.0283 53.1513 22.3544 53.3193C21.9693 53.9076 21.7286 54.4958 21.6323 55.084C21.5361 55.6723 21.3435 56.2605 21.0547 56.8487C20.7659 57.3529 20.6215 57.9412 20.6215 58.6134C20.7177 59.2857 20.6696 59.958 20.4771 60.6303C20.092 60.9664 19.7069 61.3025 19.3218 61.6387C18.9367 61.9748 18.5516 62.395 18.1665 62.8992C17.5889 63.8235 16.8669 64.4958 16.0004 64.916C15.2302 65.2521 14.3156 65.5462 13.2567 65.7983C12.1014 65.8824 10.9461 66.0924 9.79087 66.4286C8.82815 66.5966 8.15424 66.7227 7.76915 66.8067C7.76915 66.9748 7.72102 67.1849 7.62474 67.437C7.52847 67.605 7.48034 67.7311 7.48034 67.8151C7.9617 68.2353 8.34679 68.6134 8.6356 68.9496C9.02069 69.2017 9.30951 69.4118 9.50205 69.5798C10.2722 70.1681 10.9461 70.5462 11.5238 70.7143C12.1977 70.7983 12.7753 71.0504 13.2567 71.4706C13.5455 71.8908 13.8343 72.3529 14.1231 72.8571C14.4119 73.2773 14.6045 73.8235 14.7007 74.4958C14.6045 74.8319 14.5563 75.2941 14.5563 75.8824C14.5563 76.3866 14.4601 76.8908 14.2675 77.395C13.7862 78.0672 13.3529 78.6975 12.9678 79.2857C12.679 79.874 12.3421 80.5042 11.957 81.1765C11.8607 81.4286 11.8126 81.7227 11.8126 82.0588C11.8126 82.2269 11.8126 82.3529 11.8126 82.437C11.9088 82.521 12.0051 82.6471 12.1014 82.8151C12.7753 82.6471 13.3529 82.479 13.8343 82.3109C14.4119 82.1429 15.0377 81.8908 15.7116 81.5546C16.3855 81.1345 17.2038 80.6303 18.1665 80.042C19.1293 79.3698 20.4289 78.5294 22.0655 77.521C22.5469 77.6891 23.0764 77.8992 23.654 78.1513C24.3279 78.3193 25.05 78.4874 25.8202 78.6555C26.5903 78.8235 27.2642 79.1176 27.8419 79.5378C28.4195 79.958 29.0934 80.2941 29.8636 80.5462C30.6338 80.8824 31.4521 81.1345 32.3185 81.3025C33.185 81.3866 33.9551 81.7227 34.629 82.3109C34.8216 82.395 35.0141 82.479 35.2067 82.563C35.4955 82.6471 35.8325 82.7311 36.2175 82.8151C36.2175 82.563 36.2657 82.3529 36.3619 82.1849C36.5545 81.9328 36.6026 81.7227 36.5064 81.5546C36.3138 80.7983 36.025 80.084 35.6399 79.4118C35.3511 78.7395 34.8697 78.0672 34.1958 77.395C33.4256 76.5546 33.1368 75.4202 33.3294 73.9916C33.4256 73.5714 33.5219 73.1513 33.6182 72.7311C33.7145 72.2269 33.8107 71.7647 33.907 71.3445C34.3884 70.7563 34.9179 70.1681 35.4955 69.5798C36.0731 68.9916 36.6508 68.4034 37.2284 67.8151C37.7098 67.1429 38.3355 66.5966 39.1057 66.1765C39.9721 65.7563 40.5979 65.084 40.983 64.1597ZM23.654 35.042C23.5578 35.042 23.5096 35 23.5096 34.916C23.5096 34.8319 23.4134 34.7899 23.2208 34.7899C23.1245 34.874 23.0283 34.958 22.932 35.042C22.8357 35.042 22.6913 35.1261 22.4988 35.2941C22.1137 35.6303 22.1137 35.8824 22.4988 36.0504C22.8839 36.2185 23.1245 36.1765 23.2208 35.9244C23.4134 35.7563 23.5096 35.6303 23.5096 35.5462C23.5096 35.3782 23.5578 35.2101 23.654 35.042ZM21.6323 28.9916C21.6323 28.8235 21.5842 28.6555 21.4879 28.4874C21.4879 28.5714 21.4398 28.6555 21.3435 28.7395L21.1991 28.8655C21.1028 29.3698 21.1991 29.5378 21.4879 29.3697C21.4879 29.3697 21.5361 29.3277 21.6323 29.2437V28.9916Z" fill="#262425"/>
</svg>
