<svg width="479" height="1" viewBox="0 0 479 1" fill="none" xmlns="http://www.w3.org/2000/svg">
<path d="M16.8751 0.886364C12.6078 0.856061 8.92246 0.82197 5.81899 0.784091C2.71553 0.746212 0.775866 0.67803 0 0.579545C0 0.503788 0.5819 0.424242 1.7457 0.340909C3.68536 0.212121 7.56469 0.147727 13.3837 0.147727C23.4699 0.155303 33.7502 0.143939 44.2243 0.113637C51.983 0.0833335 59.9356 0.0833335 68.0822 0.113637C77.0047 0.151515 86.1211 0.162879 95.4315 0.147727C105.13 0.132576 114.828 0.132576 124.526 0.147727C125.69 0.147727 126.66 0.143939 127.436 0.136364C128.6 0.121212 129.764 0.113637 130.927 0.113637C137.522 0.0757576 143.147 0.0719697 147.802 0.102273C154.785 0.147727 161.768 0.166667 168.751 0.159091C175.734 0.151515 182.91 0.151515 190.281 0.159091H204.247C208.514 0.159091 211.617 0.166667 213.557 0.181818C217.824 0.227273 222.285 0.25 226.941 0.25C231.596 0.242424 236.445 0.231061 241.488 0.215909C243.428 0.223485 245.561 0.234849 247.889 0.25C250.605 0.257576 252.932 0.261364 254.872 0.261364C256.812 0.26894 258.751 0.272727 260.691 0.272727C262.63 0.265152 264.57 0.261364 266.51 0.261364C272.329 0.246212 278.148 0.234848 283.967 0.227273C290.174 0.212121 296.187 0.212121 302.006 0.227273H307.243C314.226 0.189394 321.402 0.174243 328.773 0.181818C336.532 0.181818 344.29 0.181818 352.049 0.181818C358.644 0.189394 365.239 0.189394 371.834 0.181818C378.428 0.166667 385.023 0.166667 391.618 0.181818C397.437 0.151515 403.256 0.140152 409.075 0.147727C414.894 0.155303 420.713 0.155303 426.532 0.147727C432.351 0.132576 437.782 0.109849 442.825 0.0795454C448.256 0.0492424 453.881 0.0227272 459.7 0C464.356 0.0227272 467.653 0.0719697 469.593 0.147727C471.532 0.215909 474.054 0.276515 477.157 0.329546C477.933 0.397727 478.515 0.462121 478.903 0.522727C479.291 0.583333 478.515 0.647727 476.575 0.715909C475.8 0.723485 475.024 0.731061 474.248 0.738636C473.86 0.746212 473.278 0.753788 472.502 0.761364C470.95 0.776515 469.399 0.791667 467.847 0.806818C466.683 0.814394 465.325 0.825758 463.774 0.840909C457.567 0.901515 451.166 0.943182 444.571 0.965909C437.976 0.988636 431.381 1 424.786 1C421.683 0.992424 418.967 0.988636 416.64 0.988636C414.312 0.988636 411.597 0.988636 408.493 0.988636C404.226 0.973485 399.959 0.965909 395.691 0.965909C391.424 0.958333 387.157 0.962121 382.89 0.977273C377.847 0.984849 372.997 0.977273 368.342 0.954546C363.687 0.931818 359.032 0.92803 354.377 0.943182C344.29 0.905303 334.398 0.893939 324.7 0.909091C315.001 0.916667 305.303 0.916667 295.605 0.909091C292.113 0.909091 288.816 0.909091 285.712 0.909091C282.609 0.909091 279.506 0.901515 276.402 0.886364C273.299 0.886364 270.195 0.886364 267.092 0.886364C263.988 0.886364 260.691 0.878788 257.199 0.863636C254.096 0.848485 250.993 0.848485 247.889 0.863636C245.174 0.871212 242.264 0.875 239.161 0.875C237.221 0.890152 235.475 0.890152 233.923 0.875C228.492 0.837121 223.061 0.82197 217.63 0.829546C212.587 0.837121 207.35 0.848485 201.919 0.863636C199.979 0.871212 197.846 0.875 195.518 0.875C193.191 0.875 191.057 0.875 189.117 0.875C172.436 0.882576 155.949 0.886364 139.656 0.886364C123.751 0.886364 107.263 0.886364 90.1944 0.886364C85.1513 0.901515 80.3021 0.905303 75.6469 0.897727C71.3796 0.890152 66.9184 0.878788 62.2632 0.863636C57.996 0.848485 53.9227 0.840909 50.0433 0.840909C46.5519 0.833333 42.6726 0.82197 38.4053 0.806818C31.8105 0.799243 24.6337 0.825758 16.8751 0.886364ZM436.424 0.772727C439.528 0.757576 442.243 0.746212 444.571 0.738636C447.286 0.723485 450.196 0.708333 453.299 0.693182C454.463 0.670455 455.821 0.647727 457.373 0.625C458.924 0.602273 460.282 0.57197 461.446 0.534091C462.222 0.526515 462.416 0.515152 462.028 0.5C461.64 0.484848 461.446 0.469697 461.446 0.454546L459.7 0.443182C450.778 0.412879 441.468 0.420455 431.769 0.465909C432.545 0.526515 433.321 0.583333 434.097 0.636364C434.873 0.681818 435.649 0.727273 436.424 0.772727Z" fill="#1C98A6"/>
</svg>
