<svg width="45" height="40" viewBox="0 0 45 40" fill="none" xmlns="http://www.w3.org/2000/svg">
<path d="M20.6973 29.6608C20.7535 29.4435 20.7816 29.2397 20.7816 29.0495C20.7816 28.8321 20.7535 28.6147 20.6973 28.3974C20.6411 27.9898 20.5849 27.5822 20.5287 27.1747C20.4725 26.7399 20.4866 26.3188 20.5709 25.9112C20.6271 25.6395 20.6833 25.4221 20.7395 25.2591C20.7957 24.9874 20.8238 24.7836 20.8238 24.6477C20.8519 24.1587 20.8519 23.656 20.8238 23.1397C20.7957 22.6235 20.7535 22.0529 20.6973 21.4279C20.7535 21.2921 20.8097 21.1019 20.8659 20.8574C20.9221 20.6128 20.9221 20.3411 20.8659 20.0422C21.0064 19.689 21.0204 19.3493 20.908 19.0233C20.8238 18.6972 20.8097 18.344 20.8659 17.9636C20.9221 17.9093 20.9642 17.8413 20.9923 17.7598C21.0204 17.6511 21.0626 17.5696 21.1188 17.5153C21.1188 17.3794 21.1047 17.2436 21.0766 17.1077C21.0766 16.9719 20.9783 16.8768 20.7816 16.8224C20.5568 16.8768 20.318 16.9447 20.0651 17.0262C19.8404 17.0805 19.6156 17.1621 19.3908 17.2707C18.8289 17.4881 18.3653 17.4066 18 17.0262V16.4964C18.1405 16.279 18.281 16.1024 18.4215 15.9665C18.5619 15.8035 18.7024 15.6269 18.8429 15.4367C19.0115 15.2193 19.1941 15.0563 19.3908 14.9476C19.5875 14.8117 19.7982 14.6895 20.023 14.5808C20.1635 14.6351 20.2899 14.6759 20.4023 14.7031C20.5428 14.7031 20.6833 14.7166 20.8238 14.7438C21.0485 14.5536 21.175 14.3498 21.2031 14.1325C21.2593 13.9151 21.3155 13.6977 21.3716 13.4804C21.484 13.0728 21.4981 12.638 21.4138 12.1761C21.47 12.0403 21.5262 11.9044 21.5824 11.7686C21.6386 11.6055 21.6948 11.4561 21.751 11.3202C21.8072 11.1844 21.8633 11.0621 21.9195 10.9534C21.9757 10.8447 21.9898 10.7225 21.9617 10.5866C21.9617 10.5323 21.9757 10.4779 22.0038 10.4236C22.0319 10.3692 22.06 10.3149 22.0881 10.2606C22.2848 9.98884 22.3831 9.68996 22.3831 9.3639C22.4393 8.92916 22.6501 8.60311 23.0153 8.38574C23.2401 8.24988 23.4368 8.11402 23.6054 7.97817C23.802 7.81514 23.9987 7.65211 24.1954 7.48908C24.2516 7.43474 24.3078 7.39398 24.364 7.36681C24.4483 7.31247 24.5185 7.25813 24.5747 7.20378C24.6871 7.17661 24.7854 7.14944 24.8697 7.12227C24.9821 7.0951 25.1086 7.06793 25.249 7.04076C25.3614 7.04076 25.4738 7.04076 25.5862 7.04076C25.6986 7.01359 25.7829 7 25.8391 7C26.4291 7.16303 26.9208 7.2853 27.3142 7.36681C27.539 7.42116 27.7356 7.51626 27.9042 7.65211C28.1009 7.78797 28.2976 7.92382 28.4943 8.05968C28.5785 8.38574 28.6488 8.64386 28.705 8.83406C28.7612 8.99709 28.7893 9.16012 28.7893 9.32315C28.7893 9.459 28.7752 9.59486 28.7471 9.73071C28.719 9.86657 28.6769 10.0568 28.6207 10.3013C28.424 10.41 28.2414 10.4779 28.0728 10.5051C27.8199 10.3692 27.6232 10.2062 27.4828 10.016C27.3704 9.79864 27.258 9.58127 27.1456 9.3639C26.9208 9.14653 26.6679 9.03785 26.387 9.03785C26.1341 9.01068 25.8672 8.99709 25.5862 8.99709C25.0524 9.2688 24.8135 9.68996 24.8697 10.2606C24.8697 10.967 24.8276 11.687 24.7433 12.4207C24.6871 12.6652 24.6731 12.9233 24.7011 13.1951C24.7292 13.4396 24.7573 13.6977 24.7854 13.9694C24.7854 14.0781 24.8276 14.1868 24.9119 14.2955C25.1367 14.3498 25.3052 14.3634 25.4176 14.3362L27.4406 14.214C27.6654 14.214 27.8761 14.214 28.0728 14.214C28.2695 14.214 28.4802 14.2819 28.705 14.4178C28.7612 14.5536 28.8033 14.7031 28.8314 14.8661C28.8876 15.0019 28.9438 15.1514 29 15.3144C28.9157 15.5318 28.8033 15.7492 28.6628 15.9665C28.2976 16.0752 27.9042 16.1295 27.4828 16.1295C27.2299 16.1295 26.963 16.1431 26.682 16.1703C26.4291 16.1703 26.1622 16.1839 25.8812 16.2111C25.7407 16.2382 25.6003 16.279 25.4598 16.3333C25.3474 16.3605 25.2209 16.442 25.0805 16.5779C25.0243 16.9311 25.0102 17.2707 25.0383 17.5968C25.0945 17.9229 25.1507 18.2625 25.2069 18.6157C25.2631 18.8603 25.3052 19.1048 25.3333 19.3493C25.3895 19.5667 25.4457 19.7977 25.5019 20.0422C25.53 20.1781 25.5441 20.3003 25.5441 20.409C25.5722 20.4905 25.5862 20.5992 25.5862 20.7351V22.9767C25.5862 23.1941 25.6003 23.3571 25.6284 23.4658C25.7126 23.7647 25.7688 24.0636 25.7969 24.3624C25.825 24.6342 25.8953 24.9195 26.0077 25.2183C26.1201 25.5716 26.1341 25.9384 26.0498 26.3188C25.8812 26.8622 25.8672 27.4328 26.0077 28.0306C26.0639 28.1936 26.092 28.3159 26.092 28.3974C26.0358 29.0495 26.1481 29.6608 26.4291 30.2314C26.4291 30.5575 26.4713 30.8836 26.5556 31.2096C26.6679 31.5357 26.6679 31.8889 26.5556 32.2693C26.5275 32.4323 26.5415 32.6497 26.5977 32.9214C26.6258 33.0573 26.6539 33.1931 26.682 33.329C26.7101 33.4648 26.7522 33.6143 26.8084 33.7773C26.7522 33.9132 26.696 34.0626 26.6398 34.2256C26.5837 34.3886 26.5275 34.5653 26.4713 34.7555C26.3308 34.8098 26.1903 34.8506 26.0498 34.8777C25.9374 34.9049 25.811 34.9457 25.6705 35C25.5581 34.9185 25.3614 34.8098 25.0805 34.6739C25.0243 34.7283 24.94 34.769 24.8276 34.7962C24.7433 34.8234 24.659 34.8641 24.5747 34.9185C24.4061 34.8913 24.2516 34.8641 24.1111 34.837C23.9706 34.7826 23.8301 34.6875 23.6897 34.5517C23.5492 34.4158 23.3384 34.3479 23.0575 34.3479C22.7484 34.4022 22.4534 34.4837 22.1724 34.5924C21.9195 34.6739 21.6526 34.7555 21.3716 34.837C21.3155 34.7555 21.2593 34.6875 21.2031 34.6332C21.1469 34.5517 21.0907 34.4702 21.0345 34.3886C20.9783 34.2528 20.9361 34.1169 20.908 33.9811C20.8799 33.8452 20.8519 33.7094 20.8238 33.5735C20.8238 33.329 20.8238 33.098 20.8238 32.8806C20.8519 32.6361 20.8799 32.4051 20.908 32.1878C20.9361 31.9704 20.9221 31.7666 20.8659 31.5764C20.8378 31.359 20.8378 31.1417 20.8659 30.9243C20.894 30.7069 20.8799 30.5032 20.8238 30.313C20.7957 30.0956 20.7535 29.8782 20.6973 29.6608ZM24.8697 26.9301C25.0664 26.7671 25.0945 26.5769 24.954 26.3595C24.8135 26.4682 24.7573 26.5633 24.7854 26.6448C24.8135 26.7263 24.8557 26.8214 24.9119 26.9301C24.7152 26.9845 24.645 27.066 24.7011 27.1747C24.8135 27.1747 24.8697 27.1475 24.8697 27.0932C24.8697 27.0388 24.8697 26.9845 24.8697 26.9301ZM21.7931 25.7889C21.6526 25.8705 21.5683 25.9656 21.5402 26.0742C21.5121 26.1558 21.484 26.2508 21.4559 26.3595C21.4559 26.6041 21.4419 26.8486 21.4138 27.0932C21.4138 27.3377 21.484 27.5958 21.6245 27.8675C21.8774 27.5687 22.0179 27.2834 22.046 27.0116C22.0741 26.7128 21.9898 26.3052 21.7931 25.7889ZM22.5939 17.9636C22.8186 17.6376 22.931 17.4066 22.931 17.2707C22.9591 17.1349 22.8748 16.9854 22.6782 16.8224C22.5096 16.9854 22.4393 17.1621 22.4674 17.3523C22.4955 17.5153 22.5377 17.7191 22.5939 17.9636ZM23.0996 13.6434L22.8467 13.5211C22.7905 13.5483 22.7484 13.5754 22.7203 13.6026C22.7203 13.6026 22.6922 13.6162 22.636 13.6434C22.5798 13.9694 22.6501 14.2411 22.8467 14.4585C22.931 14.3227 23.0013 14.2004 23.0575 14.0917C23.1137 13.983 23.1277 13.8336 23.0996 13.6434ZM24.6169 31.821C24.4764 31.984 24.3921 32.1063 24.364 32.1878C24.364 32.2421 24.3499 32.4187 24.3218 32.7176C24.4623 32.7176 24.5326 32.6769 24.5326 32.5953C24.5607 32.5138 24.6028 32.4459 24.659 32.3916C24.6871 32.2829 24.7152 32.1878 24.7433 32.1063C24.7714 31.9976 24.7292 31.9025 24.6169 31.821ZM23.1839 31.7802C23.3244 31.6443 23.4368 31.5221 23.5211 31.4134C23.6335 31.2775 23.6475 31.1009 23.5632 30.8836C23.3665 30.9922 23.2542 31.1281 23.2261 31.2911C23.2261 31.4542 23.212 31.6172 23.1839 31.7802ZM23.6897 30.5167C23.6897 30.5439 23.6897 30.5575 23.6897 30.5575C23.7178 30.5575 23.7318 30.5711 23.7318 30.5983C23.7599 30.5983 23.788 30.5847 23.8161 30.5575C23.9847 30.4488 24.069 30.2858 24.069 30.0684C24.069 30.0412 24.0409 30.0005 23.9847 29.9461C23.788 30.0548 23.6897 30.245 23.6897 30.5167ZM22.8046 25.0146C22.9451 24.8787 23.0294 24.7972 23.0575 24.77C23.0856 24.7428 23.0856 24.6749 23.0575 24.5662C23.0013 24.6477 22.9591 24.7293 22.931 24.8108C22.9029 24.8651 22.8608 24.933 22.8046 25.0146ZM24.2375 19.2678C24.0971 19.4852 24.1111 19.6346 24.2797 19.7162C24.3921 19.5803 24.378 19.4309 24.2375 19.2678Z" fill="#91CCD9"/>
<path d="M22.0186 1.49515C22.4237 1.42132 22.8657 1.32902 23.3444 1.21827C23.86 1.10752 24.3757 1.01523 24.8913 0.941391C25.4805 0.756805 25.9961 0.756805 26.4381 0.941391C27.2115 1.19981 27.9665 1.31057 28.7031 1.27365C29.4765 1.19981 30.2315 1.12598 30.9681 1.05215C31.7047 0.867559 32.3676 0.775265 32.9569 0.775265C33.362 0.775265 33.7303 0.756806 34.0617 0.719887C34.43 0.68297 34.7983 0.609136 35.1666 0.498385C35.3508 0.424549 35.5349 0.387631 35.719 0.387631C35.9032 0.387631 36.0873 0.369173 36.2715 0.332256C36.7871 0.25842 37.2843 0.239961 37.7631 0.27688C38.2418 0.27688 38.7206 0.203045 39.1994 0.0553754H39.9176C41.0593 0.350715 42.1642 0.332257 43.2322 0C43.6005 0.0738338 43.8951 0.184586 44.1161 0.332256C44.7054 0.627595 45 1.10752 45 1.77204C45 2.69497 45 3.6179 45 4.54084C45 5.42686 44.9632 6.31287 44.8895 7.19889C44.8895 7.53115 44.8711 7.75265 44.8343 7.8634C44.6501 8.78634 44.5396 9.70927 44.5028 10.6322C44.5028 11.5182 44.5028 12.4227 44.5028 13.3456C44.5028 14.0102 44.4844 14.6931 44.4476 15.3946C44.4476 16.0591 44.3739 16.7236 44.2266 17.3881C44.1529 17.9419 44.0977 18.4956 44.0609 19.0494C44.0609 19.6031 44.0609 20.1938 44.0609 20.8214C44.0609 22.335 43.9504 23.8302 43.7294 25.3069C43.6189 26.0821 43.5268 26.8574 43.4532 27.6327C43.4163 28.4079 43.4532 29.2017 43.5637 30.0138C43.6005 30.383 43.6005 30.7337 43.5637 31.066C43.5268 31.3613 43.4716 31.6936 43.3979 32.0628C43.3243 32.395 43.2506 32.6719 43.177 32.8934C43.1401 33.078 43.1217 33.2626 43.1217 33.4472C43.1217 33.6317 43.1401 33.8533 43.177 34.1117C43.2506 34.3332 43.3243 34.6285 43.3979 34.9977C43.2138 35.5145 42.9928 36.0129 42.735 36.4928C42.514 36.9728 42.3115 37.4527 42.1273 37.9326C41.8327 38.2649 41.5381 38.431 41.2434 38.431C41.0961 38.4679 40.9304 38.5048 40.7462 38.5418C40.5621 38.5787 40.3595 38.6156 40.1385 38.6525C40.0281 38.7633 39.8255 38.8186 39.5309 38.8186C38.9784 38.7448 38.426 38.7448 37.8736 38.8186C37.3211 38.8925 36.7318 38.8925 36.1058 38.8186C34.117 38.7448 32.0914 38.8002 30.0289 38.9848C29.1819 39.0586 28.3532 39.1694 27.543 39.317C26.7327 39.4647 25.9041 39.5939 25.057 39.7047C24.6887 39.6308 24.302 39.5754 23.8969 39.5385C23.4918 39.5016 23.0866 39.4462 22.6815 39.3724C22.1659 39.2986 21.6319 39.2801 21.0794 39.317C20.527 39.3909 19.993 39.4647 19.4774 39.5385C19.1091 39.6124 18.7408 39.6677 18.3725 39.7047C18.041 39.7785 17.6727 39.8523 17.2676 39.9262C16.973 40 16.6599 40.0185 16.3285 39.9815C16.0338 39.9815 15.7576 39.8892 15.4998 39.7047C15.0947 39.5201 14.6528 39.4093 14.174 39.3724C13.6952 39.3724 13.2532 39.4093 12.8481 39.4832C12.5535 39.4832 12.2773 39.4832 12.0195 39.4832C11.7617 39.5201 11.4854 39.557 11.1908 39.5939C10.4542 39.5201 9.75447 39.3355 9.09155 39.0401C8.79691 38.9294 8.46545 38.8925 8.09716 38.9294C7.7657 38.9294 7.43423 38.9479 7.10277 38.9848C6.95545 39.0955 6.77131 39.2617 6.55033 39.4832L6.16363 39.8708C5.79533 39.9815 5.48229 39.9631 5.22448 39.8154C5.00351 39.6677 4.7457 39.557 4.45107 39.4832C4.15644 39.4093 3.88022 39.3724 3.62241 39.3724C3.36461 39.3724 3.1068 39.4462 2.849 39.5939C2.55437 39.7785 2.24132 39.8708 1.90986 39.8708C1.57839 39.8708 1.22852 39.8708 0.860224 39.8708C0.639249 39.6862 0.491933 39.5385 0.418274 39.4278C0.381445 39.3539 0.289372 39.1324 0.142055 38.7633C0.215714 38.5787 0.270958 38.3756 0.307787 38.1541C0.344616 37.9326 0.39986 37.6742 0.473518 37.3789C0.436689 37.1574 0.381445 36.8989 0.307787 36.6036C0.234128 36.2713 0.16047 35.9206 0.0868115 35.5515V35.1084C0.123641 34.0378 0.142055 33.0042 0.142055 32.0074C0.142055 30.9737 0.142055 29.94 0.142055 28.9063C0.142055 28.2787 0.142055 27.688 0.142055 27.1343C0.178885 26.5436 0.270957 25.9345 0.418274 25.3069C0.491933 24.79 0.510347 24.2732 0.473518 23.7563C0.473518 23.2026 0.473518 22.6673 0.473518 22.1504V19.437C0.473518 18.8463 0.455103 18.2741 0.418274 17.7204C0.418274 17.1666 0.326201 16.6128 0.142055 16.0591C-0.0789197 15.2469 -0.0420905 14.4162 0.252543 13.5671C0.36303 13.198 0.436689 12.8473 0.473518 12.515C0.510347 12.1458 0.528762 11.7582 0.528762 11.3521C0.528762 10.7614 0.547176 10.1707 0.584006 9.58006C0.657664 8.98939 0.694493 8.39871 0.694493 7.80803C0.694493 7.51269 0.676078 7.23581 0.639249 6.97739C0.639249 6.68205 0.639249 6.42363 0.639249 6.20212C0.897054 5.83295 1.0812 5.61144 1.19169 5.53761C1.30217 5.46377 1.59681 5.38994 2.07559 5.3161C2.25973 5.02077 2.35181 4.85464 2.35181 4.81772C2.35181 4.74388 2.25973 4.61467 2.07559 4.43009C1.85461 4.43009 1.68888 4.467 1.57839 4.54084H1.19169C1.0812 4.28242 1.02596 4.02399 1.02596 3.76557C1.02596 3.50715 1.06279 3.24873 1.13644 2.99031C1.24693 2.58422 1.50474 2.32579 1.90986 2.21504C2.49912 2.14121 3.08839 2.03046 3.67766 1.88279C4.26692 1.73512 4.85619 1.6982 5.44546 1.77204C5.74009 1.80895 5.9979 1.82741 6.21887 1.82741C6.47667 1.82741 6.75289 1.84587 7.04753 1.88279C7.52631 1.99354 7.96826 1.99354 8.37338 1.88279C8.66801 1.80895 8.92582 1.79049 9.14679 1.82741C9.40459 1.86433 9.68081 1.9197 9.97545 1.99354C10.2701 1.9197 10.5647 1.86433 10.8593 1.82741C11.154 1.79049 11.4486 1.73512 11.7432 1.66128C12.222 1.47669 12.6824 1.36594 13.1243 1.32903C13.6031 1.29211 14.0819 1.27365 14.5607 1.27365C15.4814 1.31057 16.3837 1.32903 17.2676 1.32903C18.1884 1.29211 19.1091 1.27365 20.0298 1.27365C20.3244 1.31057 20.6191 1.34748 20.9137 1.3844C21.2452 1.42132 21.6135 1.45823 22.0186 1.49515ZM36.382 2.15967C35.5717 2.08583 34.7799 2.06737 34.0065 2.10429C33.2699 2.10429 32.4965 2.19658 31.6862 2.38117C31.5758 2.38117 31.4653 2.39963 31.3548 2.43655C31.2443 2.43655 31.1522 2.41809 31.0786 2.38117C30.7839 2.27042 30.5077 2.27042 30.2499 2.38117C30.0289 2.455 29.7895 2.52884 29.5317 2.60268C29.4949 2.67651 29.4581 2.75034 29.4213 2.82418C29.3844 2.8611 29.366 2.91647 29.366 2.99031C29.808 3.13798 30.2499 3.19335 30.6919 3.15644C31.1706 3.11952 31.631 3.02723 32.073 2.87956C32.4044 2.80572 32.7175 2.7688 33.0121 2.7688C33.3436 2.73189 33.6934 2.67651 34.0617 2.60268C34.3564 2.56576 34.6694 2.5473 35.0009 2.5473C35.3692 2.5473 35.719 2.51038 36.0505 2.43655C36.0873 2.39963 36.1242 2.36271 36.161 2.3258C36.2347 2.25196 36.3083 2.19658 36.382 2.15967C36.5293 2.15967 36.6582 2.12275 36.7687 2.04892C36.9528 2.04892 37.0265 1.99354 36.9897 1.88279C36.9528 1.84587 36.8239 1.82741 36.6029 1.82741C36.4556 1.86433 36.382 1.97508 36.382 2.15967ZM41.7406 30.2353C41.9984 30.1615 42.1273 30.0138 42.1273 29.7923C42.201 28.9802 42.2746 28.1864 42.3483 27.4112C42.422 26.599 42.4772 25.8053 42.514 25.03C42.5877 24.1809 42.6613 23.3318 42.735 22.4827C42.8087 21.5967 42.8271 20.7107 42.7902 19.8246C42.7902 19.677 42.7902 19.5293 42.7902 19.3816C42.7902 19.234 42.8087 19.0678 42.8455 18.8832C43.0296 18.1449 43.1217 17.4066 43.1217 16.6682C43.1585 15.9299 43.177 15.1915 43.177 14.4532C43.2138 13.9363 43.2322 13.4379 43.2322 12.958C43.269 12.4781 43.3243 11.9982 43.3979 11.5182C43.4716 11.0752 43.5084 10.6507 43.5084 10.2446C43.5452 9.83848 43.5821 9.41393 43.6189 8.97093C43.6189 8.7125 43.6189 8.45408 43.6189 8.19566C43.6557 7.93724 43.711 7.69728 43.7846 7.47577C43.932 6.84818 43.9872 6.23904 43.9504 5.64836C43.9504 5.02077 43.9872 4.41163 44.0609 3.82095C44.0609 3.74711 44.0424 3.67328 44.0056 3.59945C43.9688 3.48869 43.9504 3.3964 43.9504 3.32257C43.9135 3.32257 43.8951 3.30411 43.8951 3.26719V3.15644C43.8215 3.04568 43.711 2.95339 43.5637 2.87956C43.4163 2.7688 43.2874 2.73189 43.177 2.7688C42.9192 2.91647 42.7902 3.0826 42.7902 3.26719C42.6061 4.26396 42.6613 5.24227 42.956 6.20212C42.9928 6.38671 43.0112 6.53438 43.0112 6.64513C43.0481 6.75588 43.0481 6.90355 43.0112 7.08814C42.9744 7.71573 42.9192 8.34333 42.8455 8.97093C42.8087 9.59852 42.735 10.2261 42.6245 10.8537C42.5509 11.2598 42.4772 11.6474 42.4035 12.0166C42.3299 12.3858 42.2931 12.7734 42.2931 13.1795V16.3359C42.2562 17.2958 42.2378 18.2741 42.2378 19.2709C42.2378 20.2677 42.201 21.246 42.1273 22.2058C42.1273 22.4642 42.0905 22.7227 42.0168 22.9811C41.98 23.2395 41.9432 23.4979 41.9063 23.7563V24.4762C41.8695 25.0669 41.8327 25.6761 41.7959 26.3036C41.759 26.8943 41.7406 27.5035 41.7406 28.1311C41.7406 28.4633 41.759 28.8325 41.7959 29.2386C41.8327 29.6078 41.8511 29.9769 41.8511 30.3461C41.7774 30.383 41.7222 30.4015 41.6854 30.4015V30.5676C41.6854 30.5307 41.6854 30.4938 41.6854 30.4569C41.7222 30.383 41.7406 30.3092 41.7406 30.2353ZM3.51193 8.41717C3.43827 8.67559 3.38302 8.91555 3.34619 9.13705C3.34619 9.32164 3.30937 9.52469 3.23571 9.74619C3.23571 10.263 3.21729 10.7983 3.18046 11.3521C3.18046 11.9059 3.08839 12.4412 2.90424 12.958C2.86741 13.1057 2.849 13.2903 2.849 13.5118C2.849 13.6964 2.849 13.8809 2.849 14.0655C2.849 14.6193 2.86741 15.173 2.90424 15.7268C2.9779 16.2806 3.01473 16.8528 3.01473 17.4435C3.01473 18.0341 2.9779 18.6064 2.90424 19.1601C2.86741 19.7139 2.83059 20.2677 2.79376 20.8214C2.79376 21.1168 2.79376 21.4305 2.79376 21.7628C2.83059 22.0581 2.849 22.3535 2.849 22.6488C2.849 23.4979 2.849 24.3655 2.849 25.2515C2.88583 26.1375 2.99632 27.0051 3.18046 27.8542C3.18046 28.7771 3.29095 29.6816 3.51193 30.5676C3.7329 31.4536 3.93546 32.3212 4.11961 33.1703C4.11961 33.4656 4.19326 33.6871 4.34058 33.8348C4.41424 33.9086 4.46948 33.9825 4.50631 34.0563C4.57997 34.1301 4.65363 34.204 4.72729 34.2778C5.68485 34.5362 6.58716 34.5362 7.43423 34.2778C7.61838 34.2409 7.78411 34.2224 7.93143 34.2224C8.07874 34.2224 8.22606 34.2224 8.37338 34.2224C8.63118 34.2963 8.88899 34.3516 9.14679 34.3886C9.40459 34.3886 9.68081 34.3886 9.97545 34.3886C10.4911 34.3886 11.0067 34.3701 11.5223 34.3332C12.0379 34.2963 12.5719 34.3147 13.1243 34.3886C14.6343 34.4993 16.1075 34.5547 17.5438 34.5547C19.017 34.5178 20.4902 34.4624 21.9633 34.3886C22.9209 34.3886 23.8785 34.3886 24.836 34.3886C25.8304 34.3516 26.8248 34.4809 27.8192 34.7762C27.9297 34.8131 28.0586 34.8316 28.2059 34.8316C28.3532 34.7946 28.5005 34.7946 28.6478 34.8316H30.4709C30.876 34.7946 31.2811 34.7762 31.6862 34.7762C32.1282 34.7393 32.5517 34.6839 32.9569 34.6101C33.583 34.4993 34.209 34.4439 34.8351 34.4439C35.4981 34.407 36.1426 34.4993 36.7687 34.7208C36.9528 34.7946 37.1554 34.8316 37.3764 34.8316C37.6342 34.7946 37.8736 34.7946 38.0945 34.8316C38.6101 34.8316 39.0521 34.647 39.4204 34.2778C39.494 34.204 39.5309 34.1117 39.5309 34.0009C39.5677 33.8533 39.5861 33.724 39.5861 33.6133C39.6598 33.281 39.6782 32.9672 39.6414 32.6719C39.6414 32.3766 39.715 32.0812 39.8623 31.7859C39.936 31.6013 39.9728 31.4167 39.9728 31.2321C40.0096 31.0475 40.0281 30.8445 40.0281 30.623C40.0281 30.2169 40.0281 29.8477 40.0281 29.5155C40.0281 29.1463 39.9912 28.7586 39.9176 28.3526C39.8807 27.725 39.8807 27.0605 39.9176 26.359C39.9912 25.8791 40.0281 25.3992 40.0281 24.9192C40.0281 24.4024 40.0281 23.904 40.0281 23.4241C40.0281 22.9072 39.9728 22.4273 39.8623 21.9843C39.7518 21.5413 39.6598 21.0983 39.5861 20.6553C39.8071 20.1015 39.9912 19.5662 40.1385 19.0494C40.3227 18.4956 40.4148 17.9603 40.4148 17.4435C40.4516 16.7051 40.4516 15.9668 40.4148 15.2284C40.4148 14.4901 40.3227 13.7886 40.1385 13.1241C40.2859 12.312 40.3964 11.5921 40.47 10.9645C40.5437 10.5953 40.5621 10.2446 40.5253 9.91232C40.5253 9.54315 40.5621 9.21089 40.6357 8.91555C40.8199 8.14028 40.912 7.38348 40.912 6.64513C40.912 5.86987 40.9488 5.11306 41.0224 4.37471C41.0224 4.26396 40.9856 4.13475 40.912 3.98708C40.8751 3.83941 40.8567 3.7102 40.8567 3.59945C40.3779 3.23027 39.8623 3.11952 39.3099 3.26719C38.6101 3.37794 37.9288 3.50715 37.2659 3.65482C36.6029 3.80249 35.9584 3.9317 35.3323 4.04245C35.0745 4.11629 34.8351 4.17166 34.6142 4.20858C34.43 4.2455 34.2275 4.30088 34.0065 4.37471C33.6014 4.37471 33.2147 4.39317 32.8464 4.43009C32.4781 4.467 32.1098 4.5593 31.7415 4.70697C31.5942 4.74388 31.4469 4.76234 31.2995 4.76234C31.1522 4.76234 31.0233 4.7808 30.9128 4.81772C30.2867 4.89155 29.6975 4.91001 29.145 4.8731C28.5926 4.83618 28.0402 4.7808 27.4877 4.70697C27.0089 4.59621 26.567 4.61467 26.1619 4.76234C25.9777 4.79926 25.812 4.81772 25.6647 4.81772C25.5174 4.81772 25.3885 4.81772 25.278 4.81772C24.3204 4.81772 23.3629 4.83618 22.4053 4.8731C21.4846 4.91001 20.5454 4.89155 19.5879 4.81772C19.1459 4.81772 18.6855 4.83618 18.2068 4.8731C17.7648 4.8731 17.3229 4.96539 16.8809 5.14998C16.5126 5.29765 16.1443 5.38994 15.776 5.42686C15.4446 5.42686 15.0763 5.42686 14.6712 5.42686C14.3765 5.42686 14.1003 5.4084 13.8425 5.37148C13.6215 5.33456 13.3637 5.3161 13.0691 5.3161C12.885 5.3161 12.7008 5.33456 12.5167 5.37148C12.3325 5.37148 12.1484 5.4084 11.9642 5.48223C10.8593 5.88832 9.75447 5.99907 8.6496 5.81449C7.98667 5.70374 7.32375 5.77757 6.66082 6.03599C6.40302 6.14675 6.14521 6.2575 5.88741 6.36825C5.6296 6.44209 5.39021 6.53438 5.16924 6.64513C4.87461 6.71897 4.59839 6.82972 4.34058 6.97739C4.08278 7.08814 3.80656 7.19889 3.51193 7.30964V8.41717ZM24.9465 35.4961C24.5414 35.533 24.1915 35.5699 23.8969 35.6068C23.6022 35.6437 23.2892 35.6807 22.9577 35.7176C21.0058 35.7914 19.0723 35.8468 17.1571 35.8837C15.2788 35.8837 13.3821 35.7545 11.467 35.4961C11.2461 35.4592 11.0067 35.4407 10.7489 35.4407C10.5279 35.4407 10.3069 35.4407 10.0859 35.4407C9.75447 35.4407 9.42301 35.4592 9.09155 35.4961C8.79691 35.533 8.46545 35.5145 8.09716 35.4407C7.72887 35.3669 7.3974 35.3853 7.10277 35.4961C6.80814 35.6068 6.31094 35.8099 5.61119 36.1052C6.97387 36.3636 8.29972 36.5298 9.58874 36.6036C10.8778 36.6774 12.1668 36.862 13.4558 37.1574C15.2604 36.6774 17.0835 36.6221 18.9249 36.9912C19.1091 36.9912 19.3116 36.9912 19.5326 36.9912C19.7904 36.9912 20.0482 36.9728 20.306 36.9359C20.748 36.9359 21.2452 36.8436 21.7976 36.659C22.4237 36.4744 23.0498 36.3636 23.6759 36.3267C24.3388 36.2898 24.9833 36.2529 25.6094 36.216C25.7936 36.216 25.9777 36.216 26.1619 36.216C26.3828 36.216 26.5854 36.1791 26.7696 36.1052C26.8432 36.1052 26.9169 36.0683 26.9905 35.9945C26.6222 35.9206 26.2724 35.8468 25.9409 35.773C25.6463 35.6622 25.3148 35.5699 24.9465 35.4961ZM5.33497 5.14998C5.59277 5.00231 5.81375 4.92847 5.9979 4.92847C6.18204 4.85464 6.34777 4.81772 6.49509 4.81772C6.64241 4.81772 6.80814 4.79926 6.99228 4.76234C7.17643 4.68851 7.36058 4.59622 7.54472 4.48546C7.72887 4.37471 7.91301 4.22704 8.09716 4.04245C8.13399 4.04245 8.13399 3.98708 8.09716 3.87633C8.09716 3.76557 8.04191 3.7102 7.93143 3.7102C7.48948 3.82095 7.02911 3.85787 6.55033 3.82095C6.14521 3.74711 5.72168 3.74711 5.27973 3.82095C4.83778 3.89478 4.39583 3.96862 3.95388 4.04245C3.91705 4.04245 3.88022 4.07937 3.84339 4.15321C3.80656 4.22704 3.76973 4.30088 3.7329 4.37471C3.62241 4.5593 3.67766 4.68851 3.89863 4.76234C4.08278 4.79926 4.28534 4.85464 4.50631 4.92847C4.76412 5.00231 5.04034 5.07614 5.33497 5.14998ZM10.1964 3.7102C10.2701 3.96862 10.3253 4.13475 10.3622 4.20858C10.399 4.2455 10.4542 4.2455 10.5279 4.20858C10.8593 4.13475 11.1724 4.06091 11.467 3.98708C11.7985 3.87633 12.13 3.78403 12.4614 3.7102C12.8665 3.63636 13.2348 3.59945 13.5663 3.59945C13.9346 3.56253 14.3029 3.63636 14.6712 3.82095C14.8921 3.85787 15.1315 3.85787 15.3893 3.82095C15.4262 3.82095 15.4814 3.80249 15.5551 3.76557C15.6287 3.72866 15.7024 3.69174 15.776 3.65482C15.8129 3.6179 15.8313 3.48869 15.8313 3.26719C15.7208 3.19335 15.5919 3.13798 15.4446 3.10106C15.2973 3.02723 15.1315 2.99031 14.9474 2.99031C14.7264 2.99031 14.487 3.00877 14.2292 3.04569C13.9714 3.0826 13.7136 3.06414 13.4558 2.99031C12.8665 2.95339 12.2957 3.00877 11.7432 3.15644C11.2276 3.30411 10.712 3.48869 10.1964 3.7102ZM22.0738 3.32257C22.8841 3.43332 23.6391 3.47023 24.3388 3.43332C24.8176 3.35948 25.278 3.30411 25.7199 3.26719C26.1987 3.23027 26.6591 3.06414 27.101 2.7688C26.8432 2.73189 26.6038 2.69497 26.3828 2.65805C26.1619 2.62113 25.9409 2.58422 25.7199 2.5473C25.0938 2.43655 24.5782 2.45501 24.1731 2.60268C23.989 2.67651 23.8048 2.7688 23.6207 2.87956C23.4733 2.95339 23.3076 3.02723 23.1235 3.10106C22.9393 3.13798 22.7552 3.13798 22.571 3.10106C22.4237 3.06414 22.258 3.13798 22.0738 3.32257ZM39.8623 36.9912C39.7518 36.6221 39.5677 36.419 39.3099 36.3821H38.8127C38.3707 36.4559 37.9288 36.5298 37.4868 36.6036C37.0817 36.6774 36.6766 36.7513 36.2715 36.8251C36.2347 36.8989 36.1794 36.9543 36.1058 36.9912C36.8792 37.1758 37.5053 37.2681 37.984 37.2681C38.4628 37.2681 39.0889 37.1758 39.8623 36.9912ZM1.74412 33.8902C1.92827 33.1518 2.00193 32.5427 1.9651 32.0628C1.92827 31.5828 1.8362 31.0844 1.68888 30.5676C1.50474 30.826 1.41266 31.066 1.41266 31.2875C1.339 31.5459 1.28376 31.8043 1.24693 32.0628C1.2101 32.3212 1.17327 32.5611 1.13644 32.7826C1.13644 32.8934 1.13644 33.0226 1.13644 33.1703C1.13644 33.281 1.15486 33.3733 1.19169 33.4472C1.26535 33.5579 1.339 33.6502 1.41266 33.724C1.52315 33.761 1.63364 33.8163 1.74412 33.8902ZM1.68888 27.245C1.35742 27.0974 1.19169 27.2081 1.19169 27.5773C1.11803 27.9834 1.28376 28.2603 1.68888 28.4079C1.94669 28.0757 1.94669 27.688 1.68888 27.245ZM19.0907 3.15644C18.796 3.15644 18.5198 3.15644 18.262 3.15644C18.041 3.15644 17.7832 3.21181 17.4886 3.32257C17.7832 3.3964 18.041 3.43332 18.262 3.43332C18.5198 3.3964 18.796 3.30411 19.0907 3.15644ZM2.07559 9.13705C2.18608 8.76788 2.24132 8.52792 2.24132 8.41717C2.24132 8.30641 2.14925 8.10337 1.9651 7.80803C1.92827 8.10337 1.89144 8.36179 1.85461 8.58329C1.85461 8.76788 1.92827 8.95247 2.07559 9.13705ZM24.7255 37.8773C24.6519 37.8403 24.615 37.8034 24.615 37.7665C24.615 37.7296 24.5966 37.7111 24.5598 37.7111C24.4493 37.7111 24.3204 37.7296 24.1731 37.7665C24.0626 37.7665 23.9705 37.8034 23.8969 37.8773C23.8969 37.9142 23.9153 37.9326 23.9521 37.9326H24.0626C24.2468 38.1172 24.4309 38.1172 24.615 37.9326H24.7255V37.8773ZM26.2171 37.8219C26.3276 37.9326 26.4565 37.988 26.6038 37.988C26.7511 37.9511 26.88 37.9142 26.9905 37.8773C26.88 37.7665 26.7511 37.7111 26.6038 37.7111C26.4565 37.7111 26.3276 37.748 26.2171 37.8219ZM41.2434 22.0951C41.1698 21.9843 41.1329 21.9289 41.1329 21.9289L41.0777 21.9843C41.0409 22.0212 41.0224 22.0581 41.0224 22.0951C40.9488 22.0951 40.9488 22.132 41.0224 22.2058C41.0224 22.3166 41.0593 22.3719 41.1329 22.3719C41.2066 22.335 41.2434 22.2427 41.2434 22.0951ZM4.00912 36.4375C4.04595 36.4375 4.06436 36.419 4.06436 36.3821C4.06436 36.2713 4.02753 36.1791 3.95388 36.1052C3.84339 35.9945 3.78814 36.0498 3.78814 36.2713C3.78814 36.3452 3.80656 36.3821 3.84339 36.3821C3.84339 36.419 3.8618 36.4375 3.89863 36.4375H4.00912ZM41.7406 33.5025C41.7038 33.4656 41.6854 33.4287 41.6854 33.3918C41.6854 33.3549 41.6485 33.318 41.5749 33.281C41.5381 33.318 41.5196 33.3733 41.5196 33.4472C41.5196 33.4841 41.4828 33.5395 41.4092 33.6133C41.4092 33.6502 41.4276 33.6687 41.4644 33.6687C41.5012 33.6687 41.5196 33.6871 41.5196 33.724C41.5565 33.6871 41.5933 33.6687 41.6301 33.6687C41.667 33.6317 41.7038 33.5764 41.7406 33.5025ZM1.68888 15.0623C1.65205 15.0623 1.63364 15.0808 1.63364 15.1177C1.59681 15.1546 1.57839 15.1915 1.57839 15.2284C1.57839 15.413 1.61522 15.5422 1.68888 15.6161C1.68888 15.5791 1.7073 15.5422 1.74412 15.5053C1.74412 15.2838 1.72571 15.1361 1.68888 15.0623ZM1.74412 16.8897H1.68888V17.0005L1.74412 16.8897ZM41.5749 31.509H41.6854L41.5749 31.3429V31.509Z" fill="#F0FAFA"/>
</svg>
