<svg width="31" height="32" viewBox="0 0 31 32" fill="none" xmlns="http://www.w3.org/2000/svg">
<path d="M10.8524 2.2462C11.345 2.00372 11.8786 1.83994 12.4532 1.75485C13.0293 1.63943 13.5801 1.43111 14.1058 1.12987C14.2002 1.04459 14.3072 1.00576 14.4269 1.0134C14.5481 0.990694 14.6685 0.98316 14.7881 0.990792C15.5123 0.915245 16.2505 0.85582 17.003 0.812516C17.757 0.738878 18.5032 0.81691 19.2417 1.04661C19.3881 1.11682 19.5219 1.14057 19.6431 1.11787C19.7943 1.09708 19.9454 1.07628 20.0965 1.05548C20.6224 1.3325 21.1326 1.62372 21.6271 1.92916C22.1231 2.20427 22.5696 2.56752 22.9665 3.0189C23.4672 3.20301 23.8735 3.47239 24.1854 3.82705C24.5287 4.15328 24.854 4.53923 25.1612 4.98489C25.8021 5.36054 26.3785 5.82337 26.8904 6.37339C27.4023 6.92341 27.8977 7.5028 28.3766 8.11158C28.5184 8.27279 28.6279 8.47759 28.7051 8.72599C28.8139 8.94596 28.8785 9.1479 28.8991 9.33181C28.9433 9.63896 29.0033 9.93191 29.079 10.2106C29.1862 10.4609 29.3075 10.7274 29.443 11.0099C29.6306 11.4479 29.7875 11.8992 29.9136 12.3638C30.0414 12.798 30.199 13.2341 30.3866 13.6721C30.4102 13.7954 30.4339 13.9186 30.4576 14.0419C30.4828 14.1348 30.4939 14.2116 30.4908 14.2722C30.4658 14.7576 30.4873 15.2154 30.5552 15.6458C30.653 16.0782 30.706 16.5076 30.7141 16.9342C30.8122 17.9447 30.8206 18.9496 30.7392 19.9487C30.6594 20.9175 30.4899 21.8805 30.2306 22.8378C30.1995 23.4445 30.0226 23.9658 29.7001 24.4018C29.4076 24.8396 29.1866 25.3429 29.0374 25.9116C28.7495 26.2584 28.4765 26.6062 28.2185 26.9549C27.9605 27.3037 27.6883 27.6363 27.402 27.9528C27.3076 28.0381 27.2753 28.0817 27.3052 28.0836C25.8467 29.6035 24.0998 30.6029 22.0646 31.0818C21.882 31.131 21.6986 31.1954 21.5145 31.2749C21.3618 31.326 21.1949 31.3611 21.0139 31.3799C20.5874 31.5049 20.1317 31.6128 19.6469 31.7036C19.1935 31.766 18.7126 31.781 18.2041 31.7485C17.6972 31.6858 17.1588 31.6514 16.5889 31.6455C16.0489 31.6415 15.5058 31.6981 14.9596 31.8155C14.7188 31.8305 14.4638 31.8295 14.1946 31.8123C13.9269 31.7648 13.6136 31.7296 13.2547 31.7067C12.9036 31.5322 12.4926 31.3538 12.0218 31.1716C11.551 30.9894 11.0983 30.7475 10.6637 30.4458C10.4621 30.2808 10.229 30.1442 9.96449 30.0361C9.69997 29.9279 9.42048 29.8188 9.12605 29.7087C8.8584 29.6612 8.60649 29.5994 8.37032 29.5235C8.13415 29.4476 7.91293 29.3726 7.70667 29.2986C7.35397 29.1544 7.04769 28.9827 6.78784 28.7835C6.5579 28.5862 6.31457 28.3577 6.05784 28.0978C5.68925 27.6787 5.32145 27.2444 4.95443 26.7949C4.61887 26.317 4.18969 25.9092 3.66687 25.5715C3.5519 25.4729 3.36839 25.2481 3.11634 24.8973C2.82005 24.2393 2.55523 23.5529 2.32188 22.838C2.08853 22.1232 1.87013 21.4093 1.6667 20.6963C1.55017 20.628 1.49658 20.5029 1.50593 20.3209C1.48196 19.6194 1.39739 18.9292 1.25222 18.2504C1.10705 17.5716 0.977606 16.8786 0.863903 16.1714C0.832139 15.6216 0.85786 15.1211 0.941065 14.6699C1.05262 14.2509 1.17758 13.8633 1.31593 13.5069C1.45428 13.1505 1.57846 12.778 1.68845 12.3894C2.01533 11.2842 2.45718 10.2777 3.014 9.36977C3.57238 8.43152 4.14571 7.49422 4.73399 6.55788C4.80005 6.44036 4.88029 6.33896 4.9747 6.25368C5.10058 6.13998 5.19499 6.0547 5.25793 5.99785C5.63869 5.59607 6.03285 5.22558 6.4404 4.88637C6.84951 4.51684 7.26019 4.11697 7.67241 3.68676L10.8524 2.2462ZM9.35208 5.1634C8.41109 5.95551 7.51341 6.78082 6.65904 7.63932C5.80623 8.46749 5.02352 9.39143 4.31091 10.4111C3.73041 11.1958 3.32237 12.1284 3.08679 13.209C3.04597 13.4194 2.98863 13.6592 2.91478 13.9284C2.84248 14.1673 2.77019 14.4061 2.69789 14.645C2.83654 14.8669 2.9138 15.1153 2.92969 15.3902C2.94557 15.6651 2.93154 15.9381 2.8876 16.2092C2.81686 16.4177 2.7603 16.6424 2.71792 16.8831C2.67554 17.1239 2.61976 17.3334 2.55059 17.5116C2.68144 17.8851 2.78393 18.2264 2.85808 18.5355C2.93378 18.8142 2.98036 19.0759 2.9978 19.3204C3.06883 19.6902 3.12568 20.0438 3.16835 20.3813C3.21103 20.7187 3.2537 21.0562 3.29638 21.3937C3.34841 21.5492 3.41539 21.7057 3.49733 21.863C3.60918 22.0223 3.67617 22.1788 3.69829 22.3324C3.85125 22.8595 4.09785 23.3165 4.43808 23.7034C4.77831 24.0903 5.11932 24.462 5.46111 24.8186C5.8029 25.1752 6.14703 25.4862 6.4935 25.7518C6.84152 25.987 7.18799 26.2526 7.53289 26.5485C7.88092 26.7837 8.22816 27.0341 8.57463 27.2997C8.95101 27.5672 9.35652 27.8517 9.79116 28.1533C10.0856 28.2634 10.3785 28.4038 10.6698 28.5746C10.9627 28.715 11.2862 28.8422 11.6405 28.9561C12.0561 29.0434 12.4427 29.1137 12.8 29.167C13.1873 29.2221 13.588 29.3085 14.0021 29.4262L14.4059 29.452C14.9649 29.6703 15.5285 29.7975 16.0968 29.8338C16.6966 29.8416 17.2948 29.8797 17.8915 29.9482C18.1607 29.9654 18.4015 29.9503 18.614 29.903C18.8564 29.8576 19.0989 29.8122 19.3413 29.7668C20.0701 29.6003 20.7697 29.4166 21.4402 29.2159C22.1123 28.9849 22.8001 28.7397 23.5037 28.4802C24.6983 28.0086 25.6511 27.2781 26.3621 26.2887C26.9127 25.5022 27.4688 24.6094 28.0303 23.6105C28.1216 23.5859 28.1727 23.4674 28.1836 23.2551C28.2652 22.8342 28.376 22.4304 28.5159 22.0437C28.6574 21.6267 28.7705 21.1774 28.8553 20.6959C28.9322 20.366 28.9635 20.0485 28.9492 19.7432C28.9664 19.4095 28.9379 19.0882 28.8637 18.7791C28.7974 18.3184 28.7617 17.8444 28.7567 17.3571C28.7533 16.8395 28.7334 16.3513 28.697 15.8925C28.7094 15.6498 28.7062 15.4214 28.6872 15.2071C28.6981 14.9948 28.6791 14.7806 28.6302 14.5644C28.4283 13.8211 28.2256 13.093 28.0222 12.3801C27.8203 11.6368 27.4351 10.9579 26.8665 10.3434C26.7185 10.3035 26.6185 10.2059 26.5664 10.0504C26.3505 9.5801 26.0874 9.15247 25.7771 8.76747C25.4668 8.38248 25.1116 7.99462 24.7115 7.60391C24.146 6.92874 23.5483 6.29716 22.9183 5.70918C22.712 5.63515 22.5058 5.56113 22.2995 5.48711C22.1232 5.41499 21.9169 5.34097 21.6807 5.26504C21.4492 5.0981 21.2162 4.9615 20.9816 4.85524C20.7769 4.75088 20.5572 4.64557 20.3226 4.53931C19.9746 4.30407 19.6092 4.11339 19.2266 3.96725C18.8739 3.82302 18.4866 3.76788 18.0648 3.80184C17.7657 3.78276 17.4846 3.70397 17.2216 3.56546C16.9886 3.42886 16.7248 3.30552 16.4304 3.19544C16.2509 3.18399 16.0416 3.17064 15.8023 3.15538C15.5929 3.14202 15.367 3.15805 15.1246 3.20345C14.7326 3.23932 14.2029 3.32726 13.5355 3.46729C12.8996 3.57889 12.4589 3.68773 12.2133 3.7938C11.779 4.07043 11.3171 4.29965 10.8276 4.48146C10.3696 4.63485 9.87772 4.86216 9.35208 5.1634ZM14.6452 12.5311C14.3573 12.878 14.0166 13.0845 13.6231 13.1507C13.2595 13.2188 12.8636 13.3305 12.4355 13.4858C12.2906 13.3852 12.1001 13.297 11.8639 13.2211C11.8088 13.1262 11.7379 13.0456 11.6513 12.9792C11.5662 12.8825 11.4961 12.7868 11.441 12.6919C11.3874 12.5668 11.3346 12.4265 11.2826 12.271C11.2604 12.1174 11.2533 11.9648 11.2611 11.8131C11.3032 10.9941 11.4492 10.1969 11.6991 9.4216C11.9789 8.64818 12.4351 7.94688 13.0676 7.31769C13.3193 7.09028 13.5396 6.8913 13.7284 6.72074C13.9472 6.5521 14.1824 6.35407 14.4342 6.12666C15.0464 5.89181 15.5352 5.72517 15.9003 5.62673C16.297 5.49986 16.6299 5.44502 16.8991 5.46219C17.1998 5.45093 17.4824 5.49939 17.7469 5.60757C18.0429 5.68731 18.3964 5.81637 18.8073 5.99475C19.1413 6.50299 19.3903 6.9145 19.5542 7.22929C19.7495 7.51565 19.9008 7.78398 20.0079 8.03429C20.145 8.2865 20.2506 8.56713 20.3248 8.87619C20.4304 9.15683 20.5455 9.54459 20.6701 10.0395C20.6041 10.157 20.5514 10.3058 20.5122 10.4859C20.4744 10.6357 20.4218 10.7845 20.3542 10.9323C20.3133 11.1427 20.2875 11.3541 20.2766 11.5665C20.2672 11.7485 20.2264 11.9589 20.1541 12.1978C19.797 12.7228 19.4391 13.263 19.0805 13.8183C18.7219 14.3737 18.2774 14.8475 17.7471 15.2397C16.9762 16.2253 16.6367 17.284 16.7286 18.4159L16.5719 21.4645C16.4791 21.5194 16.4012 21.5753 16.3382 21.6322C16.3068 21.6606 16.2446 21.7023 16.1517 21.7572C15.7598 21.7931 15.3843 21.7996 15.0254 21.7767C14.668 21.7234 14.3398 21.6873 14.0407 21.6682C13.6328 21.4292 13.4375 21.1428 13.4546 20.8091C13.3789 20.5304 13.378 20.2564 13.4518 19.9872C13.5257 19.7181 13.4964 19.4119 13.364 19.0686C13.3166 18.8222 13.2992 18.5776 13.3117 18.3349C13.3556 18.0638 13.3846 17.7918 13.3986 17.5188C13.4111 17.2761 13.481 17.0827 13.6085 16.9387C13.7986 16.1595 14.1044 15.4639 14.526 14.8517C14.9491 14.2091 15.4305 13.6007 15.9702 13.0265C16.1889 12.8578 16.377 12.7024 16.5343 12.5603C16.7216 12.4201 16.9104 12.2495 17.1008 12.0486C17.5461 11.5597 17.6945 11.0061 17.5463 10.388C17.5618 10.0847 17.5019 9.79173 17.3663 9.50919C17.2906 9.23046 17.137 9.00763 16.9055 8.8407C16.6756 8.64343 16.426 8.53621 16.1568 8.51904C15.8262 8.52839 15.5508 8.63255 15.3305 8.83153C15.1118 9.00018 14.9348 9.23236 14.7996 9.52807C14.7319 9.67592 14.6636 9.83894 14.5944 10.0171C14.5551 10.1972 14.5607 10.3802 14.6112 10.566C14.5769 11.2333 14.5882 11.8884 14.6452 12.5311ZM15.6684 23.2785C15.8164 23.3184 15.9644 23.3582 16.1124 23.3981C16.2604 23.438 16.3919 23.5072 16.5069 23.6059C17.0297 23.9435 17.2936 24.356 17.2986 24.8433C17.3412 25.1808 17.3398 25.5002 17.2943 25.8016C17.2787 26.105 17.2325 26.4216 17.1555 26.7514C17.0832 26.9903 16.9227 27.1931 16.6741 27.3598C16.4554 27.5285 16.2397 27.6365 16.0272 27.6838C15.5739 27.7462 15.0835 27.654 14.556 27.4073C14.3182 27.3617 14.1151 27.227 13.9465 27.0033C13.7795 26.7491 13.7031 26.4856 13.7171 26.2126C13.8081 25.6097 13.9574 25.041 14.1649 24.5064C14.4023 23.9738 14.9035 23.5645 15.6684 23.2785Z" fill="#262425"/>
</svg>
