<svg width="200" height="176" viewBox="0 0 200 176" fill="none" xmlns="http://www.w3.org/2000/svg">
<path fill-rule="evenodd" clip-rule="evenodd" d="M149.704 38.0886C149.724 38.0829 149.745 38.0774 149.767 38.0722L149.8 37.9618L150.089 37.8091C150.185 37.7582 150.193 37.5996 150.114 37.3334C150.069 37.4806 149.987 37.6165 149.868 37.741L149.8 37.9618C149.767 38.0031 149.735 38.0454 149.704 38.0886Z" fill="#262425"/>
<path fill-rule="evenodd" clip-rule="evenodd" d="M159.509 42.9389L159.623 42.92L159.767 42.8437L159.513 42.886L159.509 42.9389Z" fill="#262425"/>
<path fill-rule="evenodd" clip-rule="evenodd" d="M159.693 64.4763L159.713 64.4823L159.659 64.5867L159.609 64.6009C159.636 64.5589 159.663 64.5173 159.693 64.4763Z" fill="#262425"/>
<path d="M157.84 22.7955C158.252 22.7618 158.47 22.7081 158.492 22.6345C158.611 22.51 158.628 22.1928 158.544 21.6831C157.866 21.796 157.631 22.1668 157.84 22.7955Z" fill="#262425"/>
<path d="M167.697 21.7595C167.624 21.7368 167.575 21.7622 167.553 21.8358L167.621 21.615C167.694 21.6377 167.742 21.6122 167.765 21.5386L167.697 21.7595Z" fill="#262425"/>
<path fill-rule="evenodd" clip-rule="evenodd" d="M115.998 69.0935C113.515 73.3616 116.571 78.7243 121.498 78.7464L193.561 79.0697C198.488 79.0918 201.592 73.7567 199.147 69.4666L163.395 6.72268C160.951 2.4325 154.791 2.40487 152.309 6.67295L115.998 69.0935ZM149.704 38.0886C149.298 38.2007 148.972 38.4102 148.724 38.7171C148.487 38.9662 148.238 39.252 147.978 39.5746L145.927 42.3256C145.265 43.169 144.593 44.0492 143.909 44.9662C143.248 45.8096 142.928 46.7183 142.95 47.6923C143.334 47.4887 143.538 47.3501 143.56 47.2765L148.647 40.1442C148.907 39.8215 149.094 39.4762 149.207 39.1082C149.325 38.7231 149.491 38.3832 149.704 38.0886ZM158.606 43.0893L159.509 42.9389C159.489 43.2371 159.437 43.5253 159.351 43.8033C159.283 44.0241 159.241 44.2931 159.224 44.6102C159.032 44.712 158.865 44.862 158.724 45.0601C158.582 45.2582 158.416 45.4082 158.224 45.51L157.257 46.2994C157.026 45.7443 156.908 45.345 156.902 45.1015C156.97 44.8807 157.273 44.2891 157.81 43.3267L158.606 43.0893ZM173.567 43.188C172.951 43.8842 172.572 44.3313 172.431 44.5295C172.385 44.6767 172.428 44.9315 172.557 45.294C173.207 45.0113 173.543 44.3093 173.567 43.188ZM165.36 75.5386L165.581 75.6067L165.149 75.8357C165.171 75.7621 165.146 75.714 165.072 75.6913L165.14 75.4705L165.284 75.3941C165.358 75.4168 165.383 75.465 165.36 75.5386ZM176.273 70.3286C176.963 69.6551 177.446 68.9985 177.723 68.3588C178.096 67.6681 178.568 67.0483 179.139 66.4993L178.606 65.4882C178.476 65.1257 178.31 64.7518 178.106 64.3666C177.914 64.4684 177.734 64.5334 177.564 64.5616C177.468 64.6126 177.361 64.7003 177.242 64.8248C177.038 65.4872 176.798 66.1383 176.521 66.7781C176.34 67.3669 176.184 68.0039 176.054 68.6891C175.986 68.9099 175.992 69.1534 176.07 69.4196C176.172 69.6122 176.24 69.9152 176.273 70.3286ZM160.091 64.3576C160.047 64.5002 159.921 64.5418 159.713 64.4823C160.092 63.7604 160.484 63.1159 160.888 62.5487C161.408 61.9035 161.99 61.3177 162.634 60.7914C162.826 60.6896 162.993 60.5396 163.134 60.3415C163.298 60.0698 163.451 59.8349 163.592 59.6368C163.92 59.0933 164.262 58.6348 164.618 58.2613C165.07 57.8368 165.57 57.3869 166.118 56.9116L166.135 57.6421C165.541 58.2647 165.01 58.9467 164.541 59.6883C164.168 60.379 163.684 61.0356 163.091 61.6581C162.616 62.1562 162.116 62.6061 161.591 63.0079C161.139 63.4323 160.639 63.8822 160.091 64.3576ZM159.609 64.6009C159.362 64.6709 159.124 64.7084 158.896 64.7136C158.727 64.7418 158.633 64.9145 158.616 65.2316C158.718 65.4242 158.805 65.5319 158.879 65.5546C159.218 65.4981 159.384 65.3482 159.379 65.1047C159.433 64.9296 159.51 64.7617 159.609 64.6009ZM153.211 64.1646C153.092 64.2892 152.745 64.5041 152.168 64.8096C151.598 64.3109 151.511 63.6794 151.907 62.9152C152.246 62.8587 152.573 62.8391 152.89 62.8563L153.906 62.687C153.584 63.474 153.352 63.9665 153.211 64.1646ZM132.042 64.3897C131.906 64.8313 132.058 65.1202 132.499 65.2564C132.646 65.3018 132.815 65.2736 133.007 65.1717C132.956 65.0754 132.942 64.9905 132.965 64.9169L132.999 64.8065C132.796 64.4213 132.477 64.2823 132.042 64.3897ZM141.544 60.1944L141.722 60.0076L141.866 59.9313L141.612 59.9736L141.544 60.1944Z" fill="#262425"/>
<path fill-rule="evenodd" clip-rule="evenodd" d="M116.239 84.6967C119.675 78.8071 115.447 71.407 108.628 71.3764L8.91026 70.9303C2.09193 70.8998 -2.20255 78.2618 1.1802 84.1819L50.6528 170.763C54.0356 176.683 62.5585 176.722 65.9941 170.832L116.239 84.6967ZM40.1458 87.2988L41.3772 87.0001C41.3797 87.4126 41.3361 87.8145 41.2462 88.2058C41.1749 88.5166 41.1434 88.891 41.1519 89.3292C40.8971 89.4888 40.6822 89.7121 40.5073 89.9991C40.3323 90.2861 40.1175 90.5094 39.8627 90.669L38.6093 91.8534C38.234 91.1129 38.0303 90.5754 37.9981 90.2408C38.0694 89.9301 38.427 89.0852 39.0708 87.7063L40.1458 87.2988ZM44.0286 100.855C43.4801 101.051 43.0508 101.372 42.7405 101.82C42.4382 102.186 42.124 102.605 41.7978 103.075L39.245 107.07C38.4178 108.297 37.5787 109.577 36.7277 110.908C35.9005 112.136 35.5514 113.419 35.6804 114.757C36.1899 114.438 36.4565 114.227 36.4803 114.123L42.7785 103.791C43.1046 103.321 43.3272 102.827 43.4461 102.309C43.5705 101.767 43.7647 101.282 44.0286 100.855ZM53.523 105.147C53.6979 104.86 54.1752 104.206 54.9548 103.186C55.0362 104.731 54.6429 105.732 53.7751 106.187C53.5594 105.701 53.4754 105.354 53.523 105.147ZM45.9398 128.305C46.7041 127.826 47.1618 127.495 47.3129 127.311C47.4879 127.024 47.758 126.323 48.1232 125.207L46.7374 125.543C46.2993 125.552 45.8492 125.612 45.3873 125.724C44.9184 126.816 45.1026 127.676 45.9398 128.305ZM55.2844 153.837C54.6628 153.694 54.4234 153.312 54.5661 152.691C55.1554 152.499 55.6097 152.658 55.9289 153.167L55.8933 153.323C55.8695 153.426 55.8975 153.542 55.9773 153.669C55.7225 153.829 55.4916 153.885 55.2844 153.837ZM74.8522 129.625C75.1453 129.686 75.3148 129.616 75.3609 129.415C76.0692 128.706 76.7137 128.036 77.2946 127.406C77.9791 126.799 78.6236 126.13 79.2283 125.396C79.9841 124.479 80.5846 123.526 81.0296 122.538C81.602 121.47 82.2661 120.477 83.022 119.56L82.9253 118.557C82.217 119.266 81.5724 119.936 80.9916 120.566C80.5381 121.116 80.1126 121.782 79.7151 122.563C79.5402 122.85 79.3533 123.189 79.1546 123.58C78.9796 123.867 78.7648 124.09 78.51 124.25C77.6744 125.039 76.9305 125.904 76.2782 126.845C75.7774 127.667 75.3021 128.594 74.8522 129.625ZM73.7484 130.027C74.0622 129.996 74.3865 129.921 74.7213 129.799C74.5996 130.031 74.5105 130.269 74.4539 130.516C74.4862 130.85 74.2713 131.074 73.8094 131.186C73.7058 131.162 73.5742 131.023 73.4146 130.768C73.4061 130.33 73.5174 130.083 73.7484 130.027ZM94.79 109.337C95.6732 108.34 96.2737 107.388 96.5913 106.479C97.0364 105.491 97.6249 104.59 98.3569 103.777L97.519 102.439C97.3033 101.953 97.0359 101.456 96.7167 100.946C96.4619 101.106 96.2191 101.214 95.9881 101.27C95.8607 101.35 95.7214 101.481 95.5703 101.665C95.3562 102.597 95.0903 103.517 94.7727 104.426C94.5824 105.255 94.432 106.147 94.3215 107.103C94.2502 107.414 94.2824 107.748 94.4182 108.107C94.5778 108.362 94.7018 108.772 94.79 109.337ZM88.0879 103.798L88.3986 103.87L87.8254 104.229C87.8492 104.125 87.8093 104.062 87.7057 104.038L87.7771 103.727L87.9681 103.607C88.0717 103.631 88.1116 103.695 88.0879 103.798ZM58.4417 75.0695C58.3381 75.0458 58.2744 75.0857 58.2506 75.1892L58.322 74.8785C58.4256 74.9023 58.4893 74.8624 58.5131 74.7588L58.4417 75.0695ZM77.205 88.9405L77.4318 88.6654L77.6228 88.5457L77.2764 88.6297L77.205 88.9405ZM47.2293 73.7024C47.7948 73.6141 48.0894 73.5182 48.1132 73.4146C48.2644 73.2312 48.2559 72.793 48.0879 72.1001C47.164 72.3242 46.8778 72.8583 47.2293 73.7024ZM44.5315 100.432L44.1493 100.671L44.2207 100.36C44.3719 100.177 44.4712 99.9815 44.5188 99.7743C44.6546 100.133 44.6589 100.352 44.5315 100.432Z" fill="#91CCD9"/>
<path d="M128.519 33.5232C128.998 33.236 129.412 32.9443 129.763 32.648C129.788 32.3929 129.882 32.0784 130.047 31.7047C129.593 29.7453 129.586 27.8177 130.027 25.9219C130.04 25.7943 130.006 25.4708 129.928 24.9513C130.039 23.803 129.56 23.0944 128.492 22.8258L125.114 21.8147L121.735 20.8037C120.634 20.2114 119.565 19.9428 118.53 19.9976C118.019 19.9613 117.478 19.8907 116.909 19.786C116.34 19.6813 115.735 19.6062 115.096 19.5608C114.213 19.3695 113.324 19.2421 112.429 19.1785C111.534 19.1148 110.61 19.017 109.657 18.885C108.585 19.3227 107.473 19.5006 106.323 19.4188C105.23 19.4053 104.095 19.4852 102.92 19.6586C101.872 19.8411 100.866 19.9301 99.9005 19.9257C98.9354 19.9213 97.8361 19.9717 96.6029 20.0767C94.6108 20.7059 92.5135 21.424 90.3111 22.2309C88.1087 23.0379 85.9352 23.8791 83.7905 24.7544C82.8461 25.2011 81.8665 25.6775 80.852 26.1835C79.9075 26.6302 78.9053 27.0086 77.8453 27.3187C77.6474 27.3689 77.4783 27.4532 77.3381 27.5717C77.1978 27.6902 76.9937 27.8042 76.7256 27.9136C76.5114 28.7977 76.3033 29.6179 76.1013 30.3744C75.1075 31.3316 74.1426 32.3229 73.2065 33.3484C72.3282 34.4422 71.5015 35.6681 70.7264 37.0263C70.5615 37.4 70.3038 37.7349 69.9533 38.0312C69.6028 38.3275 69.211 38.7172 68.778 39.2003C68.6255 39.4464 68.4668 39.7563 68.3019 40.13C68.1947 40.572 67.9948 40.9753 67.702 41.3399C66.8938 42.3745 66.3002 43.5207 65.921 44.7785C65.6119 45.977 65.0822 47.1277 64.3318 48.2306C63.8124 49.6069 63.3632 50.924 62.984 52.1818C62.7327 53.4486 62.5392 54.7839 62.4034 56.1874C62.3417 56.8254 62.3151 57.4338 62.3235 58.0125L62.3487 59.7487C62.3571 60.3274 62.3366 60.872 62.2872 61.3824C62.2956 61.9611 62.2401 62.5353 62.1206 63.1049C61.8856 63.5379 61.8073 64.0141 61.8858 64.5336C62.0221 65.1214 66.6195 66.5082 70.2015 65.4139C74.1668 64.2025 77.4402 64.4511 77.4649 64.1959C77.4812 63.362 77.4624 62.5577 77.4086 61.783C77.4249 60.9491 77.4061 60.1448 77.3523 59.3701L77.1657 55.3099C77.1035 53.9565 77.297 52.6213 77.7463 51.3042C77.841 50.9898 77.8368 50.7004 77.7337 50.4361L77.7892 49.8619C78.3086 48.4857 78.8506 47.2073 79.4154 46.027C80.1081 44.8557 80.6667 43.7392 81.0913 42.6773C81.7346 42.0165 82.3367 41.449 82.8975 40.975C83.5285 40.4417 84.0666 39.8697 84.5119 39.259C84.9819 38.3931 85.5427 37.9191 86.1944 37.837C87.011 37.3811 87.7348 36.8866 88.3657 36.3533C89.0668 35.7608 89.7205 35.3255 90.3267 35.0474C91.2588 34.7282 92.0569 34.4638 92.7209 34.254C93.385 34.0443 94.0263 33.7366 94.6449 33.3309C95.5316 32.8158 96.3998 32.4921 97.2494 32.3598C98.1692 32.1683 99.0539 32.0064 99.9036 31.8741C101.335 31.7189 102.731 31.5933 104.092 31.4974C105.581 31.4105 107.041 31.2895 108.473 31.1343C109.834 31.0384 111.176 31.1338 112.5 31.4207C113.684 31.8261 114.852 32.0697 116.003 32.1515C117.223 32.174 118.414 32.5156 119.573 33.1762C119.631 33.2445 119.694 33.2491 119.765 33.1898C119.835 33.1305 119.934 33.1055 120.062 33.1146C121.167 33.0004 122.19 33.0732 123.13 33.3328C124.129 33.6607 125.162 33.959 126.23 34.2276C126.358 34.2367 126.457 34.2117 126.527 34.1524L127.103 34.1933C127.569 34.0337 128.041 33.8104 128.519 33.5232Z" fill="#91CCD9"/>
<path d="M102.932 122.155C103.257 121.831 103.641 121.501 104.084 121.166C104.528 120.831 104.966 120.555 105.399 120.339L105.935 120.29C106 120.225 106.092 120.188 106.211 120.177C107.207 120.264 108.171 120.384 109.102 120.537C109.979 120.635 110.932 120.549 111.96 120.279C112.079 120.269 112.171 120.231 112.236 120.166C112.301 120.101 112.361 120.096 112.415 120.15C113.498 120.584 114.608 120.72 115.744 120.559C116.816 120.462 117.904 120.512 119.009 120.707C120.243 120.773 121.494 120.661 122.76 120.37C124.091 120.013 125.45 119.684 126.836 119.382C128.102 119.091 129.401 118.767 130.732 118.411C131.523 118.163 132.345 117.882 133.2 117.569C133.99 117.321 134.797 116.894 135.619 116.288C136.192 115.823 136.788 115.444 137.404 115.153C138.021 114.861 138.763 114.499 139.628 114.066C140.191 113.72 140.797 113.223 141.446 112.574C142.03 111.99 142.701 111.427 143.458 110.887C144.065 110.714 144.584 110.195 145.016 109.329C145.427 108.701 145.925 108.095 146.509 107.511C147.028 106.992 147.585 106.381 148.18 105.677C148.569 104.638 149.082 103.529 149.72 102.349C150.239 101.181 150.736 99.925 151.211 98.5829L151.259 98.047C151.162 97.8196 151.156 97.5543 151.242 97.2512C151.653 95.974 151.825 94.7182 151.759 93.4839L151.561 89.7809C151.506 89.0771 151.484 88.3409 151.494 87.5722C151.439 86.8684 151.417 86.1321 151.427 85.3634C151.449 85.1253 154.181 83.8523 158.181 83.1605C162 82.5 162.37 82.9802 162.5 83.5C162.457 83.9763 163.258 85.1535 163.27 85.684C163.281 86.2145 163.489 86.9695 163.5 87.5C163.511 88.0305 163.554 88.4046 163.5 89C163.382 90.31 162.726 91.7984 162.5 93C162.155 94.2123 162.975 95.1579 162.5 96.5C161.808 97.6254 161.281 98.3526 161 99.5C160.655 100.712 160.746 101.929 160 103C159.73 103.379 159.097 104.486 159 104.908C158.849 105.276 158.141 105.251 158 105.5C157.6 106.009 157.325 106.175 157 106.5C156.675 106.825 156.651 108.132 156.5 108.5C155.787 109.864 155.311 109.864 154.5 111C153.635 112.082 153.419 112.472 152.5 113.5C152.316 114.225 151.694 114.308 151.5 115.153C151.251 115.293 150.13 116.37 150 116.5C149.87 116.63 148.684 117.424 148.5 117.5C147.515 117.943 147.876 118.449 147 119C146.059 119.616 144.876 120.449 144 121C142.009 122.124 140.045 123.43 138 124.5C135.955 125.57 135.051 124.625 133.2 125.5C132.053 125.781 131.398 126.36 130.5 126.5C129.601 126.64 128.474 126.676 127.5 127C126.407 127.335 125.018 127.849 124 128C122.928 128.097 121.996 127.938 121 128.5C120.112 128.521 119.842 128.925 119.009 129C118.175 129.075 117.823 129.044 117 129C116.405 129.054 115.53 129.401 115 129.39C114.469 129.379 113.976 129.347 113.5 129.39C112.537 129.595 111.529 129.77 110.5 129.39C109.45 129.248 110.476 128.375 107.5 129.39C106.948 129.315 107.418 129.229 107.53 129.211C107.438 129.224 107.042 129.276 105.935 129.39C104.939 129.302 105.399 129.39 104.084 129.39C104.008 128.924 102.716 128.494 102.726 128.375C103.125 126.568 103.108 124.797 102.673 123.065C102.824 122.697 102.911 122.394 102.932 122.155Z" fill="#262425"/>
</svg>
