<svg width="93" height="93" viewBox="0 0 93 93" fill="none" xmlns="http://www.w3.org/2000/svg">
<path d="M28.7686 5.65119C30.2511 4.83611 31.8725 4.24745 33.6329 3.88519C35.3933 3.43237 37.061 2.70786 38.6361 1.71166C38.9141 1.43997 39.2384 1.30412 39.609 1.30412C39.9796 1.21356 40.3502 1.16828 40.7208 1.16828C42.9445 0.806021 45.2144 0.489046 47.5308 0.217353C49.8471 -0.144903 52.1634 -0.0543377 54.4797 0.489049C54.943 0.670174 55.3599 0.715456 55.7305 0.624893C56.1938 0.53433 56.657 0.443765 57.1203 0.353197C58.788 1.07771 60.4095 1.8475 61.9846 2.66258C63.5596 3.38709 64.9958 4.38329 66.2929 5.65119C67.868 6.104 69.1651 6.82851 70.1843 7.82471C71.2961 8.73036 72.3616 9.81712 73.3808 11.085C75.4192 12.0812 77.2722 13.3491 78.94 14.8887C80.6077 16.4283 82.2291 18.0584 83.8042 19.7791C84.2675 20.232 84.6381 20.8206 84.9161 21.5451C85.2867 22.1791 85.5183 22.7677 85.611 23.3111C85.7963 24.2168 86.0279 25.0771 86.3058 25.8922C86.6765 26.6167 87.0934 27.3865 87.5567 28.2016C88.2052 29.4695 88.7611 30.7826 89.2244 32.1411C89.6877 33.409 90.2436 34.6769 90.8922 35.9448C90.9848 36.307 91.0775 36.6693 91.1701 37.0316C91.2628 37.3032 91.3091 37.5297 91.3091 37.7108C91.3091 39.1598 91.4481 40.5183 91.726 41.7862C92.0966 43.054 92.3283 44.3219 92.4209 45.5898C92.8842 48.5784 93.0695 51.567 92.9768 54.5557C92.8842 57.4537 92.5136 60.3517 91.865 63.2498C91.865 65.0611 91.4017 66.6459 90.4752 68.0044C89.6413 69.3628 89.0391 70.9024 88.6685 72.6231C87.8346 73.7099 87.0471 74.7967 86.3058 75.8834C85.5646 76.9702 84.7771 78.0117 83.9432 79.0079C83.6653 79.2796 83.5726 79.4154 83.6653 79.4154C79.4032 84.2153 74.1684 87.5209 67.9606 89.3322C67.4047 89.5133 66.8488 89.7397 66.2929 90.0114C65.8296 90.1925 65.32 90.3284 64.7641 90.4189C63.467 90.8717 62.0772 91.2793 60.5948 91.6415C59.205 91.9132 57.7225 92.0491 56.1474 92.0491C54.5723 91.9585 52.9046 91.9585 51.1442 92.0491C49.4765 92.1396 47.8087 92.4113 46.141 92.8642C45.3997 92.9547 44.6122 93 43.7783 93C42.9445 92.9094 41.9716 92.8642 40.8598 92.8642C39.7479 92.4113 38.4508 91.9585 36.9684 91.5057C35.4859 91.0529 34.0498 90.4189 32.66 89.6039C32.0115 89.151 31.2702 88.7888 30.4364 88.5171C29.6025 88.2454 28.7223 87.9737 27.7958 87.702C26.9619 87.6114 26.1743 87.4756 25.4331 87.2945C24.6919 87.1133 23.997 86.9322 23.3484 86.7511C22.2366 86.3888 21.2638 85.936 20.4299 85.3926C19.6887 84.8493 18.9011 84.2153 18.0672 83.4908C16.8628 82.3135 15.6583 81.0909 14.4538 79.823C13.342 78.4645 11.9522 77.3325 10.2844 76.4268C9.91382 76.1551 9.31158 75.5212 8.47771 74.525C7.45853 72.6231 6.532 70.6307 5.69813 68.5478C4.86426 66.4648 4.07671 64.3818 3.33549 62.2989C2.96488 62.1177 2.77958 61.7555 2.77958 61.2121C2.59427 59.1291 2.22366 57.0914 1.66775 55.099C1.11183 53.1066 0.602242 51.0689 0.138979 48.986C-0.0463263 47.3558 -0.0463263 45.8615 0.138979 44.5031C0.416936 43.2352 0.74122 42.0578 1.11183 40.9711C1.48244 39.8843 1.80672 38.7523 2.08468 37.5749C2.91856 34.2241 4.12304 31.1449 5.69813 28.3374C7.27322 25.4394 8.89464 22.5413 10.5624 19.6433C10.7477 19.281 10.9793 18.9641 11.2573 18.6924C11.6279 18.3301 11.9059 18.0584 12.0912 17.8773C13.203 16.6094 14.3611 15.4321 15.5656 14.3453C16.7701 13.168 17.9746 11.9001 19.1791 10.5416L28.7686 5.65119ZM24.5993 14.617C21.8197 17.1528 19.1791 19.7791 16.6775 22.4961C14.1758 25.1224 11.9059 28.0204 9.8675 31.1902C8.19975 33.6354 7.08792 36.4882 6.532 39.7485C6.43935 40.3824 6.30037 41.1069 6.11507 41.922C5.92976 42.6465 5.74446 43.371 5.55915 44.0955C6.02242 44.7295 6.30037 45.454 6.39303 46.2691C6.48568 47.0841 6.48568 47.8992 6.39303 48.7143C6.20772 49.3482 6.06874 50.0275 5.97609 50.752C5.88344 51.4765 5.74446 52.1104 5.55915 52.6538C6.02242 53.7406 6.39303 54.7368 6.67098 55.6424C6.94894 56.4575 7.13425 57.2273 7.2269 57.9518C7.50486 59.0386 7.73649 60.08 7.92179 61.0762C8.1071 62.0724 8.2924 63.0686 8.47771 64.0648C8.66301 64.5177 8.89464 64.9705 9.1726 65.4233C9.54321 65.8761 9.77484 66.3289 9.8675 66.7818C10.4234 68.3214 11.2573 69.6345 12.3691 70.7213C13.4809 71.8081 14.5928 72.8495 15.7046 73.8457C16.8164 74.8419 17.9283 75.7023 19.0401 76.4268C20.1519 77.0608 21.2638 77.7853 22.3756 78.6003C23.4874 79.2343 24.5993 79.9135 25.7111 80.638C26.9156 81.3625 28.2127 82.1323 29.6025 82.9474C30.529 83.2191 31.4555 83.5814 32.3821 84.0342C33.3086 84.3964 34.3278 84.7134 35.4396 84.9851C36.7367 85.1662 37.9412 85.3021 39.0531 85.3926C40.2575 85.4832 41.5083 85.6643 42.8055 85.936H44.0563C45.8167 86.4794 47.5771 86.7511 49.3375 86.7511C51.1905 86.6605 53.0436 86.6605 54.8966 86.7511C55.7305 86.7511 56.4717 86.6605 57.1203 86.4794C57.8615 86.2983 58.6027 86.1171 59.344 85.936C61.5676 85.3021 63.6986 84.6228 65.737 83.8983C67.7753 83.0833 69.86 82.2229 71.991 81.3173C75.6045 79.6871 78.4304 77.3325 80.4687 74.2533C82.0438 71.8081 83.6189 69.0459 85.194 65.9667C85.472 65.8761 85.611 65.5139 85.611 64.8799C85.7963 63.612 86.0742 62.3894 86.4448 61.2121C86.8154 59.9442 87.0934 58.5857 87.2787 57.1367C87.464 56.1405 87.5103 55.1896 87.4177 54.284C87.4177 53.2878 87.2787 52.3368 87.0007 51.4312C86.7228 50.0727 86.5375 48.669 86.4448 47.22C86.3522 45.6804 86.2132 44.2314 86.0279 42.8729C86.0279 42.1484 85.9816 41.4692 85.8889 40.8352C85.8889 40.2013 85.7963 39.5673 85.611 38.9334C84.8697 36.7599 84.1285 34.6316 83.3873 32.5486C82.6461 30.3751 81.3489 28.428 79.4959 26.7073C79.0326 26.6167 78.7083 26.345 78.523 25.8922C77.7818 24.5337 76.9016 23.3111 75.8824 22.2244C74.8633 21.1376 73.7051 20.0508 72.408 18.9641C70.5549 17.0622 68.6092 15.2962 66.5709 13.6661C65.9223 13.485 65.2737 13.3038 64.6252 13.1227C64.0692 12.9416 63.4207 12.7604 62.6795 12.5793C61.9382 12.1265 61.197 11.7642 60.4558 11.4925C59.8072 11.2209 59.1123 10.9492 58.3711 10.6775C57.2593 10.0435 56.1011 9.54543 54.8966 9.18318C53.7848 8.82092 52.5803 8.73036 51.2832 8.91148C50.3567 8.91148 49.4765 8.73035 48.6426 8.3681C47.9014 8.00584 47.0675 7.68887 46.141 7.41718C45.5851 7.41718 44.9365 7.41718 44.1953 7.41718C43.5467 7.41718 42.8518 7.50774 42.1106 7.68887C40.9061 7.87 39.2847 8.23226 37.2463 8.77564C35.3006 9.22846 33.9572 9.63599 33.2159 9.99825C31.9188 10.9039 30.529 11.6737 29.0466 12.3076C27.6568 12.851 26.1743 13.6208 24.5993 14.617Z" fill="white"/>
</svg>
