<svg width="71" height="80" viewBox="0 0 71 80" fill="none" xmlns="http://www.w3.org/2000/svg">
<path d="M70.606 0.78322C71.1313 2.8718 71.1313 4.7366 70.606 6.37763C70.2308 7.27273 70.0057 8.20513 69.9306 9.17483C69.9306 10.0699 69.8556 11.0396 69.7055 12.0839C69.6305 13.5758 69.5179 15.0303 69.3678 16.4476C69.2928 17.8648 69.1427 19.2821 68.9176 20.6993C68.6924 22.2657 68.5424 23.8695 68.4673 25.5105C68.4673 27.0769 68.4673 28.6434 68.4673 30.2098V35.4685C68.4673 36.2145 68.3547 36.9604 68.1296 37.7063C67.5293 39.6457 67.1916 41.6224 67.1165 43.6364C67.1165 45.5758 67.154 47.5152 67.2291 49.4546C67.3792 50.4988 67.4167 51.5431 67.3417 52.5874C67.2666 53.6317 67.0415 54.7133 66.6663 55.8322C66.5162 56.2051 66.4411 56.6527 66.4411 57.1748C66.4411 57.6224 66.3661 58.1072 66.216 58.6294C66.0659 61.0163 66.0284 63.366 66.1034 65.6783C66.1785 67.9161 66.2911 70.2284 66.4411 72.6154C66.4411 73.1375 66.3661 73.6224 66.216 74.0699C66.0659 74.5175 65.7282 74.9277 65.2029 75.3007C63.477 75.5991 61.751 75.8601 60.025 76.0839C58.374 76.2331 56.6105 76.3077 54.7344 76.3077C51.8828 76.1585 49.0312 76.1212 46.1796 76.1958C43.3279 76.2704 40.4388 76.3077 37.5121 76.3077C37.2119 76.3077 36.8742 76.3077 36.499 76.3077C36.1238 76.3077 35.7111 76.3823 35.2608 76.5315C33.7599 77.0536 32.2216 77.352 30.6457 77.4266C29.0698 77.5012 27.5314 77.6131 26.0305 77.7622C25.2801 77.7622 24.5672 77.8368 23.8918 77.986C23.2915 78.1352 22.6161 78.2471 21.8656 78.3217C19.9145 78.5455 17.9634 78.8065 16.0123 79.1049C14.0612 79.4033 12.1476 79.7016 10.2715 80C9.7462 80 9.2209 79.9627 8.6956 79.8881C8.24534 79.8135 7.83261 79.7016 7.45739 79.5525C7.00714 79.5525 6.55688 79.5525 6.10662 79.5525C5.7314 79.5525 5.35619 79.627 4.98098 79.7762C3.93037 78.9557 2.99234 78.1352 2.16686 77.3147C1.41644 76.4196 0.778571 75.338 0.25327 74.0699C0.028141 72.951 -0.0469019 71.7949 0.0281412 70.6014C0.103184 69.4079 0.290791 68.2518 0.590963 67.1329C0.741049 66.5361 0.853614 65.9394 0.928657 65.3427C1.0037 64.7459 1.04122 64.1492 1.04122 63.5524C1.04122 61.9114 1.11626 60.3077 1.26635 58.7413C1.49148 57.1002 1.56652 55.4219 1.49148 53.7063C1.34139 53.035 1.30387 52.3636 1.37891 51.6923C1.529 50.9464 1.67909 50.2751 1.82917 49.6783C2.20439 48.5594 2.39199 47.4033 2.39199 46.2098C2.46704 45.0163 2.50456 43.8228 2.50456 42.6294C2.65464 40.9883 2.72969 39.3473 2.72969 37.7063C2.80473 35.9907 2.99234 34.3124 3.29251 32.6713C3.4426 31.9254 3.48012 31.1795 3.40507 30.4336C3.33003 29.6131 3.36755 28.8298 3.51764 28.0839C3.51764 26.3683 3.55516 24.69 3.6302 23.049C3.78029 21.4079 4.00542 19.7296 4.30559 18.014C4.1555 17.1935 4.00542 16.373 3.85533 15.5525C3.78029 14.6573 3.74277 13.7995 3.74277 12.979C3.74277 12.0093 3.78029 11.1142 3.85533 10.2937C3.93037 9.3986 3.89285 8.5035 3.74277 7.60839C3.59268 6.86247 3.66772 6.19114 3.9679 5.59441C4.26807 4.92308 4.53072 4.28905 4.75585 3.69231C5.2061 2.94639 5.95653 2.27506 7.00713 1.67833C7.38235 1.82751 7.83261 1.97669 8.35791 2.12588C8.88321 2.20047 9.33347 2.16317 9.70868 2.01399C11.0595 1.71562 12.4102 1.60373 13.761 1.67833C15.1868 1.67833 16.5751 1.37996 17.9259 0.78322C18.9765 0.484851 20.0271 0.335667 21.0777 0.335667C22.1283 0.261076 23.2164 0.22378 24.3421 0.22378C25.4677 0.22378 26.6309 0.22378 27.8316 0.22378C29.0322 0.22378 30.1954 0.298371 31.3211 0.447553C32.1465 0.447553 32.9345 0.447553 33.6849 0.447553C34.5104 0.447553 35.3358 0.372962 36.1613 0.22378C36.8367 0.0745933 37.5871 0 38.4126 0C39.2381 0 40.0636 0 40.889 0C41.4143 0 41.9396 0.0745933 42.4649 0.22378C43.0653 0.372962 43.6281 0.447553 44.1534 0.447553C44.7537 0.447553 45.3541 0.410258 45.9544 0.335667C46.6298 0.261076 47.2677 0.22378 47.868 0.22378H63.7396C64.7902 0.22378 65.8783 0.261076 67.004 0.335667C68.1296 0.335667 69.3303 0.484851 70.606 0.78322ZM8.6956 12.7552C8.84569 13.6504 8.92073 14.5082 8.92073 15.3287C8.99577 16.0746 9.10834 16.8578 9.25842 17.6783C9.25842 19.021 9.07082 20.5128 8.6956 22.1538C8.54551 23.1981 8.47047 24.2051 8.47047 25.1748C8.47047 26.0699 8.39543 27.0396 8.24534 28.0839C8.09526 28.6061 8.02022 29.1655 8.02022 29.7622C8.02022 30.2844 7.94517 30.8438 7.79509 31.4406C7.26978 33.3054 7.23226 35.2821 7.68252 37.3706C7.75756 37.669 7.79509 38.042 7.79509 38.4895C7.87013 38.8625 7.83261 39.2354 7.68252 39.6084C7.23226 40.5035 7.04466 41.4732 7.1197 42.5175C7.19474 43.4872 7.23226 44.4196 7.23226 45.3147C7.08218 46.5828 7.04466 47.8508 7.1197 49.1189C7.19474 50.387 6.96961 51.655 6.44431 52.9231C6.29423 53.296 6.21918 53.7436 6.21918 54.2657C6.21918 54.7879 6.21918 55.31 6.21918 55.8322C6.0691 58.2191 5.99405 60.5688 5.99405 62.8811C5.99405 65.1935 5.91901 67.5431 5.76893 69.9301C5.76893 70.0047 5.91901 70.4149 6.21918 71.1608C6.74448 71.9814 7.41987 72.8019 8.24534 73.6224C8.77064 73.7716 9.25842 73.9207 9.70868 74.0699C10.234 74.2191 10.7218 74.2937 11.172 74.2937C13.5734 74.1445 15.9372 74.1072 18.2636 74.1818C20.5899 74.2564 22.9538 73.9953 25.3551 73.3986C27.0811 73.1002 28.8071 72.951 30.5331 72.951C32.3341 72.951 34.0601 72.6527 35.7111 72.0559H53.4962C55.3723 72.0559 57.2859 71.8322 59.237 71.3846C59.5372 71.3846 59.7998 71.31 60.025 71.1608C60.2501 70.9371 60.5503 70.7506 60.9255 70.6014C61.3007 69.1842 61.6009 68.1026 61.826 67.3567C62.0511 66.5361 62.2012 65.8275 62.2763 65.2308C62.4263 64.634 62.5014 64.0373 62.5014 63.4406C62.5764 62.8438 62.6515 62.0233 62.7265 60.979V58.6294C62.9516 57.3613 63.0642 56.1305 63.0642 54.9371C63.0642 53.669 63.1768 52.4009 63.4019 51.1329C63.7021 49.7902 63.7771 48.4103 63.627 46.993C63.552 45.5758 63.5895 44.1958 63.7396 42.8531C63.7396 41.8089 63.7396 40.8392 63.7396 39.9441C63.8146 38.9744 64.0398 38.042 64.415 37.1469C64.9403 34.8345 65.2029 32.5221 65.2029 30.2098C64.9778 26.8531 65.2029 23.5711 65.8783 20.3636C65.9534 19.7669 66.0284 19.2448 66.1034 18.7972C66.1785 18.2751 66.216 17.7529 66.216 17.2308C66.216 15.7389 66.1785 14.2098 66.1034 12.6434C66.0284 11.0769 65.9909 9.54779 65.9909 8.05595C65.9158 7.31003 65.6157 6.67599 65.0904 6.15385C64.6401 5.6317 64.0773 5.29604 63.4019 5.14685C63.1768 5.14685 62.9141 5.10956 62.614 5.03497C62.3138 4.96038 62.0136 4.92308 61.7134 4.92308C59.9875 4.6993 58.2239 4.55012 56.4229 4.47553C54.6969 4.40094 52.9334 4.21446 51.1324 3.91609C50.457 3.7669 49.7441 3.72961 48.9937 3.8042C48.3183 3.87879 47.6804 3.99068 47.0801 4.13986C45.7293 4.43823 44.3785 4.7366 43.0277 5.03497C41.677 5.33334 40.3262 5.55711 38.9754 5.7063C36.9493 6.07926 34.8856 6.22844 32.7844 6.15385C30.7582 6.00466 28.6945 5.85548 26.5933 5.7063C26.1431 5.7063 25.8054 5.59441 25.5803 5.37063C24.8298 4.92308 24.0419 4.7366 23.2164 4.81119C22.466 4.81119 21.678 4.92308 20.8526 5.14685C19.5018 5.44522 18.076 5.7063 16.5751 5.93007C15.1493 6.07926 13.686 6.15385 12.1851 6.15385C11.96 6.15385 11.7724 6.19114 11.6223 6.26574C11.4722 6.34033 11.2471 6.45222 10.9469 6.6014C9.97133 7.42192 9.44603 8.42891 9.37099 9.62238C9.29594 10.7413 9.07082 11.7855 8.6956 12.7552ZM30.5331 15.7762C29.4825 16.0746 28.3944 16.2611 27.2687 16.3357C26.2181 16.4103 25.1675 16.4476 24.1169 16.4476C23.0663 16.4476 22.0157 16.5221 20.9651 16.6713C19.9145 16.7459 18.9014 17.007 17.9259 17.4545C17.4006 17.2308 17.0629 16.9324 16.9128 16.5594C16.7627 16.1865 16.6126 15.8135 16.4625 15.4406C16.3125 14.993 16.0873 14.5828 15.7872 14.2098C15.562 13.7622 15.5245 13.2774 15.6746 12.7552C16.0498 12.1585 16.5001 11.6364 17.0254 11.1888C17.6257 10.6667 18.2261 10.2191 18.8264 9.84616C19.952 10.2937 21.2278 10.6294 22.6536 10.8531C23.404 10.8531 24.0794 10.8904 24.6797 10.965C25.3551 10.965 26.068 11.0769 26.8185 11.3007C27.2687 11.5245 27.8316 11.5245 28.5069 11.3007C30.8333 10.4802 33.0846 10.6667 35.2608 11.8601C36.6116 11.711 37.9999 11.6737 39.4257 11.7483C40.8515 11.7483 42.2398 11.5991 43.5906 11.3007C43.7407 11.1515 44.0033 11.0769 44.3785 11.0769C44.7537 11.0769 45.0164 11.1515 45.1665 11.3007C46.8925 11.6737 48.5434 11.8601 50.1193 11.8601C51.7702 11.8601 53.4212 11.8228 55.0721 11.7483H56.9857C58.1864 11.7483 58.7868 12.5688 58.7868 14.2098C58.7868 14.2844 58.7492 14.359 58.6742 14.4336C58.5992 14.5082 58.5616 14.6201 58.5616 14.7692C57.7362 15.1422 57.0608 15.4406 56.5355 15.6643C56.0852 15.8881 55.6725 16.0746 55.2973 16.2238C54.9971 16.373 54.6594 16.4848 54.2842 16.5594C53.984 16.5594 53.5713 16.5222 53.046 16.4476C51.395 16.2238 49.7441 16.2238 48.0931 16.4476C46.4422 16.6713 44.7913 16.5221 43.1403 16C42.615 15.7762 42.0522 15.7389 41.4518 15.8881C40.8515 15.9627 40.2512 16.0746 39.6508 16.2238C38.0749 16.4476 36.5365 16.5594 35.0357 16.5594C33.5348 16.5594 32.034 16.2984 30.5331 15.7762ZM60.025 24.1678C59.7998 26.1072 59.0494 27.0769 57.7737 27.0769C56.498 27.2261 55.2222 27.3007 53.9465 27.3007C52.7458 27.3007 51.4701 27.3007 50.1193 27.3007C48.0931 27.3007 46.0295 27.2634 43.9283 27.1888C41.9021 27.1142 39.8384 27.0023 37.7372 26.8531C36.4615 26.8531 35.2233 26.8904 34.0226 26.965C32.8219 27.0396 31.5837 27.3007 30.308 27.7483C29.1823 28.1212 28.2443 28.3077 27.4939 28.3077C26.4433 28.3077 25.4302 28.3823 24.4546 28.5315C23.5541 28.6807 22.6161 28.9417 21.6405 29.3147C21.0402 29.5385 20.3648 29.6876 19.6143 29.7622C18.939 29.7622 18.2636 29.6876 17.5882 29.5385C17.4381 29.3147 17.288 29.1655 17.1379 29.0909C16.9878 29.0163 16.8378 28.9044 16.6877 28.7552C16.5376 28.1585 16.425 27.5991 16.35 27.0769C16.2749 26.4802 16.3125 25.8835 16.4625 25.2867C16.6877 24.3916 17.1755 23.8322 17.9259 23.6084C18.7514 23.2354 19.5768 23.0117 20.4023 22.9371C21.3028 22.8625 22.2033 22.7506 23.1038 22.6014C23.8543 22.8252 24.5672 22.9371 25.2426 22.9371C25.993 22.9371 26.7059 22.8998 27.3813 22.8252C28.1317 22.7506 28.8446 22.676 29.52 22.6014C30.2704 22.5268 31.0209 22.5268 31.7713 22.6014C33.047 22.2284 34.3228 22.1166 35.5985 22.2657C36.8742 22.4149 38.15 22.303 39.4257 21.9301C39.7259 21.7809 40.026 21.7436 40.3262 21.8182C40.6264 21.8928 40.889 21.9301 41.1142 21.9301C43.5906 22.3776 45.9919 22.6014 48.3183 22.6014C49.4439 22.6014 50.5696 22.6387 51.6952 22.7133C52.8209 22.7879 53.9465 23.0117 55.0721 23.3846C55.6725 23.5338 56.2728 23.5711 56.8732 23.4965C57.4735 23.4219 58.0363 23.3846 58.5616 23.3846C58.9369 23.5338 59.237 23.683 59.4622 23.8322C59.6873 23.9814 59.8749 24.0932 60.025 24.1678ZM57.3234 39.6084C57.0233 39.8322 56.7231 40.056 56.4229 40.2797C56.1227 40.4289 55.8976 40.6154 55.7475 40.8392C53.2711 41.3613 50.7947 41.5851 48.3183 41.5105C45.8419 41.3613 43.3654 41.324 40.889 41.3986C39.9135 41.3986 38.9379 41.3986 37.9623 41.3986C36.9868 41.324 36.0112 41.2867 35.0357 41.2867C34.5104 41.2867 33.9851 41.324 33.4598 41.3986C33.0095 41.3986 32.5968 41.4732 32.2216 41.6224C30.9458 41.9953 29.6701 42.2191 28.3944 42.2937C27.1186 42.2937 25.8429 42.2937 24.5672 42.2937C23.5166 42.4429 22.3909 42.5548 21.1903 42.6294C20.0646 42.6294 18.8639 42.704 17.5882 42.8531C16.6126 42.704 15.9748 42.2564 15.6746 41.5105C15.4495 40.69 15.4495 39.7203 15.6746 38.6014C15.8247 38.3776 15.9372 38.1538 16.0123 37.9301C16.1624 37.6317 16.3125 37.3706 16.4625 37.1469C16.6877 36.9231 16.9128 36.7366 17.1379 36.5874C17.3631 36.3636 17.5507 36.1399 17.7008 35.9161C18.9765 35.4685 20.1772 35.4685 21.3028 35.9161C22.5785 36.4382 23.8168 36.7739 25.0174 36.9231C26.2181 37.0723 27.4563 37.0723 28.7321 36.9231C29.0322 36.9231 29.3324 36.9231 29.6326 36.9231C29.9328 36.9231 30.1579 36.9977 30.308 37.1469C30.8333 37.296 31.3586 37.4079 31.8839 37.4825C32.4092 37.4825 32.8594 37.3706 33.2346 37.1469C33.9851 36.9231 34.6605 36.8112 35.2608 36.8112C35.9362 36.7366 36.6491 36.6993 37.3995 36.6993C39.951 36.6993 42.54 36.6993 45.1665 36.6993C47.868 36.6993 50.5696 36.7739 53.2711 36.9231H54.2842C55.0346 37.0723 55.6725 37.3333 56.1978 37.7063C56.7981 38.0047 57.1733 38.6387 57.3234 39.6084ZM22.8787 54.8252C21.8281 55.3473 20.815 55.7949 19.8395 56.1678C18.939 56.4662 17.9634 56.5408 16.9128 56.3916C16.5376 56.2424 16.0873 56.2424 15.562 56.3916C15.1118 56.5408 14.5865 56.6154 13.9861 56.6154C13.3107 56.7646 12.7104 56.5781 12.1851 56.0559C11.7348 55.4592 11.5097 54.7506 11.5097 53.9301C11.6598 53.3333 11.8099 52.8858 11.96 52.5874C12.1101 52.289 12.5978 51.8042 13.4233 51.1329C16.1999 50.7599 18.9765 50.5734 21.7531 50.5734C24.6047 50.4988 27.4563 50.6853 30.308 51.1329C31.6587 51.2821 33.0095 51.3939 34.3603 51.4685C35.7111 51.4685 37.1369 51.3939 38.6377 51.2448C40.6639 51.1702 42.7276 51.021 44.8288 50.7972C47.005 50.5734 49.1813 50.5361 51.3575 50.6853C51.8078 50.6853 52.2205 50.7226 52.5957 50.7972C53.046 50.8718 53.4587 50.9837 53.8339 51.1329C54.6594 51.2821 55.0721 51.8042 55.0721 52.6993C54.847 53.2214 54.5093 53.6317 54.0591 53.9301C53.4587 54.2284 52.8959 54.3776 52.3706 54.3776C51.0949 54.5268 49.8942 54.6014 48.7685 54.6014C47.6429 54.6014 46.5172 54.676 45.3916 54.8252C44.266 54.8998 43.1778 54.9744 42.1272 55.049C41.0766 55.1235 40.026 55.2354 38.9754 55.3846C38.4501 55.3846 37.9248 55.3846 37.3995 55.3846C36.9493 55.3846 36.4615 55.4592 35.9362 55.6084C34.5854 55.8322 33.2722 55.8322 31.9964 55.6084C30.2704 55.3846 28.6945 55.3846 27.2687 55.6084C26.5183 55.6084 25.8054 55.5338 25.13 55.3846C24.4546 55.1608 23.7042 54.9744 22.8787 54.8252ZM30.7582 67.6923C30.0078 68.4382 29.1823 68.9231 28.2818 69.1469C26.931 69.1469 25.5803 69.296 24.2295 69.5944C22.8787 69.8182 21.5279 70.1538 20.1772 70.6014C19.6519 70.7506 19.2016 70.8252 18.8264 70.8252C18.4512 70.7506 17.7383 70.5268 16.6877 70.1538C16.5376 69.8555 16.3875 69.5571 16.2374 69.2587C16.1624 68.8858 16.0498 68.5128 15.8997 68.1399C15.2994 66.7972 15.562 65.5664 16.6877 64.4476C17.288 63.8508 18.0009 63.5524 18.8264 63.5524H19.3892C20.9651 63.9254 22.541 64.2611 24.1169 64.5594C25.7679 64.7832 27.4188 65.0816 29.0698 65.4545C29.9703 65.6783 30.5331 66.4242 30.7582 67.6923Z" fill="#2F2D2E"/>
</svg>
