<svg width="84" height="82" viewBox="0 0 84 82" fill="none" xmlns="http://www.w3.org/2000/svg">
<path d="M22.8676 68.6663C23.0197 68.2028 23.0957 67.7007 23.0957 67.1599C23.0957 66.5419 22.9817 66.0011 22.7536 65.5376C22.3734 64.7651 22.0692 64.1471 21.8411 63.6836C21.613 63.2201 21.3089 62.7952 20.9287 62.4089C20.6246 61.9454 20.2064 61.5205 19.6741 61.1343C19.1419 60.6708 18.3815 60.0528 17.3931 59.2803C16.6327 59.1257 15.8344 59.0485 14.998 59.0485C14.1616 59.0485 13.3632 59.0099 12.6029 58.9326C11.9185 59.0871 11.3483 59.3575 10.8921 59.7438C10.5119 60.0528 10.1317 60.4004 9.75153 60.7867C8.99117 61.7909 8.15479 62.6793 7.24236 63.4518C6.40598 64.2243 5.53157 65.0355 4.61914 65.8853C4.23897 66.117 3.85879 66.426 3.47862 66.8123C3.17447 67.1985 2.75628 67.4303 2.22403 67.5075C1.46368 67.4303 0.81738 66.9282 0.285132 66.0011C-0.0950441 64.4561 -0.0950441 62.9883 0.285132 61.5978C0.665309 60.13 1.15954 58.6622 1.76782 57.1945C1.84386 56.8082 1.99593 56.4606 2.22403 56.1516C2.52817 55.8426 2.83232 55.5722 3.13646 55.3404C3.51663 54.9542 3.82077 54.6065 4.04888 54.2975C4.35302 53.9885 4.69518 53.6795 5.07536 53.3705C5.3795 52.9842 5.64562 52.6366 5.87373 52.3276C6.10183 52.0186 6.32994 51.671 6.55805 51.2847C8.91514 50.0487 11.3863 49.4693 13.9715 49.5465H17.7352C18.2675 49.5465 18.7997 49.5465 19.332 49.5465C19.8642 49.4693 20.3965 49.392 20.9287 49.3148C22.3734 48.0788 23.78 46.8814 25.1487 45.7226C26.5933 44.5638 28 43.3664 29.3686 42.1304C29.7488 41.7441 30.091 41.3965 30.3951 41.0875C30.6993 40.7012 31.0414 40.315 31.4216 39.9287C31.2695 39.697 31.1555 39.4652 31.0794 39.2335C31.0794 39.0017 31.0414 38.8086 30.9654 38.6541C29.9009 37.9588 28.9885 37.1477 28.2281 36.2206C27.4678 35.2936 26.7074 34.4052 25.9471 33.5555C24.6545 32.0104 23.3619 30.5427 22.0693 29.1521C20.7766 27.7616 19.5221 26.3324 18.3055 24.8647C17.7733 24.3239 17.241 23.8218 16.7088 23.3583C16.2525 22.8175 15.7583 22.2381 15.2261 21.6201C14.6938 21.3883 14.3136 20.8862 14.0855 20.1137C13.5533 18.5687 12.7929 17.2554 11.8045 16.1739C10.8921 15.0151 10.0557 13.8177 9.29532 12.5817C9.14325 12.1954 8.91514 11.8478 8.611 11.5388C8.38289 11.2298 8.1928 10.8821 8.04073 10.4959C8.1928 9.6461 8.34488 8.79633 8.49695 7.94656C8.64902 7.09679 8.80109 6.24702 8.95316 5.39725C9.33333 5.01099 9.71351 4.58611 10.0937 4.1226C10.4739 3.58184 10.854 3.04108 11.2342 2.50032C11.6904 2.34582 12.1466 2.22994 12.6029 2.15269C13.0591 1.99818 13.5153 1.80506 13.9715 1.5733C14.9599 0.955289 15.8724 0.800786 16.7088 1.10979C17.5451 1.4188 18.3435 1.88231 19.1039 2.50032C19.332 2.80933 19.5601 3.11833 19.7882 3.42734C20.0923 3.73635 20.3965 4.00673 20.7006 4.23848C22.6015 5.39726 23.8941 6.90366 24.5784 8.7577C25.4148 9.29846 26.0991 9.83922 26.6314 10.38C27.1636 10.9207 27.6959 11.5388 28.2281 12.234C29.1405 13.7791 30.205 15.2855 31.4216 16.7532C32.7142 18.1438 34.0068 19.4957 35.2994 20.8089C36.3639 22.045 37.4664 23.2424 38.6069 24.4011C39.8235 25.5599 41.0401 26.7187 42.2566 27.8775C42.5608 28.2637 43.017 28.4955 43.6253 28.5727C44.6137 27.5685 45.6402 26.6028 46.7047 25.6758C47.7692 24.7488 48.6816 23.7445 49.442 22.663C49.6701 21.5815 49.7081 20.5772 49.556 19.6502C49.48 18.6459 49.3659 17.6803 49.2139 16.7532C49.2139 16.5987 49.2519 16.4829 49.3279 16.4056C49.3279 16.3284 49.3659 16.2897 49.442 16.2897C50.3544 15.2082 51.2668 14.1267 52.1792 13.0452C53.1677 11.8864 54.1181 10.7662 55.0306 9.68472C55.1826 9.53021 55.3347 9.33708 55.4868 9.10533C55.7149 8.87358 55.905 8.71908 56.057 8.64183C56.8934 8.25556 57.5777 7.75343 58.11 7.13542C58.7183 6.5174 59.3266 5.89939 59.9348 5.28138C61.5316 3.58184 63.2804 2.15268 65.1813 0.993912C65.8656 0.839411 66.5499 0.76216 67.2342 0.76216C67.9946 0.76216 68.7169 0.569032 69.4012 0.182774C69.6293 0.0282681 69.8955 0.0282681 70.1996 0.182774C70.5037 0.260024 70.8079 0.3759 71.112 0.530402C71.7203 1.07117 72.1765 1.65055 72.4807 2.26857C72.8608 2.88658 73.203 3.50459 73.5071 4.1226C73.4311 4.2771 73.3931 4.43161 73.3931 4.58611C73.3931 4.74061 73.3551 4.89512 73.279 5.04962C73.279 5.20413 73.241 5.28138 73.165 5.28138C73.0889 5.28138 73.0129 5.32 72.9369 5.39725C72.2525 6.09252 71.5302 6.74916 70.7699 7.36717C70.0855 7.98518 69.4012 8.64182 68.7169 9.33709C68.1086 10.0324 67.5764 10.7276 67.1202 11.4229C66.664 12.1181 66.0937 12.7748 65.4094 13.3928C65.1052 13.779 64.9532 14.3971 64.9532 15.2468C64.9532 16.0966 65.2193 16.7146 65.7515 17.1009C66.3598 17.3326 67.0441 17.5644 67.8045 17.7961C68.5648 17.9506 69.2492 18.1824 69.8574 18.4914C70.6938 18.1824 71.4162 17.912 72.0244 17.6803C72.6327 17.3713 73.241 16.9464 73.8493 16.4056C75.37 15.0923 77.1188 13.9336 79.0957 12.9293C79.704 12.6203 80.2363 12.3113 80.6925 12.0023C81.2247 11.616 81.7189 11.2298 82.1752 10.8435C82.3272 10.7662 82.5173 10.8435 82.7454 11.0752C83.0496 11.2297 83.2777 11.3843 83.4297 11.5388C83.8099 13.0838 84 14.5902 84 16.058C84 17.4485 83.6959 18.8004 83.0876 20.1137C82.0231 21.3497 80.9586 22.4699 79.8941 23.4741C78.9056 24.4784 77.9552 25.5213 77.0428 26.6028C76.6626 26.8346 76.2444 26.9891 75.7882 27.0663C75.332 27.1436 74.9898 27.3753 74.7617 27.7616C74.0774 28.6114 73.317 29.3453 72.4807 29.9633C71.6443 30.504 70.7699 31.0834 69.8574 31.7014C69.2492 31.8559 68.6789 32.0104 68.1466 32.1649C67.6144 32.3194 67.0822 32.4739 66.5499 32.6284C65.7896 32.5512 65.1052 32.3967 64.4969 32.1649C63.9647 31.8559 63.4325 31.5083 62.9002 31.122C62.7481 31.2765 62.5961 31.3538 62.444 31.3538C62.2919 31.3538 62.1779 31.3924 62.1018 31.4697C61.5696 31.8559 61.0754 32.2422 60.6191 32.6284C60.1629 32.9374 59.7447 33.2851 59.3646 33.6713C58.9844 34.0576 58.5662 34.4825 58.11 34.946C57.6538 35.4095 57.1215 35.8344 56.5132 36.2206C55.905 36.6069 55.3347 37.0704 54.8025 37.6112C54.3462 38.0747 53.928 38.6154 53.5479 39.2335C53.6999 39.5425 53.776 39.8128 53.776 40.0446C53.776 40.2764 53.814 40.4695 53.89 40.624C55.7149 42.4008 57.4637 44.2548 59.1365 46.1861C60.8853 48.0401 62.6341 49.9714 64.3829 51.98C64.535 52.1345 64.7251 52.3276 64.9532 52.5594C65.1813 52.7911 65.3714 53.0615 65.5234 53.3705C66.0557 54.143 66.6259 54.8383 67.2342 55.4563C67.9185 55.9971 68.5648 56.5378 69.1731 57.0786C69.4773 57.2331 69.6674 57.4262 69.7434 57.658C69.8955 57.8897 70.0475 58.0829 70.1996 58.2374C70.5037 58.9326 70.7318 59.6279 70.8839 60.3231C71.112 60.9412 71.3401 61.5978 71.5682 62.2931C71.7963 63.1428 72.0625 63.9926 72.3666 64.8424C72.6707 65.6149 73.0509 66.3874 73.5071 67.1599C73.6592 67.4689 73.7733 67.7393 73.8493 67.9711C74.0014 68.1256 74.0774 68.3187 74.0774 68.5504C74.3055 69.8637 74.7237 71.1384 75.332 72.3744C76.0163 73.6104 76.5486 74.8851 76.9287 76.1983C77.0808 77.0481 77.1568 77.8593 77.1568 78.6318C77.1568 79.327 76.8907 80.0223 76.3585 80.7176C75.5981 81.3356 74.8378 81.4128 74.0774 80.9493C73.3931 80.4858 72.6707 80.0223 71.9104 79.5588C71.15 79.0953 70.4657 78.5159 69.8574 77.8206C69.1731 76.9709 68.1847 76.237 66.8921 75.619C66.5119 75.4645 66.2077 75.31 65.9796 75.1554C65.7515 75.0009 65.4854 74.8464 65.1813 74.6919C64.1928 73.8422 63.1283 73.1083 61.9878 72.4903C60.8473 71.795 59.7067 71.0611 58.5662 70.2886C58.2621 69.7478 57.8058 69.014 57.1976 68.0869C56.8174 67.2372 56.3612 66.5419 55.8289 66.0011C55.3727 65.3831 54.8785 64.7651 54.3462 64.1471C53.4338 63.1428 52.5214 62.1386 51.609 61.1343C50.6965 60.13 49.7841 59.0871 48.8717 58.0056C47.8072 56.7696 46.6287 55.6108 45.3361 54.5293C44.1195 53.4478 42.8649 52.4049 41.5723 51.4006C40.0516 52.0959 38.759 53.0615 37.6945 54.2975C36.7821 55.5335 35.9077 56.6923 35.0713 57.7738C34.2349 58.7781 33.3605 59.7051 32.4481 60.5549C32.0679 61.2502 31.9538 61.8296 32.1059 62.2931C32.258 62.7566 32.258 63.2587 32.1059 63.7995C31.9538 64.1857 31.8398 64.6492 31.7638 65.19C31.7638 65.6535 31.7638 66.1556 31.7638 66.6964C31.6117 67.2372 31.4976 67.7393 31.4216 68.2028C31.4216 68.5891 31.4216 69.0912 31.4216 69.7092C30.8893 70.4817 30.3571 71.2929 29.8249 72.1426C29.3686 72.9924 28.8364 73.8422 28.2281 74.6919C27.6959 75.0782 27.2016 75.5417 26.7454 76.0825C26.2892 76.546 25.795 77.0095 25.2627 77.473C24.1982 78.4773 22.9056 79.0953 21.3849 79.327C20.7766 79.4815 20.1303 79.5974 19.446 79.6747C18.8377 79.6747 18.1534 79.7519 17.3931 79.9064C17.0129 79.7519 16.5567 79.5974 16.0244 79.4429C15.5682 79.2112 15.074 78.9794 14.5418 78.7477C14.1616 78.4387 13.8574 78.091 13.6293 77.7048C13.4773 77.2412 13.5913 76.6619 13.9715 75.9666C15.4922 74.8078 16.9749 73.5718 18.4196 72.2585C19.8642 70.9452 21.4229 69.7478 23.0957 68.6663C22.8676 70.2114 22.2593 71.5246 21.2709 72.6061C20.8907 72.9924 20.4725 73.4559 20.0163 73.9967C19.5601 74.4602 19.0659 74.8851 18.5336 75.2713C18.0014 75.6576 17.7352 76.1983 17.7352 76.8936C18.2675 77.0481 18.6096 77.1254 18.7617 77.1254C18.9898 77.1254 19.446 77.0481 20.1303 76.8936C20.2824 76.5846 20.4345 76.3529 20.5866 76.1983C20.8147 75.9666 20.9667 75.6576 21.0428 75.2713C21.575 74.4988 22.1453 73.8422 22.7536 73.3014C23.3618 72.7607 24.1222 72.3744 25.0346 72.1426C25.9471 71.9109 26.5933 71.2156 26.9735 70.0568C27.0496 69.3616 27.0876 68.7049 27.0876 68.0869C27.0876 67.4689 27.1256 66.8509 27.2016 66.2329C27.3537 65.7694 27.5058 65.3059 27.6578 64.8424C27.886 64.3789 28.1901 64.0312 28.5703 63.7995C29.6348 63.1042 30.243 62.0227 30.3951 60.5549C30.6232 59.7824 30.7373 59.0485 30.7373 58.3532C31.1175 57.967 31.3836 57.6193 31.5356 57.3103C31.7638 56.9241 31.9919 56.5378 32.22 56.1516C32.1439 55.1473 32.296 54.2203 32.6762 53.3705C33.1324 52.5207 33.5506 51.671 33.9308 50.8212C34.2349 50.2804 34.6911 49.8169 35.2994 49.4307C35.5275 49.0444 35.7936 48.774 36.0978 48.6195C36.4019 48.3878 36.7441 48.156 37.1242 47.9243C37.8086 47.4608 37.9986 46.7269 37.6945 45.7226C38.1507 45.1818 38.6069 44.6411 39.0631 44.1003C39.5954 43.5595 39.9756 42.9802 40.2037 42.3621C40.2037 42.2076 40.2417 42.0531 40.3177 41.8986C40.4698 41.7441 40.6219 41.5896 40.7739 41.4351C41.8384 40.5081 42.8269 39.5038 43.7393 38.4223C44.6517 37.3408 45.8303 36.491 47.275 35.873C47.427 35.7185 47.5791 35.4481 47.7312 35.0619C47.7312 33.7486 48.3014 32.8216 49.442 32.2808C50.0502 32.1263 50.6585 31.8559 51.2668 31.4697C51.8751 31.0834 52.4073 30.5813 52.8635 29.9633C53.928 29.7315 54.9165 29.5384 55.8289 29.3839C56.8174 29.1521 57.8439 28.8817 58.9084 28.5727C59.2885 28.1865 59.6307 27.8775 59.9348 27.6457C60.239 27.3367 60.5051 26.9891 60.7332 26.6028C61.5696 26.2166 62.406 26.0234 63.2424 26.0234C64.1548 25.9462 65.0292 25.9076 65.8656 25.9076C66.9301 25.9848 67.9185 26.0621 68.831 26.1393C69.7434 26.1393 70.6938 26.0621 71.6823 25.9076C72.0625 25.6758 72.4426 25.444 72.8228 25.2123C73.279 24.9033 73.6212 24.5557 73.8493 24.1694C74.3055 23.7831 74.7997 23.5128 75.332 23.3583C75.8642 23.1265 76.3204 22.7789 76.7006 22.3154C77.3849 21.6973 78.0693 21.0793 78.7536 20.4613C79.4379 19.7661 80.0462 18.9935 80.5784 18.1438C80.5784 17.912 80.6164 17.7189 80.6925 17.5644C80.5404 17.4099 80.3883 17.2554 80.2363 17.1009C80.1602 16.8691 80.0462 16.7146 79.8941 16.6374C79.2858 16.1739 78.6775 16.1739 78.0693 16.6374C77.537 16.9464 77.0428 17.2554 76.5866 17.5644C76.2064 17.8734 75.8262 18.221 75.446 18.6073C74.7617 19.148 74.1154 19.6888 73.5071 20.2296C72.8989 20.6931 72.2525 21.1566 71.5682 21.6201C71.4162 21.7746 71.15 21.8518 70.7699 21.8518C70.0855 21.6973 69.4392 21.5815 68.831 21.5042C68.2227 21.427 67.6144 21.3111 67.0061 21.1566C66.5499 21.0793 66.0937 20.9635 65.6375 20.8089C65.1813 20.6544 64.7631 20.4999 64.3829 20.3454C63.8507 19.7274 63.3564 19.1867 62.9002 18.7232C62.444 18.1824 61.9878 17.603 61.5316 16.985C61.4555 16.8305 61.3415 16.676 61.1894 16.5215C61.1134 16.367 60.9993 16.0966 60.8473 15.7103C60.9993 15.2468 61.0754 14.6674 61.0754 13.9722C61.1514 13.1997 61.3035 12.4271 61.5316 11.6546C62.2919 10.1869 63.0903 8.83495 63.9267 7.59893L64.3829 7.13542C65.2193 6.82641 66.0557 6.55603 66.8921 6.32427C67.7284 6.09252 68.6789 5.78351 69.7434 5.39725C69.8194 5.24275 69.8955 5.04962 69.9715 4.81787C70.0475 4.58611 70.0855 4.39298 70.0855 4.23848C69.3252 3.62047 68.3748 3.38872 67.2342 3.54322C65.2573 4.31573 63.4325 5.55176 61.7597 7.25129C60.9233 8.10106 60.0489 8.9122 59.1365 9.68472C58.224 10.4572 57.3116 11.2298 56.3992 12.0023C55.3347 13.0838 54.3462 14.1653 53.4338 15.2468C52.5214 16.2511 51.723 17.4485 51.0387 18.839C51.1908 19.9206 51.3048 20.7703 51.3809 21.3883C51.4569 22.0063 51.4569 22.5471 51.3809 23.0106C51.3809 23.4741 51.3048 23.9376 51.1528 24.4011C51.0767 24.7874 50.9246 25.3282 50.6965 26.0234C49.7081 27.414 48.7576 28.7272 47.8452 29.9633C46.9328 31.122 46.0204 32.3581 45.1079 33.6713C41.6864 35.7571 38.6069 38.3064 35.8697 41.3192C35.0333 42.2463 34.1589 43.096 33.2464 43.8686C32.41 44.5638 31.4596 45.2205 30.3951 45.8385C29.1025 46.7655 27.8479 47.7698 26.6314 48.8513C25.4908 49.8555 24.4263 51.0143 23.4379 52.3276C23.2858 52.4821 23.1337 52.598 22.9817 52.6752C22.9056 52.6752 22.7916 52.7139 22.6395 52.7911C22.0312 52.9456 21.3849 52.9842 20.7006 52.907C20.0923 52.8297 19.484 52.7525 18.8758 52.6752C18.0394 52.4435 17.279 52.289 16.5947 52.2117C15.9104 52.0572 15.2261 51.98 14.5418 51.98C13.9335 51.98 13.2492 52.0186 12.4888 52.0958C11.8045 52.1731 10.9681 52.289 9.97963 52.4435C8.8391 53.2932 7.9647 53.9499 7.35642 54.4134C6.74813 54.8769 6.2539 55.2632 5.87373 55.5722C5.56959 55.8812 5.34148 56.1902 5.18941 56.4992C5.03734 56.7309 4.84725 57.0786 4.61914 57.5421C4.61914 57.6966 4.7332 57.7738 4.9613 57.7738C5.72166 57.7738 6.40598 57.5421 7.01426 57.0786C7.62254 56.5378 8.38289 56.1902 9.29532 56.0357C9.9036 56.0357 10.5879 56.0357 11.3483 56.0357C12.1847 56.0357 12.945 55.9584 13.6293 55.8039C14.6178 56.1902 15.4922 56.4992 16.2525 56.7309C17.0129 56.8854 17.7733 57.1172 18.5336 57.4262C19.7502 58.0442 20.8527 58.8167 21.8411 59.7438C22.8296 60.5935 23.4759 61.8296 23.78 63.4518C23.78 63.8381 23.78 64.263 23.78 64.7265C23.8561 65.19 23.8561 65.6921 23.78 66.2329C23.78 66.5419 23.78 66.8509 23.78 67.1599C23.78 67.4689 23.704 67.7779 23.5519 68.0869C23.4759 68.2414 23.2478 68.4346 22.8676 68.6663ZM28.5703 17.912C28.4942 17.912 28.3802 17.8734 28.2281 17.7961C28.3802 17.8734 28.4562 17.9506 28.4562 18.0279C28.5322 18.1051 28.6463 18.1824 28.7984 18.2596C28.8744 18.8004 29.1785 19.148 29.7108 19.3025C29.7108 19.8433 30.053 20.1137 30.7373 20.1137C30.7373 20.809 31.0034 21.1566 31.5356 21.1566C31.5356 21.5428 31.6497 21.7746 31.8778 21.8518C32.1059 21.9291 32.334 22.045 32.5621 22.1995C32.5621 22.8947 32.9043 23.2424 33.5886 23.2424C33.5886 23.6286 33.6266 23.8604 33.7027 23.9376C33.7787 24.0149 34.0068 24.0535 34.387 24.0535C34.387 24.5943 34.463 24.9419 34.6151 25.0964C35.2234 26.1007 35.9457 27.0663 36.7821 27.9933C37.6945 28.9204 38.6449 29.8088 39.6334 30.6585C39.7855 30.813 40.0136 30.8903 40.3177 30.8903C40.6219 30.8903 40.812 30.7358 40.888 30.4268C40.888 30.3495 40.888 30.2336 40.888 30.0791C40.888 29.9246 40.85 29.7701 40.7739 29.6156C38.9491 27.5298 37.0102 25.7144 34.9572 24.1694C34.8052 24.0921 34.6911 24.0921 34.6151 24.1694C34.6151 24.1694 34.539 24.1694 34.387 24.1694C34.3109 23.7831 34.2349 23.5514 34.1589 23.4741C34.0828 23.3969 33.8167 23.3196 33.3605 23.2424C33.2845 22.8561 33.2084 22.663 33.1324 22.663C33.0564 22.5857 32.8282 22.4699 32.4481 22.3154C32.4481 21.6973 32.1439 21.3883 31.5356 21.3883C31.3836 20.6931 31.0794 20.3454 30.6232 20.3454C30.6232 19.7274 30.2811 19.4184 29.5967 19.4184C29.4447 19.1094 29.3306 18.8777 29.2546 18.7232C29.1785 18.5687 28.9504 18.4914 28.5703 18.4914V17.912ZM55.3727 60.9025C55.2967 60.5163 55.2206 60.2845 55.1446 60.2073C55.0686 60.13 54.8024 60.0914 54.3462 60.0914C54.5743 59.3961 54.4223 58.7781 53.89 58.2374C53.3578 57.6193 52.8635 57.04 52.4073 56.4992C51.9511 55.8812 51.4569 55.2632 50.9246 54.6451C50.0883 53.5636 49.1758 52.5594 48.1874 51.6323C47.275 50.6281 46.2865 49.6624 45.222 48.7354C45.222 48.6582 45.1079 48.6195 44.8798 48.6195C44.8038 48.6195 44.7278 48.5809 44.6517 48.5037C44.5757 48.4264 44.4997 48.465 44.4236 48.6195C44.1955 48.774 44.0815 49.0058 44.0815 49.3148C44.0815 49.8555 44.2335 50.2804 44.5377 50.5894C46.0584 52.1345 47.5411 53.6795 48.9857 55.2245C50.5065 56.6923 52.0272 58.1987 53.5479 59.7438C53.6999 59.8983 53.852 59.9755 54.0041 59.9755C54.1562 59.9755 54.2702 59.9755 54.3462 59.9755C54.4983 60.3618 54.6124 60.5935 54.6884 60.6708C54.7644 60.748 54.9925 60.8253 55.3727 60.9025C55.5248 61.366 55.6388 61.6364 55.7149 61.7137C55.7909 61.7909 56.019 61.8682 56.3992 61.9454C56.2471 62.3317 56.3612 62.7179 56.7414 63.1042C57.2736 63.7995 57.8439 64.0312 58.4521 63.7995C58.072 65.1127 58.4521 66.0011 59.5927 66.4646C59.6687 66.3874 59.7447 66.3101 59.8208 66.2329C59.9729 66.0784 60.0489 65.9625 60.0489 65.8853C60.0489 65.4218 59.9348 65.1127 59.7067 64.9582C59.5547 64.7265 59.3265 64.5334 59.0224 64.3789C58.7183 64.2243 58.4521 64.0312 58.224 63.7995C58.072 63.645 57.9199 63.4518 57.7678 63.2201C57.6918 62.9883 57.5777 62.7179 57.4257 62.4089C56.9695 62.0999 56.6273 61.9454 56.3992 61.9454C56.3232 61.5592 56.2471 61.3274 56.1711 61.2502C56.095 61.1729 55.8289 61.057 55.3727 60.9025ZM41.1161 48.3878C40.964 48.5423 40.7359 48.6195 40.4318 48.6195C40.2037 48.6195 39.9756 48.6582 39.7475 48.7354C39.2912 49.0444 39.2532 49.2762 39.6334 49.4307C39.7855 49.8169 40.0516 49.8169 40.4318 49.4307C40.888 49.2762 41.1161 48.8899 41.1161 48.2719C41.3442 48.1174 41.4583 48.0401 41.4583 48.0401C41.3062 48.0401 41.2301 48.0788 41.2301 48.156C41.2301 48.2333 41.1921 48.3105 41.1161 48.3878ZM66.8921 59.9755C66.9681 60.2073 67.0441 60.3618 67.1202 60.439C67.1962 60.439 67.2342 60.3618 67.2342 60.2073C67.2342 60.13 67.0822 60.0914 66.778 60.0914C66.778 59.8596 66.778 59.6279 66.778 59.3961C66.778 59.0871 66.702 58.8167 66.5499 58.585C65.7135 57.1172 64.7251 55.7653 63.5845 54.5293C62.52 53.216 61.4175 51.98 60.277 50.8212C59.2125 49.7397 58.186 48.6968 57.1976 47.6925C56.2851 46.6882 55.2967 45.6453 54.2322 44.5638C53.852 44.1776 53.4718 43.7913 53.0917 43.405C52.7115 42.9415 52.3313 42.5166 51.9511 42.1304C51.7991 42.0531 51.647 42.0145 51.4949 42.0145C51.3428 42.0145 51.1908 41.9373 51.0387 41.7828C50.8866 41.9373 50.7346 42.169 50.5825 42.478C50.5065 42.7098 50.5445 42.9415 50.6965 43.1733C51.3048 43.9458 51.9131 44.7183 52.5214 45.4908C53.1297 46.1861 53.738 46.8814 54.3462 47.5766C56.0951 49.4307 57.8058 51.2461 59.4786 53.0229C61.1514 54.7224 62.8622 56.4992 64.611 58.3532C64.7631 58.6622 64.9532 58.9326 65.1813 59.1644C65.4854 59.3189 65.7896 59.512 66.0937 59.7438C66.1697 59.7438 66.2838 59.7824 66.4359 59.8596C66.5879 59.9369 66.74 59.9755 66.8921 59.9755ZM69.1731 63.336C69.021 63.1815 68.831 63.1042 68.6029 63.1042C68.4508 63.0269 68.3367 63.0269 68.2607 63.1042C67.7285 63.4905 67.3103 63.7995 67.0061 64.0312C66.702 64.1857 66.3978 64.4175 66.0937 64.7265C65.8656 64.9582 65.5995 65.3059 65.2953 65.7694C64.9912 66.1556 64.573 66.735 64.0407 67.5075C63.6606 67.8166 63.1663 68.0097 62.5581 68.0869C62.0258 68.1642 61.6456 68.5504 61.4175 69.2457C61.4175 69.4775 61.4555 69.632 61.5316 69.7092C62.368 70.4817 63.2424 71.1384 64.1548 71.6791C65.0672 72.2199 66.0177 72.7993 67.0061 73.4173C67.8425 73.4173 68.5648 73.7263 69.1731 74.3443C69.7814 74.8851 70.4277 75.31 71.112 75.619H71.5682C71.7963 75.619 71.9484 75.5803 72.0244 75.5031C73.241 75.1941 73.6972 74.4988 73.3931 73.4173C72.7088 71.7178 71.9864 70.0182 71.2261 68.3187C70.5418 66.5419 69.8574 64.881 69.1731 63.336ZM11.4623 9.68472C12.0706 10.071 12.5648 10.4186 12.945 10.7276C13.4012 10.9594 13.8574 11.2684 14.3136 11.6546C14.6938 12.1181 15.074 12.543 15.4542 12.9293C15.8344 13.3155 16.2145 13.7018 16.5947 14.0881C16.7468 14.2426 16.8988 14.3198 17.0509 14.3198C17.279 14.2426 17.4691 14.2812 17.6212 14.4357C18.2295 13.8949 18.8377 13.4314 19.446 13.0452C20.1303 12.5817 20.7766 12.0795 21.3849 11.5388C21.6891 11.307 21.9172 10.9207 22.0693 10.38C21.461 9.53021 20.8907 8.71907 20.3585 7.94656C19.9022 7.17404 19.37 6.40153 18.7617 5.62901C18.3815 5.24275 18.0014 4.93375 17.6212 4.70199C17.317 4.39298 16.8608 4.19985 16.2525 4.1226C15.6443 4.35436 15.074 4.58611 14.5418 4.81787C14.0095 5.04962 13.4773 5.35863 12.945 5.74489C12.5648 7.05817 12.0706 8.37144 11.4623 9.68472ZM19.446 21.8518C21.1948 24.4784 23.0577 26.9891 25.0346 29.3839C27.0876 31.7014 29.1405 33.9804 31.1935 36.2206C31.6497 36.6842 32.0679 36.9545 32.4481 37.0318C32.5241 37.1863 32.6382 37.3022 32.7902 37.3794C32.9423 37.3794 33.0944 37.4567 33.2464 37.6112C33.4745 37.6884 33.7027 37.5725 33.9308 37.2635C33.9308 37.1863 33.9308 37.1477 33.9308 37.1477C34.0068 37.1477 34.0448 37.109 34.0448 37.0318V36.9159C33.8927 36.2979 33.6646 35.8344 33.3605 35.5254C30.5472 32.5898 27.8479 29.4998 25.2627 26.2552C24.5024 25.4054 23.704 24.5943 22.8676 23.8218C22.1073 23.0492 21.3469 22.2767 20.5866 21.5042C20.2064 21.1952 19.8262 21.3111 19.446 21.8518Z" fill="#2F2D2E"/>
</svg>
