<svg width="83" height="89" viewBox="0 0 83 89" fill="none" xmlns="http://www.w3.org/2000/svg">
<path d="M31.4505 81.0283C31.3659 80.3513 31.2813 79.759 31.1967 79.2512C31.1122 78.6588 30.9007 78.1088 30.5625 77.601C30.3933 77.2625 30.351 76.924 30.4356 76.5855C30.5202 76.247 30.5202 75.9508 30.4356 75.697C30.6893 75.2738 30.943 74.893 31.1967 74.5545C31.4505 74.1314 31.7465 73.7083 32.0847 73.2852C31.6619 71.9312 31.239 70.6195 30.8162 69.3501C30.3933 68.0807 29.8436 66.769 29.1671 65.415C29.0825 65.2458 29.0402 65.1189 29.0402 65.0342C29.0402 64.9496 28.9979 64.8227 28.9133 64.6534C28.5751 64.2303 28.2368 63.8072 27.8985 63.384C27.6448 62.8763 27.3911 62.3685 27.1374 61.8608C26.8836 61.353 26.6299 60.8453 26.3762 60.3375C26.2071 59.8298 25.9957 59.322 25.7419 58.8143C25.0654 57.5449 24.6848 56.3602 24.6002 55.2601C24.6002 54.4138 24.5157 53.8637 24.3465 53.6099C23.9237 52.9329 23.67 52.2559 23.5854 51.5789C23.5008 50.9019 23.4585 50.1826 23.4585 49.4209C23.374 48.9978 23.3317 48.4478 23.3317 47.7707C23.3317 47.3476 23.2471 46.9245 23.078 46.5014C22.9088 46.0783 22.9088 45.6551 23.078 45.232C23.4163 44.555 23.5854 43.878 23.5854 43.201C23.5854 42.524 23.7968 41.847 24.2197 41.17C24.3888 40.8315 24.4734 40.493 24.4734 40.1545C24.558 39.816 24.6425 39.5198 24.7271 39.2659C25.0654 38.5043 25.4037 37.785 25.7419 37.108C26.1648 36.3464 26.7145 35.754 27.3911 35.3309C29.6745 32.7921 32.4653 30.6765 35.7635 28.984C37.2012 28.2224 38.5967 27.5877 39.9498 27.08C41.3875 26.5722 42.952 26.3183 44.6434 26.3183C45.1509 26.3183 45.6583 26.3607 46.1657 26.4453C46.7577 26.5299 47.3074 26.6992 47.8148 26.953C48.2377 27.1223 48.6605 27.2492 49.0834 27.3338C49.5062 27.3338 49.9291 27.3762 50.352 27.4608C51.1131 28.1378 51.8742 28.7725 52.6354 29.3648C53.4811 29.9572 54.4113 30.6765 55.4262 31.5228C55.849 32.1998 56.3142 32.9191 56.8216 33.6807C57.4136 34.4423 58.0902 35.1616 58.8513 35.8386C59.4433 36.9388 59.8661 38.0389 60.1198 39.139C60.3735 40.2391 60.881 41.2546 61.6421 42.1855V47.7707C61.473 50.0556 60.881 52.0866 59.8661 53.8637C59.7816 54.033 59.5701 54.3715 59.2318 54.8792C58.217 57.5026 56.7793 59.7875 54.9188 61.7339C53.1428 63.5956 51.0285 65.3304 48.576 66.9383C48.4068 67.3614 48.1954 67.7845 47.9417 68.2077C47.7726 68.5462 47.6034 68.927 47.4343 69.3501C47.1806 69.8578 46.9268 70.3233 46.6731 70.7464C46.4194 71.1695 46.2926 71.5927 46.2926 72.0158C46.2926 72.6082 46.4194 73.1159 46.6731 73.539C47.0114 73.9622 47.2651 74.3853 47.4343 74.8084C47.7726 75.6547 47.8994 76.4163 47.8148 77.0933C47.7303 77.7703 47.3074 78.3626 46.5463 78.8704C45.9543 79.4628 45.6583 80.0551 45.6583 80.6475C45.5737 82.0015 44.8972 83.017 43.6286 83.694C43.1212 83.9479 42.6983 84.2018 42.36 84.4556C42.1063 84.7941 41.8526 85.175 41.5989 85.5981C41.3452 85.9366 41.0492 86.3174 40.7109 86.7405C40.5418 86.9944 40.2881 87.2483 39.9498 87.5021C39.6961 87.756 39.4424 87.9676 39.1886 88.1368C38.8504 88.3061 38.5121 88.433 38.1738 88.5176C37.9201 88.6023 37.5818 88.7292 37.159 88.8984C36.8207 89.0677 36.3978 89.0254 35.8904 88.7715C35.4676 88.6023 35.1716 88.3484 35.0024 88.0099C34.9178 87.756 34.791 87.5444 34.6218 87.3752C34.4527 87.1213 34.3259 86.8251 34.2413 86.4866C33.903 85.4711 33.5224 84.498 33.0996 83.5671C32.6767 82.5516 32.127 81.7053 31.4505 81.0283ZM25.3614 47.263C25.446 47.4323 25.5305 47.6861 25.6151 48.0246C25.6997 48.2785 25.6997 48.4901 25.6151 48.6593C25.5305 49.7594 25.7419 50.8596 26.2494 51.9597C26.4185 52.1289 26.5031 52.3405 26.5031 52.5944C26.5031 52.7636 26.5454 52.9329 26.6299 53.1021C27.0528 54.4561 27.5602 55.7255 28.1522 56.9102C28.7442 58.095 29.3785 59.2374 30.055 60.3375C30.3088 60.7607 30.5202 61.2261 30.6893 61.7339C30.943 62.2416 31.1967 62.707 31.4505 63.1302C31.6196 63.5533 31.8733 63.9341 32.2116 64.2726C32.5499 64.6111 32.8882 64.9919 33.2264 65.415C33.8184 65.4997 34.2413 65.7535 34.495 66.1767C34.8333 66.5998 35.1293 66.9383 35.383 67.1922C35.5521 67.2768 35.7213 67.3191 35.8904 67.3191C35.975 67.4883 36.0595 67.5307 36.1441 67.446C36.2287 67.2768 36.271 67.1075 36.271 66.9383C36.4401 65.4997 36.4824 64.1034 36.3978 62.7494C36.3133 61.3107 36.2287 59.8721 36.1441 58.4335C36.1441 57.5026 35.8058 56.5717 35.1293 55.6409C34.4527 55.3024 33.7761 55.0485 33.0996 54.8792C32.423 54.6254 31.8733 54.033 31.4505 53.1021C31.1122 52.2559 30.9007 51.3673 30.8162 50.4364C30.9007 49.8441 30.9853 49.294 31.0699 48.7863C31.1545 48.1939 31.239 47.6015 31.3236 47.0091C31.5773 45.1474 32.6344 43.9626 34.495 43.4549C34.7487 43.7088 35.1293 43.9203 35.6367 44.0896C35.8058 44.2588 36.0173 44.4281 36.271 44.5973C36.6093 44.6819 36.863 44.8089 37.0321 44.9781C38.3852 45.6551 38.9349 46.6283 38.6812 47.8977C38.5967 48.3208 38.5121 48.7439 38.4275 49.1671C38.3429 49.5902 38.2161 50.0133 38.047 50.4364C37.9624 50.7749 37.9201 51.1134 37.9201 51.4519C37.9201 51.7904 37.9201 52.1712 37.9201 52.5944C37.8355 52.7636 37.8778 52.9329 38.047 53.1021C38.2161 53.2714 38.3852 53.4406 38.5544 53.6099C38.7235 53.6945 38.9772 53.6945 39.3155 53.6099C39.6538 53.5252 39.9075 53.356 40.0766 53.1021C40.1612 52.9329 40.2458 52.7636 40.3304 52.5944C40.4149 52.3405 40.4572 52.1289 40.4572 51.9597C40.5418 51.2827 40.7109 50.648 40.9646 50.0556C41.3029 49.3786 41.6835 48.7439 42.1063 48.1516C42.1909 47.9823 42.4446 47.8131 42.8675 47.6438C43.0366 47.6438 43.2057 47.7284 43.3749 47.8977C43.6286 47.9823 43.7977 48.1093 43.8823 48.2785C43.8823 48.4478 43.8823 48.6593 43.8823 48.9132C43.9669 49.1671 44.0092 49.3786 44.0092 49.5479C44.0092 49.8864 43.9669 50.2249 43.8823 50.5634C43.8823 50.9019 43.9669 51.1981 44.136 51.4519H45.024C45.8697 51.4519 46.2926 51.7481 46.2926 52.3405C46.4617 53.0175 46.504 53.6522 46.4194 54.2446C46.4194 54.8369 46.208 55.387 45.7851 55.8947C45.616 56.2332 45.4469 56.5294 45.2777 56.7833C45.1086 57.0372 44.9817 57.2487 44.8972 57.418C44.5589 58.6027 44.2206 59.7029 43.8823 60.7184C43.6286 61.7339 43.3749 62.834 43.1212 64.0187C42.952 64.6957 42.8252 65.4574 42.7406 66.3036C42.656 67.0652 42.5292 67.8269 42.36 68.5885C42.36 68.8424 42.4869 69.1385 42.7406 69.477C43.0789 69.0539 43.3326 68.5462 43.5017 67.9538C43.6709 67.3614 43.84 66.8114 44.0092 66.3036C44.3475 65.6266 44.8549 65.1612 45.5314 64.9073C46.4617 64.4842 47.3497 63.9764 48.1954 63.384C49.0411 62.707 49.8868 62.0724 50.7325 61.48C51.0708 61.1415 51.3668 60.8453 51.6205 60.5914C51.9588 60.2529 52.2971 59.9567 52.6354 59.7029C53.5656 58.4335 54.4536 57.2064 55.2993 56.0217C56.2296 54.7523 56.9062 53.4406 57.329 52.0866C57.5827 50.9865 57.7519 50.0133 57.8364 49.1671C58.0056 48.2362 58.1747 47.3053 58.3439 46.3744C58.1747 45.9513 58.0479 45.5282 57.9633 45.1051C57.8787 44.5973 57.7942 44.0473 57.7096 43.4549C57.5404 42.9471 57.4136 42.4394 57.329 41.9316C57.329 41.3393 57.2444 40.7892 57.0753 40.2814C56.6525 39.6044 56.2296 38.9698 55.8067 38.3774C55.3839 37.7004 54.9188 37.0234 54.4113 36.3464C53.7348 35.5848 53.1005 34.7808 52.5085 33.9346C52.0011 33.0037 51.2822 32.2844 50.352 31.7766C49.76 31.6074 49.2103 31.4381 48.7028 31.2689C48.28 31.015 47.8571 30.8035 47.4343 30.6342C45.8274 29.8726 44.1783 29.7033 42.4869 30.1265C41.8949 30.2957 41.3452 30.4226 40.8378 30.5073C40.4149 30.5919 40.0344 30.6765 39.6961 30.7611C38.5967 31.3535 37.5818 31.9036 36.6515 32.4113C35.7213 32.8345 34.7064 33.3422 33.607 33.9346C32.5076 34.8655 31.3659 35.8386 30.1819 36.8541C29.0825 37.8696 28.1099 39.0121 27.2642 40.2814C26.9259 41.4662 26.6299 42.6086 26.3762 43.7088C26.1225 44.8089 25.7842 45.9936 25.3614 47.263ZM38.8081 56.6564C38.8081 58.095 38.7658 59.2374 38.6812 60.0837C38.6812 60.8453 38.6812 61.48 38.6812 61.9877C38.7658 62.4109 38.8504 62.7917 38.9349 63.1302C39.1041 63.384 39.2732 63.6802 39.4424 64.0187C39.4424 64.0187 39.4846 63.9764 39.5692 63.8918L39.6961 63.7649C40.3726 62.6647 40.9223 61.5223 41.3452 60.3375C41.7681 59.1528 42.1063 57.9257 42.36 56.6564C42.5292 56.064 42.2755 55.4293 41.5989 54.7523H41.3452C40.7532 54.9216 40.2458 55.1754 39.8229 55.5139C39.4846 55.8524 39.1464 56.2332 38.8081 56.6564ZM43.7555 76.7125C43.84 76.374 43.7977 76.1201 43.6286 75.9508C43.2057 75.7816 42.7829 75.7816 42.36 75.9508C42.0218 76.0355 41.768 76.2893 41.5989 76.7125C41.5989 76.7971 41.6412 76.8394 41.7258 76.8394L41.8526 76.9663C42.1909 77.3048 42.5715 77.4741 42.9943 77.4741C43.4172 77.3895 43.6709 77.1356 43.7555 76.7125ZM40.2035 81.1553C40.1189 81.0706 40.0344 80.986 39.9498 80.9014C39.8652 80.7321 39.7806 80.6475 39.6961 80.6475C39.2732 80.3936 38.7235 80.3936 38.047 80.6475C38.1315 80.6475 38.047 80.7745 37.7932 81.0283C37.7932 81.2822 37.9624 81.4515 38.3007 81.5361C39.0618 81.79 39.6961 81.663 40.2035 81.1553ZM43.3749 18.3213C42.36 17.7289 42.064 16.925 42.4869 15.9095C42.9098 14.5555 43.2057 13.2015 43.3749 11.8475C43.544 10.4935 43.7132 9.09717 43.8823 7.65856C43.9669 6.72768 44.0092 5.83912 44.0092 4.99287C44.0092 4.062 44.0515 3.13112 44.136 2.20024C44.136 1.18475 44.6857 0.465439 45.7851 0.0423153C46.0389 -0.0423136 46.3349 -1.68703e-06 46.6731 0.169251C47.0114 0.338499 47.1806 0.507749 47.1806 0.677001C47.3497 1.18475 47.4343 1.60787 47.4343 1.94637C47.3497 3.385 47.3074 4.82362 47.3074 6.26224C47.3074 7.61624 47.2651 8.97024 47.1806 10.3242C47.0114 11.2551 46.8423 12.1437 46.6731 12.9899C46.5886 13.7515 46.504 14.5555 46.4194 15.4017C46.3349 16.3326 46.0811 17.0519 45.6583 17.5597C45.2354 18.0674 44.4743 18.3213 43.3749 18.3213ZM18.1306 23.9065C18.2997 24.4143 18.4689 24.9643 18.638 25.5567C18.8917 26.1491 19.1032 26.6992 19.2723 27.2069C19.3569 27.5454 19.2723 28.0955 19.0186 28.8571C18.8495 28.9417 18.6803 29.0263 18.5112 29.111C18.342 29.111 18.1729 29.1533 18.0037 29.2379C16.6506 28.8994 15.2552 28.2224 13.8175 27.2069C13.2255 26.276 12.6335 25.3452 12.0415 24.4143C11.4495 23.4834 10.8575 22.5525 10.2656 21.6217C10.181 21.6217 10.1387 21.4947 10.1387 21.2408C9.96956 20.8177 9.92727 20.3946 10.0118 19.9715C10.0964 19.4637 10.2656 19.1252 10.5193 18.956C11.1113 18.4482 11.9147 18.3636 12.9295 18.7021C13.0987 18.8714 13.3101 19.0406 13.5638 19.2098C13.8175 19.2945 14.0289 19.4214 14.1981 19.5907C14.9592 20.2677 15.6781 20.9447 16.3546 21.6217C17.0312 22.2987 17.6232 23.0603 18.1306 23.9065ZM76.4842 12.2283C77.0762 12.3975 77.4568 12.736 77.6259 13.2438C77.8796 14.0054 77.7951 14.7247 77.3722 15.4017C76.8648 16.0787 76.3151 16.7134 75.7231 17.3058C75.2157 17.8982 74.7082 18.5329 74.2008 19.2098C74.0317 19.5483 73.8203 19.8445 73.5665 20.0984C73.3128 20.2677 73.1014 20.5215 72.9323 20.86C72.4248 22.0448 71.6637 23.018 70.6489 23.7796C69.7186 24.4566 68.7883 25.1336 67.858 25.8106H67.7312C67.7312 25.8106 67.6889 25.8952 67.6043 26.0645C67.266 26.0645 66.8432 25.8952 66.3358 25.5567C65.9975 25.2182 65.9552 24.8374 66.2089 24.4143C67.1392 23.4834 67.9003 22.5102 68.4923 21.4947C69.1689 20.3946 69.8455 19.3368 70.522 18.3213C71.114 17.3904 71.7483 16.5019 72.4248 15.6556C73.186 14.7247 73.9471 13.8362 74.7082 12.9899C75.0465 12.4822 75.6385 12.2283 76.4842 12.2283ZM70.6489 58.1796C70.7334 58.0104 70.818 57.8411 70.9026 57.6719C71.0717 57.5026 71.1986 57.3334 71.2831 57.1641C71.9597 56.9949 72.594 56.8256 73.186 56.6564C73.8625 56.4025 74.5391 56.1486 75.2157 55.8947C75.5539 55.5562 75.9768 55.0485 76.4842 54.3715C77.4991 54.2022 78.4293 54.1599 79.2751 54.2446C80.1208 54.2446 80.9665 54.4138 81.8122 54.7523C82.3196 55.0062 82.7002 55.387 82.9539 55.8947C83.123 56.9102 82.827 57.6719 82.0659 58.1796C81.5584 58.3489 81.1356 58.4335 80.7973 58.4335C80.3745 58.5181 79.9516 58.5604 79.5288 58.5604C79.1059 58.5604 78.6831 58.5604 78.2602 58.5604C77.4991 58.5604 76.6957 58.6027 75.85 58.6874C75.0888 58.6874 74.37 58.8566 73.6934 59.1951C73.186 59.3644 72.7631 59.449 72.4248 59.449H71.5368L71.2831 59.1951C71.1986 59.1105 71.114 59.0259 71.0294 58.9412C71.0294 58.8566 70.9449 58.7297 70.7757 58.5604C70.6911 58.4758 70.6489 58.3489 70.6489 58.1796ZM0.243953 48.7863C-0.178899 48.1092 -0.0520435 47.4323 0.62452 46.7553C0.962802 46.586 1.30108 46.4168 1.63937 46.2475C2.06222 45.9936 2.48507 45.8667 2.90792 45.8667C3.07706 45.9513 3.20392 45.9936 3.28849 45.9936C3.45763 45.9936 3.62677 46.0359 3.79591 46.1206C4.55705 46.5437 5.31818 46.9245 6.07932 47.263C6.92502 47.5169 7.81301 47.7284 8.74329 47.8977C8.997 47.8977 9.20842 47.9823 9.37756 48.1516C9.63127 48.3208 9.8427 48.4478 10.0118 48.5324C10.181 48.7016 10.2656 48.8709 10.2656 49.0401C10.3501 49.2094 10.4347 49.3786 10.5193 49.5479C10.3501 50.3941 10.0118 50.8596 9.50442 50.9442C9.08157 51.1134 8.61643 51.2404 8.10901 51.325C7.68615 51.4096 7.2633 51.5789 6.84045 51.8327C6.67131 52.002 6.4176 52.0866 6.07932 52.0866C5.74103 52.002 5.44504 51.9174 5.19133 51.8327C4.26105 51.325 3.37306 50.8596 2.52736 50.4364C1.68165 50.0133 0.920517 49.4632 0.243953 48.7863ZM9.50442 34.1885C9.92727 34.6962 10.3078 35.204 10.6461 35.7117C10.9844 36.2195 11.4495 36.6849 12.0415 37.108C12.2952 37.2773 12.549 37.5735 12.8027 37.9966C13.3101 38.589 13.3101 39.139 12.8027 39.6468C12.4644 40.1545 11.957 40.3238 11.2804 40.1545C9.8427 39.5621 8.65871 38.5466 7.72844 37.108C7.30559 36.0079 7.51701 35.1616 8.36272 34.5693C8.53186 34.4 8.701 34.3154 8.87014 34.3154C9.12385 34.3154 9.33528 34.2731 9.50442 34.1885ZM74.074 44.7243C73.9894 44.4704 73.778 44.1742 73.4397 43.8357C73.3551 43.0741 73.6088 42.4394 74.2008 41.9316C74.5391 41.5931 74.8774 41.2969 75.2157 41.0431C75.5539 40.7892 75.9345 40.5353 76.3574 40.2814C76.9494 39.6891 77.6682 39.816 78.5139 40.6623C78.6831 40.8315 78.8099 41.0431 78.8945 41.2969C79.0636 41.5508 79.1482 41.847 79.1482 42.1855C78.7253 42.8625 78.2179 43.3703 77.6259 43.7088C77.0339 43.878 76.4842 44.1319 75.9768 44.4704C75.4694 44.8089 74.8351 44.8935 74.074 44.7243ZM28.0254 15.1479C28.1945 15.1479 28.3636 15.1479 28.5328 15.1479C28.7019 15.0632 28.8288 15.0209 28.9133 15.0209C29.4208 15.444 29.8859 15.9095 30.3088 16.4172C30.8162 16.925 31.2813 17.5174 31.7042 18.1944C31.8733 18.4482 31.831 18.829 31.5773 19.3368C31.4082 19.7599 31.1122 20.0138 30.6893 20.0984C30.4356 20.0984 30.3088 20.0984 30.3088 20.0984C29.0402 19.506 28.2368 18.829 27.8985 18.0674C27.6448 17.475 27.5602 16.9673 27.6448 16.5442C27.7294 16.0364 27.8562 15.571 28.0254 15.1479ZM59.105 13.7515C58.9359 14.2593 58.7244 14.7247 58.4707 15.1479C58.217 15.571 58.0056 15.9941 57.8364 16.4172C57.4982 16.925 56.9062 17.2635 56.0605 17.4327C55.8913 16.6711 55.8067 16.0787 55.8067 15.6556C55.8067 15.2325 55.9336 14.1324 56.1873 12.3552C56.6947 11.7629 57.2867 11.509 57.9633 11.5936C58.4707 12.0167 58.8513 12.736 59.105 13.7515Z" fill="#262425"/>
</svg>
