<svg width="45" height="40" viewBox="0 0 45 40" fill="none" xmlns="http://www.w3.org/2000/svg">
<path d="M21.3537 14.7552C21.5256 14.7972 21.6438 14.8287 21.7082 14.8497C21.7297 14.8287 21.7512 14.8182 21.7727 14.8182C21.7942 14.8182 21.8157 14.8077 21.8372 14.7867C21.9661 14.6818 22.0843 14.5664 22.1917 14.4406C22.3206 14.3147 22.4496 14.1993 22.5785 14.0944C22.6215 14.0734 22.6537 14.0629 22.6752 14.0629C22.7182 14.042 22.7611 14.021 22.8041 14C22.976 14.0629 23.0942 14.1783 23.1586 14.3462C23.2231 14.493 23.3091 14.6294 23.4165 14.7552C23.481 14.7972 23.5562 14.8392 23.6421 14.8811C23.7281 14.9231 23.814 14.965 23.9 15.007C24.0719 15.1748 24.1686 15.3741 24.19 15.6049C24.233 15.8357 24.2867 16.0664 24.3512 16.2972C24.695 16.1084 25.0066 15.8986 25.2859 15.6678C25.5867 15.4371 25.909 15.2273 26.2528 15.0385C26.3603 15.0175 26.4677 15.028 26.5751 15.0699C26.7041 15.1119 26.833 15.1119 26.9619 15.0699C27.0049 15.049 27.0586 15.049 27.1231 15.0699C27.1875 15.0909 27.2412 15.1119 27.2842 15.1329C27.8429 15.3007 28.466 15.4371 29.1536 15.542C29.1966 15.542 29.2718 15.5734 29.3792 15.6364C29.5082 15.8462 29.6371 16.0664 29.766 16.2972C29.9164 16.507 30.1098 16.6958 30.3462 16.8636C30.3677 16.9476 30.3784 17.0315 30.3784 17.1154C30.3999 17.1993 30.4214 17.2832 30.4429 17.3671C30.4429 17.4301 30.4321 17.493 30.4106 17.5559C30.4106 17.6189 30.4214 17.6713 30.4429 17.7133C30.5933 18.0699 30.6792 18.4371 30.7007 18.8147C30.7222 19.1923 30.7867 19.5594 30.8941 19.9161C30.98 20.2727 30.98 20.6189 30.8941 20.9545C30.8511 21.1434 30.8189 21.3427 30.7974 21.5524C30.7974 21.7413 30.7974 21.9406 30.7974 22.1503V23.2832C30.7974 23.4301 30.7974 23.5769 30.7974 23.7238C30.8189 23.8706 30.8296 24.028 30.8296 24.1958C30.8511 24.3636 30.8619 24.5315 30.8619 24.6993C30.8834 24.8462 30.9156 25.0035 30.9586 25.1713C31.023 25.5699 31.0123 25.9266 30.9263 26.2413C30.8189 26.5979 30.7974 27.007 30.8619 27.4685C30.9263 27.7413 30.9263 28.0035 30.8619 28.2552C30.7544 28.6958 30.7652 29.0944 30.8941 29.451C30.9586 29.7028 30.9586 29.9441 30.8941 30.1748C30.8296 30.5734 30.7222 30.9301 30.5718 31.2448C30.2495 31.7692 29.8197 31.9266 29.2825 31.7168C29.2396 31.7168 29.1966 31.7063 29.1536 31.6853C29.1321 31.6853 29.0892 31.6748 29.0247 31.6538C28.8313 31.6958 28.6272 31.7378 28.4123 31.7797C28.1974 31.8217 27.9718 31.8741 27.7355 31.9371C27.585 31.979 27.4454 32 27.3165 32C27.1875 32 27.0371 31.979 26.8652 31.9371C26.8222 31.8322 26.79 31.7378 26.7685 31.6538C26.747 31.5909 26.7148 31.5175 26.6718 31.4336C26.7148 31.2657 26.747 31.1084 26.7685 30.9615C26.8115 30.8147 26.8545 30.6364 26.8974 30.4266C27.0049 30.2587 27.0801 30.0594 27.1231 29.8287C27.166 29.5979 27.1768 29.3462 27.1553 29.0734C27.1553 28.9476 27.1768 28.7797 27.2198 28.5699C27.2412 28.465 27.2627 28.3706 27.2842 28.2867C27.3057 28.1818 27.3057 28.0769 27.2842 27.972C27.2412 27.6993 27.2305 27.4371 27.252 27.1853C27.2735 26.9126 27.2842 26.6503 27.2842 26.3986C27.2842 26.2937 27.2842 26.1888 27.2842 26.0839C27.3057 25.958 27.3057 25.8427 27.2842 25.7378C27.2412 25.507 27.2198 25.2762 27.2198 25.0455C27.2198 24.8147 27.2198 24.5839 27.2198 24.3531C27.2627 23.8287 27.295 23.3147 27.3165 22.8112C27.3594 22.3077 27.3272 21.8042 27.2198 21.3007C27.1983 21.2168 27.1875 21.1329 27.1875 21.049C27.209 20.965 27.2305 20.8706 27.252 20.7657C27.3165 20.472 27.3272 20.1469 27.2842 19.7902C27.2627 19.6434 27.2627 19.507 27.2842 19.3811C27.3057 19.2343 27.295 19.0874 27.252 18.9406C27.209 18.6049 27.1553 18.2797 27.0908 17.965C27.0479 17.6503 26.9941 17.3357 26.9297 17.021C26.8867 16.7902 26.79 16.5804 26.6396 16.3916C26.4462 16.3287 26.2528 16.2762 26.0594 16.2343C25.952 16.2972 25.8446 16.3601 25.7371 16.4231C25.6512 16.465 25.576 16.507 25.5115 16.5489C25.3826 16.7168 25.2644 16.8636 25.157 16.9895C25.0495 17.1154 24.9421 17.2413 24.8347 17.3671C24.7917 17.451 24.738 17.5245 24.6735 17.5874C24.609 17.6503 24.5553 17.7238 24.5123 17.8077C24.3404 18.0804 24.2652 18.3531 24.2867 18.6259C24.2867 18.9825 24.2545 19.3287 24.19 19.6643C24.1471 19.8112 24.1256 19.958 24.1256 20.1049C24.1471 20.2308 24.1578 20.3776 24.1578 20.5455C24.1578 20.8811 24.1578 21.2168 24.1578 21.5524C24.1578 21.8881 24.19 22.2343 24.2545 22.5909C24.2975 22.9056 24.2867 23.1888 24.2223 23.4406C24.1578 23.7343 24.0933 24.028 24.0289 24.3217C23.9859 24.6154 23.9429 24.9091 23.9 25.2028C23.8785 25.3077 23.8892 25.465 23.9322 25.6748C23.9322 25.8427 23.9322 26 23.9322 26.1469C23.9537 26.2727 23.9752 26.4196 23.9967 26.5874C23.9967 26.6923 23.9859 26.7972 23.9644 26.9021C23.9644 26.986 23.9429 27.0804 23.9 27.1853C23.8355 27.3531 23.8248 27.542 23.8677 27.7517C23.8892 28.0455 23.9214 28.3287 23.9644 28.6014C24.0289 28.8531 24.0719 29.1154 24.0933 29.3881C24.1148 29.5559 24.1578 29.7133 24.2223 29.8601C24.2867 29.986 24.3404 30.1329 24.3834 30.3007C24.3834 30.6154 24.2652 30.8566 24.0289 31.0245C23.6636 31.0664 23.2446 31.0874 22.7719 31.0874C22.2991 31.0664 21.8801 31.0245 21.5149 30.9615C21.2785 31.0664 21.1173 31.1294 21.0314 31.1504C20.9669 31.1713 20.8058 31.1713 20.5479 31.1504C20.4835 31.1084 20.4083 31.0664 20.3223 31.0245C20.2578 30.9615 20.1934 30.8986 20.1289 30.8357C20.1074 30.7308 20.0859 30.6259 20.0645 30.521C20.0645 30.3951 20.043 30.2797 20 30.1748C20.0859 29.986 20.1504 29.8077 20.1934 29.6399C20.2364 29.451 20.2256 29.2517 20.1612 29.042C20.0967 28.8322 20.1182 28.6119 20.2256 28.3811C20.2901 28.2762 20.3116 28.1713 20.2901 28.0664C20.2901 27.9406 20.2901 27.8252 20.2901 27.7203C20.1612 26.8811 20.1397 26.0734 20.2256 25.2972C20.2256 25.2133 20.2149 25.1399 20.1934 25.0769C20.1934 24.993 20.1934 24.9091 20.1934 24.8252C20.1934 24.7832 20.1826 24.7308 20.1612 24.6678C20.1612 24.6049 20.1719 24.5524 20.1934 24.5105C20.2578 24.3427 20.2793 24.1748 20.2578 24.007C20.2578 23.8182 20.2578 23.6294 20.2578 23.4406C20.2364 23.2098 20.2256 22.9895 20.2256 22.7797C20.2256 22.549 20.2578 22.3182 20.3223 22.0874C20.3653 21.9615 20.376 21.8357 20.3545 21.7098C20.3545 21.5839 20.3545 21.458 20.3545 21.3322C20.3545 21.1643 20.3545 21.007 20.3545 20.8601C20.376 20.6923 20.3975 20.5245 20.419 20.3566C20.462 20.0629 20.505 19.7797 20.5479 19.507C20.5909 19.2343 20.5909 18.951 20.5479 18.6573C20.5479 18.6154 20.5372 18.5734 20.5157 18.5315C20.5157 18.4685 20.5264 18.4161 20.5479 18.3741C20.6339 18.1853 20.6661 17.9965 20.6446 17.8077C20.6231 17.5979 20.6124 17.3986 20.6124 17.2098C20.6124 16.958 20.6124 16.7168 20.6124 16.486C20.6339 16.2343 20.6446 15.9825 20.6446 15.7308C20.6446 15.521 20.6876 15.3322 20.7735 15.1643C20.881 14.9755 21.0744 14.8392 21.3537 14.7552ZM21.0959 26.3357C21.3537 26.021 21.3967 25.7063 21.2248 25.3916C21.3537 25.014 21.3967 24.5944 21.3537 24.1329C21.3537 23.9021 21.3537 23.6608 21.3537 23.4091C21.3752 23.1573 21.3752 22.9161 21.3537 22.6853C21.3537 22.4545 21.343 22.2238 21.3215 21.993C21.3 21.7622 21.3 21.5315 21.3215 21.3007C21.3215 21.2587 21.3215 21.2168 21.3215 21.1748C21.3215 21.1329 21.2785 21.1119 21.1925 21.1119C21.0851 21.3427 21.0099 21.5839 20.9669 21.8357C20.924 22.0874 20.9025 22.3497 20.9025 22.6224C20.9025 22.7273 20.9132 22.8007 20.9347 22.8427C21.0207 23.1573 21.0207 23.4825 20.9347 23.8182C20.9132 23.8811 20.9025 23.986 20.9025 24.1329C20.8595 24.4895 20.8488 24.8566 20.8702 25.2343C20.9132 25.5909 20.9884 25.958 21.0959 26.3357ZM28.0578 23.7867C27.9074 23.9545 27.8321 24.1119 27.8321 24.2587C27.8321 24.3846 27.8321 24.521 27.8321 24.6678C27.8536 24.7098 27.8644 24.7622 27.8644 24.8252C27.8644 24.8671 27.9181 24.8881 28.0255 24.8881C28.0685 24.7203 28.1007 24.5524 28.1222 24.3846C28.1437 24.2168 28.1222 24.0175 28.0578 23.7867ZM23.5454 19.8846C23.5024 20.0734 23.4702 20.2517 23.4487 20.4196C23.4487 20.5874 23.4702 20.7762 23.5132 20.986C23.5991 20.9441 23.7066 20.8916 23.8355 20.8287C23.7066 20.6818 23.6529 20.535 23.6743 20.3881C23.7173 20.2203 23.6743 20.0524 23.5454 19.8846ZM28.7024 17.1154C28.7883 17.0315 28.7883 16.9371 28.7024 16.8322C28.6164 16.7063 28.5305 16.7063 28.4445 16.8322C28.4231 16.979 28.509 17.0734 28.7024 17.1154ZM28.0255 29.7343C27.9181 29.8392 27.8536 29.9021 27.8321 29.9231C27.8321 29.9441 27.8751 29.9965 27.9611 30.0804C28.004 30.0175 28.0363 29.965 28.0578 29.9231C28.0793 29.8601 28.0685 29.7972 28.0255 29.7343ZM23.5132 22.6224H23.6099C23.6099 22.5804 23.6099 22.549 23.6099 22.528C23.6314 22.486 23.6421 22.4441 23.6421 22.4021C23.6421 22.3601 23.6206 22.3182 23.5776 22.2762C23.5562 22.3182 23.5347 22.3496 23.5132 22.3706C23.4917 22.3706 23.481 22.3811 23.481 22.4021C23.481 22.4441 23.481 22.486 23.481 22.528C23.5024 22.549 23.5132 22.5804 23.5132 22.6224ZM21.2892 27.028C21.2678 26.9231 21.2463 26.8601 21.2248 26.8392C21.2248 26.8182 21.2248 26.7867 21.2248 26.7448C21.2033 26.7657 21.1711 26.7762 21.1281 26.7762C21.1496 26.8182 21.1711 26.8496 21.1925 26.8706C21.214 26.8916 21.2463 26.9441 21.2892 27.028ZM28.9602 30.5524C29.0247 30.6154 29.0462 30.6469 29.0247 30.6469C29.0247 30.6888 29.0569 30.6783 29.1214 30.6154C29.1214 30.5944 29.0999 30.5629 29.0569 30.521C29.0569 30.542 29.0462 30.5524 29.0247 30.5524H28.9602ZM23.5454 21.521C23.5884 21.521 23.6099 21.5105 23.6099 21.4895C23.6099 21.4685 23.5991 21.458 23.5776 21.458C23.5776 21.4371 23.5776 21.4161 23.5776 21.3951C23.5347 21.4161 23.5132 21.4266 23.5132 21.4266C23.5132 21.4476 23.5132 21.4685 23.5132 21.4895C23.5347 21.4895 23.5454 21.5 23.5454 21.521ZM23.5454 23L23.5776 22.9685H23.5454V23Z" fill="#91CCD9"/>
<path d="M14 31.4336C14.0381 31.0958 14.0762 30.748 14.1143 30.3902C14.1714 30.0325 14.2286 29.6847 14.2857 29.3469C14.2286 29.1084 14.181 28.8699 14.1429 28.6314C14.1238 28.393 14.1333 28.1545 14.1714 27.916C14.1905 27.5781 14.2 27.2502 14.2 26.9322C14.2 26.6143 14.2 26.2864 14.2 25.9485C14.181 25.8491 14.1619 25.7597 14.1429 25.6802C14.1429 25.6007 14.1333 25.5212 14.1143 25.4417C14.1524 24.925 14.2 24.4282 14.2571 23.9512C14.3143 23.4544 14.3619 22.9675 14.4 22.4905C14.4381 22.2123 14.4476 21.944 14.4286 21.6856C14.4286 21.4074 14.4 21.1292 14.3429 20.8509C14.3048 20.6522 14.2762 20.4634 14.2571 20.2846C14.2381 20.1057 14.2095 19.9169 14.1714 19.7182C14.2095 19.5592 14.2476 19.4399 14.2857 19.3604C14.381 19.122 14.419 18.8934 14.4 18.6748C14.4 18.4363 14.3619 18.1978 14.2857 17.9593C14.2476 17.8202 14.219 17.7209 14.2 17.6612C14.2 17.6016 14.219 17.4526 14.2571 17.2141C14.3714 17.0551 14.5238 16.8961 14.7143 16.7371C14.9048 16.7173 15.0857 16.7371 15.2571 16.7967C15.4286 16.8564 15.6095 16.8663 15.8 16.8266C15.9714 16.7868 16.1429 16.7471 16.3143 16.7073C16.5048 16.6477 16.7143 16.598 16.9429 16.5583C17 16.5583 17.0762 16.5881 17.1714 16.6477C17.2286 16.6874 17.2762 16.7272 17.3143 16.7669C17.3714 16.7868 17.4286 16.8166 17.4857 16.8564C17.5048 16.9557 17.5143 17.0452 17.5143 17.1247C17.5333 17.2042 17.5429 17.2836 17.5429 17.3631V20.2547C17.5238 20.5528 17.5143 20.8509 17.5143 21.1491C17.5143 21.4273 17.5143 21.7154 17.5143 22.0135C17.5143 22.1527 17.5048 22.252 17.4857 22.3117C17.4286 22.5104 17.4381 22.7389 17.5143 22.9973C17.5333 23.0768 17.5333 23.1563 17.5143 23.2358C17.5143 23.2954 17.5238 23.365 17.5429 23.4444C17.5619 23.6432 17.5714 23.8419 17.5714 24.0407C17.5905 24.2394 17.6095 24.4381 17.6286 24.6369V24.9946C17.6095 25.2728 17.5905 25.561 17.5714 25.8591C17.5524 26.1373 17.5238 26.4155 17.4857 26.6938C17.4476 26.8726 17.4286 27.0515 17.4286 27.2304C17.4476 27.3893 17.5048 27.5483 17.6 27.7073C17.5619 27.8663 17.5238 28.0253 17.4857 28.1843C17.4667 28.3433 17.4381 28.5023 17.4 28.6612C17.4952 28.8799 17.5429 29.0985 17.5429 29.3171C17.5619 29.5158 17.5524 29.7245 17.5143 29.9431C17.4952 30.0027 17.4857 30.0723 17.4857 30.1518C17.4857 30.2114 17.4857 30.271 17.4857 30.3306C17.4857 30.4896 17.4857 30.6585 17.4857 30.8374C17.5048 30.9964 17.5143 31.1554 17.5143 31.3144C17.4571 31.3939 17.4 31.4734 17.3429 31.5528C17.3048 31.6125 17.2571 31.6721 17.2 31.7317C16.9333 31.7913 16.6667 31.841 16.4 31.8808C16.1524 31.9205 15.9048 31.9603 15.6571 32C15.4476 31.9603 15.2476 31.9304 15.0571 31.9106C14.8667 31.9106 14.6762 31.8907 14.4857 31.8509C14.3333 31.8112 14.2381 31.7814 14.2 31.7615C14.1619 31.7218 14.0952 31.6125 14 31.4336ZM15.7429 30.2114C15.6667 30.2511 15.5905 30.2809 15.5143 30.3008C15.4571 30.3207 15.381 30.3107 15.2857 30.271C15.2476 30.271 15.219 30.2809 15.2 30.3008C15.181 30.3008 15.1524 30.3008 15.1143 30.3008C15.0952 30.3604 15.0762 30.4201 15.0571 30.4797C15.0381 30.5393 15.019 30.6089 15 30.6883C15.0381 30.7281 15.0857 30.7778 15.1429 30.8374C15.2 30.8771 15.2476 30.9169 15.2857 30.9566C15.4571 30.9169 15.5619 30.8175 15.6 30.6585C15.6381 30.579 15.6571 30.5095 15.6571 30.4499C15.6762 30.3704 15.7048 30.2809 15.7429 30.1816C15.7619 30.1617 15.781 30.1418 15.8 30.122C15.819 30.1021 15.8095 30.0723 15.7714 30.0325C15.7714 30.0723 15.7619 30.1021 15.7429 30.122C15.7429 30.1418 15.7429 30.1716 15.7429 30.2114ZM14.8857 25.1436C14.981 25.084 15.0286 25.0542 15.0286 25.0542C15.1429 24.7163 15.2476 24.3884 15.3429 24.0705C15.4381 23.7326 15.5143 23.3948 15.5714 23.0569C15.5714 23.0569 15.5524 23.0172 15.5143 22.9377C15.4 22.9973 15.3524 23.0867 15.3714 23.206C15.4095 23.3053 15.381 23.4047 15.2857 23.5041C15.2286 23.5438 15.1619 23.5935 15.0857 23.6531C15.0286 23.6929 14.9619 23.7425 14.8857 23.8022C14.9238 24.0208 14.8952 24.2394 14.8 24.458C14.7238 24.6766 14.7524 24.9051 14.8857 25.1436ZM14.7714 27.916C14.8667 27.757 14.9429 27.608 15 27.4688C15.0762 27.3098 15.1619 27.1608 15.2571 27.0217C15.2762 26.9819 15.2857 26.9223 15.2857 26.8428C15.2857 26.8229 15.2667 26.7534 15.2286 26.6341C15.0381 26.6739 14.8857 26.6938 14.7714 26.6938C14.7524 26.7534 14.7238 26.8229 14.6857 26.9024V27.0813C14.6857 27.1608 14.6952 27.2204 14.7143 27.2602C14.7143 27.2999 14.7143 27.3397 14.7143 27.3794C14.7333 27.4192 14.7429 27.4589 14.7429 27.4986V27.6775C14.7429 27.757 14.7524 27.8365 14.7714 27.916ZM16.7429 18.2873C16.7238 18.3866 16.7048 18.4761 16.6857 18.5556C16.6857 18.635 16.7143 18.7245 16.7714 18.8238C16.8095 18.8636 16.8381 18.9033 16.8571 18.9431C16.8952 18.963 16.9619 18.953 17.0571 18.9133C17.1143 18.7145 17.1238 18.5257 17.0857 18.3469C17.0476 18.168 17.0095 17.9792 16.9714 17.7805C16.9714 17.7805 16.9524 17.7606 16.9143 17.7209C16.8762 17.6811 16.8286 17.6513 16.7714 17.6314C16.7333 17.6116 16.6857 17.6314 16.6286 17.6911C16.5905 17.8103 16.5905 17.9196 16.6286 18.019C16.6857 18.0985 16.7238 18.1879 16.7429 18.2873ZM16.9143 21.9539C16.9333 21.8546 16.9429 21.7651 16.9429 21.6856C16.9619 21.6061 16.9714 21.5266 16.9714 21.4472C16.9905 21.2484 16.9905 21.0596 16.9714 20.8808C16.9524 20.8013 16.9524 20.7218 16.9714 20.6423C16.9905 20.5628 16.9429 20.5032 16.8286 20.4634C16.7905 20.6423 16.7524 20.8112 16.7143 20.9702C16.6762 21.1292 16.6381 21.2882 16.6 21.4472C16.6381 21.5664 16.6762 21.6658 16.7143 21.7453C16.7524 21.8248 16.819 21.8943 16.9143 21.9539ZM15.0286 21.6558C15.0476 21.6558 15.0571 21.6658 15.0571 21.6856C15.0762 21.6856 15.1048 21.6856 15.1429 21.6856C15.181 21.5664 15.2095 21.4472 15.2286 21.3279C15.2667 21.2087 15.3048 21.0894 15.3429 20.9702L15.3143 20.9404C15.219 20.8808 15.1238 20.9006 15.0286 21V21.6558ZM16.8571 22.9079C16.8381 23.047 16.8286 23.1762 16.8286 23.2954C16.8286 23.4146 16.819 23.5438 16.8 23.6829C16.8 23.7028 16.8286 23.7127 16.8857 23.7127C16.9238 23.5736 16.9333 23.4444 16.9143 23.3252C16.9143 23.1861 16.8952 23.047 16.8571 22.9079ZM16 29.4363C16.1524 29.3568 16.2381 29.3071 16.2571 29.2873C16.2762 29.2674 16.2381 29.2078 16.1429 29.1084C16.0667 29.2674 16.019 29.3767 16 29.4363ZM15.9143 26.9919C15.9143 27.0117 15.9048 27.0217 15.8857 27.0217C15.8857 27.0217 15.8857 27.0316 15.8857 27.0515L15.9143 27.0813L15.9429 27.0515C15.9429 27.0316 15.9333 27.0217 15.9143 27.0217C15.9143 27.0217 15.9143 27.0117 15.9143 26.9919ZM16.0571 26.6938C16.0571 26.6739 16.0667 26.664 16.0857 26.664H16C16 26.6838 16 26.6938 16 26.6938C16.019 26.6938 16.0286 26.7037 16.0286 26.7236C16.0476 26.7236 16.0571 26.7136 16.0571 26.6938ZM17.2286 10C17.2857 10.0397 17.3429 10.0894 17.4 10.1491C17.4762 10.1888 17.5524 10.2285 17.6286 10.2683C17.6857 10.4074 17.7429 10.5465 17.8 10.6856C17.8571 10.8049 17.9238 10.944 18 11.103C17.981 11.4607 17.9524 11.8284 17.9143 12.206C17.8762 12.5637 17.7619 12.9214 17.5714 13.2791C17.5333 13.3189 17.5048 13.3785 17.4857 13.458C17.4857 13.5176 17.4667 13.5772 17.4286 13.6369C17.3333 13.8952 17.2 14.1238 17.0286 14.3225C16.8762 14.5014 16.7048 14.6802 16.5143 14.8591C16.419 14.9386 16.3143 14.9982 16.2 15.0379C16.1048 15.0777 16.0095 15.1174 15.9143 15.1572C15.7048 15.1572 15.5333 15.1174 15.4 15.0379C15.2667 14.9386 15.1429 14.8293 15.0286 14.71C14.9333 14.6504 14.8571 14.5312 14.8 14.3523C14.6095 13.7958 14.5333 13.1798 14.5714 12.5041C14.5714 12.4246 14.581 12.355 14.6 12.2954C14.619 12.2358 14.6381 12.1662 14.6571 12.0867L14.8286 11.5501C14.9048 11.1129 15.1524 10.8148 15.5714 10.6558C15.9143 10.5366 16.2 10.3776 16.4286 10.1789C16.619 10.0596 16.8857 10 17.2286 10ZM16.4 13.7859C16.3619 13.7462 16.3333 13.7362 16.3143 13.7561C16.2762 13.7561 16.2571 13.7859 16.2571 13.8455C16.2571 13.9051 16.2952 13.9151 16.3714 13.8753C16.3905 13.8555 16.4 13.8257 16.4 13.7859Z" fill="#91CCD9"/>
<path d="M22.0186 1.49515C22.4237 1.42132 22.8657 1.32902 23.3444 1.21827C23.86 1.10752 24.3757 1.01523 24.8913 0.941391C25.4805 0.756805 25.9961 0.756805 26.4381 0.941391C27.2115 1.19981 27.9665 1.31057 28.7031 1.27365C29.4765 1.19981 30.2315 1.12598 30.9681 1.05215C31.7047 0.867559 32.3676 0.775265 32.9569 0.775265C33.362 0.775265 33.7303 0.756806 34.0617 0.719887C34.43 0.68297 34.7983 0.609136 35.1666 0.498385C35.3508 0.424549 35.5349 0.387631 35.719 0.387631C35.9032 0.387631 36.0873 0.369173 36.2715 0.332256C36.7871 0.25842 37.2843 0.239961 37.7631 0.27688C38.2418 0.27688 38.7206 0.203045 39.1994 0.0553754H39.9176C41.0593 0.350715 42.1642 0.332257 43.2322 0C43.6005 0.0738338 43.8951 0.184586 44.1161 0.332256C44.7054 0.627595 45 1.10752 45 1.77204C45 2.69497 45 3.6179 45 4.54084C45 5.42686 44.9632 6.31287 44.8895 7.19889C44.8895 7.53115 44.8711 7.75265 44.8343 7.8634C44.6501 8.78634 44.5396 9.70927 44.5028 10.6322C44.5028 11.5182 44.5028 12.4227 44.5028 13.3456C44.5028 14.0102 44.4844 14.6931 44.4476 15.3946C44.4476 16.0591 44.3739 16.7236 44.2266 17.3881C44.1529 17.9419 44.0977 18.4956 44.0609 19.0494C44.0609 19.6031 44.0609 20.1938 44.0609 20.8214C44.0609 22.335 43.9504 23.8302 43.7294 25.3069C43.6189 26.0821 43.5268 26.8574 43.4532 27.6327C43.4163 28.4079 43.4532 29.2017 43.5637 30.0138C43.6005 30.383 43.6005 30.7337 43.5637 31.066C43.5268 31.3613 43.4716 31.6936 43.3979 32.0628C43.3243 32.395 43.2506 32.6719 43.177 32.8934C43.1401 33.078 43.1217 33.2626 43.1217 33.4472C43.1217 33.6317 43.1401 33.8533 43.177 34.1117C43.2506 34.3332 43.3243 34.6285 43.3979 34.9977C43.2138 35.5145 42.9928 36.0129 42.735 36.4928C42.514 36.9728 42.3115 37.4527 42.1273 37.9326C41.8327 38.2649 41.5381 38.431 41.2434 38.431C41.0961 38.4679 40.9304 38.5048 40.7462 38.5418C40.5621 38.5787 40.3595 38.6156 40.1385 38.6525C40.0281 38.7633 39.8255 38.8186 39.5309 38.8186C38.9784 38.7448 38.426 38.7448 37.8736 38.8186C37.3211 38.8925 36.7318 38.8925 36.1058 38.8186C34.117 38.7448 32.0914 38.8002 30.0289 38.9848C29.1819 39.0586 28.3532 39.1694 27.543 39.317C26.7327 39.4647 25.9041 39.5939 25.057 39.7047C24.6887 39.6308 24.302 39.5755 23.8969 39.5385C23.4918 39.5016 23.0866 39.4462 22.6815 39.3724C22.1659 39.2986 21.6319 39.2801 21.0794 39.317C20.527 39.3909 19.993 39.4647 19.4774 39.5385C19.1091 39.6124 18.7408 39.6677 18.3725 39.7047C18.041 39.7785 17.6727 39.8523 17.2676 39.9262C16.973 40 16.6599 40.0185 16.3285 39.9815C16.0338 39.9815 15.7576 39.8892 15.4998 39.7047C15.0947 39.5201 14.6528 39.4093 14.174 39.3724C13.6952 39.3724 13.2532 39.4093 12.8481 39.4832C12.5535 39.4832 12.2773 39.4832 12.0195 39.4832C11.7617 39.5201 11.4854 39.557 11.1908 39.5939C10.4542 39.5201 9.75447 39.3355 9.09155 39.0401C8.79691 38.9294 8.46545 38.8925 8.09716 38.9294C7.7657 38.9294 7.43423 38.9479 7.10277 38.9848C6.95545 39.0955 6.77131 39.2617 6.55033 39.4832L6.16363 39.8708C5.79533 39.9815 5.48229 39.9631 5.22448 39.8154C5.00351 39.6677 4.7457 39.557 4.45107 39.4832C4.15644 39.4093 3.88022 39.3724 3.62241 39.3724C3.36461 39.3724 3.1068 39.4462 2.849 39.5939C2.55437 39.7785 2.24132 39.8708 1.90986 39.8708C1.57839 39.8708 1.22852 39.8708 0.860224 39.8708C0.639249 39.6862 0.491933 39.5385 0.418274 39.4278C0.381445 39.3539 0.289372 39.1324 0.142055 38.7633C0.215714 38.5787 0.270958 38.3756 0.307787 38.1541C0.344616 37.9326 0.39986 37.6742 0.473518 37.3789C0.436689 37.1574 0.381445 36.8989 0.307787 36.6036C0.234128 36.2713 0.16047 35.9206 0.0868115 35.5515V35.1084C0.123641 34.0378 0.142055 33.0042 0.142055 32.0074C0.142055 30.9737 0.142055 29.94 0.142055 28.9063C0.142055 28.2787 0.142055 27.688 0.142055 27.1343C0.178885 26.5436 0.270957 25.9345 0.418274 25.3069C0.491933 24.79 0.510347 24.2732 0.473518 23.7563C0.473518 23.2026 0.473518 22.6673 0.473518 22.1504V19.437C0.473518 18.8463 0.455103 18.2741 0.418274 17.7204C0.418274 17.1666 0.326201 16.6128 0.142055 16.0591C-0.0789197 15.2469 -0.0420905 14.4162 0.252543 13.5671C0.36303 13.198 0.436689 12.8473 0.473518 12.515C0.510347 12.1458 0.528762 11.7582 0.528762 11.3521C0.528762 10.7614 0.547176 10.1707 0.584006 9.58006C0.657664 8.98939 0.694493 8.39871 0.694493 7.80803C0.694493 7.51269 0.676078 7.23581 0.639249 6.97739C0.639249 6.68205 0.639249 6.42363 0.639249 6.20212C0.897054 5.83295 1.0812 5.61144 1.19169 5.53761C1.30217 5.46377 1.59681 5.38994 2.07559 5.3161C2.25973 5.02076 2.35181 4.85464 2.35181 4.81772C2.35181 4.74388 2.25973 4.61467 2.07559 4.43009C1.85461 4.43009 1.68888 4.467 1.57839 4.54084H1.19169C1.0812 4.28242 1.02596 4.02399 1.02596 3.76557C1.02596 3.50715 1.06279 3.24873 1.13644 2.99031C1.24693 2.58422 1.50474 2.32579 1.90986 2.21504C2.49912 2.14121 3.08839 2.03046 3.67766 1.88279C4.26692 1.73512 4.85619 1.6982 5.44546 1.77204C5.74009 1.80895 5.9979 1.82741 6.21887 1.82741C6.47667 1.82741 6.75289 1.84587 7.04753 1.88279C7.52631 1.99354 7.96826 1.99354 8.37338 1.88279C8.66801 1.80895 8.92582 1.79049 9.14679 1.82741C9.40459 1.86433 9.68081 1.9197 9.97545 1.99354C10.2701 1.9197 10.5647 1.86433 10.8593 1.82741C11.154 1.79049 11.4486 1.73512 11.7432 1.66128C12.222 1.47669 12.6824 1.36594 13.1243 1.32903C13.6031 1.29211 14.0819 1.27365 14.5607 1.27365C15.4814 1.31057 16.3837 1.32903 17.2676 1.32903C18.1884 1.29211 19.1091 1.27365 20.0298 1.27365C20.3244 1.31057 20.6191 1.34748 20.9137 1.3844C21.2452 1.42132 21.6135 1.45823 22.0186 1.49515ZM36.382 2.15967C35.5717 2.08583 34.7799 2.06737 34.0065 2.10429C33.2699 2.10429 32.4965 2.19658 31.6862 2.38117C31.5758 2.38117 31.4653 2.39963 31.3548 2.43655C31.2443 2.43655 31.1522 2.41809 31.0786 2.38117C30.7839 2.27042 30.5077 2.27042 30.2499 2.38117C30.0289 2.45501 29.7895 2.52884 29.5317 2.60268C29.4949 2.67651 29.4581 2.75034 29.4213 2.82418C29.3844 2.8611 29.366 2.91647 29.366 2.99031C29.808 3.13798 30.2499 3.19335 30.6919 3.15644C31.1706 3.11952 31.631 3.02723 32.073 2.87956C32.4044 2.80572 32.7175 2.7688 33.0121 2.7688C33.3436 2.73189 33.6934 2.67651 34.0617 2.60268C34.3564 2.56576 34.6694 2.5473 35.0009 2.5473C35.3692 2.5473 35.719 2.51038 36.0505 2.43655C36.0873 2.39963 36.1242 2.36271 36.161 2.3258C36.2347 2.25196 36.3083 2.19658 36.382 2.15967C36.5293 2.15967 36.6582 2.12275 36.7687 2.04892C36.9528 2.04892 37.0265 1.99354 36.9897 1.88279C36.9528 1.84587 36.8239 1.82741 36.6029 1.82741C36.4556 1.86433 36.382 1.97508 36.382 2.15967ZM41.7406 30.2353C41.9984 30.1615 42.1273 30.0138 42.1273 29.7923C42.201 28.9802 42.2746 28.1864 42.3483 27.4112C42.422 26.599 42.4772 25.8053 42.514 25.03C42.5877 24.1809 42.6613 23.3318 42.735 22.4827C42.8087 21.5967 42.8271 20.7107 42.7902 19.8246C42.7902 19.677 42.7902 19.5293 42.7902 19.3816C42.7902 19.234 42.8087 19.0678 42.8455 18.8832C43.0296 18.1449 43.1217 17.4066 43.1217 16.6682C43.1585 15.9299 43.177 15.1915 43.177 14.4532C43.2138 13.9363 43.2322 13.4379 43.2322 12.958C43.269 12.4781 43.3243 11.9982 43.3979 11.5182C43.4716 11.0752 43.5084 10.6507 43.5084 10.2446C43.5452 9.83848 43.5821 9.41393 43.6189 8.97093C43.6189 8.7125 43.6189 8.45408 43.6189 8.19566C43.6557 7.93724 43.711 7.69728 43.7846 7.47577C43.932 6.84818 43.9872 6.23904 43.9504 5.64836C43.9504 5.02077 43.9872 4.41163 44.0609 3.82095C44.0609 3.74711 44.0424 3.67328 44.0056 3.59945C43.9688 3.48869 43.9504 3.3964 43.9504 3.32257C43.9135 3.32257 43.8951 3.30411 43.8951 3.26719V3.15644C43.8215 3.04568 43.711 2.95339 43.5637 2.87956C43.4163 2.7688 43.2874 2.73189 43.177 2.7688C42.9191 2.91647 42.7902 3.0826 42.7902 3.26719C42.6061 4.26396 42.6613 5.24227 42.956 6.20212C42.9928 6.38671 43.0112 6.53438 43.0112 6.64513C43.048 6.75588 43.048 6.90355 43.0112 7.08814C42.9744 7.71573 42.9192 8.34333 42.8455 8.97093C42.8087 9.59852 42.735 10.2261 42.6245 10.8537C42.5509 11.2598 42.4772 11.6474 42.4035 12.0166C42.3299 12.3858 42.2931 12.7734 42.2931 13.1795V16.3359C42.2562 17.2958 42.2378 18.2741 42.2378 19.2709C42.2378 20.2677 42.201 21.246 42.1273 22.2058C42.1273 22.4642 42.0905 22.7227 42.0168 22.9811C41.98 23.2395 41.9432 23.4979 41.9063 23.7563V24.4762C41.8695 25.0669 41.8327 25.676 41.7959 26.3036C41.759 26.8943 41.7406 27.5035 41.7406 28.1311C41.7406 28.4633 41.759 28.8325 41.7959 29.2386C41.8327 29.6078 41.8511 29.9769 41.8511 30.3461C41.7774 30.383 41.7222 30.4015 41.6854 30.4015V30.5676C41.6854 30.5307 41.6854 30.4938 41.6854 30.4569C41.7222 30.383 41.7406 30.3092 41.7406 30.2353ZM3.51193 8.41717C3.43827 8.67559 3.38302 8.91555 3.34619 9.13705C3.34619 9.32164 3.30937 9.52469 3.23571 9.74619C3.23571 10.263 3.21729 10.7983 3.18046 11.3521C3.18046 11.9059 3.08839 12.4412 2.90424 12.958C2.86741 13.1057 2.849 13.2903 2.849 13.5118C2.849 13.6964 2.849 13.8809 2.849 14.0655C2.849 14.6193 2.86741 15.173 2.90424 15.7268C2.9779 16.2806 3.01473 16.8528 3.01473 17.4435C3.01473 18.0341 2.9779 18.6064 2.90424 19.1601C2.86741 19.7139 2.83059 20.2677 2.79376 20.8214C2.79376 21.1168 2.79376 21.4305 2.79376 21.7628C2.83059 22.0581 2.849 22.3535 2.849 22.6488C2.849 23.4979 2.849 24.3655 2.849 25.2515C2.88583 26.1375 2.99632 27.0051 3.18046 27.8542C3.18046 28.7771 3.29095 29.6816 3.51193 30.5676C3.7329 31.4536 3.93546 32.3212 4.11961 33.1703C4.11961 33.4656 4.19326 33.6871 4.34058 33.8348C4.41424 33.9086 4.46948 33.9825 4.50631 34.0563C4.57997 34.1301 4.65363 34.204 4.72729 34.2778C5.68485 34.5362 6.58716 34.5362 7.43423 34.2778C7.61838 34.2409 7.78411 34.2224 7.93143 34.2224C8.07874 34.2224 8.22606 34.2224 8.37338 34.2224C8.63118 34.2963 8.88899 34.3516 9.14679 34.3886C9.40459 34.3886 9.68081 34.3886 9.97545 34.3886C10.4911 34.3886 11.0067 34.3701 11.5223 34.3332C12.0379 34.2963 12.5719 34.3147 13.1243 34.3886C14.6343 34.4993 16.1075 34.5547 17.5438 34.5547C19.017 34.5178 20.4902 34.4624 21.9633 34.3886C22.9209 34.3886 23.8785 34.3886 24.836 34.3886C25.8304 34.3516 26.8248 34.4809 27.8192 34.7762C27.9297 34.8131 28.0586 34.8316 28.2059 34.8316C28.3532 34.7946 28.5005 34.7946 28.6478 34.8316H30.4709C30.876 34.7946 31.2811 34.7762 31.6862 34.7762C32.1282 34.7393 32.5517 34.6839 32.9569 34.6101C33.583 34.4993 34.209 34.4439 34.8351 34.4439C35.4981 34.407 36.1426 34.4993 36.7687 34.7208C36.9528 34.7946 37.1554 34.8316 37.3764 34.8316C37.6342 34.7946 37.8736 34.7946 38.0945 34.8316C38.6101 34.8316 39.0521 34.647 39.4204 34.2778C39.494 34.204 39.5309 34.1117 39.5309 34.0009C39.5677 33.8533 39.5861 33.724 39.5861 33.6133C39.6598 33.281 39.6782 32.9672 39.6414 32.6719C39.6414 32.3766 39.715 32.0812 39.8623 31.7859C39.936 31.6013 39.9728 31.4167 39.9728 31.2321C40.0096 31.0475 40.0281 30.8445 40.0281 30.623C40.0281 30.2169 40.0281 29.8477 40.0281 29.5155C40.0281 29.1463 39.9912 28.7586 39.9176 28.3526C39.8807 27.725 39.8807 27.0605 39.9176 26.359C39.9912 25.8791 40.0281 25.3992 40.0281 24.9192C40.0281 24.4024 40.0281 23.904 40.0281 23.4241C40.0281 22.9072 39.9728 22.4273 39.8623 21.9843C39.7518 21.5413 39.6598 21.0983 39.5861 20.6553C39.8071 20.1015 39.9912 19.5662 40.1385 19.0494C40.3227 18.4956 40.4148 17.9603 40.4148 17.4435C40.4516 16.7051 40.4516 15.9668 40.4148 15.2284C40.4148 14.4901 40.3227 13.7886 40.1385 13.1241C40.2859 12.312 40.3964 11.5921 40.47 10.9645C40.5437 10.5953 40.5621 10.2446 40.5253 9.91232C40.5253 9.54315 40.5621 9.21089 40.6357 8.91555C40.8199 8.14028 40.912 7.38348 40.912 6.64513C40.912 5.86987 40.9488 5.11306 41.0224 4.37471C41.0224 4.26396 40.9856 4.13475 40.912 3.98708C40.8751 3.83941 40.8567 3.7102 40.8567 3.59945C40.3779 3.23027 39.8623 3.11952 39.3099 3.26719C38.6101 3.37794 37.9288 3.50715 37.2659 3.65482C36.6029 3.80249 35.9584 3.9317 35.3323 4.04245C35.0745 4.11629 34.8351 4.17167 34.6142 4.20858C34.43 4.2455 34.2275 4.30088 34.0065 4.37471C33.6014 4.37471 33.2147 4.39317 32.8464 4.43009C32.4781 4.467 32.1098 4.5593 31.7415 4.70697C31.5942 4.74388 31.4469 4.76234 31.2995 4.76234C31.1522 4.76234 31.0233 4.7808 30.9128 4.81772C30.2867 4.89155 29.6975 4.91001 29.145 4.8731C28.5926 4.83618 28.0402 4.7808 27.4877 4.70697C27.0089 4.59621 26.567 4.61467 26.1619 4.76234C25.9777 4.79926 25.812 4.81772 25.6647 4.81772C25.5174 4.81772 25.3885 4.81772 25.278 4.81772C24.3204 4.81772 23.3629 4.83618 22.4053 4.8731C21.4846 4.91001 20.5454 4.89155 19.5879 4.81772C19.1459 4.81772 18.6855 4.83618 18.2068 4.8731C17.7648 4.8731 17.3229 4.96539 16.8809 5.14998C16.5126 5.29765 16.1443 5.38994 15.776 5.42686C15.4446 5.42686 15.0763 5.42686 14.6712 5.42686C14.3765 5.42686 14.1003 5.4084 13.8425 5.37148C13.6215 5.33456 13.3637 5.3161 13.0691 5.3161C12.885 5.3161 12.7008 5.33456 12.5167 5.37148C12.3325 5.37148 12.1484 5.4084 11.9642 5.48223C10.8593 5.88832 9.75447 5.99907 8.6496 5.81449C7.98667 5.70374 7.32375 5.77757 6.66082 6.03599C6.40302 6.14675 6.14521 6.2575 5.88741 6.36825C5.6296 6.44209 5.39021 6.53438 5.16924 6.64513C4.87461 6.71897 4.59839 6.82972 4.34058 6.97739C4.08278 7.08814 3.80656 7.19889 3.51193 7.30964V8.41717ZM24.9465 35.4961C24.5414 35.533 24.1915 35.5699 23.8969 35.6068C23.6022 35.6437 23.2892 35.6807 22.9577 35.7176C21.0058 35.7914 19.0723 35.8468 17.1571 35.8837C15.2788 35.8837 13.3821 35.7545 11.467 35.4961C11.2461 35.4592 11.0067 35.4407 10.7489 35.4407C10.5279 35.4407 10.3069 35.4407 10.0859 35.4407C9.75447 35.4407 9.42301 35.4592 9.09155 35.4961C8.79691 35.533 8.46545 35.5145 8.09716 35.4407C7.72887 35.3669 7.3974 35.3853 7.10277 35.4961C6.80814 35.6068 6.31094 35.8099 5.61119 36.1052C6.97387 36.3636 8.29972 36.5298 9.58874 36.6036C10.8778 36.6774 12.1668 36.862 13.4558 37.1574C15.2604 36.6774 17.0835 36.6221 18.9249 36.9912C19.1091 36.9912 19.3116 36.9912 19.5326 36.9912C19.7904 36.9912 20.0482 36.9728 20.306 36.9359C20.748 36.9359 21.2452 36.8436 21.7976 36.659C22.4237 36.4744 23.0498 36.3636 23.6759 36.3267C24.3388 36.2898 24.9833 36.2529 25.6094 36.216C25.7936 36.216 25.9777 36.216 26.1619 36.216C26.3828 36.216 26.5854 36.179 26.7696 36.1052C26.8432 36.1052 26.9169 36.0683 26.9905 35.9945C26.6222 35.9206 26.2724 35.8468 25.9409 35.773C25.6463 35.6622 25.3148 35.5699 24.9465 35.4961ZM5.33497 5.14998C5.59277 5.00231 5.81375 4.92847 5.9979 4.92847C6.18204 4.85464 6.34777 4.81772 6.49509 4.81772C6.64241 4.81772 6.80814 4.79926 6.99228 4.76234C7.17643 4.68851 7.36058 4.59622 7.54472 4.48546C7.72887 4.37471 7.91301 4.22704 8.09716 4.04245C8.13399 4.04245 8.13399 3.98708 8.09716 3.87633C8.09716 3.76557 8.04191 3.7102 7.93143 3.7102C7.48948 3.82095 7.02911 3.85787 6.55033 3.82095C6.14521 3.74711 5.72168 3.74711 5.27973 3.82095C4.83778 3.89478 4.39583 3.96862 3.95388 4.04245C3.91705 4.04245 3.88022 4.07937 3.84339 4.15321C3.80656 4.22704 3.76973 4.30088 3.7329 4.37471C3.62241 4.5593 3.67766 4.68851 3.89863 4.76234C4.08278 4.79926 4.28534 4.85464 4.50631 4.92847C4.76412 5.00231 5.04034 5.07614 5.33497 5.14998ZM10.1964 3.7102C10.2701 3.96862 10.3253 4.13475 10.3622 4.20858C10.399 4.2455 10.4542 4.2455 10.5279 4.20858C10.8593 4.13475 11.1724 4.06091 11.467 3.98708C11.7985 3.87633 12.13 3.78403 12.4614 3.7102C12.8665 3.63636 13.2348 3.59945 13.5663 3.59945C13.9346 3.56253 14.3029 3.63636 14.6712 3.82095C14.8921 3.85787 15.1315 3.85787 15.3893 3.82095C15.4262 3.82095 15.4814 3.80249 15.5551 3.76557C15.6287 3.72866 15.7024 3.69174 15.776 3.65482C15.8129 3.6179 15.8313 3.48869 15.8313 3.26719C15.7208 3.19335 15.5919 3.13798 15.4446 3.10106C15.2973 3.02723 15.1315 2.99031 14.9474 2.99031C14.7264 2.99031 14.487 3.00877 14.2292 3.04569C13.9714 3.0826 13.7136 3.06414 13.4558 2.99031C12.8665 2.95339 12.2957 3.00877 11.7432 3.15644C11.2276 3.30411 10.712 3.48869 10.1964 3.7102ZM22.0738 3.32257C22.8841 3.43332 23.6391 3.47023 24.3388 3.43332C24.8176 3.35948 25.278 3.30411 25.7199 3.26719C26.1987 3.23027 26.6591 3.06414 27.101 2.7688C26.8432 2.73189 26.6038 2.69497 26.3828 2.65805C26.1619 2.62113 25.9409 2.58422 25.7199 2.5473C25.0938 2.43655 24.5782 2.45501 24.1731 2.60268C23.989 2.67651 23.8048 2.7688 23.6207 2.87956C23.4733 2.95339 23.3076 3.02723 23.1235 3.10106C22.9393 3.13798 22.7552 3.13798 22.571 3.10106C22.4237 3.06414 22.258 3.13798 22.0738 3.32257ZM39.8623 36.9912C39.7518 36.6221 39.5677 36.419 39.3099 36.3821H38.8127C38.3707 36.4559 37.9288 36.5298 37.4868 36.6036C37.0817 36.6774 36.6766 36.7513 36.2715 36.8251C36.2347 36.8989 36.1794 36.9543 36.1058 36.9912C36.8792 37.1758 37.5053 37.2681 37.984 37.2681C38.4628 37.2681 39.0889 37.1758 39.8623 36.9912ZM1.74412 33.8902C1.92827 33.1518 2.00193 32.5427 1.9651 32.0628C1.92827 31.5828 1.8362 31.0844 1.68888 30.5676C1.50474 30.826 1.41266 31.066 1.41266 31.2875C1.339 31.5459 1.28376 31.8043 1.24693 32.0628C1.2101 32.3212 1.17327 32.5611 1.13644 32.7826C1.13644 32.8934 1.13644 33.0226 1.13644 33.1703C1.13644 33.281 1.15486 33.3733 1.19169 33.4472C1.26535 33.5579 1.339 33.6502 1.41266 33.724C1.52315 33.761 1.63364 33.8163 1.74412 33.8902ZM1.68888 27.245C1.35742 27.0974 1.19169 27.2081 1.19169 27.5773C1.11803 27.9834 1.28376 28.2603 1.68888 28.4079C1.94669 28.0757 1.94669 27.688 1.68888 27.245ZM19.0907 3.15644C18.796 3.15644 18.5198 3.15644 18.262 3.15644C18.041 3.15644 17.7832 3.21181 17.4886 3.32257C17.7832 3.3964 18.041 3.43332 18.262 3.43332C18.5198 3.3964 18.796 3.30411 19.0907 3.15644ZM2.07559 9.13705C2.18608 8.76788 2.24132 8.52792 2.24132 8.41717C2.24132 8.30641 2.14925 8.10337 1.9651 7.80803C1.92827 8.10337 1.89144 8.36179 1.85461 8.58329C1.85461 8.76788 1.92827 8.95247 2.07559 9.13705ZM24.7255 37.8773C24.6519 37.8403 24.615 37.8034 24.615 37.7665C24.615 37.7296 24.5966 37.7111 24.5598 37.7111C24.4493 37.7111 24.3204 37.7296 24.1731 37.7665C24.0626 37.7665 23.9705 37.8034 23.8969 37.8773C23.8969 37.9142 23.9153 37.9326 23.9521 37.9326H24.0626C24.2468 38.1172 24.4309 38.1172 24.615 37.9326H24.7255V37.8773ZM26.2171 37.8219C26.3276 37.9326 26.4565 37.988 26.6038 37.988C26.7511 37.9511 26.88 37.9142 26.9905 37.8773C26.88 37.7665 26.7511 37.7111 26.6038 37.7111C26.4565 37.7111 26.3276 37.748 26.2171 37.8219ZM41.2434 22.0951C41.1698 21.9843 41.1329 21.9289 41.1329 21.9289L41.0777 21.9843C41.0409 22.0212 41.0224 22.0581 41.0224 22.0951C40.9488 22.0951 40.9488 22.132 41.0224 22.2058C41.0224 22.3166 41.0593 22.3719 41.1329 22.3719C41.2066 22.335 41.2434 22.2427 41.2434 22.0951ZM4.00912 36.4375C4.04595 36.4375 4.06436 36.419 4.06436 36.3821C4.06436 36.2713 4.02753 36.179 3.95388 36.1052C3.84339 35.9945 3.78814 36.0498 3.78814 36.2713C3.78814 36.3452 3.80656 36.3821 3.84339 36.3821C3.84339 36.419 3.8618 36.4375 3.89863 36.4375H4.00912ZM41.7406 33.5025C41.7038 33.4656 41.6854 33.4287 41.6854 33.3918C41.6854 33.3549 41.6485 33.318 41.5749 33.281C41.5381 33.318 41.5196 33.3733 41.5196 33.4472C41.5196 33.4841 41.4828 33.5395 41.4092 33.6133C41.4092 33.6502 41.4276 33.6687 41.4644 33.6687C41.5012 33.6687 41.5196 33.6871 41.5196 33.724C41.5565 33.6871 41.5933 33.6687 41.6301 33.6687C41.667 33.6317 41.7038 33.5764 41.7406 33.5025ZM1.68888 15.0623C1.65205 15.0623 1.63364 15.0808 1.63364 15.1177C1.59681 15.1546 1.57839 15.1915 1.57839 15.2284C1.57839 15.413 1.61522 15.5422 1.68888 15.6161C1.68888 15.5791 1.7073 15.5422 1.74412 15.5053C1.74412 15.2838 1.72571 15.1361 1.68888 15.0623ZM1.74412 16.8897H1.68888V17.0005L1.74412 16.8897ZM41.5749 31.509H41.6854L41.5749 31.3429V31.509Z" fill="#F0FAFA"/>
</svg>
