<svg width="45" height="40" viewBox="0 0 45 40" fill="none" xmlns="http://www.w3.org/2000/svg">
<path d="M20.3308 12.8507C20.5539 12.728 20.798 12.6394 21.063 12.5849C21.328 12.5167 21.5791 12.4076 21.8162 12.2577C21.858 12.2168 21.9068 12.1963 21.9626 12.1963C22.0184 12.1827 22.0742 12.1759 22.13 12.1759C22.4648 12.1213 22.8065 12.0736 23.1552 12.0327C23.5039 11.9782 23.8526 11.9918 24.2012 12.0736C24.271 12.1009 24.3337 12.1077 24.3895 12.0941C24.4593 12.0804 24.529 12.0668 24.5988 12.0532C24.8498 12.1622 25.0939 12.2781 25.331 12.4008C25.5681 12.5099 25.7843 12.6599 25.9796 12.8507C26.2167 12.9189 26.412 13.0279 26.5654 13.1779C26.7328 13.3142 26.8932 13.4778 27.0466 13.6687C27.3534 13.8187 27.6324 14.0095 27.8834 14.2413C28.1345 14.4731 28.3786 14.7185 28.6157 14.9775C28.6854 15.0457 28.7412 15.1343 28.7831 15.2434C28.8389 15.3388 28.8737 15.4274 28.8877 15.5092C28.9156 15.6455 28.9504 15.7751 28.9923 15.8978C29.0481 16.0068 29.1108 16.1227 29.1806 16.2454C29.2782 16.4363 29.3619 16.6339 29.4316 16.8384C29.5014 17.0293 29.5851 17.2202 29.6827 17.411C29.6966 17.4656 29.7106 17.5201 29.7245 17.5746C29.7385 17.6155 29.7455 17.6496 29.7455 17.6769C29.7455 17.895 29.7664 18.0995 29.8082 18.2904C29.864 18.4813 29.8989 18.6721 29.9128 18.863C29.9826 19.3129 30.0105 19.7628 29.9965 20.2127C29.9826 20.6489 29.9268 21.0852 29.8291 21.5215C29.8291 21.7941 29.7594 22.0327 29.6199 22.2372C29.4944 22.4417 29.4037 22.6735 29.3479 22.9325C29.2224 23.0961 29.1039 23.2597 28.9923 23.4233C28.8807 23.5869 28.7621 23.7437 28.6366 23.8937C28.5948 23.9346 28.5808 23.955 28.5948 23.955C27.9532 24.6776 27.1651 25.1752 26.2306 25.4479C26.1469 25.4751 26.0633 25.5092 25.9796 25.5501C25.9098 25.5774 25.8331 25.5978 25.7494 25.6115C25.5542 25.6796 25.345 25.741 25.1218 25.7955C24.9126 25.8364 24.6894 25.8568 24.4523 25.8568C24.2152 25.8432 23.9641 25.8432 23.6991 25.8568C23.4481 25.8705 23.197 25.9114 22.946 25.9796C22.8344 25.9932 22.7158 26 22.5903 26C22.4648 25.9864 22.3183 25.9796 22.1509 25.9796C21.9836 25.9114 21.7883 25.8432 21.5651 25.7751C21.342 25.7069 21.1258 25.6115 20.9166 25.4888C20.8189 25.4206 20.7073 25.3661 20.5818 25.3252C20.4563 25.2843 20.3238 25.2434 20.1843 25.2025C20.0588 25.1888 19.9402 25.1684 19.8286 25.1411C19.7171 25.1138 19.6125 25.0866 19.5148 25.0593C19.3474 25.0048 19.201 24.9366 19.0755 24.8548C18.9639 24.773 18.8453 24.6776 18.7198 24.5685C18.5385 24.3913 18.3572 24.2072 18.1758 24.0164C18.0085 23.8119 17.7993 23.6414 17.5482 23.5051C17.4924 23.4642 17.4017 23.3688 17.2762 23.2188C17.1228 22.9325 16.9833 22.6326 16.8578 22.319C16.7323 22.0055 16.6137 21.6919 16.5021 21.3783C16.4463 21.3511 16.4184 21.2965 16.4184 21.2147C16.3905 20.9012 16.3347 20.5944 16.2511 20.2945C16.1674 19.9945 16.0907 19.6878 16.0209 19.3742C15.993 19.1288 15.993 18.9039 16.0209 18.6994C16.0628 18.5085 16.1116 18.3313 16.1674 18.1677C16.2232 18.0041 16.272 17.8337 16.3138 17.6564C16.4394 17.152 16.6207 16.6885 16.8578 16.2658C17.0949 15.8296 17.339 15.3933 17.59 14.9571C17.6179 14.9025 17.6528 14.8548 17.6946 14.8139C17.7504 14.7594 17.7923 14.7185 17.8202 14.6912C17.9875 14.5003 18.1619 14.3231 18.3432 14.1595C18.5245 13.9823 18.7059 13.7914 18.8872 13.5869L20.3308 12.8507ZM19.7031 14.2004C19.2847 14.5821 18.8872 14.9775 18.5106 15.3865C18.134 15.7819 17.7923 16.2181 17.4854 16.6953C17.2344 17.0634 17.067 17.4928 16.9833 17.9836C16.9694 18.0791 16.9484 18.1881 16.9205 18.3108C16.8927 18.4199 16.8648 18.529 16.8369 18.638C16.9066 18.7335 16.9484 18.8425 16.9624 18.9652C16.9763 19.0879 16.9763 19.2106 16.9624 19.3333C16.9345 19.4288 16.9136 19.531 16.8996 19.6401C16.8857 19.7491 16.8648 19.8446 16.8369 19.9264C16.9066 20.09 16.9624 20.2399 17.0042 20.3763C17.0461 20.499 17.074 20.6149 17.0879 20.7239C17.1298 20.8875 17.1646 21.0443 17.1925 21.1943C17.2204 21.3442 17.2483 21.4942 17.2762 21.6442C17.3041 21.7123 17.339 21.7805 17.3808 21.8487C17.4366 21.9168 17.4715 21.985 17.4854 22.0532C17.5691 22.2849 17.6946 22.4826 17.862 22.6462C18.0294 22.8098 18.1968 22.9666 18.3641 23.1166C18.5315 23.2665 18.6989 23.396 18.8663 23.5051C19.0336 23.6005 19.201 23.7096 19.3684 23.8323C19.5357 23.9277 19.7031 24.03 19.8705 24.1391C20.0518 24.2481 20.2471 24.364 20.4563 24.4867C20.5958 24.5276 20.7352 24.5821 20.8747 24.6503C21.0142 24.7048 21.1676 24.7526 21.335 24.7935C21.5303 24.8207 21.7116 24.8412 21.879 24.8548C22.0603 24.8684 22.2486 24.8957 22.4438 24.9366H22.6321C22.8971 25.0184 23.1621 25.0593 23.4271 25.0593C23.7061 25.0457 23.9851 25.0457 24.264 25.0593C24.3895 25.0593 24.5011 25.0457 24.5988 25.0184C24.7103 24.9911 24.8219 24.9639 24.9335 24.9366C25.2682 24.8412 25.589 24.7389 25.8959 24.6299C26.2027 24.5072 26.5166 24.3776 26.8374 24.2413C27.3813 23.9959 27.8067 23.6414 28.1136 23.1779C28.3507 22.8098 28.5878 22.394 28.8249 21.9305C28.8667 21.9168 28.8877 21.8623 28.8877 21.7669C28.9156 21.576 28.9574 21.392 29.0132 21.2147C29.069 21.0239 29.1108 20.8194 29.1387 20.6012C29.1666 20.4513 29.1736 20.3081 29.1597 20.1718C29.1597 20.0218 29.1387 19.8787 29.0969 19.7423C29.055 19.5378 29.0271 19.3265 29.0132 19.1084C28.9993 18.8766 28.9783 18.6585 28.9504 18.454C28.9504 18.3449 28.9435 18.2427 28.9295 18.1472C28.9295 18.0518 28.9156 17.9564 28.8877 17.8609C28.7761 17.5337 28.6645 17.2134 28.5529 16.8998C28.4413 16.5726 28.2461 16.2795 27.9671 16.0205C27.8974 16.0068 27.8486 15.9659 27.8207 15.8978C27.7091 15.6933 27.5766 15.5092 27.4232 15.3456C27.2697 15.182 27.0954 15.0184 26.9001 14.8548C26.6212 14.5685 26.3283 14.3027 26.0214 14.0573C25.9238 14.03 25.8262 14.0027 25.7285 13.9755C25.6448 13.9482 25.5472 13.9209 25.4356 13.8937C25.324 13.8255 25.2125 13.771 25.1009 13.7301C25.0032 13.6892 24.8986 13.6483 24.787 13.6074C24.6197 13.5119 24.4453 13.4369 24.264 13.3824C24.0966 13.3279 23.9153 13.3142 23.72 13.3415C23.5806 13.3415 23.4481 13.3142 23.3225 13.2597C23.211 13.2052 23.0854 13.1575 22.946 13.1166C22.8623 13.1166 22.7646 13.1166 22.6531 13.1166C22.5554 13.1166 22.4508 13.1302 22.3392 13.1575C22.1579 13.1847 21.9138 13.2393 21.607 13.3211C21.3141 13.3892 21.1118 13.4506 21.0002 13.5051C20.805 13.6414 20.5958 13.7573 20.3726 13.8528C20.1634 13.9346 19.9402 14.0504 19.7031 14.2004Z" fill="#F0FAFA"/>
<path d="M22.0186 1.49515C22.4237 1.42132 22.8657 1.32902 23.3444 1.21827C23.86 1.10752 24.3757 1.01523 24.8913 0.941391C25.4805 0.756805 25.9961 0.756805 26.4381 0.941391C27.2115 1.19981 27.9665 1.31057 28.7031 1.27365C29.4765 1.19981 30.2315 1.12598 30.9681 1.05215C31.7047 0.867559 32.3676 0.775265 32.9569 0.775265C33.362 0.775265 33.7303 0.756806 34.0617 0.719887C34.43 0.68297 34.7983 0.609136 35.1666 0.498385C35.3508 0.424549 35.5349 0.387631 35.719 0.387631C35.9032 0.387631 36.0873 0.369173 36.2715 0.332256C36.7871 0.25842 37.2843 0.239961 37.7631 0.27688C38.2418 0.27688 38.7206 0.203045 39.1994 0.0553754H39.9176C41.0593 0.350715 42.1642 0.332257 43.2322 0C43.6005 0.0738338 43.8951 0.184586 44.1161 0.332256C44.7054 0.627595 45 1.10752 45 1.77204C45 2.69497 45 3.6179 45 4.54084C45 5.42686 44.9632 6.31287 44.8895 7.19889C44.8895 7.53115 44.8711 7.75265 44.8343 7.8634C44.6501 8.78634 44.5396 9.70927 44.5028 10.6322C44.5028 11.5182 44.5028 12.4227 44.5028 13.3456C44.5028 14.0102 44.4844 14.6931 44.4476 15.3946C44.4476 16.0591 44.3739 16.7236 44.2266 17.3881C44.1529 17.9419 44.0977 18.4956 44.0609 19.0494C44.0609 19.6031 44.0609 20.1938 44.0609 20.8214C44.0609 22.335 43.9504 23.8302 43.7294 25.3069C43.6189 26.0821 43.5268 26.8574 43.4532 27.6327C43.4163 28.4079 43.4532 29.2017 43.5637 30.0138C43.6005 30.383 43.6005 30.7337 43.5637 31.066C43.5268 31.3613 43.4716 31.6936 43.3979 32.0628C43.3243 32.395 43.2506 32.6719 43.177 32.8934C43.1401 33.078 43.1217 33.2626 43.1217 33.4472C43.1217 33.6317 43.1401 33.8533 43.177 34.1117C43.2506 34.3332 43.3243 34.6285 43.3979 34.9977C43.2138 35.5145 42.9928 36.0129 42.735 36.4928C42.514 36.9728 42.3115 37.4527 42.1273 37.9326C41.8327 38.2649 41.5381 38.431 41.2434 38.431C41.0961 38.4679 40.9304 38.5048 40.7462 38.5418C40.5621 38.5787 40.3595 38.6156 40.1385 38.6525C40.0281 38.7633 39.8255 38.8186 39.5309 38.8186C38.9784 38.7448 38.426 38.7448 37.8736 38.8186C37.3211 38.8925 36.7318 38.8925 36.1058 38.8186C34.117 38.7448 32.0914 38.8002 30.0289 38.9848C29.1819 39.0586 28.3532 39.1694 27.543 39.317C26.7327 39.4647 25.9041 39.5939 25.057 39.7047C24.6887 39.6308 24.302 39.5754 23.8969 39.5385C23.4918 39.5016 23.0866 39.4462 22.6815 39.3724C22.1659 39.2986 21.6319 39.2801 21.0794 39.317C20.527 39.3909 19.993 39.4647 19.4774 39.5385C19.1091 39.6124 18.7408 39.6677 18.3725 39.7047C18.041 39.7785 17.6727 39.8523 17.2676 39.9262C16.973 40 16.6599 40.0185 16.3285 39.9815C16.0338 39.9815 15.7576 39.8892 15.4998 39.7047C15.0947 39.5201 14.6528 39.4093 14.174 39.3724C13.6952 39.3724 13.2532 39.4093 12.8481 39.4832C12.5535 39.4832 12.2773 39.4832 12.0195 39.4832C11.7617 39.5201 11.4854 39.557 11.1908 39.5939C10.4542 39.5201 9.75447 39.3355 9.09155 39.0401C8.79691 38.9294 8.46545 38.8925 8.09716 38.9294C7.7657 38.9294 7.43423 38.9479 7.10277 38.9848C6.95545 39.0955 6.77131 39.2617 6.55033 39.4832L6.16363 39.8708C5.79533 39.9815 5.48229 39.9631 5.22448 39.8154C5.00351 39.6677 4.7457 39.557 4.45107 39.4832C4.15644 39.4093 3.88022 39.3724 3.62241 39.3724C3.36461 39.3724 3.1068 39.4462 2.849 39.5939C2.55437 39.7785 2.24132 39.8708 1.90986 39.8708C1.57839 39.8708 1.22852 39.8708 0.860224 39.8708C0.639249 39.6862 0.491933 39.5385 0.418274 39.4278C0.381445 39.3539 0.289372 39.1324 0.142055 38.7633C0.215714 38.5787 0.270958 38.3756 0.307787 38.1541C0.344616 37.9326 0.39986 37.6742 0.473518 37.3789C0.436689 37.1574 0.381445 36.8989 0.307787 36.6036C0.234128 36.2713 0.16047 35.9206 0.0868115 35.5515V35.1084C0.123641 34.0378 0.142055 33.0042 0.142055 32.0074C0.142055 30.9737 0.142055 29.94 0.142055 28.9063C0.142055 28.2787 0.142055 27.688 0.142055 27.1343C0.178885 26.5436 0.270957 25.9345 0.418274 25.3069C0.491933 24.79 0.510347 24.2732 0.473518 23.7563C0.473518 23.2026 0.473518 22.6673 0.473518 22.1504V19.437C0.473518 18.8463 0.455103 18.2741 0.418274 17.7204C0.418274 17.1666 0.326201 16.6128 0.142055 16.0591C-0.0789197 15.2469 -0.0420905 14.4162 0.252543 13.5671C0.36303 13.198 0.436689 12.8473 0.473518 12.515C0.510347 12.1458 0.528762 11.7582 0.528762 11.3521C0.528762 10.7614 0.547176 10.1707 0.584006 9.58006C0.657664 8.98939 0.694493 8.39871 0.694493 7.80803C0.694493 7.51269 0.676078 7.23581 0.639249 6.97739C0.639249 6.68205 0.639249 6.42363 0.639249 6.20212C0.897054 5.83295 1.0812 5.61144 1.19169 5.53761C1.30217 5.46377 1.59681 5.38994 2.07559 5.3161C2.25973 5.02077 2.35181 4.85464 2.35181 4.81772C2.35181 4.74388 2.25973 4.61467 2.07559 4.43009C1.85461 4.43009 1.68888 4.467 1.57839 4.54084H1.19169C1.0812 4.28242 1.02596 4.02399 1.02596 3.76557C1.02596 3.50715 1.06279 3.24873 1.13644 2.99031C1.24693 2.58422 1.50474 2.32579 1.90986 2.21504C2.49912 2.14121 3.08839 2.03046 3.67766 1.88279C4.26692 1.73512 4.85619 1.6982 5.44546 1.77204C5.74009 1.80895 5.9979 1.82741 6.21887 1.82741C6.47667 1.82741 6.75289 1.84587 7.04753 1.88279C7.52631 1.99354 7.96826 1.99354 8.37338 1.88279C8.66801 1.80895 8.92582 1.79049 9.14679 1.82741C9.40459 1.86433 9.68081 1.9197 9.97545 1.99354C10.2701 1.9197 10.5647 1.86433 10.8593 1.82741C11.154 1.79049 11.4486 1.73512 11.7432 1.66128C12.222 1.47669 12.6824 1.36594 13.1243 1.32903C13.6031 1.29211 14.0819 1.27365 14.5607 1.27365C15.4814 1.31057 16.3837 1.32903 17.2676 1.32903C18.1884 1.29211 19.1091 1.27365 20.0298 1.27365C20.3244 1.31057 20.6191 1.34748 20.9137 1.3844C21.2452 1.42132 21.6135 1.45823 22.0186 1.49515ZM36.382 2.15967C35.5717 2.08583 34.7799 2.06737 34.0065 2.10429C33.2699 2.10429 32.4965 2.19658 31.6862 2.38117C31.5758 2.38117 31.4653 2.39963 31.3548 2.43655C31.2443 2.43655 31.1522 2.41809 31.0786 2.38117C30.7839 2.27042 30.5077 2.27042 30.2499 2.38117C30.0289 2.455 29.7895 2.52884 29.5317 2.60268C29.4949 2.67651 29.4581 2.75034 29.4213 2.82418C29.3844 2.8611 29.366 2.91647 29.366 2.99031C29.808 3.13798 30.2499 3.19335 30.6919 3.15644C31.1706 3.11952 31.631 3.02723 32.073 2.87956C32.4044 2.80572 32.7175 2.7688 33.0121 2.7688C33.3436 2.73189 33.6934 2.67651 34.0617 2.60268C34.3564 2.56576 34.6694 2.5473 35.0009 2.5473C35.3692 2.5473 35.719 2.51038 36.0505 2.43655C36.0873 2.39963 36.1242 2.36271 36.161 2.3258C36.2347 2.25196 36.3083 2.19658 36.382 2.15967C36.5293 2.15967 36.6582 2.12275 36.7687 2.04892C36.9528 2.04892 37.0265 1.99354 36.9897 1.88279C36.9528 1.84587 36.8239 1.82741 36.6029 1.82741C36.4556 1.86433 36.382 1.97508 36.382 2.15967ZM41.7406 30.2353C41.9984 30.1615 42.1273 30.0138 42.1273 29.7923C42.201 28.9802 42.2746 28.1864 42.3483 27.4112C42.422 26.599 42.4772 25.8053 42.514 25.03C42.5877 24.1809 42.6613 23.3318 42.735 22.4827C42.8087 21.5967 42.8271 20.7107 42.7902 19.8246C42.7902 19.677 42.7902 19.5293 42.7902 19.3816C42.7902 19.234 42.8087 19.0678 42.8455 18.8832C43.0296 18.1449 43.1217 17.4066 43.1217 16.6682C43.1585 15.9299 43.177 15.1915 43.177 14.4532C43.2138 13.9363 43.2322 13.4379 43.2322 12.958C43.269 12.4781 43.3243 11.9982 43.3979 11.5182C43.4716 11.0752 43.5084 10.6507 43.5084 10.2446C43.5452 9.83848 43.5821 9.41393 43.6189 8.97093C43.6189 8.7125 43.6189 8.45408 43.6189 8.19566C43.6557 7.93724 43.711 7.69728 43.7846 7.47577C43.932 6.84818 43.9872 6.23904 43.9504 5.64836C43.9504 5.02077 43.9872 4.41163 44.0609 3.82095C44.0609 3.74711 44.0424 3.67328 44.0056 3.59945C43.9688 3.48869 43.9504 3.3964 43.9504 3.32257C43.9135 3.32257 43.8951 3.30411 43.8951 3.26719V3.15644C43.8215 3.04568 43.711 2.95339 43.5637 2.87956C43.4163 2.7688 43.2874 2.73189 43.177 2.7688C42.9192 2.91647 42.7902 3.0826 42.7902 3.26719C42.6061 4.26396 42.6613 5.24227 42.956 6.20212C42.9928 6.38671 43.0112 6.53438 43.0112 6.64513C43.0481 6.75588 43.0481 6.90355 43.0112 7.08814C42.9744 7.71573 42.9192 8.34333 42.8455 8.97093C42.8087 9.59852 42.735 10.2261 42.6245 10.8537C42.5509 11.2598 42.4772 11.6474 42.4035 12.0166C42.3299 12.3858 42.2931 12.7734 42.2931 13.1795V16.3359C42.2562 17.2958 42.2378 18.2741 42.2378 19.2709C42.2378 20.2677 42.201 21.246 42.1273 22.2058C42.1273 22.4642 42.0905 22.7227 42.0168 22.9811C41.98 23.2395 41.9432 23.4979 41.9063 23.7563V24.4762C41.8695 25.0669 41.8327 25.6761 41.7959 26.3036C41.759 26.8943 41.7406 27.5035 41.7406 28.1311C41.7406 28.4633 41.759 28.8325 41.7959 29.2386C41.8327 29.6078 41.8511 29.9769 41.8511 30.3461C41.7774 30.383 41.7222 30.4015 41.6854 30.4015V30.5676C41.6854 30.5307 41.6854 30.4938 41.6854 30.4569C41.7222 30.383 41.7406 30.3092 41.7406 30.2353ZM3.51193 8.41717C3.43827 8.67559 3.38302 8.91555 3.34619 9.13705C3.34619 9.32164 3.30937 9.52469 3.23571 9.74619C3.23571 10.263 3.21729 10.7983 3.18046 11.3521C3.18046 11.9059 3.08839 12.4412 2.90424 12.958C2.86741 13.1057 2.849 13.2903 2.849 13.5118C2.849 13.6964 2.849 13.8809 2.849 14.0655C2.849 14.6193 2.86741 15.173 2.90424 15.7268C2.9779 16.2806 3.01473 16.8528 3.01473 17.4435C3.01473 18.0341 2.9779 18.6064 2.90424 19.1601C2.86741 19.7139 2.83059 20.2677 2.79376 20.8214C2.79376 21.1168 2.79376 21.4305 2.79376 21.7628C2.83059 22.0581 2.849 22.3535 2.849 22.6488C2.849 23.4979 2.849 24.3655 2.849 25.2515C2.88583 26.1375 2.99632 27.0051 3.18046 27.8542C3.18046 28.7771 3.29095 29.6816 3.51193 30.5676C3.7329 31.4536 3.93546 32.3212 4.11961 33.1703C4.11961 33.4656 4.19326 33.6871 4.34058 33.8348C4.41424 33.9086 4.46948 33.9825 4.50631 34.0563C4.57997 34.1301 4.65363 34.204 4.72729 34.2778C5.68485 34.5362 6.58716 34.5362 7.43423 34.2778C7.61838 34.2409 7.78411 34.2224 7.93143 34.2224C8.07874 34.2224 8.22606 34.2224 8.37338 34.2224C8.63118 34.2963 8.88899 34.3516 9.14679 34.3886C9.40459 34.3886 9.68081 34.3886 9.97545 34.3886C10.4911 34.3886 11.0067 34.3701 11.5223 34.3332C12.0379 34.2963 12.5719 34.3147 13.1243 34.3886C14.6343 34.4993 16.1075 34.5547 17.5438 34.5547C19.017 34.5178 20.4902 34.4624 21.9633 34.3886C22.9209 34.3886 23.8785 34.3886 24.836 34.3886C25.8304 34.3516 26.8248 34.4809 27.8192 34.7762C27.9297 34.8131 28.0586 34.8316 28.2059 34.8316C28.3532 34.7946 28.5005 34.7946 28.6478 34.8316H30.4709C30.876 34.7946 31.2811 34.7762 31.6862 34.7762C32.1282 34.7393 32.5517 34.6839 32.9569 34.6101C33.583 34.4993 34.209 34.4439 34.8351 34.4439C35.4981 34.407 36.1426 34.4993 36.7687 34.7208C36.9528 34.7946 37.1554 34.8316 37.3764 34.8316C37.6342 34.7946 37.8736 34.7946 38.0945 34.8316C38.6101 34.8316 39.0521 34.647 39.4204 34.2778C39.494 34.204 39.5309 34.1117 39.5309 34.0009C39.5677 33.8533 39.5861 33.724 39.5861 33.6133C39.6598 33.281 39.6782 32.9672 39.6414 32.6719C39.6414 32.3766 39.715 32.0812 39.8623 31.7859C39.936 31.6013 39.9728 31.4167 39.9728 31.2321C40.0096 31.0475 40.0281 30.8445 40.0281 30.623C40.0281 30.2169 40.0281 29.8477 40.0281 29.5155C40.0281 29.1463 39.9912 28.7586 39.9176 28.3526C39.8807 27.725 39.8807 27.0605 39.9176 26.359C39.9912 25.8791 40.0281 25.3992 40.0281 24.9192C40.0281 24.4024 40.0281 23.904 40.0281 23.4241C40.0281 22.9072 39.9728 22.4273 39.8623 21.9843C39.7518 21.5413 39.6598 21.0983 39.5861 20.6553C39.8071 20.1015 39.9912 19.5662 40.1385 19.0494C40.3227 18.4956 40.4148 17.9603 40.4148 17.4435C40.4516 16.7051 40.4516 15.9668 40.4148 15.2284C40.4148 14.4901 40.3227 13.7886 40.1385 13.1241C40.2859 12.312 40.3964 11.5921 40.47 10.9645C40.5437 10.5953 40.5621 10.2446 40.5253 9.91232C40.5253 9.54315 40.5621 9.21089 40.6357 8.91555C40.8199 8.14028 40.912 7.38348 40.912 6.64513C40.912 5.86987 40.9488 5.11306 41.0224 4.37471C41.0224 4.26396 40.9856 4.13475 40.912 3.98708C40.8751 3.83941 40.8567 3.7102 40.8567 3.59945C40.3779 3.23027 39.8623 3.11952 39.3099 3.26719C38.6101 3.37794 37.9288 3.50715 37.2659 3.65482C36.6029 3.80249 35.9584 3.9317 35.3323 4.04245C35.0745 4.11629 34.8351 4.17166 34.6142 4.20858C34.43 4.2455 34.2275 4.30088 34.0065 4.37471C33.6014 4.37471 33.2147 4.39317 32.8464 4.43009C32.4781 4.467 32.1098 4.5593 31.7415 4.70697C31.5942 4.74388 31.4469 4.76234 31.2995 4.76234C31.1522 4.76234 31.0233 4.7808 30.9128 4.81772C30.2867 4.89155 29.6975 4.91001 29.145 4.8731C28.5926 4.83618 28.0402 4.7808 27.4877 4.70697C27.0089 4.59621 26.567 4.61467 26.1619 4.76234C25.9777 4.79926 25.812 4.81772 25.6647 4.81772C25.5174 4.81772 25.3885 4.81772 25.278 4.81772C24.3204 4.81772 23.3629 4.83618 22.4053 4.8731C21.4846 4.91001 20.5454 4.89155 19.5879 4.81772C19.1459 4.81772 18.6855 4.83618 18.2068 4.8731C17.7648 4.8731 17.3229 4.96539 16.8809 5.14998C16.5126 5.29765 16.1443 5.38994 15.776 5.42686C15.4446 5.42686 15.0763 5.42686 14.6712 5.42686C14.3765 5.42686 14.1003 5.4084 13.8425 5.37148C13.6215 5.33456 13.3637 5.3161 13.0691 5.3161C12.885 5.3161 12.7008 5.33456 12.5167 5.37148C12.3325 5.37148 12.1484 5.4084 11.9642 5.48223C10.8593 5.88832 9.75447 5.99907 8.6496 5.81449C7.98667 5.70374 7.32375 5.77757 6.66082 6.03599C6.40302 6.14675 6.14521 6.2575 5.88741 6.36825C5.6296 6.44209 5.39021 6.53438 5.16924 6.64513C4.87461 6.71897 4.59839 6.82972 4.34058 6.97739C4.08278 7.08814 3.80656 7.19889 3.51193 7.30964V8.41717ZM24.9465 35.4961C24.5414 35.533 24.1915 35.5699 23.8969 35.6068C23.6022 35.6437 23.2892 35.6807 22.9577 35.7176C21.0058 35.7914 19.0723 35.8468 17.1571 35.8837C15.2788 35.8837 13.3821 35.7545 11.467 35.4961C11.2461 35.4592 11.0067 35.4407 10.7489 35.4407C10.5279 35.4407 10.3069 35.4407 10.0859 35.4407C9.75447 35.4407 9.42301 35.4592 9.09155 35.4961C8.79691 35.533 8.46545 35.5145 8.09716 35.4407C7.72887 35.3669 7.3974 35.3853 7.10277 35.4961C6.80814 35.6068 6.31094 35.8099 5.61119 36.1052C6.97387 36.3636 8.29972 36.5298 9.58874 36.6036C10.8778 36.6774 12.1668 36.862 13.4558 37.1574C15.2604 36.6774 17.0835 36.6221 18.9249 36.9912C19.1091 36.9912 19.3116 36.9912 19.5326 36.9912C19.7904 36.9912 20.0482 36.9728 20.306 36.9359C20.748 36.9359 21.2452 36.8436 21.7976 36.659C22.4237 36.4744 23.0498 36.3636 23.6759 36.3267C24.3388 36.2898 24.9833 36.2529 25.6094 36.216C25.7936 36.216 25.9777 36.216 26.1619 36.216C26.3828 36.216 26.5854 36.1791 26.7696 36.1052C26.8432 36.1052 26.9169 36.0683 26.9905 35.9945C26.6222 35.9206 26.2724 35.8468 25.9409 35.773C25.6463 35.6622 25.3148 35.5699 24.9465 35.4961ZM5.33497 5.14998C5.59277 5.00231 5.81375 4.92847 5.9979 4.92847C6.18204 4.85464 6.34777 4.81772 6.49509 4.81772C6.64241 4.81772 6.80814 4.79926 6.99228 4.76234C7.17643 4.68851 7.36058 4.59622 7.54472 4.48546C7.72887 4.37471 7.91301 4.22704 8.09716 4.04245C8.13399 4.04245 8.13399 3.98708 8.09716 3.87633C8.09716 3.76557 8.04191 3.7102 7.93143 3.7102C7.48948 3.82095 7.02911 3.85787 6.55033 3.82095C6.14521 3.74711 5.72168 3.74711 5.27973 3.82095C4.83778 3.89478 4.39583 3.96862 3.95388 4.04245C3.91705 4.04245 3.88022 4.07937 3.84339 4.15321C3.80656 4.22704 3.76973 4.30088 3.7329 4.37471C3.62241 4.5593 3.67766 4.68851 3.89863 4.76234C4.08278 4.79926 4.28534 4.85464 4.50631 4.92847C4.76412 5.00231 5.04034 5.07614 5.33497 5.14998ZM10.1964 3.7102C10.2701 3.96862 10.3253 4.13475 10.3622 4.20858C10.399 4.2455 10.4542 4.2455 10.5279 4.20858C10.8593 4.13475 11.1724 4.06091 11.467 3.98708C11.7985 3.87633 12.13 3.78403 12.4614 3.7102C12.8665 3.63636 13.2348 3.59945 13.5663 3.59945C13.9346 3.56253 14.3029 3.63636 14.6712 3.82095C14.8921 3.85787 15.1315 3.85787 15.3893 3.82095C15.4262 3.82095 15.4814 3.80249 15.5551 3.76557C15.6287 3.72866 15.7024 3.69174 15.776 3.65482C15.8129 3.6179 15.8313 3.48869 15.8313 3.26719C15.7208 3.19335 15.5919 3.13798 15.4446 3.10106C15.2973 3.02723 15.1315 2.99031 14.9474 2.99031C14.7264 2.99031 14.487 3.00877 14.2292 3.04569C13.9714 3.0826 13.7136 3.06414 13.4558 2.99031C12.8665 2.95339 12.2957 3.00877 11.7432 3.15644C11.2276 3.30411 10.712 3.48869 10.1964 3.7102ZM22.0738 3.32257C22.8841 3.43332 23.6391 3.47023 24.3388 3.43332C24.8176 3.35948 25.278 3.30411 25.7199 3.26719C26.1987 3.23027 26.6591 3.06414 27.101 2.7688C26.8432 2.73189 26.6038 2.69497 26.3828 2.65805C26.1619 2.62113 25.9409 2.58422 25.7199 2.5473C25.0938 2.43655 24.5782 2.45501 24.1731 2.60268C23.989 2.67651 23.8048 2.7688 23.6207 2.87956C23.4733 2.95339 23.3076 3.02723 23.1235 3.10106C22.9393 3.13798 22.7552 3.13798 22.571 3.10106C22.4237 3.06414 22.258 3.13798 22.0738 3.32257ZM39.8623 36.9912C39.7518 36.6221 39.5677 36.419 39.3099 36.3821H38.8127C38.3707 36.4559 37.9288 36.5298 37.4868 36.6036C37.0817 36.6774 36.6766 36.7513 36.2715 36.8251C36.2347 36.8989 36.1794 36.9543 36.1058 36.9912C36.8792 37.1758 37.5053 37.2681 37.984 37.2681C38.4628 37.2681 39.0889 37.1758 39.8623 36.9912ZM1.74412 33.8902C1.92827 33.1518 2.00193 32.5427 1.9651 32.0628C1.92827 31.5828 1.8362 31.0844 1.68888 30.5676C1.50474 30.826 1.41266 31.066 1.41266 31.2875C1.339 31.5459 1.28376 31.8043 1.24693 32.0628C1.2101 32.3212 1.17327 32.5611 1.13644 32.7826C1.13644 32.8934 1.13644 33.0226 1.13644 33.1703C1.13644 33.281 1.15486 33.3733 1.19169 33.4472C1.26535 33.5579 1.339 33.6502 1.41266 33.724C1.52315 33.761 1.63364 33.8163 1.74412 33.8902ZM1.68888 27.245C1.35742 27.0974 1.19169 27.2081 1.19169 27.5773C1.11803 27.9834 1.28376 28.2603 1.68888 28.4079C1.94669 28.0757 1.94669 27.688 1.68888 27.245ZM19.0907 3.15644C18.796 3.15644 18.5198 3.15644 18.262 3.15644C18.041 3.15644 17.7832 3.21181 17.4886 3.32257C17.7832 3.3964 18.041 3.43332 18.262 3.43332C18.5198 3.3964 18.796 3.30411 19.0907 3.15644ZM2.07559 9.13705C2.18608 8.76788 2.24132 8.52792 2.24132 8.41717C2.24132 8.30641 2.14925 8.10337 1.9651 7.80803C1.92827 8.10337 1.89144 8.36179 1.85461 8.58329C1.85461 8.76788 1.92827 8.95247 2.07559 9.13705ZM24.7255 37.8773C24.6519 37.8403 24.615 37.8034 24.615 37.7665C24.615 37.7296 24.5966 37.7111 24.5598 37.7111C24.4493 37.7111 24.3204 37.7296 24.1731 37.7665C24.0626 37.7665 23.9705 37.8034 23.8969 37.8773C23.8969 37.9142 23.9153 37.9326 23.9521 37.9326H24.0626C24.2468 38.1172 24.4309 38.1172 24.615 37.9326H24.7255V37.8773ZM26.2171 37.8219C26.3276 37.9326 26.4565 37.988 26.6038 37.988C26.7511 37.9511 26.88 37.9142 26.9905 37.8773C26.88 37.7665 26.7511 37.7111 26.6038 37.7111C26.4565 37.7111 26.3276 37.748 26.2171 37.8219ZM41.2434 22.0951C41.1698 21.9843 41.1329 21.9289 41.1329 21.9289L41.0777 21.9843C41.0409 22.0212 41.0224 22.0581 41.0224 22.0951C40.9488 22.0951 40.9488 22.132 41.0224 22.2058C41.0224 22.3166 41.0593 22.3719 41.1329 22.3719C41.2066 22.335 41.2434 22.2427 41.2434 22.0951ZM4.00912 36.4375C4.04595 36.4375 4.06436 36.419 4.06436 36.3821C4.06436 36.2713 4.02753 36.1791 3.95388 36.1052C3.84339 35.9945 3.78814 36.0498 3.78814 36.2713C3.78814 36.3452 3.80656 36.3821 3.84339 36.3821C3.84339 36.419 3.8618 36.4375 3.89863 36.4375H4.00912ZM41.7406 33.5025C41.7038 33.4656 41.6854 33.4287 41.6854 33.3918C41.6854 33.3549 41.6485 33.318 41.5749 33.281C41.5381 33.318 41.5196 33.3733 41.5196 33.4472C41.5196 33.4841 41.4828 33.5395 41.4092 33.6133C41.4092 33.6502 41.4276 33.6687 41.4644 33.6687C41.5012 33.6687 41.5196 33.6871 41.5196 33.724C41.5565 33.6871 41.5933 33.6687 41.6301 33.6687C41.667 33.6317 41.7038 33.5764 41.7406 33.5025ZM1.68888 15.0623C1.65205 15.0623 1.63364 15.0808 1.63364 15.1177C1.59681 15.1546 1.57839 15.1915 1.57839 15.2284C1.57839 15.413 1.61522 15.5422 1.68888 15.6161C1.68888 15.5791 1.7073 15.5422 1.74412 15.5053C1.74412 15.2838 1.72571 15.1361 1.68888 15.0623ZM1.74412 16.8897H1.68888V17.0005L1.74412 16.8897ZM41.5749 31.509H41.6854L41.5749 31.3429V31.509Z" fill="#F0FAFA"/>
<path d="M22.6791 6.97185C22.9491 6.92386 23.2438 6.86387 23.563 6.79188C23.9067 6.71989 24.2504 6.6599 24.5942 6.6119C24.987 6.49192 25.3308 6.49192 25.6254 6.6119C26.141 6.77988 26.6443 6.85187 27.1354 6.82787C27.651 6.77988 28.1543 6.73189 28.6454 6.68389C29.1364 6.56391 29.5784 6.50392 29.9712 6.50392C30.2413 6.50392 30.4868 6.49192 30.7078 6.46793C30.9534 6.44393 31.1989 6.39594 31.4444 6.32395C31.5672 6.27596 31.6899 6.25196 31.8127 6.25196C31.9355 6.25196 32.0582 6.23996 32.181 6.21597C32.5247 6.16797 32.8562 6.15597 33.1754 6.17997C33.4946 6.17997 33.8138 6.13198 34.1329 6.03599H34.6117C35.3729 6.22796 36.1094 6.21597 36.8215 6C37.067 6.04799 37.2634 6.11998 37.4107 6.21597C37.8036 6.40794 38 6.71989 38 7.15182C38 7.75173 38 8.35164 38 8.95154C38 9.52746 37.9754 10.1034 37.9263 10.6793C37.9263 10.8952 37.9141 11.0392 37.8895 11.1112C37.7668 11.7111 37.6931 12.311 37.6685 12.9109C37.6685 13.4868 37.6685 14.0748 37.6685 14.6747C37.6685 15.1066 37.6563 15.5505 37.6317 16.0065C37.6317 16.4384 37.5826 16.8703 37.4844 17.3023C37.4353 17.6622 37.3985 18.0221 37.3739 18.3821C37.3739 18.742 37.3739 19.126 37.3739 19.5339C37.3739 20.5178 37.3002 21.4896 37.1529 22.4495C37.0793 22.9534 37.0179 23.4573 36.9688 23.9612C36.9442 24.4652 36.9688 24.9811 37.0424 25.509C37.067 25.749 37.067 25.9769 37.0424 26.1929C37.0179 26.3849 36.9811 26.6008 36.932 26.8408C36.8828 27.0568 36.8337 27.2367 36.7846 27.3807C36.7601 27.5007 36.7478 27.6207 36.7478 27.7407C36.7478 27.8606 36.7601 28.0046 36.7846 28.1726C36.8337 28.3166 36.8828 28.5085 36.932 28.7485C36.8092 29.0844 36.6619 29.4084 36.49 29.7203C36.3427 30.0323 36.2076 30.3443 36.0849 30.6562C35.8885 30.8722 35.692 30.9802 35.4956 30.9802C35.3974 31.0042 35.2869 31.0281 35.1642 31.0521C35.0414 31.0761 34.9063 31.1001 34.759 31.1241C34.6854 31.1961 34.5503 31.2321 34.3539 31.2321C33.9856 31.1841 33.6173 31.1841 33.249 31.2321C32.8807 31.2801 32.4879 31.2801 32.0705 31.2321C30.7447 31.1841 29.3942 31.2201 28.0193 31.3401C27.4546 31.3881 26.9021 31.4601 26.362 31.5561C25.8218 31.6521 25.2694 31.736 24.7047 31.808C24.4591 31.76 24.2013 31.724 23.9313 31.7C23.6612 31.676 23.3911 31.6401 23.121 31.5921C22.7773 31.5441 22.4213 31.5321 22.053 31.5561C21.6847 31.6041 21.3287 31.6521 20.9849 31.7C20.7394 31.748 20.4939 31.784 20.2483 31.808C20.0274 31.856 19.7818 31.904 19.5117 31.952C19.3153 32 19.1066 32.012 18.8857 31.988C18.6892 31.988 18.5051 31.928 18.3332 31.808C18.0631 31.688 17.7685 31.6161 17.4493 31.5921C17.1301 31.5921 16.8355 31.6161 16.5654 31.664C16.369 31.664 16.1848 31.664 16.013 31.664C15.8411 31.688 15.657 31.712 15.4605 31.736C14.9695 31.688 14.503 31.5681 14.061 31.3761C13.8646 31.3041 13.6436 31.2801 13.3981 31.3041C13.1771 31.3041 12.9562 31.3161 12.7352 31.3401C12.637 31.4121 12.5142 31.5201 12.3669 31.664L12.1091 31.916C11.8636 31.988 11.6549 31.976 11.483 31.88C11.3357 31.784 11.1638 31.712 10.9674 31.664C10.771 31.6161 10.5868 31.5921 10.4149 31.5921C10.2431 31.5921 10.0712 31.6401 9.89933 31.736C9.70291 31.856 9.49421 31.916 9.27324 31.916C9.05226 31.916 8.81901 31.916 8.57348 31.916C8.42617 31.796 8.32796 31.7 8.27885 31.6281C8.2543 31.5801 8.19291 31.4361 8.0947 31.1961C8.14381 31.0761 8.18064 30.9442 8.20519 30.8002C8.22974 30.6562 8.26657 30.4882 8.31568 30.2963C8.29113 30.1523 8.2543 29.9843 8.20519 29.7923C8.15609 29.5764 8.10698 29.3484 8.05787 29.1084V28.8205C8.08243 28.1246 8.0947 27.4527 8.0947 26.8048C8.0947 26.1329 8.0947 25.461 8.0947 24.7891C8.0947 24.3812 8.0947 23.9972 8.0947 23.6373C8.11926 23.2533 8.18064 22.8574 8.27885 22.4495C8.32796 22.1135 8.34023 21.7776 8.31568 21.4416C8.31568 21.0817 8.31568 20.7337 8.31568 20.3978V18.6341C8.31568 18.2501 8.3034 17.8782 8.27885 17.5182C8.27885 17.1583 8.21747 16.7983 8.0947 16.4384C7.94739 15.9105 7.97194 15.3706 8.16836 14.8186C8.24202 14.5787 8.29113 14.3507 8.31568 14.1347C8.34023 13.8948 8.35251 13.6428 8.35251 13.3789C8.35251 12.9949 8.36478 12.611 8.38934 12.227C8.43844 11.8431 8.463 11.4592 8.463 11.0752C8.463 10.8832 8.45072 10.7033 8.42617 10.5353C8.42617 10.3433 8.42617 10.1754 8.42617 10.0314C8.59804 9.79142 8.7208 9.64744 8.79446 9.59944C8.86812 9.55145 9.06454 9.50346 9.38373 9.45547C9.50649 9.2635 9.56787 9.15551 9.56787 9.13152C9.56787 9.08352 9.50649 8.99954 9.38373 8.87956C9.23641 8.87956 9.12592 8.90355 9.05226 8.95154H8.79446C8.7208 8.78357 8.68397 8.6156 8.68397 8.44762C8.68397 8.27965 8.70852 8.11167 8.75763 7.9437C8.83129 7.67974 9.00316 7.51177 9.27324 7.43978C9.66608 7.39179 10.0589 7.3198 10.4518 7.22381C10.8446 7.12783 11.2375 7.10383 11.6303 7.15182C11.8267 7.17582 11.9986 7.18782 12.1459 7.18782C12.3178 7.18782 12.5019 7.19981 12.6984 7.22381C13.0175 7.2958 13.3122 7.2958 13.5823 7.22381C13.7787 7.17582 13.9505 7.16382 14.0979 7.18782C14.2697 7.21181 14.4539 7.24781 14.6503 7.2958C14.8467 7.24781 15.0431 7.21181 15.2396 7.18782C15.436 7.16382 15.6324 7.12783 15.8288 7.07983C16.148 6.95985 16.4549 6.88786 16.7496 6.86387C17.0687 6.83987 17.3879 6.82787 17.7071 6.82787C18.3209 6.85187 18.9225 6.86387 19.5117 6.86387C20.1256 6.83987 20.7394 6.82787 21.3532 6.82787C21.5496 6.85187 21.7461 6.87586 21.9425 6.89986C22.1635 6.92386 22.409 6.94785 22.6791 6.97185ZM32.2547 7.40378C31.7145 7.35579 31.1866 7.34379 30.671 7.36779C30.1799 7.36779 29.6643 7.42778 29.1242 7.54776C29.0505 7.54776 28.9769 7.55976 28.9032 7.58376C28.8295 7.58376 28.7682 7.57176 28.719 7.54776C28.5226 7.47577 28.3385 7.47577 28.1666 7.54776C28.0193 7.59575 27.8597 7.64375 27.6878 7.69174C27.6633 7.73973 27.6387 7.78772 27.6142 7.83572C27.5896 7.85971 27.5773 7.89571 27.5773 7.9437C27.872 8.03968 28.1666 8.07568 28.4612 8.05168C28.7804 8.02769 29.0873 7.9677 29.382 7.87171C29.6029 7.82372 29.8116 7.79972 30.0081 7.79972C30.229 7.77573 30.4623 7.73973 30.7078 7.69174C30.9042 7.66774 31.1129 7.65575 31.3339 7.65575C31.5794 7.65575 31.8127 7.63175 32.0337 7.58376C32.0582 7.55976 32.0828 7.53576 32.1073 7.51177C32.1564 7.46377 32.2055 7.42778 32.2547 7.40378C32.3529 7.40378 32.4388 7.37979 32.5125 7.3318C32.6352 7.3318 32.6843 7.2958 32.6598 7.22381C32.6352 7.19981 32.5493 7.18782 32.402 7.18782C32.3038 7.21181 32.2547 7.2838 32.2547 7.40378ZM35.8271 25.653C35.9989 25.605 36.0849 25.509 36.0849 25.365C36.134 24.8371 36.1831 24.3212 36.2322 23.8173C36.2813 23.2893 36.3181 22.7734 36.3427 22.2695C36.3918 21.7176 36.4409 21.1657 36.49 20.6138C36.5391 20.0378 36.5514 19.4619 36.5268 18.886C36.5268 18.79 36.5268 18.694 36.5268 18.5981C36.5268 18.5021 36.5391 18.3941 36.5637 18.2741C36.6864 17.7942 36.7478 17.3143 36.7478 16.8343C36.7724 16.3544 36.7846 15.8745 36.7846 15.3946C36.8092 15.0586 36.8215 14.7347 36.8215 14.4227C36.846 14.1108 36.8828 13.7988 36.932 13.4868C36.9811 13.1989 37.0056 12.9229 37.0056 12.659C37.0302 12.395 37.0547 12.1191 37.0793 11.8311C37.0793 11.6631 37.0793 11.4952 37.0793 11.3272C37.1038 11.1592 37.1407 11.0032 37.1898 10.8593C37.288 10.4513 37.3248 10.0554 37.3002 9.67143C37.3002 9.2635 37.3248 8.86756 37.3739 8.48362C37.3739 8.43562 37.3616 8.38763 37.3371 8.33964C37.3125 8.26765 37.3002 8.20766 37.3002 8.15967C37.2757 8.15967 37.2634 8.14767 37.2634 8.12367V8.05168C37.2143 7.97969 37.1407 7.9197 37.0424 7.87171C36.9442 7.79972 36.8583 7.77573 36.7846 7.79972C36.6128 7.89571 36.5268 8.00369 36.5268 8.12367C36.4041 8.77157 36.4409 9.40747 36.6373 10.0314C36.6619 10.1514 36.6741 10.2473 36.6741 10.3193C36.6987 10.3913 36.6987 10.4873 36.6741 10.6073C36.6496 11.0152 36.6128 11.4232 36.5637 11.8311C36.5391 12.239 36.49 12.647 36.4163 13.0549C36.3672 13.3189 36.3181 13.5708 36.269 13.8108C36.2199 14.0508 36.1954 14.3027 36.1954 14.5667V16.6184C36.1708 17.2423 36.1585 17.8782 36.1585 18.5261C36.1585 19.174 36.134 19.8099 36.0849 20.4338C36.0849 20.6018 36.0603 20.7697 36.0112 20.9377C35.9867 21.1057 35.9621 21.2736 35.9376 21.4416V21.9096C35.913 22.2935 35.8885 22.6894 35.8639 23.0974C35.8394 23.4813 35.8271 23.8772 35.8271 24.2852C35.8271 24.5012 35.8394 24.7411 35.8639 25.0051C35.8885 25.245 35.9007 25.485 35.9007 25.725C35.8516 25.749 35.8148 25.761 35.7903 25.761V25.8689C35.7903 25.8449 35.7903 25.8209 35.7903 25.797C35.8148 25.749 35.8271 25.701 35.8271 25.653ZM10.3413 11.4712C10.2922 11.6391 10.2553 11.7951 10.2308 11.9391C10.2308 12.0591 10.2062 12.191 10.1571 12.335C10.1571 12.671 10.1449 13.0189 10.1203 13.3789C10.1203 13.7388 10.0589 14.0868 9.93616 14.4227C9.91161 14.5187 9.89933 14.6387 9.89933 14.7826C9.89933 14.9026 9.89933 15.0226 9.89933 15.1426C9.89933 15.5025 9.91161 15.8625 9.93616 16.2224C9.98527 16.5824 10.0098 16.9543 10.0098 17.3383C10.0098 17.7222 9.98527 18.0941 9.93616 18.4541C9.91161 18.814 9.88706 19.174 9.8625 19.5339C9.8625 19.7259 9.8625 19.9299 9.8625 20.1458C9.88706 20.3378 9.89933 20.5298 9.89933 20.7217C9.89933 21.2736 9.89933 21.8376 9.89933 22.4135C9.92389 22.9894 9.99754 23.5533 10.1203 24.1052C10.1203 24.7051 10.194 25.293 10.3413 25.8689C10.4886 26.4449 10.6236 27.0088 10.7464 27.5607C10.7464 27.7527 10.7955 27.8966 10.8937 27.9926C10.9428 28.0406 10.9797 28.0886 11.0042 28.1366C11.0533 28.1846 11.1024 28.2326 11.1515 28.2806C11.7899 28.4485 12.3914 28.4485 12.9562 28.2806C13.0789 28.2566 13.1894 28.2446 13.2876 28.2446C13.3858 28.2446 13.484 28.2446 13.5823 28.2446C13.7541 28.2926 13.926 28.3286 14.0979 28.3526C14.2697 28.3526 14.4539 28.3526 14.6503 28.3526C14.994 28.3526 15.3378 28.3406 15.6815 28.3166C16.0253 28.2926 16.3813 28.3046 16.7496 28.3526C17.7562 28.4245 18.7383 28.4605 19.6959 28.4605C20.678 28.4365 21.6601 28.4006 22.6422 28.3526C23.2806 28.3526 23.919 28.3526 24.5573 28.3526C25.2203 28.3286 25.8832 28.4125 26.5461 28.6045C26.6198 28.6285 26.7057 28.6405 26.8039 28.6405C26.9021 28.6165 27.0004 28.6165 27.0986 28.6405H28.3139C28.584 28.6165 28.8541 28.6045 29.1242 28.6045C29.4188 28.5805 29.7012 28.5445 29.9712 28.4965C30.3886 28.4245 30.806 28.3886 31.2234 28.3886C31.6654 28.3646 32.0951 28.4245 32.5125 28.5685C32.6352 28.6165 32.7703 28.6405 32.9176 28.6405C33.0894 28.6165 33.249 28.6165 33.3964 28.6405C33.7401 28.6405 34.0347 28.5205 34.2803 28.2806C34.3294 28.2326 34.3539 28.1726 34.3539 28.1006C34.3785 28.0046 34.3907 27.9206 34.3907 27.8486C34.4398 27.6327 34.4521 27.4287 34.4276 27.2367C34.4276 27.0448 34.4767 26.8528 34.5749 26.6608C34.624 26.5408 34.6485 26.4209 34.6485 26.3009C34.6731 26.1809 34.6854 26.0489 34.6854 25.9049C34.6854 25.641 34.6854 25.401 34.6854 25.185C34.6854 24.9451 34.6608 24.6931 34.6117 24.4292C34.5872 24.0212 34.5872 23.5893 34.6117 23.1334C34.6608 22.8214 34.6854 22.5095 34.6854 22.1975C34.6854 21.8616 34.6854 21.5376 34.6854 21.2257C34.6854 20.8897 34.6485 20.5778 34.5749 20.2898C34.5012 20.0018 34.4398 19.7139 34.3907 19.4259C34.5381 19.066 34.6608 18.718 34.759 18.3821C34.8818 18.0221 34.9432 17.6742 34.9432 17.3383C34.9677 16.8583 34.9677 16.3784 34.9432 15.8985C34.9432 15.4186 34.8818 14.9626 34.759 14.5307C34.8572 14.0028 34.9309 13.5348 34.98 13.1269C35.0291 12.8869 35.0414 12.659 35.0168 12.443C35.0168 12.203 35.0414 11.9871 35.0905 11.7951C35.2133 11.2912 35.2746 10.7993 35.2746 10.3193C35.2746 9.81541 35.2992 9.32349 35.3483 8.84356C35.3483 8.77157 35.3237 8.68759 35.2746 8.5916C35.2501 8.49561 35.2378 8.41163 35.2378 8.33964C34.9186 8.09968 34.5749 8.02769 34.2066 8.12367C33.7401 8.19566 33.2859 8.27965 32.8439 8.37563C32.402 8.47162 31.9723 8.55561 31.5549 8.62759C31.383 8.67559 31.2234 8.71158 31.0761 8.73558C30.9534 8.75957 30.8183 8.79557 30.671 8.84356C30.4009 8.84356 30.1431 8.85556 29.8976 8.87956C29.6521 8.90355 29.4065 8.96354 29.161 9.05953C29.0628 9.08352 28.9646 9.09552 28.8664 9.09552C28.7682 9.09552 28.6822 9.10752 28.6086 9.13152C28.1912 9.17951 27.7983 9.19151 27.43 9.16751C27.0617 9.14352 26.6934 9.10752 26.3251 9.05953C26.006 8.98754 25.7113 8.99954 25.4412 9.09552C25.3185 9.11952 25.208 9.13152 25.1098 9.13152C25.0116 9.13152 24.9256 9.13152 24.852 9.13152C24.2136 9.13152 23.5752 9.14352 22.9369 9.16751C22.323 9.19151 21.6969 9.17951 21.0586 9.13152C20.7639 9.13152 20.457 9.14352 20.1378 9.16751C19.8432 9.16751 19.5486 9.2275 19.2539 9.34748C19.0084 9.44347 18.7629 9.50346 18.5174 9.52746C18.2964 9.52746 18.0509 9.52746 17.7808 9.52746C17.5844 9.52746 17.4002 9.51546 17.2283 9.49146C17.081 9.46747 16.9092 9.45547 16.7127 9.45547C16.59 9.45547 16.4672 9.46747 16.3444 9.49146C16.2217 9.49146 16.0989 9.51546 15.9761 9.56345C15.2396 9.82741 14.503 9.8994 13.7664 9.77942C13.3244 9.70743 12.8825 9.75542 12.4405 9.9234C12.2687 9.99538 12.0968 10.0674 11.9249 10.1394C11.7531 10.1874 11.5935 10.2473 11.4462 10.3193C11.2497 10.3673 11.0656 10.4393 10.8937 10.5353C10.7219 10.6073 10.5377 10.6793 10.3413 10.7513V11.4712ZM24.631 29.0725C24.3609 29.0964 24.1277 29.1204 23.9313 29.1444C23.7348 29.1684 23.5261 29.1924 23.3052 29.2164C22.0039 29.2644 20.7148 29.3004 19.4381 29.3244C18.1859 29.3244 16.9214 29.2404 15.6447 29.0725C15.4974 29.0485 15.3378 29.0365 15.1659 29.0365C15.0186 29.0365 14.8713 29.0365 14.724 29.0365C14.503 29.0365 14.282 29.0485 14.061 29.0725C13.8646 29.0964 13.6436 29.0844 13.3981 29.0365C13.1526 28.9885 12.9316 29.0005 12.7352 29.0725C12.5388 29.1444 12.2073 29.2764 11.7408 29.4684C12.6492 29.6364 13.5331 29.7443 14.3925 29.7923C15.2518 29.8403 16.1112 29.9603 16.9705 30.1523C18.1736 29.8403 19.389 29.8043 20.6166 30.0443C20.7394 30.0443 20.8744 30.0443 21.0217 30.0443C21.1936 30.0443 21.3655 30.0323 21.5374 30.0083C21.832 30.0083 22.1635 29.9483 22.5317 29.8283C22.9491 29.7084 23.3665 29.6364 23.7839 29.6124C24.2259 29.5884 24.6556 29.5644 25.073 29.5404C25.1957 29.5404 25.3185 29.5404 25.4412 29.5404C25.5886 29.5404 25.7236 29.5164 25.8464 29.4684C25.8955 29.4684 25.9446 29.4444 25.9937 29.3964C25.7482 29.3484 25.5149 29.3004 25.2939 29.2524C25.0975 29.1804 24.8765 29.1204 24.631 29.0725ZM11.5566 9.34748C11.7285 9.2515 11.8758 9.20351 11.9986 9.20351C12.1214 9.15551 12.2318 9.13152 12.3301 9.13152C12.4283 9.13152 12.5388 9.11952 12.6615 9.09552C12.7843 9.04753 12.9071 8.98754 13.0298 8.91555C13.1526 8.84356 13.2753 8.74758 13.3981 8.62759C13.4227 8.62759 13.4227 8.5916 13.3981 8.51961C13.3981 8.44762 13.3613 8.41163 13.2876 8.41163C12.993 8.48362 12.6861 8.50761 12.3669 8.48362C12.0968 8.43562 11.8145 8.43562 11.5198 8.48362C11.2252 8.53161 10.9306 8.5796 10.6359 8.62759C10.6114 8.62759 10.5868 8.65159 10.5623 8.69958C10.5377 8.74758 10.5132 8.79557 10.4886 8.84356C10.4149 8.96354 10.4518 9.04753 10.5991 9.09552C10.7219 9.11952 10.8569 9.15551 11.0042 9.20351C11.1761 9.2515 11.3602 9.29949 11.5566 9.34748ZM14.7976 8.41163C14.8467 8.5796 14.8835 8.68759 14.9081 8.73558C14.9327 8.75957 14.9695 8.75957 15.0186 8.73558C15.2396 8.68759 15.4483 8.63959 15.6447 8.5916C15.8657 8.51961 16.0866 8.45962 16.3076 8.41163C16.5777 8.36364 16.8232 8.33964 17.0442 8.33964C17.2897 8.31564 17.5353 8.36364 17.7808 8.48362C17.9281 8.50761 18.0877 8.50761 18.2596 8.48362C18.2841 8.48362 18.3209 8.47162 18.37 8.44762C18.4192 8.42363 18.4683 8.39963 18.5174 8.37563C18.5419 8.35164 18.5542 8.26765 18.5542 8.12367C18.4805 8.07568 18.3946 8.03969 18.2964 8.01569C18.1982 7.9677 18.0877 7.9437 17.9649 7.9437C17.8176 7.9437 17.658 7.9557 17.4861 7.9797C17.3143 8.00369 17.1424 7.99169 16.9705 7.9437C16.5777 7.9197 16.1971 7.9557 15.8288 8.05168C15.4851 8.14767 15.1414 8.26765 14.7976 8.41163ZM22.7159 8.15967C23.2561 8.23166 23.7594 8.25565 24.2259 8.23166C24.5451 8.18366 24.852 8.14767 25.1466 8.12367C25.4658 8.09968 25.7727 7.99169 26.0673 7.79972C25.8955 7.77573 25.7359 7.75173 25.5886 7.72773C25.4412 7.70374 25.2939 7.67974 25.1466 7.65575C24.7292 7.58376 24.3855 7.59575 24.1154 7.69174C23.9926 7.73973 23.8699 7.79972 23.7471 7.87171C23.6489 7.9197 23.5384 7.9677 23.4156 8.01569C23.2929 8.03969 23.1701 8.03969 23.0474 8.01569C22.9491 7.99169 22.8387 8.03969 22.7159 8.15967ZM34.5749 30.0443C34.5012 29.8043 34.3785 29.6724 34.2066 29.6484H33.8751C33.5805 29.6964 33.2859 29.7443 32.9912 29.7923C32.7212 29.8403 32.4511 29.8883 32.181 29.9363C32.1564 29.9843 32.1196 30.0203 32.0705 30.0443C32.5861 30.1643 33.0035 30.2243 33.3227 30.2243C33.6419 30.2243 34.0593 30.1643 34.5749 30.0443ZM9.16275 28.0286C9.28551 27.5487 9.33462 27.1527 9.31007 26.8408C9.28551 26.5288 9.22413 26.2049 9.12592 25.8689C9.00316 26.0369 8.94177 26.1929 8.94177 26.3369C8.89267 26.5048 8.85584 26.6728 8.83129 26.8408C8.80673 27.0088 8.78218 27.1647 8.75763 27.3087C8.75763 27.3807 8.75763 27.4647 8.75763 27.5607C8.75763 27.6327 8.76991 27.6927 8.79446 27.7407C8.84356 27.8126 8.89267 27.8726 8.94177 27.9206C9.01543 27.9446 9.08909 27.9806 9.16275 28.0286ZM9.12592 23.7093C8.90495 23.6133 8.79446 23.6853 8.79446 23.9252C8.74535 24.1892 8.85584 24.3692 9.12592 24.4652C9.29779 24.2492 9.29779 23.9972 9.12592 23.7093ZM20.7271 8.05168C20.5307 8.05168 20.3465 8.05168 20.1747 8.05168C20.0274 8.05168 19.8555 8.08768 19.6591 8.15967C19.8555 8.20766 20.0274 8.23166 20.1747 8.23166C20.3465 8.20766 20.5307 8.14767 20.7271 8.05168ZM9.38373 11.9391C9.45738 11.6991 9.49421 11.5431 9.49421 11.4712C9.49421 11.3992 9.43283 11.2672 9.31007 11.0752C9.28551 11.2672 9.26096 11.4352 9.23641 11.5791C9.23641 11.6991 9.28551 11.8191 9.38373 11.9391ZM24.4837 30.6202C24.4346 30.5962 24.41 30.5722 24.41 30.5482C24.41 30.5242 24.3978 30.5122 24.3732 30.5122C24.2995 30.5122 24.2136 30.5242 24.1154 30.5482C24.0417 30.5482 23.9804 30.5722 23.9313 30.6202C23.9313 30.6442 23.9435 30.6562 23.9681 30.6562H24.0417C24.1645 30.7762 24.2873 30.7762 24.41 30.6562H24.4837V30.6202ZM25.4781 30.5842C25.5517 30.6562 25.6377 30.6922 25.7359 30.6922C25.8341 30.6682 25.92 30.6442 25.9937 30.6202C25.92 30.5482 25.8341 30.5122 25.7359 30.5122C25.6377 30.5122 25.5517 30.5362 25.4781 30.5842ZM35.4956 20.3618C35.4465 20.2898 35.422 20.2538 35.422 20.2538L35.3851 20.2898C35.3606 20.3138 35.3483 20.3378 35.3483 20.3618C35.2992 20.3618 35.2992 20.3858 35.3483 20.4338C35.3483 20.5058 35.3729 20.5418 35.422 20.5418C35.4711 20.5178 35.4956 20.4578 35.4956 20.3618ZM10.6727 29.6844C10.6973 29.6844 10.7096 29.6724 10.7096 29.6484C10.7096 29.5764 10.685 29.5164 10.6359 29.4684C10.5623 29.3964 10.5254 29.4324 10.5254 29.5764C10.5254 29.6244 10.5377 29.6484 10.5623 29.6484C10.5623 29.6724 10.5745 29.6844 10.5991 29.6844H10.6727ZM35.8271 27.7766C35.8025 27.7527 35.7903 27.7287 35.7903 27.7047C35.7903 27.6807 35.7657 27.6567 35.7166 27.6327C35.692 27.6567 35.6798 27.6927 35.6798 27.7407C35.6798 27.7646 35.6552 27.8006 35.6061 27.8486C35.6061 27.8726 35.6184 27.8846 35.6429 27.8846C35.6675 27.8846 35.6798 27.8966 35.6798 27.9206C35.7043 27.8966 35.7289 27.8846 35.7534 27.8846C35.778 27.8606 35.8025 27.8246 35.8271 27.7766ZM9.12592 15.7905C9.10137 15.7905 9.08909 15.8025 9.08909 15.8265C9.06454 15.8505 9.05226 15.8745 9.05226 15.8985C9.05226 16.0185 9.07682 16.1024 9.12592 16.1504C9.12592 16.1264 9.1382 16.1024 9.16275 16.0784C9.16275 15.9345 9.15047 15.8385 9.12592 15.7905ZM9.16275 16.9783H9.12592V17.0503L9.16275 16.9783ZM35.7166 26.4808H35.7903L35.7166 26.3729V26.4808Z" fill="#91CCD9"/>
<path d="M30.6187 11.1215C30.6506 11.104 30.6854 11.0913 30.7233 11.0836C30.7611 11.0738 30.797 11.0582 30.8309 11.0368C30.8369 11.031 30.8438 11.028 30.8518 11.028C30.8598 11.0261 30.8677 11.0251 30.8757 11.0251C30.9235 11.0173 30.9724 11.0105 31.0222 11.0047C31.072 10.9969 31.1218 10.9988 31.1716 11.0105C31.1816 11.0144 31.1905 11.0154 31.1985 11.0134C31.2085 11.0115 31.2184 11.0095 31.2284 11.0076C31.2643 11.0232 31.2991 11.0397 31.333 11.0573C31.3669 11.0728 31.3978 11.0943 31.4257 11.1215C31.4595 11.1313 31.4874 11.1468 31.5093 11.1683C31.5333 11.1877 31.5562 11.2111 31.5781 11.2384C31.6219 11.2598 31.6618 11.2871 31.6976 11.3202C31.7335 11.3533 31.7684 11.3884 31.8022 11.4254C31.8122 11.4351 31.8202 11.4478 31.8262 11.4633C31.8341 11.477 31.8391 11.4896 31.8411 11.5013C31.8451 11.5208 31.8501 11.5393 31.856 11.5568C31.864 11.5724 31.873 11.589 31.8829 11.6065C31.8969 11.6338 31.9088 11.662 31.9188 11.6912C31.9288 11.7185 31.9407 11.7457 31.9547 11.773C31.9567 11.7808 31.9587 11.7886 31.9606 11.7964C31.9626 11.8022 31.9636 11.8071 31.9636 11.811C31.9636 11.8421 31.9666 11.8714 31.9726 11.8986C31.9806 11.9259 31.9856 11.9532 31.9875 11.9804C31.9975 12.0447 32.0015 12.109 31.9995 12.1732C31.9975 12.2356 31.9895 12.2979 31.9756 12.3602C31.9756 12.3992 31.9656 12.4332 31.9457 12.4625C31.9278 12.4917 31.9148 12.5248 31.9068 12.5618C31.8889 12.5852 31.872 12.6085 31.856 12.6319C31.8401 12.6553 31.8232 12.6777 31.8052 12.6991C31.7993 12.7049 31.7973 12.7079 31.7993 12.7079C31.7076 12.8111 31.595 12.8822 31.4615 12.9211C31.4496 12.925 31.4376 12.9299 31.4257 12.9357C31.4157 12.9396 31.4047 12.9425 31.3928 12.9445C31.3649 12.9542 31.335 12.963 31.3031 12.9708C31.2732 12.9766 31.2413 12.9795 31.2075 12.9795C31.1736 12.9776 31.1377 12.9776 31.0999 12.9795C31.064 12.9815 31.0281 12.9873 30.9923 12.9971C30.9763 12.999 30.9594 13 30.9415 13C30.9235 12.9981 30.9026 12.9971 30.8787 12.9971C30.8548 12.9873 30.8269 12.9776 30.795 12.9679C30.7631 12.9581 30.7323 12.9445 30.7024 12.927C30.6884 12.9172 30.6725 12.9094 30.6545 12.9036C30.6366 12.8978 30.6177 12.8919 30.5978 12.8861C30.5798 12.8841 30.5629 12.8812 30.5469 12.8773C30.531 12.8734 30.5161 12.8695 30.5021 12.8656C30.4782 12.8578 30.4573 12.8481 30.4394 12.8364C30.4234 12.8247 30.4065 12.8111 30.3885 12.7955C30.3626 12.7702 30.3367 12.7439 30.3108 12.7166C30.2869 12.6874 30.257 12.6631 30.2212 12.6436C30.2132 12.6377 30.2002 12.6241 30.1823 12.6027C30.1604 12.5618 30.1405 12.5189 30.1225 12.4741C30.1046 12.4294 30.0877 12.3846 30.0717 12.3398C30.0638 12.3359 30.0598 12.3281 30.0598 12.3164C30.0558 12.2716 30.0478 12.2278 30.0359 12.1849C30.0239 12.1421 30.013 12.0983 30.003 12.0535C29.999 12.0184 29.999 11.9863 30.003 11.9571C30.009 11.9298 30.0159 11.9045 30.0239 11.8811C30.0319 11.8577 30.0389 11.8334 30.0448 11.8081C30.0628 11.736 30.0887 11.6698 30.1225 11.6094C30.1564 11.5471 30.1913 11.4848 30.2271 11.4224C30.2311 11.4146 30.2361 11.4078 30.2421 11.402C30.2501 11.3942 30.256 11.3884 30.26 11.3845C30.2839 11.3572 30.3088 11.3319 30.3347 11.3085C30.3606 11.2832 30.3866 11.2559 30.4125 11.2267L30.6187 11.1215ZM30.529 11.3143C30.4692 11.3689 30.4125 11.4254 30.3587 11.4838C30.3049 11.5403 30.256 11.6026 30.2122 11.6708C30.1763 11.7233 30.1524 11.7847 30.1405 11.8548C30.1385 11.8684 30.1355 11.884 30.1315 11.9015C30.1275 11.9171 30.1235 11.9327 30.1196 11.9483C30.1295 11.9619 30.1355 11.9775 30.1375 11.995C30.1395 12.0126 30.1395 12.0301 30.1375 12.0476C30.1335 12.0613 30.1305 12.0759 30.1285 12.0914C30.1265 12.107 30.1235 12.1207 30.1196 12.1323C30.1295 12.1557 30.1375 12.1771 30.1435 12.1966C30.1494 12.2141 30.1534 12.2307 30.1554 12.2463C30.1614 12.2696 30.1664 12.292 30.1704 12.3135C30.1743 12.3349 30.1783 12.3563 30.1823 12.3777C30.1863 12.3875 30.1913 12.3972 30.1973 12.407C30.2052 12.4167 30.2102 12.4264 30.2122 12.4362C30.2242 12.4693 30.2421 12.4975 30.266 12.5209C30.2899 12.5443 30.3138 12.5667 30.3377 12.5881C30.3616 12.6095 30.3856 12.628 30.4095 12.6436C30.4334 12.6572 30.4573 12.6728 30.4812 12.6903C30.5051 12.704 30.529 12.7186 30.5529 12.7342C30.5788 12.7497 30.6067 12.7663 30.6366 12.7838C30.6565 12.7897 30.6765 12.7974 30.6964 12.8072C30.7163 12.815 30.7382 12.8218 30.7621 12.8276C30.79 12.8315 30.8159 12.8345 30.8399 12.8364C30.8658 12.8383 30.8927 12.8422 30.9205 12.8481H30.9474C30.9853 12.8598 31.0232 12.8656 31.061 12.8656C31.1009 12.8637 31.1407 12.8637 31.1806 12.8656C31.1985 12.8656 31.2144 12.8637 31.2284 12.8598C31.2443 12.8559 31.2603 12.852 31.2762 12.8481C31.324 12.8345 31.3699 12.8198 31.4137 12.8043C31.4575 12.7867 31.5024 12.7682 31.5482 12.7488C31.6259 12.7137 31.6867 12.6631 31.7305 12.5968C31.7644 12.5443 31.7983 12.4849 31.8321 12.4186C31.8381 12.4167 31.8411 12.4089 31.8411 12.3953C31.8451 12.368 31.8511 12.3417 31.859 12.3164C31.867 12.2891 31.873 12.2599 31.877 12.2287C31.8809 12.2073 31.8819 12.1869 31.88 12.1674C31.88 12.146 31.877 12.1255 31.871 12.106C31.865 12.0768 31.861 12.0466 31.859 12.0155C31.857 11.9824 31.854 11.9512 31.8501 11.922C31.8501 11.9064 31.8491 11.8918 31.8471 11.8782C31.8471 11.8645 31.8451 11.8509 31.8411 11.8373C31.8252 11.7905 31.8092 11.7448 31.7933 11.7C31.7773 11.6532 31.7494 11.6114 31.7096 11.5743C31.6996 11.5724 31.6927 11.5666 31.6887 11.5568C31.6727 11.5276 31.6538 11.5013 31.6319 11.4779C31.61 11.4546 31.5851 11.4312 31.5572 11.4078C31.5173 11.3669 31.4755 11.329 31.4316 11.2939C31.4177 11.29 31.4037 11.2861 31.3898 11.2822C31.3778 11.2783 31.3639 11.2744 31.3479 11.2705C31.332 11.2608 31.3161 11.253 31.3001 11.2472C31.2862 11.2413 31.2712 11.2355 31.2553 11.2296C31.2314 11.216 31.2065 11.2053 31.1806 11.1975C31.1567 11.1897 31.1308 11.1877 31.1029 11.1916C31.0829 11.1916 31.064 11.1877 31.0461 11.18C31.0301 11.1722 31.0122 11.1654 30.9923 11.1595C30.9803 11.1595 30.9664 11.1595 30.9504 11.1595C30.9365 11.1595 30.9215 11.1615 30.9056 11.1654C30.8797 11.1692 30.8448 11.177 30.801 11.1887C30.7592 11.1985 30.7303 11.2072 30.7143 11.215C30.6864 11.2345 30.6565 11.251 30.6247 11.2647C30.5948 11.2764 30.5629 11.2929 30.529 11.3143Z" fill="#F0FAFA"/>
<circle cx="31" cy="12" r="1" fill="#F0FAFA"/>
</svg>
