<svg width="155" height="59" viewBox="0 0 155 59" fill="none" xmlns="http://www.w3.org/2000/svg">
<path d="M91.3 27.4L99.97 49.36H100.03L104.68 37.63C105.07 36.61 105.55 35.41 105.91 34.39C106.24 35.41 106.72 36.58 107.14 37.63L111.79 49.36H111.85L120.52 27.4H117.4L113.95 36.43C113.11 38.62 112.39 40.81 111.85 42.4C111.28 40.81 110.5 38.92 109.6 36.73L105.94 27.7H105.88L102.22 36.73C101.32 38.92 100.54 40.81 99.97 42.4C99.43 40.81 98.71 38.62 97.87 36.43L94.42 27.4H91.3ZM127.066 33.64C122.926 33.64 119.716 36.97 119.716 41.5C119.716 46.15 122.926 49.36 127.666 49.36C130.096 49.36 132.106 48.73 133.276 48.07V45.52C132.016 46.33 129.886 46.93 127.846 46.93C124.696 46.93 122.716 45.07 122.626 42.13V42.1H133.786C133.786 41.8 133.846 41.23 133.846 40.63C133.846 36.94 131.476 33.64 127.066 33.64ZM131.086 40.12H122.656C122.896 37.96 124.456 35.98 127.036 35.98C129.706 35.98 131.116 37.96 131.086 40.12ZM137.968 49H140.548L140.608 47.23C140.608 46.57 140.518 46.12 140.518 46.12H140.578C141.358 47.8 143.458 49.36 145.888 49.36C149.848 49.36 152.848 46.15 152.848 41.5C152.848 36.79 149.848 33.64 145.948 33.64C143.518 33.64 141.538 34.96 140.728 36.37H140.668C140.668 36.37 140.758 35.92 140.758 35.14V27.4H137.968V49ZM145.498 36.07C148.288 36.07 150.148 38.32 150.148 41.5C150.148 44.62 148.288 46.93 145.498 46.93C143.248 46.93 140.788 45.25 140.788 41.5C140.788 37.75 143.248 36.07 145.498 36.07Z" fill="#262425"/>
<path d="M53.24 49C60.35 49 64.94 44.62 64.94 38.2C64.94 31.81 60.29 27.4 53.15 27.4H46.58V49H53.24ZM53.12 30.58C58.04 30.58 61.13 33.76 61.13 38.2C61.13 42.67 58.04 45.82 53.21 45.82H50.36V30.58H53.12ZM68.0148 37.99C68.9748 37.39 70.8648 36.73 72.8448 36.73C75.0348 36.73 76.4148 37.48 76.4148 39.67V40.24C70.5948 39.43 66.9648 41.23 66.9648 44.92C66.9648 47.8 69.0648 49.39 71.7348 49.39C74.7948 49.39 76.3848 46.96 76.6548 46.3H76.7148C76.7148 46.3 76.6248 46.75 76.6548 47.44L76.7148 49H80.0448V39.49C80.0448 35.74 77.8548 33.61 73.4148 33.61C70.8648 33.61 68.8548 34.24 68.0148 34.69V37.99ZM72.5448 46.54C71.2848 46.54 70.4748 45.76 70.4748 44.62C70.4748 42.91 72.2148 41.74 76.3248 42.4C76.3248 44.5 74.7048 46.54 72.5448 46.54ZM84.1895 49H87.8495V42.55C87.8495 39.73 89.6195 37.12 92.1995 37.12C92.6795 37.12 93.0095 37.24 93.0995 37.24V33.7C93.0095 33.67 92.6195 33.61 92.1695 33.61C90.0995 33.61 88.5395 34.99 87.6095 36.82C87.5795 36.7 87.6095 36.28 87.6095 35.77C87.6095 35.2 87.5795 34.6 87.5495 34H84.1895V49Z" fill="#91CCD9"/>
<path fill-rule="evenodd" clip-rule="evenodd" d="M44.1626 11.2361C44.1687 11.2344 44.1749 11.2328 44.1811 11.2313L44.1911 11.1987L44.2761 11.1536C44.3045 11.1386 44.307 11.0918 44.2837 11.0133C44.2703 11.0567 44.2462 11.0968 44.2112 11.1336L44.1911 11.1987C44.1813 11.2109 44.1718 11.2233 44.1626 11.2361Z" fill="#262425"/>
<path fill-rule="evenodd" clip-rule="evenodd" d="M47.0553 12.6669L47.0887 12.6614L47.1312 12.6388L47.0562 12.6513L47.0553 12.6669Z" fill="#262425"/>
<path fill-rule="evenodd" clip-rule="evenodd" d="M47.1093 19.0205L47.1153 19.0222L47.0993 19.053L47.0848 19.0572C47.0925 19.0448 47.1007 19.0326 47.1093 19.0205Z" fill="#262425"/>
<path d="M46.5628 6.72464C46.6844 6.71469 46.7485 6.69885 46.7552 6.67714C46.7902 6.64041 46.7953 6.54686 46.7704 6.39649C46.5705 6.42978 46.5012 6.53916 46.5628 6.72464Z" fill="#262425"/>
<path d="M49.4706 6.41901C49.4489 6.41231 49.4348 6.41982 49.4281 6.44154L49.4481 6.3764C49.4698 6.38309 49.4839 6.37558 49.4906 6.35387L49.4706 6.41901Z" fill="#262425"/>
<path fill-rule="evenodd" clip-rule="evenodd" d="M34.2194 20.3825C33.487 21.6416 34.3884 23.2236 35.842 23.2301L57.1005 23.3255C58.5541 23.332 59.4696 21.7582 58.7484 20.4926L48.2015 1.98316C47.4804 0.717562 45.6634 0.709412 44.931 1.96849L34.2194 20.3825ZM44.1626 11.2361C44.0429 11.2692 43.9466 11.331 43.8736 11.4215C43.8036 11.495 43.7303 11.5793 43.6536 11.6745L43.0484 12.486C42.8533 12.7348 42.6549 12.9945 42.4531 13.265C42.2581 13.5138 42.1638 13.7819 42.1703 14.0692C42.2836 14.0091 42.3436 13.9682 42.3503 13.9465L43.8509 11.8425C43.9276 11.7473 43.9826 11.6454 44.016 11.5369C44.0509 11.4233 44.0998 11.323 44.1626 11.2361ZM46.7888 12.7113L47.0553 12.6669C47.0494 12.7549 47.0338 12.8399 47.0086 12.9219C46.9886 12.9871 46.976 13.0664 46.971 13.16C46.9143 13.19 46.8651 13.2342 46.8234 13.2927C46.7818 13.3511 46.7326 13.3954 46.6759 13.4254L46.3909 13.6583C46.3227 13.4945 46.2878 13.3767 46.2862 13.3049C46.3062 13.2398 46.3954 13.0652 46.5539 12.7813L46.7888 12.7113ZM51.2021 12.7404C51.0204 12.9458 50.9087 13.0777 50.867 13.1362C50.8537 13.1796 50.8661 13.2548 50.9044 13.3617C51.096 13.2783 51.1953 13.0712 51.2021 12.7404ZM48.7813 22.2838L48.8463 22.3039L48.7188 22.3715C48.7255 22.3498 48.718 22.3356 48.6963 22.3289L48.7164 22.2637L48.7589 22.2412C48.7805 22.2479 48.788 22.2621 48.7813 22.2838ZM52.0006 20.7469C52.2039 20.5482 52.3465 20.3545 52.4282 20.1658C52.5383 19.9621 52.6775 19.7792 52.8459 19.6173L52.6886 19.319C52.6504 19.212 52.6013 19.1017 52.5414 18.9881C52.4847 19.0181 52.4314 19.0373 52.3814 19.0456C52.3531 19.0607 52.3214 19.0865 52.2864 19.1233C52.2263 19.3187 52.1554 19.5108 52.0737 19.6995C52.0202 19.8732 51.9743 20.0611 51.9359 20.2632C51.9159 20.3284 51.9175 20.4002 51.9408 20.4787C51.9707 20.5356 51.9906 20.6249 52.0006 20.7469ZM47.2268 18.9854C47.2138 19.0275 47.1767 19.0398 47.1153 19.0222C47.2271 18.8093 47.3427 18.6191 47.462 18.4518C47.6154 18.2615 47.7871 18.0887 47.9771 17.9334C48.0337 17.9034 48.0829 17.8592 48.1246 17.8007C48.173 17.7205 48.218 17.6512 48.2597 17.5928C48.3564 17.4325 48.4573 17.2972 48.5623 17.187C48.6956 17.0618 48.8431 16.9291 49.0048 16.7889L49.0097 17.0044C48.8347 17.188 48.6779 17.3892 48.5395 17.608C48.4295 17.8118 48.2869 18.0055 48.1119 18.1891C47.9718 18.336 47.8243 18.4688 47.6693 18.5873C47.536 18.7125 47.3885 18.8452 47.2268 18.9854ZM47.0848 19.0572C47.0117 19.0779 46.9416 19.0889 46.8744 19.0905C46.8244 19.0988 46.7969 19.1497 46.7918 19.2433C46.8218 19.3001 46.8476 19.3319 46.8692 19.3386C46.9692 19.3219 47.0184 19.2777 47.0167 19.2058C47.0326 19.1542 47.0553 19.1047 47.0848 19.0572ZM45.1971 18.9285C45.1621 18.9653 45.0596 19.0287 44.8897 19.1188C44.7215 18.9717 44.6958 18.7854 44.8125 18.5599C44.9125 18.5433 45.0091 18.5375 45.1024 18.5426L45.4023 18.4926C45.3072 18.7248 45.2388 18.8701 45.1971 18.9285ZM38.9523 18.9949C38.9123 19.1252 38.9572 19.2104 39.0871 19.2506C39.1304 19.264 39.1804 19.2557 39.2371 19.2256C39.2221 19.1972 39.2179 19.1722 39.2246 19.1504L39.2346 19.1179C39.1747 19.0042 39.0806 18.9632 38.9523 18.9949ZM41.7555 17.7573L41.808 17.7022L41.8505 17.6797L41.7755 17.6922L41.7555 17.7573Z" fill="#262425"/>
<path fill-rule="evenodd" clip-rule="evenodd" d="M34.2906 24.9855C35.3041 23.248 34.0567 21.065 32.0453 21.056L2.62852 20.9244C0.61712 20.9154 -0.649752 23.0872 0.348157 24.8336L14.9426 50.3751C15.9405 52.1215 18.4547 52.1328 19.4682 50.3954L34.2906 24.9855ZM11.843 25.7531L12.2063 25.665C12.207 25.7867 12.1941 25.9052 12.1676 26.0207C12.1466 26.1123 12.1373 26.2228 12.1398 26.3521C12.0646 26.3991 12.0013 26.465 11.9496 26.5497C11.898 26.6343 11.8347 26.7002 11.7595 26.7473L11.3897 27.0967C11.279 26.8783 11.2189 26.7197 11.2094 26.621C11.2305 26.5293 11.336 26.2801 11.5259 25.8733L11.843 25.7531ZM12.9884 29.7523C12.8266 29.8099 12.7 29.9047 12.6084 30.0368C12.5193 30.145 12.4266 30.2684 12.3304 30.4072L11.5773 31.5855C11.3332 31.9477 11.0857 32.3251 10.8347 32.7179C10.5907 33.0801 10.4877 33.4586 10.5257 33.8534C10.676 33.7592 10.7547 33.6968 10.7617 33.6663L12.6197 30.6184C12.7159 30.4796 12.7815 30.3339 12.8166 30.1811C12.8533 30.0212 12.9106 29.8782 12.9884 29.7523ZM15.7893 31.0184C15.8409 30.9337 15.9817 30.7408 16.2117 30.4398C16.2357 30.8957 16.1197 31.1907 15.8636 31.325C15.8 31.1817 15.7752 31.0795 15.7893 31.0184ZM13.5522 37.8498C13.7777 37.7085 13.9127 37.6109 13.9573 37.5568C14.0089 37.4721 14.0886 37.2652 14.1963 36.936L13.7875 37.0352C13.6583 37.0377 13.5255 37.0555 13.3892 37.0885C13.2509 37.4106 13.3053 37.6644 13.5522 37.8498ZM16.3089 45.3819C16.1255 45.3398 16.0549 45.227 16.097 45.0437C16.2708 44.9871 16.4049 45.0339 16.499 45.1842L16.4885 45.2301C16.4815 45.2606 16.4897 45.2947 16.5133 45.3323C16.4381 45.3794 16.37 45.3959 16.3089 45.3819ZM22.0814 38.2394C22.1678 38.2573 22.2179 38.2367 22.2315 38.1775C22.4404 37.9681 22.6305 37.7705 22.8019 37.5846C23.0038 37.4058 23.194 37.2082 23.3723 36.9917C23.5953 36.7212 23.7724 36.4402 23.9037 36.1486C24.0726 35.8335 24.2685 35.5407 24.4915 35.2702L24.4629 34.9741C24.254 35.1835 24.0639 35.3811 23.8925 35.567C23.7587 35.7293 23.6332 35.9257 23.5159 36.1561C23.4643 36.2408 23.4092 36.3407 23.3506 36.4559C23.299 36.5406 23.2356 36.6065 23.1604 36.6536C22.9139 36.8865 22.6945 37.1417 22.5021 37.4193C22.3543 37.6616 22.2141 37.935 22.0814 38.2394ZM21.7557 38.3578C21.8483 38.3489 21.944 38.3265 22.0428 38.2907C22.0069 38.359 21.9806 38.4294 21.9639 38.5021C21.9734 38.6008 21.91 38.6667 21.7737 38.6997C21.7432 38.6927 21.7044 38.6516 21.6573 38.5765C21.6548 38.4472 21.6876 38.3743 21.7557 38.3578ZM27.963 32.2544C28.2236 31.9604 28.4007 31.6793 28.4944 31.4113C28.6257 31.1198 28.7993 30.854 29.0153 30.614L28.7681 30.2195C28.7045 30.0762 28.6256 29.9294 28.5314 29.7791C28.4562 29.8262 28.3846 29.858 28.3165 29.8745C28.2789 29.8981 28.2378 29.9369 28.1932 29.991C28.1301 30.266 28.0516 30.5376 27.9579 30.8056C27.9018 31.0501 27.8574 31.3133 27.8248 31.5954C27.8038 31.6871 27.8133 31.7857 27.8534 31.8915C27.9004 31.9666 27.937 32.0876 27.963 32.2544ZM25.9859 30.6205L26.0776 30.6415L25.9085 30.7475C25.9155 30.7169 25.9037 30.6981 25.8732 30.6911L25.8942 30.5994L25.9506 30.5641C25.9811 30.5711 25.9929 30.5899 25.9859 30.6205ZM17.2403 22.1455C17.2097 22.1384 17.1909 22.1502 17.1839 22.1808L17.205 22.0891C17.2355 22.0961 17.2543 22.0843 17.2613 22.0538L17.2403 22.1455ZM22.7755 26.2374L22.8424 26.1562L22.8987 26.1209L22.7965 26.1457L22.7755 26.2374ZM13.9326 21.7421C14.0995 21.7161 14.1864 21.6878 14.1934 21.6573C14.238 21.6032 14.2355 21.4739 14.1859 21.2695C13.9134 21.3356 13.8289 21.4931 13.9326 21.7421ZM13.1368 29.6272L13.024 29.6979L13.0451 29.6062C13.0897 29.5521 13.119 29.4945 13.133 29.4334C13.1731 29.5391 13.1744 29.6037 13.1368 29.6272Z" fill="#91CCD9"/>
<path d="M37.9131 9.88934C38.0542 9.80462 38.1765 9.71856 38.2799 9.63117C38.2872 9.55588 38.3152 9.46312 38.3638 9.35288C38.2298 8.77486 38.2278 8.20622 38.3579 7.64697C38.3615 7.60932 38.3518 7.51388 38.3286 7.36063C38.3614 7.02186 38.2202 6.81285 37.905 6.73359L36.9084 6.43533L35.9117 6.13707C35.5868 5.96237 35.2716 5.88311 34.9662 5.8993C34.8153 5.88857 34.6559 5.86776 34.488 5.83687C34.3201 5.80598 34.1418 5.78383 33.9532 5.77042C33.6928 5.71401 33.4306 5.67642 33.1665 5.65764C32.9025 5.63887 32.6299 5.61001 32.3488 5.57108C32.0325 5.70019 31.7046 5.75267 31.3651 5.72853C31.0426 5.72456 30.708 5.74814 30.3612 5.79929C30.0522 5.85311 29.7553 5.87938 29.4705 5.87808C29.1858 5.87679 28.8615 5.89163 28.4977 5.92262C27.9101 6.10823 27.2914 6.32007 26.6417 6.55812C25.9919 6.79618 25.3508 7.04432 24.7181 7.30253C24.4395 7.43432 24.1505 7.57485 23.8512 7.72412C23.5726 7.85591 23.277 7.96754 22.9643 8.05901C22.9059 8.07381 22.856 8.09868 22.8146 8.13364C22.7733 8.1686 22.713 8.20222 22.6339 8.2345C22.5707 8.4953 22.5094 8.73729 22.4498 8.96045C22.1566 9.24281 21.872 9.53524 21.5958 9.83776C21.3367 10.1604 21.0928 10.5221 20.8642 10.9227C20.8155 11.033 20.7395 11.1318 20.6361 11.2192C20.5327 11.3066 20.4171 11.4216 20.2894 11.5641C20.2444 11.6367 20.1976 11.7281 20.1489 11.8383C20.1173 11.9687 20.0584 12.0877 19.972 12.1953C19.7336 12.5005 19.5584 12.8386 19.4466 13.2096C19.3554 13.5632 19.1991 13.9027 18.9778 14.228C18.8246 14.634 18.692 15.0226 18.5802 15.3936C18.506 15.7673 18.449 16.1612 18.4089 16.5753C18.3907 16.7635 18.3828 16.9429 18.3853 17.1137L18.3927 17.6259C18.3952 17.7966 18.3892 17.9572 18.3746 18.1078C18.3771 18.2785 18.3607 18.4479 18.3255 18.6159C18.2561 18.7437 18.2331 18.8841 18.2562 19.0374C18.2964 19.2108 19.6526 19.6199 20.7093 19.2971C21.8791 18.9397 22.8448 19.0131 22.852 18.9378C22.8568 18.6918 22.8513 18.4545 22.8354 18.226C22.8402 17.98 22.8347 17.7427 22.8188 17.5142L22.7638 16.3164C22.7454 15.9172 22.8025 15.5233 22.935 15.1347C22.963 15.042 22.9618 14.9566 22.9313 14.8786L22.9477 14.7093C23.1009 14.3033 23.2608 13.9262 23.4274 13.578C23.6318 13.2324 23.7966 12.903 23.9218 12.5898C24.1116 12.3948 24.2892 12.2275 24.4547 12.0876C24.6408 11.9303 24.7995 11.7616 24.9309 11.5814C25.0696 11.326 25.235 11.1861 25.4272 11.1619C25.6681 11.0274 25.8817 10.8815 26.0678 10.7242C26.2746 10.5494 26.4674 10.421 26.6463 10.339C26.9212 10.2448 27.1567 10.1668 27.3526 10.1049C27.5485 10.0431 27.7376 9.95229 27.9201 9.83261C28.1817 9.68066 28.4378 9.58517 28.6885 9.54614C28.9598 9.48964 29.2208 9.44187 29.4714 9.40284C29.8937 9.35706 30.3055 9.32002 30.7071 9.29172C31.1463 9.2661 31.5771 9.2304 31.9993 9.18462C32.4008 9.15632 32.7969 9.18448 33.1875 9.2691C33.5368 9.38868 33.8811 9.46054 34.2206 9.48468C34.5808 9.49134 34.9319 9.5921 35.2739 9.78696C35.2909 9.80712 35.3098 9.80846 35.3304 9.79098C35.3511 9.7735 35.3803 9.7661 35.418 9.76879C35.7441 9.73512 36.0459 9.75658 36.3234 9.83315C36.6178 9.92989 36.9227 10.0179 37.2378 10.0971C37.2756 10.0998 37.3048 10.0924 37.3255 10.075L37.4952 10.087C37.6327 10.0399 37.772 9.97405 37.9131 9.88934Z" fill="#91CCD9"/>
<path d="M30.3649 36.0358C30.4606 35.9401 30.5739 35.8428 30.7048 35.7439C30.8356 35.645 30.9649 35.5636 31.0926 35.4999L31.2507 35.4856C31.2699 35.4665 31.297 35.4553 31.3321 35.4522C31.626 35.478 31.9103 35.5133 32.185 35.5583C32.4437 35.5873 32.7248 35.5619 33.0281 35.4824C33.0633 35.4792 33.0904 35.468 33.1095 35.4489C33.1287 35.4297 33.1463 35.4282 33.1622 35.4441C33.4817 35.5722 33.8092 35.6124 34.1445 35.5647C34.4606 35.5363 34.7817 35.5509 35.1075 35.6087C35.4716 35.6281 35.8405 35.5949 36.2141 35.509C36.6069 35.4039 37.0076 35.3069 37.4164 35.2178C37.79 35.1319 38.1732 35.0364 38.5659 34.9313C38.799 34.858 39.0417 34.7752 39.2939 34.6828C39.527 34.6095 39.7649 34.4836 40.0075 34.3049C40.1766 34.1677 40.3522 34.0561 40.5342 33.97C40.7162 33.8839 40.9349 33.7771 41.1903 33.6496C41.3563 33.5475 41.535 33.4007 41.7265 33.2093C41.8988 33.0369 42.0967 32.871 42.3201 32.7115C42.4989 32.6605 42.6521 32.5074 42.7797 32.252C42.9009 32.0668 43.0476 31.8881 43.22 31.7158C43.3731 31.5626 43.5375 31.3823 43.713 31.1748C43.8277 30.8683 43.9791 30.541 44.1673 30.1931C44.3203 29.8482 44.4669 29.4779 44.6071 29.0819L44.6213 28.9238C44.5925 28.8568 44.5909 28.7785 44.6163 28.6891C44.7374 28.3123 44.7882 27.9419 44.7687 27.5777L44.7103 26.4854C44.6942 26.2777 44.6876 26.0605 44.6906 25.8338C44.6744 25.6262 44.6679 25.409 44.6709 25.1822C44.6772 25.1119 45.4834 24.7364 46.6633 24.5323C47.7899 24.3375 47.8989 24.4791 47.9374 24.6325C47.9247 24.773 48.1611 25.1203 48.1644 25.2768C48.1677 25.4333 48.229 25.656 48.2324 25.8125C48.2357 25.969 48.2482 26.0793 48.2324 26.255C48.1976 26.6414 48.0041 27.0805 47.9374 27.435C47.8355 27.7926 48.0776 28.0716 47.9374 28.4675C47.7332 28.7995 47.5776 29.014 47.4949 29.3525C47.393 29.7101 47.42 30.069 47.1999 30.385C47.1201 30.4967 46.9335 30.8234 46.9049 30.948C46.8602 31.0565 46.6513 31.0491 46.6099 31.1225C46.4918 31.2725 46.4106 31.3217 46.3149 31.4175C46.2191 31.5132 46.212 31.8989 46.1673 32.0075C45.9569 32.4097 45.8166 32.4098 45.5774 32.745C45.3221 33.0642 45.2586 33.1793 44.9873 33.4825C44.9332 33.6964 44.7496 33.7209 44.6923 33.97C44.6189 34.0115 44.2882 34.3292 44.2499 34.3675C44.2116 34.4058 43.8616 34.6402 43.8074 34.6625C43.5168 34.7932 43.6234 34.9423 43.3649 35.105C43.0871 35.2868 42.7384 35.5323 42.4799 35.695C41.8925 36.0267 41.3132 36.4118 40.7099 36.7275C40.1065 37.0432 39.8399 36.7642 39.2939 37.0225C38.9555 37.1052 38.7624 37.2762 38.4974 37.3175C38.2323 37.3588 37.8997 37.3694 37.6124 37.465C37.2899 37.5637 36.8801 37.7155 36.5799 37.76C36.2637 37.7885 35.9886 37.7416 35.6949 37.9075C35.433 37.9137 35.3534 38.0328 35.1075 38.055C34.8616 38.0771 34.7576 38.068 34.5149 38.055C34.3392 38.0708 34.0814 38.1733 33.9249 38.17C33.7684 38.1666 33.6229 38.1573 33.4824 38.17C33.1982 38.2304 32.9009 38.282 32.5974 38.17C32.2875 38.1282 32.5902 37.8707 31.7124 38.17C31.5497 38.148 31.6881 38.1226 31.7211 38.1174C31.694 38.1212 31.5771 38.1364 31.2507 38.17C30.9568 38.1442 31.0926 38.17 30.7048 38.17C30.6823 38.0326 30.301 37.9058 30.3041 37.8707C30.4218 37.3374 30.4166 36.8152 30.2884 36.3041C30.333 36.1955 30.3585 36.1061 30.3649 36.0358Z" fill="#262425"/>
</svg>
