<svg width="60" height="86" viewBox="0 0 60 86" fill="none" xmlns="http://www.w3.org/2000/svg">
<path d="M9.74492 85.2438C8.41228 86.1604 7.038 86.2437 5.62207 85.4938C4.95575 85.2438 4.37272 84.9522 3.87298 84.6189C3.37324 84.2022 2.83186 83.7856 2.24883 83.3689C0.74961 82.369 0 80.9524 0 79.1192C0.66632 77.286 1.49922 75.4945 2.4987 73.7446C3.58147 71.9948 4.49766 70.1616 5.24727 68.245C5.41385 67.8284 5.58043 67.4951 5.74701 67.2451C5.99688 66.9118 6.24675 66.5368 6.49662 66.1202C7.07965 65.2869 7.57939 64.4536 7.99584 63.6204C8.49558 62.7038 8.99531 61.7455 9.49505 60.7456C10.911 57.7458 12.7434 54.746 14.9922 51.7462C16.2415 49.9964 17.4076 48.2048 18.4904 46.3716C19.6564 44.4551 20.8641 42.5386 22.1135 40.622C21.9469 40.3721 21.822 40.1637 21.7387 39.9971C21.6554 39.7471 21.5305 39.5388 21.3639 39.3721C20.8641 38.8722 20.3644 38.3305 19.8647 37.7473C19.4482 37.164 19.0734 36.4973 18.7402 35.7474C18.5737 34.9975 18.2405 34.3308 17.7408 33.7475C17.3243 33.0809 16.8246 32.331 16.2415 31.4977C15.8251 30.2478 15.4919 28.8312 15.2421 27.248C15.4086 25.9148 15.5336 24.6649 15.6169 23.4983C15.7834 22.2484 15.95 21.0401 16.1166 19.8736C16.6163 18.6236 17.1994 17.3737 17.8657 16.1238C18.6153 14.8739 19.3233 13.624 19.9896 12.3741C20.9058 10.8742 21.9469 9.58264 23.113 8.49938C24.3623 7.3328 25.6117 6.20788 26.861 5.12463C27.3608 4.70799 27.9021 4.37468 28.4852 4.1247C29.0682 3.79139 29.6929 3.41642 30.3592 2.99978C31.8584 2.33316 33.3993 1.79153 34.9818 1.3749C36.5643 0.874935 38.1884 0.499962 39.8542 0.249979C40.354 0.0833262 40.8121 0 41.2285 0C41.645 0 42.0198 0 42.3529 0C43.7689 0.249984 45.1848 0.541628 46.6007 0.874933C48.0167 1.20824 49.4326 1.62488 50.8485 2.12485C51.7647 2.95812 52.6393 3.74973 53.4721 4.49967C54.3883 5.16629 55.3462 5.91624 56.3457 6.74951C56.7621 7.91609 57.2202 9.08267 57.7199 10.2493C58.2197 11.3325 58.7611 12.4574 59.3441 13.624C59.594 14.2073 59.7605 14.7489 59.8438 15.2489C59.9271 15.7489 59.8855 16.3321 59.7189 16.9988C59.9688 17.832 60.0521 18.6236 59.9688 19.3736C59.8855 20.1235 59.8022 20.9568 59.7189 21.8734C59.5523 22.8733 59.4274 23.9149 59.3441 24.9982C59.3441 25.9981 59.3441 27.0814 59.3441 28.2479C58.9276 29.6645 58.3863 31.0394 57.7199 32.3726C57.1369 33.6226 56.4289 34.9558 55.596 36.3724C54.0968 37.8722 52.556 39.3305 50.9735 40.747C49.3909 42.1636 47.6418 43.2052 45.7262 43.8718C44.3935 44.0385 43.1442 44.2051 41.9781 44.3718C40.8121 44.4551 39.6044 44.4968 38.355 44.4968C37.2723 44.4968 36.1895 44.4968 35.1067 44.4968C34.1072 44.4134 33.1078 44.3718 32.1083 44.3718C31.6085 44.5384 31.2337 44.7467 30.9839 44.9967C30.734 45.2467 30.5258 45.4967 30.3592 45.7467C30.1093 46.4133 29.7762 47.0382 29.3597 47.6215C29.0265 48.1215 28.735 48.7048 28.4852 49.3714C28.0687 50.038 27.7356 50.7046 27.4857 51.3713C27.2358 52.0379 26.9027 52.7045 26.4862 53.3711C26.0698 54.0377 25.6533 54.621 25.2369 55.121C24.9037 55.621 24.6122 56.1626 24.3623 56.7459C23.696 58.0791 22.988 59.454 22.2384 60.8706C21.4888 62.2038 20.7808 63.537 20.1145 64.8703C19.0318 66.7868 17.9906 68.6617 16.9911 70.4949C16.075 72.2447 14.9922 73.953 13.7428 75.6195C13.493 76.0361 13.2431 76.4111 12.9932 76.7444C12.8267 76.9944 12.6184 77.3277 12.3686 77.7443C11.5357 79.0776 10.9943 80.4941 10.7444 81.994C10.6611 83.0773 10.328 84.1606 9.74492 85.2438ZM29.3597 37.8722C30.5258 38.2889 31.6085 38.7055 32.608 39.1222C33.6908 39.4555 34.7736 39.8304 35.8563 40.2471C37.0224 39.9138 38.1884 39.6221 39.3545 39.3721C40.5206 39.1222 41.6866 38.7888 42.8527 38.3722C43.1858 38.3722 43.5606 38.2472 43.9771 37.9972C45.0599 37.3306 46.101 36.7057 47.1005 36.1224C48.1832 35.5391 49.1827 34.7058 50.0989 33.6226C50.5154 32.9559 50.8902 32.331 51.2233 31.7477C51.6398 31.1644 52.0562 30.5394 52.4727 29.8728C53.4721 28.0396 54.2218 25.9981 54.7215 23.7483C55.138 22.3317 55.3462 20.9151 55.3462 19.4986C55.3462 18.082 55.013 16.7071 54.3467 15.3739C54.0968 14.7073 53.847 14.0823 53.5971 13.499C53.4305 12.8324 53.2223 12.1658 52.9724 11.4992C52.7225 11.0825 52.4727 10.6659 52.2228 10.2493C51.9729 9.83262 51.6398 9.49931 51.2233 9.24933C50.557 8.58271 49.849 8.04108 49.0994 7.62444C48.3498 7.12448 47.6418 6.66618 46.9755 6.24955C46.1426 5.91624 45.393 5.70792 44.7267 5.62459C44.0604 5.45794 43.519 5.29128 43.1026 5.12463C41.1869 4.79132 39.4794 4.91631 37.9802 5.4996C36.5643 6.08289 35.0234 6.54119 33.3576 6.8745C32.025 7.70777 30.6923 8.54104 29.3597 9.37432C28.1104 10.2076 26.9027 11.1659 25.7366 12.2491C24.5705 14.1656 23.4878 16.1238 22.4883 18.1237C21.4888 20.0402 20.5726 21.9984 19.7397 23.9983C19.9063 24.8315 19.9896 25.6648 19.9896 26.4981C19.9896 27.3313 20.0312 28.123 20.1145 28.8729C20.6143 30.4561 21.4472 31.5394 22.6132 32.1227C23.0297 32.456 23.3212 32.7893 23.4878 33.1226C23.6543 33.3726 23.8209 33.7059 23.9875 34.1225C24.1541 34.3725 24.404 34.6641 24.7371 34.9975C25.1536 35.1641 25.6117 35.2891 26.1114 35.3724C26.6111 35.4558 27.1109 35.5807 27.6106 35.7474C27.8605 36.0807 28.1104 36.414 28.3602 36.7473C28.6101 37.0806 28.9433 37.4556 29.3597 37.8722ZM18.3654 60.1206C19.3649 59.0374 20.2395 57.9125 20.9891 56.7459C21.7387 55.496 22.4466 54.2461 23.113 52.9961C23.5294 52.3295 23.9459 51.6629 24.3623 50.9963C24.7788 50.2463 25.1952 49.4547 25.6117 48.6215C26.0281 47.9548 26.4029 47.2466 26.7361 46.4966C27.1525 45.7467 27.5273 45.0384 27.8605 44.3718C27.8605 43.8718 27.8188 43.5802 27.7356 43.4968C27.1525 42.9135 26.5695 42.6219 25.9865 42.6219C25.4867 42.7886 25.1952 43.0385 25.1119 43.3718C24.1124 44.7051 23.1546 46.0383 22.2384 47.3716C21.3222 48.7048 20.4477 50.1214 19.6148 51.6212C19.1983 52.4545 18.6986 53.2461 18.1156 53.9961C17.6158 54.746 17.1161 55.496 16.6163 56.2459C15.7834 57.4125 15.9084 58.4124 16.9911 59.2457C17.241 59.4123 17.4492 59.579 17.6158 59.7457C17.8657 59.829 18.1156 59.954 18.3654 60.1206Z" fill="#262425"/>
</svg>
