<svg width="127" height="116" viewBox="0 0 127 116" fill="none" xmlns="http://www.w3.org/2000/svg">
<path d="M91.0292 105.557C90.779 105.811 90.5289 106.064 90.2787 106.318C90.0286 106.572 89.7087 106.918 89.3191 107.358C86.9313 108.257 84.6806 109.629 82.5668 111.474C81.7344 112.184 80.8457 112.802 79.9008 113.327C79.0152 113.867 78.1706 114.432 77.367 115.023C77.0718 115.203 76.8648 115.279 76.746 115.25C76.16 115.203 75.5627 115.137 74.9542 115.053C74.36 114.909 73.7915 114.724 73.2486 114.499C72.7633 114.036 72.448 113.52 72.3029 112.951C72.1721 112.322 71.9379 111.732 71.6001 111.179C70.9409 110.266 70.337 109.319 69.7884 108.338C69.2173 107.32 68.6391 106.332 68.0536 105.374C67.8059 104.969 67.5582 104.563 67.3105 104.158C67.0628 103.753 66.8521 103.325 66.6782 102.874C65.8312 100.659 64.7813 98.5676 63.5284 96.5999C62.2531 94.5953 61.0218 92.5386 59.8346 90.4297C59.5932 89.8687 59.3148 89.3302 58.9996 88.8142C58.7212 88.2758 58.4726 87.7445 58.2537 87.2204C57.7057 85.3288 56.7487 83.7624 55.3827 82.5212C54.8154 82.0071 54.3629 81.4737 54.0251 80.9208C53.7243 80.3455 53.4193 79.7221 53.1103 79.0506C52.8832 78.4302 53.0067 77.5963 53.4807 76.5486C54.0629 76.0925 54.7415 75.6283 55.5163 75.156C56.2912 74.6837 57.0926 74.2963 57.9207 73.9939C58.5192 73.7302 59.1474 73.4737 59.8053 73.2244C60.5001 72.9526 61.1242 72.648 61.6777 72.3107C62.4607 71.9345 63.1915 71.5144 63.87 71.0502C64.5855 70.5635 65.3122 70.0952 66.0501 69.6454C67.4628 68.2278 69.0404 67.0386 70.7827 66.0777C72.525 65.1168 74.1589 64.0197 75.6842 62.7864C76.9099 62.1404 78.1244 61.4759 79.3277 60.793C80.5453 60.0508 81.8202 59.5266 83.1523 59.2204C83.5294 59.0917 83.8953 58.9445 84.2499 58.779C84.6045 58.6134 84.9068 58.4038 85.157 58.1502C86.1901 57.5204 87.1864 56.9131 88.1457 56.3283C89.0825 55.7067 89.9856 55.0297 90.8549 54.2975C92.7779 52.7206 94.7726 51.3024 96.8388 50.0429C98.942 48.7608 101.023 47.442 103.081 46.0862C103.708 45.7038 104.366 45.4545 105.055 45.3383C105.721 45.1852 106.432 45.1058 107.188 45.1001C107.872 45.3912 108.305 45.81 108.487 46.3566C108.647 46.8664 108.81 47.4242 108.978 48.0302C109.068 48.1776 109.092 48.3403 109.048 48.5184C109.042 48.6739 109.025 48.8111 108.996 48.9298C108.862 49.8712 108.887 50.7411 109.071 51.5394C109.292 52.3153 109.616 53.0534 110.044 53.7536L113.422 59.282C114.316 60.9118 115.229 62.5303 116.16 64.1376C117.106 65.6856 118.063 67.252 119.031 68.8368C119.167 69.0579 119.29 69.2606 119.403 69.4449C119.516 69.6292 119.58 69.8175 119.596 70.0099C119.954 71.2587 120.43 72.4103 121.023 73.4647C121.617 74.5192 122.311 75.6136 123.105 76.748C123.574 77.0185 124.048 77.3371 124.525 77.7037C125.016 78.011 125.497 78.2999 125.966 78.5704L126.472 79.3997C126.884 79.9075 127.055 80.4357 126.985 80.9842C126.915 81.5327 126.733 82.0228 126.44 82.4545C126.337 82.6181 126.223 82.7634 126.098 82.8902C125.988 82.9577 125.859 83.0364 125.711 83.1264C124.907 83.7174 124.137 84.3637 123.401 85.0653C122.68 85.7075 121.831 86.2249 120.855 86.6172C120.198 86.8665 119.552 87.2602 118.918 87.7981C117.946 88.694 116.918 89.4977 115.834 90.2093C114.75 90.9209 113.695 91.6397 112.67 92.3657C110.907 93.5415 109.124 94.6027 107.323 95.5492C105.521 96.4958 103.739 97.557 101.976 98.7328C101.283 99.2563 100.53 99.7655 99.7186 100.26C98.9069 100.755 98.1699 101.331 97.5076 101.987C96.6833 102.793 95.8356 103.437 94.9645 103.917C94.0708 104.361 93.0727 104.716 91.9701 104.984L91.0292 105.557ZM91.9197 82.0249C92.1248 81.6975 92.3227 81.3998 92.5135 81.1318C92.7042 80.8638 92.854 80.5702 92.9628 80.251C93.4286 79.1071 93.8648 77.9561 94.2712 76.7978C94.6776 75.6396 95.1179 74.5367 95.5918 73.489C96.2322 71.8847 96.8653 70.3101 97.4912 68.7652C98.154 67.1978 98.8056 65.6119 99.4459 64.0076C99.5322 63.6515 99.6779 63.3098 99.883 62.9824C100.066 62.6182 100.189 62.2397 100.253 61.8467C100.349 60.9278 100.558 60.0672 100.878 59.2651C101.176 58.4261 101.529 57.5534 101.937 56.6469C102.368 55.7773 102.732 54.923 103.03 54.084C103.161 53.8016 103.196 53.5273 103.135 53.2612C103.051 52.9583 102.919 52.6593 102.739 52.3645C102.723 52.1721 102.592 51.9991 102.346 51.8454C102.114 51.6324 101.925 51.5709 101.777 51.6608C101.63 51.7508 101.471 51.8223 101.301 51.8755C101.167 51.9061 101.05 52.0032 100.947 52.1669C100.816 52.4493 100.696 52.7501 100.587 53.0693C100.492 53.3292 100.38 53.6003 100.248 53.8827C99.9569 54.5661 99.3634 55.0038 98.4678 55.1956C97.8611 55.3631 97.2504 55.4825 96.6357 55.5537C96.0353 55.5656 95.4092 55.6185 94.7576 55.7122L90.1084 58.5462C88.8827 59.1922 87.6907 59.8935 86.5324 60.6501C85.3886 61.3474 84.1025 61.8531 82.674 62.1675C82.4814 62.1837 82.3226 62.2553 82.1975 62.3821C82.0868 62.4496 81.9352 62.4914 81.7425 62.5077C79.6969 63.5523 77.73 64.726 75.842 66.0286C73.9314 67.2944 72.0434 68.597 70.1779 69.9365C69.6201 70.6812 68.9353 71.301 68.1235 71.7958C67.3118 72.2906 66.5369 72.7629 65.799 73.2128C65.0691 73.7588 64.3537 74.2455 63.6526 74.6728C62.9516 75.1002 62.2136 75.55 61.4388 76.0224C61.2543 76.1348 61.0554 76.3066 60.8421 76.5378C60.6064 76.7321 60.3409 76.9192 60.0457 77.0991C60.2096 77.2016 60.3294 77.3562 60.405 77.5629C60.4582 77.7329 60.5442 77.8322 60.6631 77.8609C61.5318 78.0395 62.3974 78.2959 63.2598 78.63C64.1223 78.9642 65.0248 79.1981 65.9673 79.3317C67.043 79.4347 68.0972 79.6267 69.1297 79.9078C70.1767 80.1295 71.2052 80.3624 72.2153 80.6066C73.8445 80.3722 75.4674 80.2934 77.0841 80.3701C78.7008 80.4469 80.3247 80.4939 81.9558 80.5113C83.6607 80.4837 85.3337 80.6525 86.9748 81.0179C88.6159 81.3832 90.2642 81.7189 91.9197 82.0249ZM100.717 76.2829C100.028 76.3992 99.4587 76.5441 99.0078 76.7178C98.5712 76.8322 98.105 76.9394 97.609 77.0394C97.4571 77.5366 97.3124 78.0042 97.1748 78.4422C97.0741 78.8576 96.9663 79.3027 96.8512 79.7775C96.6686 80.1417 96.5045 80.4947 96.3588 80.8364C96.2131 81.1781 96.0152 81.4758 95.765 81.7294C95.361 82.2286 95.0165 82.7421 94.7313 83.27C94.4831 83.7754 94.2092 84.3217 93.9096 84.909C93.8603 85.2426 93.688 85.4994 93.3928 85.6793C93.112 85.7999 92.7646 85.9358 92.3506 86.087C91.5557 85.8634 90.7054 85.6735 89.7998 85.5174C88.8942 85.3613 88.0183 85.2124 87.1721 85.0706C86.4998 85.3793 85.8612 85.7432 85.2565 86.1624C84.6887 86.5592 84.1812 87.0961 83.734 87.7733C83.3995 88.6348 83.0875 89.5332 82.798 90.4684C82.5229 91.3442 82.2405 92.2497 81.951 93.1849C81.7191 93.8828 81.5465 94.5949 81.4333 95.3215C81.3346 95.9887 81.2061 96.6487 81.0479 97.3015C80.8485 98.3841 80.6881 99.2406 80.5668 99.8709C80.4599 100.442 80.3305 100.976 80.1786 101.473C80.0266 101.971 79.8378 102.49 79.6121 103.033C79.4232 103.552 79.1246 104.265 78.7163 105.172C78.6012 105.647 78.5528 106.106 78.571 106.55C78.6261 106.972 78.8512 107.341 79.2465 107.656C79.8776 107.777 80.4514 107.68 80.9679 107.365C82.1487 106.646 83.3294 105.926 84.5101 105.206C85.6909 104.486 86.931 103.781 88.2306 103.09C88.6365 102.843 89.072 102.602 89.5373 102.369C90.017 102.077 90.4823 101.844 90.9332 101.67C92.2203 101.29 93.447 100.77 94.6134 100.11C95.7572 99.4126 96.8375 98.6529 97.8544 97.8307C99.8719 95.9939 102.16 94.5994 104.717 93.6472C105.656 93.2773 106.472 92.8306 107.165 92.307C107.895 91.761 108.706 91.2662 109.6 90.8226C110.272 90.5139 110.941 90.1572 111.605 89.7523C112.269 89.3475 112.87 88.8802 113.407 88.3504C114.305 87.4995 115.248 86.7223 116.236 86.0188C117.224 85.3153 118.235 84.6487 119.268 84.0189C119.563 83.839 119.84 83.6703 120.098 83.5128C120.334 83.3185 120.499 83.0914 120.593 82.8316C120.503 82.6841 120.443 82.5439 120.412 82.4108C120.359 82.2409 120.273 82.1416 120.154 82.1129C119.521 81.74 118.96 81.5257 118.47 81.4702C117.46 81.226 116.473 81.0186 115.508 80.8482C114.52 80.6408 113.577 80.3813 112.677 80.0697C111.354 79.5613 110.02 79.1603 108.676 78.8668C107.31 78.5364 105.979 78.0577 104.684 77.4305C104.142 77.2051 103.525 77.0246 102.834 76.8891C102.121 76.7167 101.416 76.5146 100.717 76.2829ZM73.8495 107.152C73.8782 107.034 73.9664 106.929 74.114 106.839C74.276 106.69 74.3713 106.556 74.4001 106.437C74.9316 105.152 75.4109 103.823 75.838 102.45C76.3019 101.054 76.8734 99.6691 77.5525 98.2941C77.647 98.0342 77.7117 97.7671 77.7467 97.4929C77.8186 97.1961 77.8792 96.881 77.9286 96.5474C78.1525 95.7534 78.3507 95.0003 78.5232 94.2881C78.6958 93.5759 78.7977 92.831 78.8289 92.0532C78.9301 90.727 79.2537 89.3916 79.7996 88.0472C80.2529 87.2145 80.4502 86.3355 80.3913 85.4103C80.285 85.0705 80.1346 84.7828 79.94 84.5473C79.7599 84.2525 79.5141 84.0988 79.2027 84.0863C78.6454 83.9202 78.0738 83.8134 77.4877 83.766C76.8792 83.6817 76.2819 83.6158 75.6959 83.5684C75.0361 83.5659 74.4101 83.6188 73.8178 83.7269C73.203 83.7981 72.6251 83.8469 72.0842 83.8732C70.1009 83.3623 68.1546 82.829 66.2452 82.2731C64.3501 81.6579 62.4088 81.2985 60.4213 81.195C60.0317 81.6348 59.8234 82.0399 59.7965 82.4104C59.8066 82.7583 59.9129 83.0982 60.1156 83.4299C60.8237 84.9203 61.5574 86.3699 62.3167 87.7786C63.0761 89.1872 63.8129 90.559 64.5272 91.894C64.9757 92.3793 65.3503 92.9097 65.6512 93.485C65.9295 94.0235 66.1894 94.5732 66.4309 95.1342C66.7092 95.6726 66.9876 96.2111 67.2659 96.7496C67.5443 97.2881 67.9149 97.7703 68.3777 98.1963C68.4965 98.225 68.56 98.2875 68.5682 98.3837C68.5763 98.4799 68.6029 98.5649 68.6479 98.6386C69.1408 100.108 69.8111 101.496 70.6586 102.8C71.5205 104.045 72.3199 105.353 73.0567 106.725C73.1018 106.799 73.1949 106.868 73.3363 106.934C73.5145 106.977 73.6856 107.05 73.8495 107.152ZM106.939 54.8877C106.791 54.9777 106.655 55.0861 106.53 55.2129C106.419 55.2803 106.313 55.3959 106.21 55.5596C105.547 57.127 104.832 58.6504 104.065 60.1298C103.275 61.5723 102.738 63.1387 102.455 64.8292C102.288 65.3858 102.074 65.9465 101.811 66.5113C101.548 67.076 101.327 67.6664 101.146 68.2823C100.92 68.8246 100.676 69.3781 100.414 69.9428C100.188 70.4851 99.9621 71.0274 99.7363 71.5696C99.6788 71.807 99.6848 72.1069 99.7542 72.4692C100.127 72.7478 100.48 72.9117 100.814 72.9611C101.185 72.9879 101.553 73.0925 101.918 73.2749C102.983 73.9408 104.091 74.4286 105.242 74.7384C106.431 75.0256 107.63 75.3313 108.841 75.6555C109.316 75.7704 109.755 75.9078 110.156 76.0677C110.558 76.2276 110.996 76.365 111.472 76.4799C112.193 76.7485 112.914 77.0171 113.635 77.2856C114.334 77.5173 115.065 77.6785 115.829 77.769C116.46 77.8901 117.076 77.9448 117.676 77.9328C118.254 77.8841 118.82 77.691 119.373 77.3536C119.495 76.7233 119.364 76.0948 118.981 75.4683C118.328 74.3995 117.675 73.3307 117.022 72.2618C116.384 71.1337 115.941 69.9115 115.694 68.5952C115.565 68.2186 115.381 67.8756 115.141 67.5664C114.901 67.2572 114.706 66.8958 114.555 66.4823C113.554 64.5126 112.442 62.6105 111.22 60.7758C109.998 58.9412 108.813 57.084 107.664 55.2044C107.545 55.1756 107.415 55.1285 107.274 55.0629C107.169 54.9748 107.058 54.9164 106.939 54.8877Z" fill="#2F2D2E"/>
<path d="M50.4009 24.8868C50.9051 24.7961 51.455 24.6828 52.0509 24.5469C52.6925 24.4109 53.3342 24.2976 53.9758 24.2069C54.7091 23.9803 55.3507 23.9803 55.9007 24.2069C56.8632 24.5242 57.8028 24.6602 58.7194 24.6148C59.6819 24.5242 60.6214 24.4335 61.5381 24.3429C62.4547 24.1163 63.2797 24.003 64.013 24.003C64.5171 24.003 64.9754 23.9803 65.3879 23.935C65.8463 23.8896 66.3046 23.799 66.7629 23.663C66.992 23.5724 67.2212 23.5271 67.4504 23.5271C67.6795 23.5271 67.9087 23.5044 68.1378 23.4591C68.7795 23.3684 69.3982 23.3458 69.994 23.3911C70.5899 23.3911 71.1857 23.3004 71.7815 23.1191H72.6752C74.096 23.4817 75.4709 23.4591 76.8001 23.0511C77.2584 23.1418 77.625 23.2778 77.9 23.4591C78.6333 23.8217 79 24.4109 79 25.2267C79 26.3598 79 27.4929 79 28.6261C79 29.7139 78.9542 30.8016 78.8625 31.8894C78.8625 32.2974 78.8396 32.5693 78.7938 32.7053C78.5646 33.8384 78.4271 34.9715 78.3813 36.1046C78.3813 37.1924 78.3813 38.3028 78.3813 39.436C78.3813 40.2518 78.3584 41.0903 78.3125 41.9515C78.3125 42.7673 78.2209 43.5832 78.0375 44.399C77.9459 45.0789 77.8771 45.7587 77.8313 46.4386C77.8313 47.1185 77.8313 47.8437 77.8313 48.6142C77.8313 50.4725 77.6938 52.3081 77.4188 54.1211C77.2813 55.0729 77.1667 56.0247 77.0751 56.9766C77.0292 57.9284 77.0751 58.9028 77.2126 59.9C77.2584 60.3532 77.2584 60.7838 77.2126 61.1917C77.1667 61.5543 77.098 61.9623 77.0063 62.4155C76.9146 62.8234 76.823 63.1634 76.7313 63.4353C76.6855 63.6619 76.6626 63.8885 76.6626 64.1152C76.6626 64.3418 76.6855 64.6137 76.7313 64.931C76.823 65.203 76.9146 65.5656 77.0063 66.0188C76.7772 66.6534 76.5022 67.2652 76.1813 67.8544C75.9063 68.4437 75.6543 69.0329 75.4251 69.6221C75.0585 70.03 74.6918 70.234 74.3251 70.234C74.1418 70.2793 73.9356 70.3246 73.7064 70.37C73.4773 70.4153 73.2252 70.4606 72.9502 70.5059C72.8127 70.6419 72.5606 70.7099 72.194 70.7099C71.5065 70.6192 70.819 70.6192 70.1315 70.7099C69.4441 70.8005 68.7107 70.8005 67.9316 70.7099C65.4567 70.6192 62.9359 70.6872 60.3693 70.9138C59.3152 71.0045 58.284 71.1405 57.2757 71.3218C56.2674 71.5031 55.2362 71.6617 54.182 71.7977C53.7237 71.707 53.2425 71.639 52.7383 71.5937C52.2342 71.5484 51.73 71.4804 51.2259 71.3898C50.5842 71.2991 49.9197 71.2764 49.2322 71.3218C48.5447 71.4124 47.8802 71.5031 47.2385 71.5937C46.7802 71.6844 46.3219 71.7524 45.8636 71.7977C45.4511 71.8883 44.9927 71.979 44.4886 72.0696C44.1219 72.1603 43.7324 72.1829 43.3199 72.1376C42.9532 72.1376 42.6095 72.0243 42.2887 71.7977C41.7845 71.5711 41.2345 71.4351 40.6387 71.3898C40.0429 71.3898 39.4929 71.4351 38.9888 71.5257C38.6221 71.5257 38.2784 71.5257 37.9576 71.5257C37.6367 71.5711 37.293 71.6164 36.9263 71.6617C36.0097 71.5711 35.1389 71.3444 34.3139 70.9818C33.9473 70.8459 33.5348 70.8005 33.0765 70.8459C32.664 70.8459 32.2515 70.8685 31.839 70.9138C31.6557 71.0498 31.4265 71.2538 31.1515 71.5257L30.6703 72.0016C30.212 72.1376 29.8224 72.115 29.5016 71.9337C29.2266 71.7524 28.9058 71.6164 28.5391 71.5257C28.1725 71.4351 27.8287 71.3898 27.5079 71.3898C27.1871 71.3898 26.8662 71.4804 26.5454 71.6617C26.1788 71.8883 25.7892 72.0016 25.3767 72.0016C24.9642 72.0016 24.5288 72.0016 24.0705 72.0016C23.7955 71.775 23.6122 71.5937 23.5205 71.4577C23.4747 71.3671 23.3601 71.0952 23.1768 70.6419C23.2684 70.4153 23.3372 70.166 23.383 69.8941C23.4289 69.6221 23.4976 69.3048 23.5893 68.9422C23.5434 68.6703 23.4747 68.353 23.383 67.9904C23.2914 67.5825 23.1997 67.1519 23.108 66.6987V66.1548C23.1539 64.8404 23.1768 63.5713 23.1768 62.3475C23.1768 61.0784 23.1768 59.8093 23.1768 58.5403C23.1768 57.7697 23.1768 57.0445 23.1768 56.3647C23.2226 55.6395 23.3372 54.8916 23.5205 54.1211C23.6122 53.4866 23.6351 52.852 23.5893 52.2175C23.5893 51.5376 23.5893 50.8804 23.5893 50.2459V46.9145C23.5893 46.1893 23.5664 45.4868 23.5205 44.8069C23.5205 44.1271 23.4059 43.4472 23.1768 42.7673C22.9018 41.7702 22.9476 40.7504 23.3143 39.7079C23.4518 39.2547 23.5434 38.8241 23.5893 38.4162C23.6351 37.9629 23.658 37.487 23.658 36.9884C23.658 36.2632 23.6809 35.5381 23.7268 34.8129C23.8184 34.0877 23.8643 33.3625 23.8643 32.6373C23.8643 32.2747 23.8413 31.9348 23.7955 31.6175C23.7955 31.2549 23.7955 30.9376 23.7955 30.6657C24.1163 30.2124 24.3455 29.9405 24.483 29.8498C24.6205 29.7592 24.9871 29.6685 25.583 29.5779C25.8121 29.2153 25.9267 29.0113 25.9267 28.966C25.9267 28.8753 25.8121 28.7167 25.583 28.4901C25.308 28.4901 25.1017 28.5354 24.9642 28.6261H24.483C24.3455 28.3088 24.2767 27.9915 24.2767 27.6742C24.2767 27.357 24.3226 27.0397 24.4142 26.7224C24.5517 26.2239 24.8726 25.9066 25.3767 25.7706C26.11 25.68 26.8433 25.544 27.5766 25.3627C28.3099 25.1814 29.0433 25.1361 29.7766 25.2267C30.1432 25.272 30.464 25.2947 30.739 25.2947C31.0599 25.2947 31.4036 25.3174 31.7703 25.3627C32.3661 25.4987 32.9161 25.4987 33.4202 25.3627C33.7869 25.272 34.1077 25.2494 34.3827 25.2947C34.7035 25.34 35.0472 25.408 35.4139 25.4987C35.7805 25.408 36.1472 25.34 36.5139 25.2947C36.8805 25.2494 37.2472 25.1814 37.6138 25.0907C38.2096 24.8641 38.7825 24.7282 39.3325 24.6828C39.9283 24.6375 40.5241 24.6148 41.12 24.6148C42.2658 24.6602 43.3886 24.6828 44.4886 24.6828C45.6344 24.6375 46.7802 24.6148 47.926 24.6148C48.2926 24.6602 48.6593 24.7055 49.026 24.7508C49.4384 24.7961 49.8968 24.8415 50.4009 24.8868ZM68.2753 25.7026C67.267 25.612 66.2817 25.5893 65.3192 25.6346C64.4025 25.6346 63.4401 25.748 62.4318 25.9746C62.2943 25.9746 62.1568 25.9972 62.0193 26.0426C61.8818 26.0426 61.7672 26.0199 61.6755 25.9746C61.3089 25.8386 60.9652 25.8386 60.6443 25.9746C60.3693 26.0652 60.0714 26.1559 59.7506 26.2465C59.7048 26.3372 59.6589 26.4278 59.6131 26.5185C59.5673 26.5638 59.5444 26.6318 59.5444 26.7224C60.0944 26.9037 60.6443 26.9717 61.1943 26.9264C61.7901 26.8811 62.363 26.7678 62.913 26.5865C63.3255 26.4958 63.7151 26.4505 64.0817 26.4505C64.4942 26.4052 64.9296 26.3372 65.3879 26.2465C65.7546 26.2012 66.1442 26.1785 66.5566 26.1785C67.015 26.1785 67.4504 26.1332 67.8629 26.0426C67.9087 25.9972 67.9545 25.9519 68.0004 25.9066C68.092 25.8159 68.1837 25.748 68.2753 25.7026C68.4587 25.7026 68.6191 25.6573 68.7566 25.5667C68.9857 25.5667 69.0774 25.4987 69.0316 25.3627C68.9857 25.3174 68.8253 25.2947 68.5503 25.2947C68.367 25.34 68.2753 25.476 68.2753 25.7026ZM74.9439 60.1719C75.2647 60.0813 75.4251 59.9 75.4251 59.628C75.5168 58.6309 75.6084 57.6564 75.7001 56.7046C75.7918 55.7075 75.8605 54.733 75.9063 53.7812C75.998 52.7387 76.0897 51.6963 76.1813 50.6538C76.273 49.566 76.2959 48.4782 76.2501 47.3904C76.2501 47.2091 76.2501 47.0278 76.2501 46.8465C76.2501 46.6652 76.273 46.4613 76.3188 46.2346C76.548 45.3282 76.6626 44.4217 76.6626 43.5152C76.7084 42.6087 76.7313 41.7022 76.7313 40.7957C76.7772 40.1612 76.8001 39.5493 76.8001 38.9601C76.8459 38.3708 76.9146 37.7816 77.0063 37.1924C77.098 36.6485 77.1438 36.1273 77.1438 35.6287C77.1896 35.1301 77.2355 34.6089 77.2813 34.065C77.2813 33.7477 77.2813 33.4305 77.2813 33.1132C77.3271 32.7959 77.3959 32.5013 77.4875 32.2294C77.6709 31.4588 77.7396 30.711 77.6938 29.9858C77.6938 29.2153 77.7396 28.4674 77.8313 27.7422C77.8313 27.6516 77.8084 27.5609 77.7625 27.4703C77.7167 27.3343 77.6938 27.221 77.6938 27.1304C77.648 27.1304 77.625 27.1077 77.625 27.0624V26.9264C77.5334 26.7904 77.3959 26.6771 77.2126 26.5865C77.0292 26.4505 76.8688 26.4052 76.7313 26.4505C76.4105 26.6318 76.2501 26.8357 76.2501 27.0624C76.0209 28.2861 76.0897 29.4872 76.4563 30.6657C76.5022 30.8923 76.5251 31.0736 76.5251 31.2096C76.5709 31.3455 76.5709 31.5268 76.5251 31.7535C76.4792 32.524 76.4105 33.2945 76.3188 34.065C76.273 34.8355 76.1813 35.606 76.0438 36.3766C75.9522 36.8751 75.8605 37.351 75.7688 37.8043C75.6772 38.2575 75.6314 38.7334 75.6314 39.232V43.1073C75.5855 44.2857 75.5626 45.4868 75.5626 46.7105C75.5626 47.9343 75.5168 49.1354 75.4251 50.3139C75.4251 50.6311 75.3793 50.9484 75.2876 51.2657C75.2418 51.5829 75.196 51.9002 75.1501 52.2175V53.1013C75.1043 53.8265 75.0585 54.5744 75.0126 55.3449C74.9668 56.0701 74.9439 56.8179 74.9439 57.5884C74.9439 57.9964 74.9668 58.4496 75.0126 58.9482C75.0585 59.4014 75.0814 59.8547 75.0814 60.3079C74.9897 60.3532 74.921 60.3759 74.8751 60.3759V60.5799C74.8751 60.5345 74.8751 60.4892 74.8751 60.4439C74.921 60.3532 74.9439 60.2626 74.9439 60.1719ZM27.3704 33.3851C27.2787 33.7024 27.21 33.997 27.1642 34.269C27.1642 34.4956 27.1183 34.7449 27.0267 35.0168C27.0267 35.6514 27.0037 36.3086 26.9579 36.9884C26.9579 37.6683 26.8433 38.3255 26.6142 38.9601C26.5683 39.1414 26.5454 39.368 26.5454 39.6399C26.5454 39.8665 26.5454 40.0932 26.5454 40.3198C26.5454 40.9997 26.5683 41.6795 26.6142 42.3594C26.7058 43.0393 26.7517 43.7418 26.7517 44.467C26.7517 45.1922 26.7058 45.8947 26.6142 46.5746C26.5683 47.2544 26.5225 47.9343 26.4767 48.6142C26.4767 48.9768 26.4767 49.362 26.4767 49.77C26.5225 50.1326 26.5454 50.4951 26.5454 50.8577C26.5454 51.9002 26.5454 52.9653 26.5454 54.0531C26.5913 55.1409 26.7288 56.206 26.9579 57.2485C26.9579 58.3816 27.0954 59.4921 27.3704 60.5799C27.6454 61.6676 27.8975 62.7328 28.1266 63.7752C28.1266 64.1378 28.2183 64.4098 28.4016 64.5911C28.4933 64.6817 28.562 64.7724 28.6079 64.863C28.6995 64.9537 28.7912 65.0443 28.8828 65.135C30.0745 65.4522 31.1974 65.4522 32.2515 65.135C32.4806 65.0896 32.6869 65.067 32.8702 65.067C33.0535 65.067 33.2369 65.067 33.4202 65.067C33.741 65.1576 34.0618 65.2256 34.3827 65.271C34.7035 65.271 35.0472 65.271 35.4139 65.271C36.0555 65.271 36.6972 65.2483 37.3388 65.203C37.9805 65.1576 38.645 65.1803 39.3325 65.271C41.2116 65.4069 43.0449 65.4749 44.8323 65.4749C46.6656 65.4296 48.4989 65.3616 50.3322 65.271C51.5238 65.271 52.7154 65.271 53.907 65.271C55.1445 65.2256 56.382 65.3843 57.6194 65.7469C57.7569 65.7922 57.9173 65.8148 58.1007 65.8148C58.284 65.7695 58.4673 65.7695 58.6506 65.8148H60.9193C61.4235 65.7695 61.9276 65.7469 62.4318 65.7469C62.9818 65.7015 63.5088 65.6335 64.013 65.5429C64.7921 65.4069 65.5713 65.3389 66.3504 65.3389C67.1754 65.2936 67.9774 65.4069 68.7566 65.6789C68.9857 65.7695 69.2378 65.8148 69.5128 65.8148C69.8336 65.7695 70.1315 65.7695 70.4065 65.8148C71.0482 65.8148 71.5982 65.5882 72.0565 65.135C72.1481 65.0443 72.194 64.931 72.194 64.795C72.2398 64.6137 72.2627 64.4551 72.2627 64.3191C72.3544 63.9112 72.3773 63.526 72.3315 63.1634C72.3315 62.8008 72.4231 62.4382 72.6065 62.0756C72.6981 61.8489 72.7439 61.6223 72.7439 61.3957C72.7898 61.1691 72.8127 60.9198 72.8127 60.6478C72.8127 60.1493 72.8127 59.696 72.8127 59.2881C72.8127 58.8349 72.7669 58.359 72.6752 57.8604C72.6294 57.0899 72.6294 56.274 72.6752 55.4129C72.7669 54.8236 72.8127 54.2344 72.8127 53.6452C72.8127 53.0107 72.8127 52.3988 72.8127 51.8096C72.8127 51.175 72.7439 50.5858 72.6065 50.0419C72.469 49.498 72.3544 48.9541 72.2627 48.4102C72.5377 47.7304 72.7669 47.0731 72.9502 46.4386C73.1794 45.7587 73.2939 45.1015 73.2939 44.467C73.3398 43.5605 73.3398 42.654 73.2939 41.7475C73.2939 40.841 73.1794 39.9799 72.9502 39.164C73.1335 38.1669 73.271 37.283 73.3627 36.5125C73.4543 36.0593 73.4773 35.6287 73.4314 35.2208C73.4314 34.7675 73.4773 34.3596 73.5689 33.997C73.7981 33.0452 73.9127 32.1161 73.9127 31.2096C73.9127 30.2577 73.9585 29.3286 74.0502 28.4221C74.0502 28.2861 74.0043 28.1275 73.9127 27.9462C73.8668 27.7649 73.8439 27.6063 73.8439 27.4703C73.2481 27.017 72.6065 26.8811 71.919 27.0624C71.0482 27.1983 70.2003 27.357 69.3753 27.5383C68.5503 27.7196 67.7483 27.8782 66.9691 28.0142C66.6483 28.1048 66.3504 28.1728 66.0754 28.2181C65.8463 28.2635 65.5942 28.3315 65.3192 28.4221C64.815 28.4221 64.3338 28.4448 63.8755 28.4901C63.4172 28.5354 62.9588 28.6487 62.5005 28.83C62.3172 28.8753 62.1339 28.898 61.9505 28.898C61.7672 28.898 61.6068 28.9207 61.4693 28.966C60.6902 29.0566 59.9569 29.0793 59.2694 29.034C58.5819 28.9887 57.8944 28.9207 57.2069 28.83C56.6111 28.694 56.0611 28.7167 55.557 28.898C55.3278 28.9433 55.1216 28.966 54.9383 28.966C54.7549 28.966 54.5945 28.966 54.457 28.966C53.2654 28.966 52.0738 28.9887 50.8821 29.034C49.7363 29.0793 48.5676 29.0566 47.376 28.966C46.826 28.966 46.2531 28.9887 45.6573 29.034C45.1073 29.034 44.5573 29.1473 44.0074 29.3739C43.549 29.5552 43.0907 29.6685 42.6324 29.7139C42.2199 29.7139 41.7616 29.7139 41.2575 29.7139C40.8908 29.7139 40.5471 29.6912 40.2262 29.6459C39.9512 29.6005 39.6304 29.5779 39.2638 29.5779C39.0346 29.5779 38.8055 29.6005 38.5763 29.6459C38.3471 29.6459 38.118 29.6912 37.8888 29.7818C36.5139 30.2804 35.1389 30.4164 33.7639 30.1898C32.939 30.0538 32.114 30.1444 31.289 30.4617C30.9682 30.5977 30.6474 30.7337 30.3266 30.8696C30.0057 30.9603 29.7078 31.0736 29.4328 31.2096C29.0662 31.3002 28.7224 31.4362 28.4016 31.6175C28.0808 31.7535 27.7371 31.8894 27.3704 32.0254V33.3851ZM54.0445 66.6307C53.5404 66.676 53.105 66.7213 52.7383 66.7667C52.3717 66.812 51.9821 66.8573 51.5696 66.9026C49.1405 66.9933 46.7344 67.0613 44.3511 67.1066C42.0137 67.1066 39.6533 66.948 37.2701 66.6307C36.9951 66.5854 36.6972 66.5627 36.3764 66.5627C36.1014 66.5627 35.8264 66.5627 35.5514 66.5627C35.1389 66.5627 34.7264 66.5854 34.3139 66.6307C33.9473 66.676 33.5348 66.6534 33.0765 66.5627C32.6181 66.472 32.2057 66.4947 31.839 66.6307C31.4723 66.7667 30.8536 67.0159 29.9828 67.3785C31.6786 67.6958 33.3285 67.8998 34.9327 67.9904C36.5368 68.0811 38.1409 68.3077 39.745 68.6703C41.9908 68.0811 44.2594 68.0131 46.551 68.4663C46.7802 68.4663 47.0323 68.4663 47.3073 68.4663C47.6281 68.4663 47.9489 68.4437 48.2697 68.3983C48.8197 68.3983 49.4384 68.285 50.1259 68.0584C50.9051 67.8318 51.6842 67.6958 52.4633 67.6505C53.2883 67.6052 54.0904 67.5598 54.8695 67.5145C55.0987 67.5145 55.3278 67.5145 55.557 67.5145C55.832 67.5145 56.0841 67.4692 56.3132 67.3785C56.4049 67.3785 56.4965 67.3332 56.5882 67.2426C56.1299 67.1519 55.6945 67.0613 55.282 66.9706C54.9153 66.8346 54.5029 66.7213 54.0445 66.6307ZM29.6391 29.3739C29.9599 29.1926 30.2349 29.102 30.464 29.102C30.6932 29.0113 30.8995 28.966 31.0828 28.966C31.2661 28.966 31.4723 28.9433 31.7015 28.898C31.9307 28.8074 32.1598 28.694 32.389 28.5581C32.6181 28.4221 32.8473 28.2408 33.0765 28.0142C33.1223 28.0142 33.1223 27.9462 33.0765 27.8102C33.0765 27.6742 33.0077 27.6063 32.8702 27.6063C32.3202 27.7422 31.7473 27.7876 31.1515 27.7422C30.6474 27.6516 30.1203 27.6516 29.5703 27.7422C29.0203 27.8329 28.4704 27.9235 27.9204 28.0142C27.8745 28.0142 27.8287 28.0595 27.7829 28.1502C27.7371 28.2408 27.6912 28.3315 27.6454 28.4221C27.5079 28.6487 27.5766 28.8074 27.8516 28.898C28.0808 28.9433 28.3329 29.0113 28.6079 29.102C28.9287 29.1926 29.2724 29.2833 29.6391 29.3739ZM35.6889 27.6063C35.7805 27.9235 35.8493 28.1275 35.8951 28.2181C35.941 28.2635 36.0097 28.2635 36.1014 28.2181C36.5139 28.1275 36.9034 28.0368 37.2701 27.9462C37.6826 27.8102 38.0951 27.6969 38.5075 27.6063C39.0117 27.5156 39.47 27.4703 39.8825 27.4703C40.3408 27.425 40.7991 27.5156 41.2575 27.7422C41.5324 27.7876 41.8304 27.7876 42.1512 27.7422C42.197 27.7422 42.2658 27.7196 42.3574 27.6742C42.4491 27.6289 42.5407 27.5836 42.6324 27.5383C42.6782 27.4929 42.7012 27.3343 42.7012 27.0624C42.5637 26.9717 42.4032 26.9037 42.2199 26.8584C42.0366 26.7678 41.8303 26.7224 41.6012 26.7224C41.3262 26.7224 41.0283 26.7451 40.7075 26.7904C40.3866 26.8357 40.0658 26.8131 39.745 26.7224C39.0117 26.6771 38.3013 26.7451 37.6138 26.9264C36.9722 27.1077 36.3305 27.3343 35.6889 27.6063ZM50.4697 27.1304C51.478 27.2663 52.4175 27.3116 53.2883 27.2663C53.8841 27.1757 54.457 27.1077 55.007 27.0624C55.6028 27.017 56.1757 26.8131 56.7257 26.4505C56.4049 26.4052 56.107 26.3598 55.832 26.3145C55.557 26.2692 55.282 26.2239 55.007 26.1785C54.2279 26.0426 53.5862 26.0652 53.0821 26.2465C52.8529 26.3372 52.6238 26.4505 52.3946 26.5865C52.2113 26.6771 52.005 26.7678 51.7759 26.8584C51.5467 26.9037 51.3176 26.9037 51.0884 26.8584C50.9051 26.8131 50.6988 26.9037 50.4697 27.1304ZM72.6065 68.4663C72.469 68.0131 72.2398 67.7638 71.919 67.7185H71.3002C70.7503 67.8091 70.2003 67.8998 69.6503 67.9904C69.1461 68.0811 68.642 68.1717 68.1378 68.2624C68.092 68.353 68.0233 68.421 67.9316 68.4663C68.8941 68.6929 69.6732 68.8063 70.269 68.8063C70.8648 68.8063 71.644 68.6929 72.6065 68.4663ZM25.1705 64.6591C25.3996 63.7526 25.4913 63.0047 25.4455 62.4155C25.3996 61.8263 25.285 61.2144 25.1017 60.5799C24.8726 60.8971 24.758 61.1917 24.758 61.4637C24.6663 61.781 24.5976 62.0982 24.5517 62.4155C24.5059 62.7328 24.4601 63.0274 24.4142 63.2993C24.4142 63.4353 24.4142 63.5939 24.4142 63.7752C24.4142 63.9112 24.4372 64.0245 24.483 64.1152C24.5747 64.2511 24.6663 64.3645 24.758 64.4551C24.8955 64.5004 25.033 64.5684 25.1705 64.6591ZM25.1017 56.5007C24.6892 56.3194 24.483 56.4553 24.483 56.9086C24.3913 57.4071 24.5976 57.7471 25.1017 57.9284C25.4225 57.5205 25.4225 57.0445 25.1017 56.5007ZM46.7573 26.9264C46.3906 26.9264 46.0469 26.9264 45.7261 26.9264C45.4511 26.9264 45.1302 26.9944 44.7636 27.1304C45.1302 27.221 45.4511 27.2663 45.7261 27.2663C46.0469 27.221 46.3906 27.1077 46.7573 26.9264ZM25.583 34.269C25.7204 33.8157 25.7892 33.5211 25.7892 33.3851C25.7892 33.2492 25.6746 32.9999 25.4455 32.6373C25.3996 32.9999 25.3538 33.3172 25.308 33.5891C25.308 33.8157 25.3996 34.0423 25.583 34.269ZM53.7696 69.5541C53.6779 69.5088 53.6321 69.4635 53.6321 69.4181C53.6321 69.3728 53.6091 69.3502 53.5633 69.3502C53.4258 69.3502 53.2654 69.3728 53.0821 69.4181C52.9446 69.4181 52.83 69.4635 52.7383 69.5541C52.7383 69.5994 52.7612 69.6221 52.8071 69.6221H52.9446C53.1737 69.8487 53.4029 69.8487 53.6321 69.6221H53.7696V69.5541ZM55.6257 69.4861C55.7632 69.6221 55.9237 69.6901 56.107 69.6901C56.2903 69.6448 56.4507 69.5994 56.5882 69.5541C56.4507 69.4181 56.2903 69.3502 56.107 69.3502C55.9237 69.3502 55.7632 69.3955 55.6257 69.4861ZM74.3251 50.1779C74.2335 50.0419 74.1876 49.9739 74.1876 49.9739L74.1189 50.0419C74.0731 50.0872 74.0502 50.1326 74.0502 50.1779C73.9585 50.1779 73.9585 50.2232 74.0502 50.3139C74.0502 50.4498 74.096 50.5178 74.1876 50.5178C74.2793 50.4725 74.3251 50.3592 74.3251 50.1779ZM27.9891 67.7865C28.035 67.7865 28.0579 67.7638 28.0579 67.7185C28.0579 67.5825 28.012 67.4692 27.9204 67.3785C27.7829 67.2426 27.7141 67.3105 27.7141 67.5825C27.7141 67.6731 27.7371 67.7185 27.7829 67.7185C27.7829 67.7638 27.8058 67.7865 27.8516 67.7865H27.9891ZM74.9439 64.1832C74.898 64.1378 74.8751 64.0925 74.8751 64.0472C74.8751 64.0019 74.8293 63.9565 74.7376 63.9112C74.6918 63.9565 74.6689 64.0245 74.6689 64.1152C74.6689 64.1605 74.6231 64.2285 74.5314 64.3191C74.5314 64.3645 74.5543 64.3871 74.6001 64.3871C74.646 64.3871 74.6689 64.4098 74.6689 64.4551C74.7147 64.4098 74.7606 64.3871 74.8064 64.3871C74.8522 64.3418 74.898 64.2738 74.9439 64.1832ZM25.1017 41.5436C25.0559 41.5436 25.033 41.5662 25.033 41.6115C24.9871 41.6569 24.9642 41.7022 24.9642 41.7475C24.9642 41.9741 25.0101 42.1328 25.1017 42.2234C25.1017 42.1781 25.1246 42.1328 25.1705 42.0874C25.1705 41.8155 25.1476 41.6342 25.1017 41.5436ZM25.1705 43.7871H25.1017V43.9231L25.1705 43.7871ZM74.7376 61.7356H74.8751L74.7376 61.5317V61.7356Z" fill="#2F2D2E"/>
<path d="M89.0708 12.3515C89.1707 12.8308 89.1837 13.2916 89.1097 13.7337C89.0935 14.1563 89.01 14.6178 88.8593 15.1181C88.7839 15.3683 88.7761 15.6275 88.836 15.8959C88.9148 16.1258 89.0035 16.3844 89.1021 16.6717C89.1992 16.767 89.2865 16.8336 89.364 16.8715C89.4802 16.9282 89.5675 16.9948 89.6259 17.0712C89.6837 17.0516 89.7319 17.0513 89.7706 17.0702C89.8093 17.0891 89.8576 17.0888 89.9153 17.0691C90.778 16.2949 91.7191 15.7025 92.7388 15.2919C93.7972 14.9003 94.8362 14.4992 95.8559 14.0886C96.7804 13.8708 97.6962 13.7682 98.6032 13.7809C99.4129 13.6983 100.185 13.6928 100.918 13.7643C101.671 13.7973 102.443 13.7438 103.233 13.6037C103.752 13.4271 104.225 13.443 104.651 13.6511C105.637 13.8937 106.574 14.0886 107.463 14.2358C108.39 14.402 109.289 14.578 110.158 14.7638C110.951 15.0077 111.638 15.3196 112.22 15.6995C112.859 16.0598 113.432 16.5549 113.938 17.185C114.367 17.7772 114.882 18.2919 115.483 18.7293C116.104 19.1281 116.609 19.6621 117 20.3314C116.984 20.8499 116.921 21.3689 116.809 21.8881C116.716 22.3688 116.7 22.8874 116.762 23.4438C116.747 23.9624 116.673 24.5006 116.542 25.0584C116.45 25.6351 116.319 26.1929 116.149 26.7318C116.096 27.3274 115.839 27.8477 115.379 28.2927C114.768 29.238 114.109 30.1356 113.401 30.9856C112.732 31.8545 112.102 32.6943 111.509 33.505C110.78 34.0095 110.089 34.4849 109.436 34.9312C108.783 35.3776 108.15 35.8334 107.536 36.2986C107.094 36.609 106.662 36.9001 106.24 37.172C105.836 37.4053 105.384 37.591 104.883 37.729C104.077 38.2916 103.192 38.6724 102.229 38.8713C101.304 39.0892 100.37 39.3263 99.4266 39.5827C99.3112 39.6219 99.1957 39.6612 99.0802 39.7004C98.9837 39.7011 98.8971 39.7305 98.8203 39.7887C97.5275 39.7787 96.2734 39.7877 95.058 39.8156C93.8617 39.805 92.6354 39.6602 91.3792 39.3812C89.3696 38.9731 87.3627 38.9491 85.3587 39.3091C84.8186 39.3322 84.2884 39.384 83.768 39.4645C83.3054 39.5255 82.8234 39.5769 82.322 39.6189C81.5502 39.6244 80.8179 39.7449 80.125 39.9803C79.4511 40.1772 78.7582 40.4125 78.0463 40.6865C77.3153 40.999 76.7206 41.4737 76.2621 42.1106C76.0516 42.3426 75.8604 42.584 75.6885 42.8348C75.5357 43.0471 75.3245 43.1831 75.0548 43.2426C74.6513 43.4759 74.2963 43.7569 73.99 44.0855C73.6837 44.4142 73.3386 44.7239 72.9548 45.0147C72.3767 45.1148 72.0102 45.127 71.8552 45.0513C71.7003 44.9756 71.4662 44.6221 71.153 43.9907C71.1692 43.5681 71.2242 43.1645 71.3178 42.7797C71.4693 42.3754 71.5528 41.914 71.5683 41.3954C71.6036 40.9343 71.6099 40.483 71.5874 40.0415C71.6227 39.5804 71.6386 39.1098 71.6351 38.6298C71.6908 38.3222 71.7366 37.9858 71.7725 37.6207C71.8275 37.2171 71.8923 36.8422 71.967 36.496C71.8269 35.8057 71.6006 35.1929 71.288 34.6574C71.0141 34.1409 70.6632 33.6346 70.2351 33.1384C69.4958 32.2988 68.766 31.44 68.0458 30.5618C67.3832 29.6641 66.6918 28.7761 65.9716 27.898C65.5245 27.4403 65.1735 26.934 64.9186 26.379C64.7215 25.8043 64.3994 25.2882 63.9523 24.8305C63.8334 24.3897 63.676 23.978 63.4803 23.5954C63.3233 23.2316 63.166 22.8199 63.0083 22.3602C62.8506 21.9005 62.6739 21.4793 62.4782 21.0967C62.3402 20.6944 62.135 20.331 61.8625 20.0065C61.4542 19.5678 61.1419 19.0804 60.9258 18.5443C60.7097 18.0082 60.503 17.4528 60.3059 16.8782C60.1476 16.3224 60.0469 15.7471 60.004 15.1521C59.9801 14.5186 60.0626 13.9132 60.2514 13.3357C60.4035 13.0274 60.4789 12.7773 60.4775 12.5852C60.4318 11.6063 60.5695 10.6452 60.8907 9.70195C61.2309 8.7202 61.6479 7.6803 62.1416 6.58224C63.062 5.78835 64.0208 4.96538 65.018 4.11334C66.0151 3.2613 67.0412 2.39945 68.0961 1.52778C68.8651 1.13823 69.6826 0.796331 70.5488 0.50209C70.8755 0.326927 71.2315 0.18996 71.6167 0.091189C72.0596 -0.0272002 72.4937 -0.0303123 72.919 0.0818527C73.3246 0.136551 73.7492 0.152709 74.1928 0.130327C74.6364 0.107945 75.08 0.0855628 75.5237 0.0631808C76.3341 0.0765721 77.1158 0.0997725 77.8685 0.132782C78.66 0.184714 79.4039 0.332998 80.1003 0.577635C80.4481 0.651949 80.7572 0.707339 81.0276 0.743806C81.298 0.780271 81.5783 0.845469 81.8684 0.939401C82.5451 1.12657 83.1643 1.38136 83.7262 1.70377C84.3071 1.98764 84.8598 2.37732 85.3844 2.87282C85.521 3.08306 85.6959 3.26423 85.9093 3.41632C86.1226 3.5684 86.3068 3.6823 86.4617 3.758C86.7355 4.27449 86.7967 4.73491 86.6453 5.13924C86.5129 5.50503 86.4386 5.8992 86.4223 6.32177C86.4808 6.39816 86.5005 6.45562 86.4815 6.49416C86.4625 6.5327 86.4723 6.56143 86.511 6.58036C86.6286 6.82914 86.7655 7.08739 86.9218 7.3551C87.1359 7.6032 87.3503 7.89929 87.565 8.24339C87.6248 8.5118 87.7139 8.81839 87.8321 9.16318C88.0081 9.48836 88.1074 9.87169 88.1299 10.3132C88.1904 10.6776 88.328 11.0318 88.5428 11.3759C88.7765 11.6815 88.9525 12.0067 89.0708 12.3515ZM73.266 16.0364C73.7293 16.0714 74.0279 16.0021 74.1617 15.8283C74.3145 15.616 74.4283 15.3368 74.503 14.9906C74.9079 14.9493 75.1293 14.8901 75.1673 14.813C75.2441 14.7548 75.291 14.5625 75.3079 14.2359C74.9234 14.4307 74.6653 14.759 74.5336 15.2208C74.0688 14.9937 73.722 15.0634 73.4932 15.4299C73.4361 15.5455 73.3791 15.6611 73.322 15.7767C73.3227 15.8727 73.304 15.9593 73.266 16.0364L73.0917 15.9512C73.034 15.9708 72.9858 15.9712 72.947 15.9522L72.9185 16.0101C72.9389 16.1635 73.0547 16.1723 73.266 16.0364ZM99.7451 23.5946C100.092 23.4769 100.274 23.3988 100.293 23.3603C100.562 23.2047 100.561 23.0607 100.29 22.9282L100.119 23.2751C99.9838 23.2569 99.8496 23.3826 99.7165 23.6524C99.6391 23.6146 99.5328 23.5865 99.3976 23.5683C99.3011 23.569 99.2634 23.6941 99.2845 23.9436C99.3613 23.8854 99.438 23.8272 99.5148 23.7691C99.5915 23.7109 99.6683 23.6528 99.7451 23.5946ZM79.666 24.545C79.5878 24.4112 79.5005 24.3446 79.404 24.3453C79.3076 24.346 79.2403 24.3849 79.2023 24.462C79.0311 24.8088 78.9748 25.0205 79.0332 25.0968C78.9952 25.1739 79.005 25.2027 79.0628 25.183C79.1783 25.1438 79.274 25.0471 79.3501 24.893C79.4642 24.6617 79.598 24.4879 79.7515 24.3716C79.9248 24.3128 80.1075 24.2346 80.2997 24.1373C80.4152 24.098 80.492 24.0399 80.53 23.9628C80.5681 23.8857 80.5578 23.809 80.4994 23.7326C80.3255 23.6954 80.2005 23.7539 80.1244 23.9081C79.9709 24.0244 79.8945 24.1306 79.8952 24.2266C79.8959 24.3226 79.8195 24.4287 79.666 24.545ZM89.1384 33.6942C88.8497 33.7923 88.5617 33.9864 88.2744 34.2764C88.0258 34.5855 87.7867 34.8752 87.5571 35.1457C87.5958 35.1646 87.6254 35.2508 87.6458 35.4043C87.6852 35.5192 87.7437 35.5956 87.8211 35.6334C88.0148 35.7281 88.2563 35.7743 88.5457 35.7723C88.8541 35.7317 89.1041 35.6146 89.2957 35.4213C89.4464 34.9209 89.5116 34.594 89.4911 34.4405C89.5095 34.306 89.3919 34.0572 89.1384 33.6942ZM84.49 11.261C84.4323 11.2806 84.3654 11.3675 84.2893 11.5216C84.29 11.6176 84.2717 11.7522 84.2343 11.9253C84.197 12.0984 84.1692 12.2522 84.1508 12.3867C84.2487 12.5781 84.2976 12.6737 84.2976 12.6737C84.3941 12.673 84.5001 12.6531 84.6156 12.6138C84.7501 12.5361 84.8268 12.4779 84.8458 12.4394C84.979 12.1696 85.0353 11.9579 85.0149 11.8045C85.0332 11.6699 84.9164 11.5171 84.6643 11.3461L84.49 11.261ZM84.0821 34.8826C84.1195 34.7095 84.1181 34.5175 84.078 34.3065C84.0956 34.076 84.0266 33.8748 83.871 33.7031C83.852 33.7417 83.8231 33.7515 83.7844 33.7326L83.7263 33.7042C83.6305 33.8009 83.5347 33.8976 83.439 33.9943C83.3622 34.0524 83.334 34.1582 83.3544 34.3117C83.2213 34.5815 83.1551 34.7644 83.1558 34.8604C83.4466 35.0503 83.7554 35.0577 84.0821 34.8826ZM71.3604 28.6658C71.321 28.5509 71.3009 28.4454 71.3002 28.3494C71.3573 28.2338 71.3566 28.1378 71.2981 28.0614C71.22 27.9276 71.0943 27.8901 70.9211 27.9489C70.7478 28.0078 70.594 28.0761 70.4595 28.1538C70.3264 28.4236 70.376 28.6153 70.6084 28.7288C70.6675 28.9012 70.7837 28.958 70.9569 28.8992C71.1688 28.8592 71.3034 28.7815 71.3604 28.6658ZM66.2193 22.1356C66.2573 22.0585 66.3531 21.9618 66.5066 21.8455C66.6601 21.7292 66.7654 21.6132 66.8225 21.4976C66.7633 21.3252 66.4532 21.1258 65.892 20.8994C65.6828 21.3233 65.7919 21.7354 66.2193 22.1356ZM74.2051 25.8227C73.9925 25.7667 73.771 25.8258 73.5407 26.0003C73.4633 25.9625 73.396 26.0014 73.339 26.117C73.3009 26.1941 73.2918 26.2613 73.3115 26.3188C73.3502 26.3377 73.3601 26.3665 73.3411 26.405C73.4185 26.4428 73.5248 26.4709 73.66 26.4891C73.7952 26.5074 73.9009 26.4394 73.9769 26.2852C74.0347 26.2656 74.0632 26.2078 74.0625 26.1118C74.1195 25.9962 74.1671 25.8998 74.2051 25.8227ZM74.7033 18.676C74.7413 18.5989 74.741 18.5509 74.7022 18.532C74.7022 18.532 74.7118 18.5127 74.7308 18.4741C74.673 18.4938 74.6156 18.5614 74.5586 18.677C74.4818 18.7352 74.4339 18.7835 74.4149 18.822C74.3959 18.8606 74.4058 18.8893 74.4445 18.9082L74.5607 18.965L74.7033 18.676ZM76.1705 17.4557C76.1311 17.3408 76.1304 17.2448 76.1684 17.1677L76.197 17.1099C76.1582 17.091 76.11 17.0913 76.0522 17.1109C76.0332 17.1495 75.985 17.1498 75.9075 17.112C75.8505 17.2276 75.8223 17.3334 75.823 17.4294C75.8624 17.5443 75.9205 17.5727 75.9973 17.5146L76.0258 17.4567C76.0258 17.4567 76.074 17.4564 76.1705 17.4557ZM68.2312 24.195C68.2692 24.1179 68.3171 24.0695 68.3749 24.0499C68.4326 24.0303 68.4228 24.0016 68.3453 23.9637C68.4214 23.8096 68.44 23.723 68.4013 23.7041C68.3633 23.7812 68.2865 23.8393 68.171 23.8786C68.0943 23.9367 67.9982 23.9854 67.8827 24.0247C67.8637 24.0632 67.9319 24.1683 68.0875 24.34C68.1066 24.3015 68.1161 24.2822 68.1161 24.2822C68.1548 24.3011 68.1932 24.2721 68.2312 24.195ZM86.2012 31.7566C86.1632 31.8337 86.1153 31.882 86.0576 31.9017C86.0386 31.9402 86.01 31.998 85.972 32.0751L85.9435 32.1329C85.9245 32.1714 85.915 32.1907 85.915 32.1907C85.9537 32.2096 85.9635 32.2384 85.9445 32.2769C85.9826 32.1998 86.0209 32.1708 86.0597 32.1897C86.1371 32.2275 86.1854 32.2272 86.2044 32.1886L86.3185 31.9574C86.3565 31.8803 86.3273 31.8421 86.2308 31.8428C86.1731 31.8624 86.1632 31.8337 86.2012 31.7566ZM72.6161 30.2122L72.502 30.4435L72.7629 30.4992L72.6161 30.2122ZM65.2436 19.291L65.2721 19.2332L65.0398 19.1197L65.2436 19.291ZM70.7365 14.4415L70.8516 14.3543L70.5907 14.2985L70.7365 14.4415Z" fill="#2F2D2E"/>
<path d="M12.3562 84.86C11.5179 84.1443 10.8466 83.5912 10.3422 83.2008C9.83784 82.8104 9.34939 82.5085 8.87687 82.2951C8.40436 82.0817 7.84297 81.9333 7.1927 81.8498C6.54243 81.7664 5.64341 81.6538 4.49566 81.5123C3.28777 80.9192 2.28951 80.3731 1.50089 79.8742C1.05695 79.408 0.67167 78.9147 0.345038 78.3944C0.0397629 77.8163 -0.0629414 77.2166 0.0369255 76.5954C0.0549803 76.1078 0.195599 75.6835 0.458782 75.3224C0.721966 74.9614 1.07042 74.6329 1.50414 74.337C1.84191 74.0374 2.30045 73.8498 2.87974 73.7743C3.44128 73.6591 3.99396 73.5239 4.53776 73.369C6.08013 73.2326 7.45918 72.8362 8.67492 72.1795C9.89066 71.5228 11.039 70.6097 12.12 69.44C12.2554 68.8983 12.4298 68.3386 12.6434 67.7608C12.8961 67.1649 13.1114 66.5384 13.2895 65.8811C13.4212 65.4369 13.5423 65.0216 13.6527 64.6352C13.8022 64.2307 13.8539 63.8713 13.8079 63.5571C13.7303 62.5384 13.8251 61.5361 14.0922 60.5502C14.3416 59.5245 14.4275 58.5024 14.3499 57.4837C14.1977 56.4036 14.3102 55.4411 14.6874 54.5961C15.1037 53.7331 15.7012 52.9063 16.4799 52.1157C16.5936 52.1591 16.7552 52.2044 16.9649 52.2515C17.1959 52.2408 17.4269 52.2301 17.6579 52.2194C18.6062 53.076 19.5545 53.9326 20.5028 54.7893C21.4725 55.5881 22.4315 56.4159 23.3799 57.2725C23.8842 57.6629 24.3477 58.1201 24.7703 58.6441C25.1929 59.1681 25.6155 59.6921 26.038 60.2161C26.4606 60.7401 26.9134 61.2262 27.3965 61.6744C27.9186 62.1045 28.5207 62.4499 29.2029 62.7103C29.3984 62.6202 29.6205 62.5896 29.8693 62.6186C30.1003 62.6079 30.3544 62.4907 30.6317 62.2669C31.6129 61.7185 32.6686 61.2315 33.7989 60.806C34.9506 60.3227 36.0986 59.9369 37.2431 59.6486C38.1565 59.371 38.9898 59.442 39.743 59.8614C40.5174 60.2231 41.0874 60.9188 41.4528 61.9484C41.6303 62.3458 41.6921 63.0123 41.6382 63.9478C41.0902 65.255 40.4817 66.638 39.8127 68.0969C39.1261 69.516 38.4873 70.937 37.8966 72.3598C37.4162 73.3961 37.1776 74.3929 37.1806 75.3501C37.1835 76.3073 37.4371 77.2448 37.9412 78.1625C38.7929 80.0702 39.9629 81.6873 41.4511 83.0138C41.9946 83.3862 42.4706 83.7658 42.879 84.1525C43.3266 84.5212 43.7937 84.8809 44.2803 85.2315C45.0617 85.9255 45.2068 86.937 44.7156 88.2659C44.2392 88.6774 43.7077 89.0184 43.1212 89.289C42.5169 89.5198 41.8754 89.7198 41.1965 89.8892C40.5568 90.0405 39.8886 90.181 39.192 90.3106C38.5168 90.3824 37.8309 90.4831 37.1343 90.6127C35.8584 90.8179 34.5577 90.9146 33.2322 90.903C31.9458 90.8733 30.67 90.8147 29.405 90.7273C29.0495 90.9871 28.7046 91.2181 28.3705 91.4201C28.0363 91.6222 27.7306 91.8351 27.4532 92.0589C26.2158 93.3007 24.9678 94.5714 23.709 95.871C22.4502 97.1705 21.1826 98.4502 19.9061 99.7101C18.7078 100.934 17.4084 101.773 16.008 102.227C15.667 102.097 15.3827 101.988 15.1553 101.901C14.9671 101.797 14.7983 101.683 14.6492 101.56C14.5213 101.379 14.3953 101.15 14.2711 100.872C14.1291 100.554 13.9339 100.116 13.6855 99.56C13.7854 98.9388 13.8675 98.2778 13.9319 97.5771C13.9962 96.8764 13.9931 96.1829 13.9224 95.4966C13.905 94.9295 13.8396 94.3606 13.7262 93.7898C13.5951 93.1793 13.5208 92.5905 13.5034 92.0234C13.3371 90.806 13.1601 89.6175 12.9724 88.458C12.767 87.2586 12.5616 86.0593 12.3562 84.86ZM18.346 96.6913C17.8702 96.048 17.2254 95.8183 16.4115 96.002C16.4818 97.2157 16.7125 97.7323 17.1035 97.552C17.3345 97.5413 17.5585 97.4619 17.7753 97.314C18.0135 97.1082 18.2038 96.9007 18.346 96.6913Z" fill="#2F2D2E"/>
</svg>
