<svg width="86" height="94" viewBox="0 0 86 94" fill="none" xmlns="http://www.w3.org/2000/svg">
<path d="M39.4122 94C38.4287 93.7129 37.5412 93.3599 36.7496 92.9408C35.9136 92.5807 35.2706 91.9035 34.8206 90.9094C34.2188 90.7283 33.6392 90.5176 33.0819 90.2775C32.48 90.0963 31.8934 89.8339 31.322 89.4901C30.8091 89.1911 30.3032 88.9439 29.8044 88.7485C29.2471 88.5084 28.6897 88.2683 28.1323 88.0282C27.781 87.7598 27.4964 87.4029 27.2785 86.9577C26.8382 86.8071 26.4495 86.6494 26.1122 86.4846C25.775 86.3198 25.4378 86.155 25.1005 85.9902C24.3979 85.4533 24.1588 84.8526 24.3834 84.1881C24.3737 83.3446 24.7386 82.5552 25.4782 81.8198C25.6702 81.6878 25.8621 81.5557 26.0541 81.4237C26.143 81.3059 26.2905 81.2328 26.4965 81.2044C27.9876 80.2072 29.1637 79.0157 30.0248 77.63C30.2753 77.5427 30.438 77.3883 30.5128 77.1668C30.5432 77.0042 30.6836 76.8793 30.9341 76.792C32.4274 75.4249 33.7744 73.9459 34.9749 72.355C36.1169 70.7195 37.3326 69.0473 38.6221 67.3386C38.8444 67.044 39.0445 66.7789 39.2223 66.5432C39.3416 66.2628 39.4902 66.0047 39.6681 65.769C40.7026 64.8874 41.5979 63.9458 42.3537 62.9442C43.0066 61.9567 43.711 60.9621 44.4669 59.9605C45.2369 59.0625 45.9998 58.1127 46.7557 57.1111C47.4086 56.1236 48.0099 55.1432 48.5598 54.1699C49.2571 53.1235 49.9837 52.0995 50.7396 51.0979C51.4955 50.0962 52.3393 49.1617 53.2708 48.2943C54.069 47.6036 54.7793 46.8458 55.4018 46.021C56.1132 45.0782 56.9125 44.2026 57.7996 43.3941C58.2724 43.0122 58.7311 42.5267 59.1758 41.9375C59.5759 41.4072 59.9246 40.884 60.2218 40.3679C60.5775 39.8965 60.9332 39.4252 61.2889 38.9538C61.5861 38.4377 61.9125 37.944 62.2682 37.4726C63.0545 36.3084 63.9649 35.2855 64.9995 34.4039C65.9755 33.4775 66.9445 32.4994 67.9064 31.4694C68.3206 31.0428 68.7349 30.6161 69.1492 30.1895C69.5049 29.7181 69.9777 29.3363 70.5676 29.0439L72.422 28.7887C73.1431 28.6894 73.7249 28.5302 74.1673 28.3109C74.741 28.2847 75.2468 28.5319 75.6849 29.0524C76.6217 29.7683 77.4941 30.2027 78.3019 30.3555C79.5197 30.8215 80.597 31.4125 81.5338 32.1284C82.4566 32.7406 83.3419 33.4636 84.1899 34.2973C84.745 34.9073 85.1972 35.5315 85.5463 36.1698C85.7501 36.5114 85.8661 36.7858 85.8943 36.9932C85.878 37.2594 85.9133 37.5186 86 37.7706C85.6888 38.1831 85.4149 38.4848 85.1785 38.6757C84.8087 39.0434 84.4834 39.3522 84.2025 39.602C83.8772 39.9108 83.5225 40.1972 83.1386 40.4613C83.0497 40.5791 82.9386 40.7264 82.8052 40.9032C82.6718 41.0799 82.4798 41.212 82.2293 41.2992C81.0636 41.9877 80.1098 42.8846 79.368 43.9899C78.5676 45.0504 77.738 46.0886 76.8791 47.1045C75.8423 48.356 74.8571 49.6004 73.9233 50.8377C72.9451 52.1339 72.0032 53.5044 71.0976 54.949C70.8449 55.4062 70.4377 55.8847 69.876 56.3844C69.2557 56.8394 68.7232 57.3615 68.2786 57.9507C67.7754 58.4951 67.353 59.0549 67.0113 59.6299C66.4778 60.337 65.9957 61.0369 65.5651 61.7298C65.0901 62.4816 64.5788 63.1591 64.0311 63.7625C63.6006 64.4554 63.1559 65.0446 62.6972 65.5301C62.2385 66.0157 61.7353 66.5601 61.1876 67.1635C60.2561 68.0309 59.4194 69.0173 58.6776 70.1226C57.8772 71.1832 57.0769 72.2437 56.2765 73.3043C55.654 74.1292 55.0608 74.9764 54.4969 75.8461C53.8744 76.671 53.2811 77.5182 52.7172 78.3878C51.842 79.6699 50.8204 80.8401 49.6525 81.8985C49.0462 82.4571 48.543 83.0016 48.1429 83.5319C47.7427 84.0622 47.3273 84.6737 46.8968 85.3666C46.424 85.7485 46.0612 86.168 45.8085 86.6252C45.5113 87.1413 45.0971 87.5679 44.5657 87.9051C44.0343 88.2422 43.6716 88.6617 43.4774 89.1636C43.2388 89.7245 43.0002 90.2853 42.7616 90.8462C42.2659 92.604 41.1495 93.6553 39.4122 94ZM58.7632 55.6961C58.7025 56.0213 58.7377 56.2805 58.8689 56.4736C58.8971 56.6809 58.896 56.8659 58.8656 57.0285C58.9664 57.3842 58.9794 57.6728 58.9046 57.8943C58.9468 58.2053 58.9013 58.4492 58.7679 58.626C58.5293 59.1868 58.2473 59.6216 57.922 59.9304C57.4936 60.2534 57.0078 60.3466 56.4645 60.2102C56.1414 60.1491 55.8405 60.0585 55.5618 59.9384C55.2831 59.8184 54.9378 59.7867 54.5257 59.8434C52.847 60.2328 51.6374 59.6337 50.8969 58.046C50.7516 57.7491 50.5911 57.5336 50.4155 57.3994C50.1064 57.4419 49.8782 57.4997 49.7307 57.5728C49.6255 57.9569 49.5132 58.2892 49.3939 58.5696C49.2161 58.8053 49.2068 59.1234 49.3662 59.5238C49.659 59.7476 49.974 59.9418 50.3112 60.1066C50.5454 60.2856 50.8159 60.5387 51.1228 60.8661C51.6357 61.1651 51.9789 61.5667 52.1523 62.0709C52.2228 62.5892 52.1094 63.1064 51.8123 63.6225C51.1898 64.4474 51.1702 65.2685 51.7535 66.0858C51.9737 66.1611 52.1423 66.2435 52.2594 66.333C52.332 66.4814 52.4339 66.6522 52.5651 66.8454C52.7668 67.5568 52.6019 68.0811 52.0705 68.4182C51.6422 68.7412 51.1856 68.8568 50.7009 68.7651C50.3333 68.7629 49.988 68.7313 49.6648 68.6701C49.2972 68.6679 48.9518 68.6362 48.6287 68.5751C47.8468 68.9995 47.0964 69.0764 46.3775 68.8057C45.6586 68.5351 44.977 68.1537 44.333 67.6615C44.0987 67.4825 43.8938 67.3259 43.7181 67.1917C43.5425 67.0575 43.2931 66.9598 42.9699 66.8987C42.9233 67.3275 42.8999 67.5419 42.8999 67.5419C43.1601 68.2981 43.5912 68.7668 44.193 68.948C44.5443 69.2164 44.83 69.3883 45.0501 69.4636C45.254 69.8052 45.4871 70.1691 45.7495 70.5554C45.9533 70.8969 45.936 71.3482 45.6973 71.909C45.0185 72.3192 43.9964 72.3279 42.6312 71.935C42.268 71.1929 41.5513 70.5524 40.481 70.0132L39.7084 70.1196C39.5891 70.4 39.4628 70.6286 39.3294 70.8054C39.1515 71.041 38.9959 71.2473 38.8625 71.424C38.6846 71.6597 38.6168 71.933 38.6591 72.244C38.7014 72.555 38.8548 72.7187 39.1194 72.7351C39.7353 73.0199 40.3067 73.3637 40.8337 73.7664C41.2577 74.1832 41.8736 74.4681 42.6815 74.6209C44.0326 74.9102 44.7401 75.8688 44.8039 77.4969C44.7432 77.822 44.6532 78.1248 44.5339 78.4052C44.356 78.6409 44.1852 78.9284 44.0214 79.2678C43.888 79.4445 43.6961 79.5766 43.4456 79.6638C43.1506 79.81 42.9153 79.816 42.7397 79.6818C42.5054 79.5028 42.2783 79.3757 42.0581 79.3004C41.7795 79.1803 41.523 79.0308 41.2888 78.8518C41.0546 78.6729 40.8941 78.4574 40.8074 78.2053C40.6621 77.9085 40.4572 77.7519 40.1926 77.7355C39.3847 77.5827 38.7102 77.2531 38.1692 76.7467C37.5251 76.2546 36.7921 75.8802 35.9701 75.6237C35.8671 75.6379 35.7711 75.7039 35.6822 75.8218C35.4903 75.9538 35.4154 76.1753 35.4577 76.4863C35.5 76.7973 35.5433 76.9233 35.5878 76.8644C36.0258 77.3849 36.5528 77.7876 37.1687 78.0724C37.7846 78.3573 38.2672 78.8189 38.6163 79.4573C38.6867 79.9756 38.7349 80.5233 38.7609 81.1006C38.7425 81.7367 38.8785 82.3516 39.1691 82.9452C39.0942 83.1667 39.0194 83.3883 38.9445 83.6098C38.8252 83.8902 38.7504 84.1117 38.72 84.2743C38.3806 84.4794 38.0856 84.6256 37.8351 84.7129C37.4816 84.8143 37.114 84.8121 36.7323 84.7062C36.4092 84.6451 36.1375 84.5769 35.9174 84.5016C35.6387 84.3815 35.3308 84.2391 34.9936 84.0743C34.7734 83.999 34.5826 83.9461 34.421 83.9155C34.215 83.9438 34.0312 83.9427 33.8696 83.9122C33.4998 84.2799 33.3138 84.6487 33.3116 85.0186C33.2064 85.4027 33.1597 85.8315 33.1716 86.3051C33.2443 86.4535 33.3169 86.6019 33.3895 86.7503C33.4622 86.8987 33.5571 87.0177 33.6742 87.1071C35.0394 87.5001 36.3742 88.0556 37.6787 88.7737C38.2057 89.1764 38.9479 89.2326 39.9055 88.9424C40.6548 89.0505 41.3033 88.8029 41.8509 88.1995C42.7684 87.2284 43.6799 86.0205 44.5855 84.5759C45.6808 83.3691 46.6145 82.1318 47.3867 80.8639C48.0114 79.6691 48.7884 78.8229 49.7178 78.3254C49.9987 78.0756 50.2503 77.8033 50.4726 77.5087C50.6504 77.2731 50.8283 77.0374 51.0061 76.8017C51.9399 75.5644 52.8666 74.2752 53.7863 72.9342C54.6614 71.6521 55.5882 70.363 56.5664 69.0667C56.9221 68.5954 57.2485 68.1016 57.5457 67.5855C57.8428 67.0694 58.2278 66.6204 58.7006 66.2386C59.5433 65.489 60.3496 64.6652 61.1195 63.7672C61.831 62.8245 62.601 61.9265 63.4295 61.0733C63.7407 60.6608 64.0298 60.2778 64.2965 59.9243C64.5048 59.5261 64.72 59.1796 64.9424 58.885C65.6701 57.676 66.4271 56.4895 67.2133 55.3252C67.8966 54.1752 68.7777 53.1299 69.8568 52.1894C70.1962 51.9842 70.4548 51.7639 70.6327 51.5282C70.7661 51.3514 70.8772 51.2041 70.9662 51.0863C71.5301 50.2166 72.1081 49.4507 72.7003 48.7884C73.2338 48.0813 73.7089 47.3295 74.1253 46.533C74.6144 45.8849 75.0813 45.2662 75.5259 44.677C75.9706 44.0878 76.496 43.5139 77.1022 42.9553C77.5751 42.5734 77.9671 42.1762 78.2783 41.7638C78.5451 41.4103 78.8564 40.9978 79.2121 40.5264C79.3758 40.1871 79.5396 39.8478 79.7034 39.5084C79.7641 39.1833 79.942 38.9476 80.237 38.8014C80.7098 38.4195 81.0362 37.9258 81.2163 37.3202C81.3519 36.7735 81.4582 36.2045 81.5352 35.613C81.2728 35.2267 81.0245 34.9441 80.7903 34.7651C80.5279 34.3788 80.1473 34.088 79.6485 33.8927C78.9155 33.5183 78.2188 33.2182 77.5584 32.9923C76.898 32.7664 76.1861 32.5475 75.4227 32.3358C74.7624 32.1099 73.903 31.9641 72.8447 31.8986C72.1539 31.8352 71.6881 32.2689 71.4473 33.1997C71.5926 33.4965 71.7672 33.8157 71.971 34.1572C72.1748 34.4988 72.3272 34.8474 72.428 35.2032C72.66 35.7521 73.0477 36.0947 73.5909 36.2312C74.1342 36.3676 74.5218 36.7103 74.7539 37.2591C74.768 37.3628 74.8113 37.4888 74.884 37.6372C74.898 37.7409 74.8899 37.874 74.8595 38.0366C74.9137 38.8212 74.7266 39.3749 74.2982 39.6979C73.8699 40.0208 73.3548 40.0917 72.753 39.9105C72.4298 39.8494 72.1289 39.7588 71.8502 39.6388C71.513 39.474 71.1313 39.3681 70.7052 39.3212C70.3657 39.5263 69.99 39.6572 69.5779 39.7139C69.0628 39.7848 68.5689 40.0112 68.096 40.393C68.1665 40.9114 68.0754 41.3991 67.8227 41.8563C67.4669 42.3277 67.1405 42.8214 66.8434 43.3375C66.6514 43.4695 66.4361 43.816 66.1975 44.3768C66.1086 44.4946 66.1005 44.6278 66.1731 44.7762C66.1872 44.8798 66.1498 44.9906 66.0608 45.1084C66.3091 45.3911 66.5282 45.6513 66.7179 45.8892C66.8491 46.0824 67.0096 46.2979 67.1993 46.5358C67.3706 47.4098 67.1602 48.178 66.5681 48.8403C66.2123 49.3117 65.6528 49.4415 64.8894 49.2297C64.5663 49.1686 64.3087 49.204 64.1168 49.3361C63.6017 49.4069 63.1451 49.5226 62.7472 49.6829C62.2906 49.7986 61.8341 49.9142 61.3776 50.0298C61.2723 50.4139 61.2116 50.7391 61.1953 51.0053C61.076 51.2858 60.8466 51.5285 60.5072 51.7337C60.1678 51.9388 59.9747 52.2557 59.9281 52.6846C59.8229 53.0687 59.6005 53.3633 59.2611 53.5684C59.0692 53.7004 58.8187 53.7877 58.5096 53.8302C58.0975 53.8869 57.833 53.8705 57.7158 53.781C57.3786 53.6162 57.0929 53.4444 56.8587 53.2654C56.6245 53.0864 56.3387 52.9145 56.0015 52.7498C55.8844 52.6603 55.7158 52.5779 55.4957 52.5026C55.2755 52.4273 55.1069 52.3449 54.9898 52.2554C55.018 52.4627 55.0391 52.6182 55.0532 52.7219C54.9643 52.8397 54.9561 52.9728 55.0288 53.1212C55.701 53.8207 56.2058 54.2529 56.543 54.4177C56.9388 54.6272 57.3053 54.8144 57.6426 54.9791C57.9353 55.2029 58.3089 55.4419 58.7632 55.6961Z" fill="#2F2D2E"/>
<path d="M1.31083 15.905C1.07915 15.4669 0.886083 15.1018 0.731631 14.8097C0.575315 14.4436 0.419 14.0776 0.262684 13.7115C0.0989144 13.0496 0.158437 12.4931 0.441253 12.0418C0.724068 11.5905 0.934317 11.1781 1.072 10.8046C1.25523 9.31979 1.4045 7.94685 1.51982 6.68579C1.70677 5.34889 1.85884 4.08689 1.97602 2.89979C2.68865 1.99353 3.30408 1.60779 3.8223 1.74259C5.07551 1.85863 6.28918 1.86466 7.4633 1.7607C8.63556 1.58278 9.85109 1.66278 11.1099 2.0007C11.5546 2.13737 11.9965 2.1631 12.4357 2.07789C12.9464 1.91684 13.46 1.86673 13.9764 1.92757C14.3439 1.91819 14.7132 1.98277 15.0844 2.12132C15.4538 2.1859 15.8241 2.28747 16.1953 2.42601C16.3442 2.49622 16.5288 2.52851 16.7493 2.52289C17.115 2.43955 17.5183 2.39225 17.9593 2.381C18.4738 2.36788 18.9497 2.28173 19.3869 2.12256C20.4066 1.72651 21.3574 1.51724 22.2394 1.49474C23.1214 1.47223 24.0053 1.52369 24.891 1.64911C25.9841 1.25118 27.0443 1.00211 28.0714 0.901903C29.1702 0.725858 30.2378 0.772629 31.2742 1.04222C32.2316 1.0918 33.1484 0.994397 34.0248 0.750015C35.052 0.649804 36.1489 0.399799 37.3155 0C38.1315 0.275212 38.873 0.515317 39.5401 0.720316C40.2807 0.923445 41.0222 1.16355 41.7646 1.44064C42.3582 1.64751 42.8443 1.96814 43.223 2.40253C43.5998 2.76295 43.9041 3.16222 44.1357 3.60035C44.5293 4.62641 44.8485 5.61736 45.0932 6.57321C45.3379 7.52906 45.3998 8.52657 45.2789 9.56576C45.3255 11.4147 45.4079 13.2258 45.5261 14.999C45.6444 16.7721 45.6533 18.5851 45.5528 20.4378C45.4961 21.1053 45.4385 21.7358 45.3799 22.3294C45.3948 22.9211 45.3371 23.5516 45.2069 24.221C44.9558 25.9295 44.8525 27.6713 44.8973 29.4464C44.942 31.2214 45.1751 33.1766 45.5967 35.3121C45.2683 36.8746 45.1255 38.5064 45.1684 40.2075C45.2113 41.9085 45.1806 43.6115 45.0765 45.3163C45.0895 45.834 45.0668 46.3896 45.0082 46.9832C45.0212 47.5009 44.9608 48.0205 44.8268 48.542C44.6984 49.2853 44.6426 49.9898 44.6594 50.6554C44.6762 51.3211 44.7674 52.0218 44.933 52.7577C45.0968 53.4195 45.1512 54.1212 45.0964 54.8627C45.0415 55.6042 44.948 56.2726 44.816 56.868C44.6857 57.5374 44.5922 58.2059 44.5355 58.8734C44.4769 59.4669 44.3825 60.0984 44.2523 60.7678C44.1202 61.3632 44.0249 61.9577 43.9663 62.5513C43.9812 63.1429 43.9961 63.7346 44.011 64.3263C44.0371 65.3617 44.0246 66.3241 43.9734 67.2135C43.9958 68.101 44.02 69.0625 44.0461 70.0979C44.0554 70.4677 44.0657 70.8745 44.0768 71.3183C44.0862 71.6881 44.022 72.0597 43.8843 72.4333C43.569 74.5135 42.4633 75.8739 40.5672 76.5143C39.3271 76.916 38.085 77.2437 36.8411 77.4974C35.6689 77.6754 34.4599 77.8542 33.2141 78.034C32.9936 78.0396 32.7354 78.0092 32.4396 77.9428C32.1437 77.8763 31.812 77.8478 31.4445 77.8571C31.1505 77.8646 30.8584 77.9461 30.5681 78.1015C30.276 78.183 29.948 78.3023 29.5843 78.4596C28.4706 78.044 27.3249 77.8142 26.147 77.7703C25.0408 77.6505 23.8997 77.6056 22.7237 77.6356C21.6966 77.7358 20.6685 77.799 19.6395 77.8253C18.6822 77.7757 17.69 77.801 16.6628 77.9012C16.1483 77.9144 15.6725 78.0005 15.2352 78.1597C14.7979 78.3188 14.2504 78.4808 13.5926 78.6456C13.1479 78.5089 12.5543 78.3021 11.8119 78.025C11.2974 78.0381 10.8196 78.0503 10.3787 78.0615C9.93766 78.0728 9.46178 78.1589 8.95101 78.32C8.29138 78.4108 7.66943 78.5377 7.08517 78.7006C6.5744 78.8617 6.02689 79.0237 5.44262 79.1866C4.86394 79.5714 4.46715 79.8775 4.25225 80.105C4.03548 80.2586 3.81777 80.3751 3.59914 80.4547C3.45587 80.6064 3.3126 80.7581 3.16933 80.9097L2.17709 80.935C1.5891 80.95 1.28671 80.6247 1.26994 79.9591C1.16104 78.5557 1.01631 77.1903 0.835773 75.8628C0.726867 74.4594 0.543531 73.021 0.285764 71.5474C0.123858 70.9595 0.0354509 70.3697 0.0205431 69.778C0.00563521 69.1863 0.0642265 68.5928 0.196317 67.9973C0.581407 65.7673 0.746 63.5429 0.690095 61.3241L0.346282 47.6786C0.156424 45.9813 0.0409966 44.3191 0 42.692C0.0325026 41.063 0.212003 39.4302 0.538502 37.7938C0.648231 36.3108 0.68446 34.8298 0.64719 33.3506C0.681556 31.7955 0.753604 30.2766 0.863332 28.7936C0.831653 27.5363 0.800905 26.316 0.771089 25.1326C0.814773 23.9474 0.931024 22.7233 1.11984 21.4604C1.24261 20.4952 1.29189 19.5318 1.26766 18.5703C1.24344 17.6089 1.25783 16.7204 1.31083 15.905ZM40.2913 13.0233C39.9071 12.3671 39.4209 12.0464 38.8329 12.0614C37.8793 12.1598 36.9983 12.2193 36.1898 12.2399C35.3813 12.2605 34.5747 12.3551 33.7699 12.5236C32.0887 12.9366 30.4406 13.2006 28.8255 13.3158C27.2104 13.4311 25.5576 13.5102 23.8671 13.5534C22.8362 13.5056 21.8082 13.5689 20.7829 13.743C19.8311 13.9153 18.9161 14.0867 18.0379 14.2571C16.4795 13.7048 15.0039 13.5205 13.6112 13.704C12.2184 13.8875 11.0848 14.1385 10.2102 14.4568C9.18496 14.631 8.41229 14.6137 7.8922 14.405C7.37212 14.1962 6.82274 14.2842 6.24406 14.669L5.31891 17.3569C5.17937 17.6565 5.11519 18.0281 5.12637 18.4719C5.10504 20.5446 5.11954 22.5795 5.16986 24.5764C5.22017 26.5733 5.08767 28.6118 4.77235 30.6921C4.64585 31.5094 4.59285 32.3248 4.61335 33.1384C4.70548 33.8761 4.7618 34.6517 4.7823 35.4653C4.72929 36.2807 4.67629 37.0961 4.62329 37.9116C4.64193 38.6512 4.58706 39.3926 4.4587 40.136C4.1852 40.957 4.16802 41.7345 4.40715 42.4685C4.71978 43.2006 4.81285 43.9753 4.68635 44.7926C4.70685 45.6062 4.61523 46.3486 4.41151 47.0198C4.07196 48.1386 3.87942 49.2536 3.83387 50.3649C3.86182 51.4743 3.96327 52.5818 4.13823 53.6874C4.2434 54.9429 4.31183 56.1992 4.34351 57.4566C4.44869 58.712 4.44362 59.9702 4.3283 61.2313C4.34694 61.9709 4.50977 62.5958 4.81681 63.106C4.96754 63.2502 5.11826 63.3944 5.26899 63.5385C5.49135 63.6069 5.71278 63.6382 5.93328 63.6326C6.08028 63.6288 6.26309 63.5872 6.48173 63.5076C6.77199 63.3522 7.02738 63.2716 7.24788 63.266C8.569 63.1583 9.89012 63.0506 11.2112 62.9429C12.5305 62.7612 13.8516 62.6535 15.1746 62.6197C16.2036 62.5935 17.1195 62.4591 17.9224 62.2166C19.5282 61.7316 21.0717 61.6922 22.5529 62.0985C23.5912 62.442 24.6625 62.6367 25.7669 62.6825C26.9447 62.7265 28.0472 62.6984 29.0743 62.5982C32.1538 62.2236 35.2775 62.1439 38.4454 62.3591C38.6678 62.4274 38.8516 62.4227 38.9967 62.345C39.2153 62.2654 39.4716 62.2219 39.7656 62.2144C39.9052 61.9148 40.0466 61.6892 40.1899 61.5375C40.3313 61.3119 40.3992 61.0881 40.3936 60.8662C40.4578 60.4946 40.4485 60.1248 40.3656 59.7568C40.3545 59.3131 40.381 58.9054 40.4451 58.5337C40.5679 57.5685 40.6181 56.6421 40.5958 55.7546C40.6469 54.8652 40.6594 53.9028 40.6333 52.8674L40.4097 43.9922C40.3138 43.1066 40.1822 42.2589 40.0147 41.4491C39.9188 40.5634 39.8606 39.7138 39.8401 38.9003C39.8178 38.0128 39.8331 37.1613 39.8861 36.3459C40.0107 35.4546 40.0977 34.5273 40.147 33.5639C40.2679 32.5248 40.352 31.4865 40.3994 30.4492C40.445 29.3379 40.5263 28.1888 40.6435 27.0017C40.7365 24.8531 40.755 22.6694 40.6991 20.4506C40.7167 18.23 40.6975 16.0102 40.6416 13.7915C40.6398 13.7175 40.6002 13.6075 40.523 13.4614C40.4458 13.3154 40.3686 13.1694 40.2913 13.0233ZM23.569 67.401C21.5111 67.4536 19.9523 68.3444 18.8926 70.0736C18.6796 70.3751 18.5787 70.7477 18.5898 71.1914C18.6745 71.6333 18.7941 72.0003 18.9485 72.2924C19.932 73.3774 21.0126 73.9419 22.1905 73.9858C23.3758 74.3256 24.2852 73.9324 24.9187 72.8061C25.1262 72.2828 25.2978 71.7974 25.4336 71.3499C25.6411 70.8265 25.8118 70.3041 25.9457 69.7826C26.0816 69.3351 25.9969 68.8933 25.6917 68.457C25.4582 67.9449 25.1558 67.6196 24.7846 67.481C24.4152 67.4165 24.01 67.3898 23.569 67.401ZM16.5594 73.7965C16.4105 73.7263 16.2663 73.841 16.1268 74.1405C15.9854 74.3662 15.9175 74.5899 15.9231 74.8118C15.9287 75.0337 16.0077 75.2537 16.1603 75.4718C16.3129 75.6899 16.5362 75.7952 16.8302 75.7878C17.3373 75.4788 17.5898 75.2873 17.588 75.2134C17.5861 75.1394 17.5466 75.0294 17.4693 74.8834C17.4656 74.7354 17.4619 74.5875 17.4582 74.4396C17.3074 74.2954 17.1576 74.1882 17.0088 74.118C16.8599 74.0478 16.7101 73.9406 16.5594 73.7965ZM2.24229 70.3874C2.31765 70.4595 2.35719 70.5695 2.36092 70.7174C2.36465 70.8653 2.44188 71.0113 2.5926 71.1555C2.96941 71.5159 3.22666 71.5094 3.36434 71.1358C3.36434 71.1358 3.39923 71.0609 3.469 70.9111C3.46714 70.8372 3.50295 70.7993 3.57645 70.7974C3.55968 70.1318 3.11496 69.9951 2.24229 70.3874ZM18.764 64.9704C18.4701 64.9779 18.3231 64.9816 18.3231 64.9816L18.2128 64.9845C18.1393 64.9863 18.1044 65.0612 18.1081 65.2092C18.3324 65.3514 18.6264 65.3439 18.9901 65.1866L18.764 64.9704ZM13.5631 73.0958C13.5631 73.0958 13.5273 73.1338 13.4557 73.2096L13.4641 73.5424C13.5376 73.5405 13.5734 73.5026 13.5715 73.4287L13.5631 73.0958ZM12.6408 75.8946C12.637 75.7467 12.6719 75.6718 12.7454 75.6699C12.8189 75.6681 12.8547 75.6301 12.8529 75.5562C12.7794 75.5581 12.7417 75.522 12.7398 75.4481C12.6645 75.376 12.6259 75.303 12.624 75.229L12.3016 75.5703C12.3035 75.6442 12.3412 75.6803 12.4147 75.6784C12.4882 75.6765 12.5635 75.7486 12.6408 75.8946ZM27.6068 4.35508L27.9432 4.56852L27.7143 4.24133L27.6068 4.35508Z" fill="#2F2D2E"/>
</svg>
