<svg width="85" height="1" viewBox="0 0 85 1" fill="none" xmlns="http://www.w3.org/2000/svg">
<path d="M2.99453 0.886364C2.2373 0.856061 1.58332 0.82197 1.0326 0.784091C0.481879 0.746212 0.13768 0.67803 0 0.579545C0 0.503788 0.10326 0.424242 0.30978 0.340909C0.653979 0.212121 1.34238 0.147727 2.37498 0.147727C4.16481 0.155303 5.98907 0.143939 7.84774 0.113637C9.22454 0.0833335 10.6358 0.0833335 12.0814 0.113637C13.6647 0.151515 15.2824 0.162879 16.9346 0.147727C18.6556 0.132576 20.3766 0.132576 22.0976 0.147727C22.3041 0.147727 22.4762 0.143939 22.6139 0.136364C22.8204 0.121212 23.0269 0.113637 23.2334 0.113637C24.4037 0.0757576 25.4019 0.0719697 26.228 0.102273C27.4671 0.147727 28.7062 0.166667 29.9453 0.159091C31.1844 0.151515 32.458 0.151515 33.7659 0.159091H36.2442C37.0014 0.159091 37.5521 0.166667 37.8963 0.181818C38.6536 0.227273 39.4452 0.25 40.2713 0.25C41.0974 0.242424 41.9579 0.231061 42.8528 0.215909C43.197 0.223485 43.5756 0.234849 43.9887 0.25C44.4705 0.257576 44.8836 0.261364 45.2278 0.261364C45.572 0.26894 45.9162 0.272727 46.2604 0.272727C46.6046 0.265152 46.9488 0.261364 47.293 0.261364C48.3256 0.246212 49.3582 0.234848 50.3908 0.227273C51.4922 0.212121 52.5592 0.212121 53.5918 0.227273H54.5212C55.7603 0.189394 57.0338 0.174243 58.3418 0.181818C59.7186 0.181818 61.0954 0.181818 62.4722 0.181818C63.6424 0.189394 64.8127 0.189394 65.983 0.181818C67.1533 0.166667 68.3235 0.166667 69.4938 0.181818C70.5264 0.151515 71.559 0.140152 72.5916 0.147727C73.6242 0.155303 74.6568 0.155303 75.6894 0.147727C76.722 0.132576 77.6858 0.109849 78.5807 0.0795454C79.5444 0.0492424 80.5426 0.0227272 81.5752 0C82.4013 0.0227272 82.9864 0.0719697 83.3306 0.147727C83.6748 0.215909 84.1223 0.276515 84.673 0.329546C84.8107 0.397727 84.9139 0.462121 84.9828 0.522727C85.0516 0.583333 84.9139 0.647727 84.5697 0.715909C84.4321 0.723485 84.2944 0.731061 84.1567 0.738636C84.0879 0.746212 83.9846 0.753788 83.8469 0.761364C83.5716 0.776515 83.2962 0.791667 83.0209 0.806818C82.8143 0.814394 82.5734 0.825758 82.298 0.840909C81.1966 0.901515 80.0607 0.943182 78.8905 0.965909C77.7202 0.988636 76.5499 1 75.3796 1C74.8289 0.992424 74.347 0.988636 73.934 0.988636C73.521 0.988636 73.0391 0.988636 72.4884 0.988636C71.7311 0.973485 70.9739 0.965909 70.2166 0.965909C69.4594 0.958333 68.7022 0.962121 67.9449 0.977273C67.05 0.984849 66.1895 0.977273 65.3634 0.954546C64.5374 0.931818 63.7113 0.92803 62.8852 0.943182C61.0954 0.905303 59.3399 0.893939 57.619 0.909091C55.898 0.916667 54.177 0.916667 52.456 0.909091C51.8364 0.909091 51.2513 0.909091 50.7005 0.909091C50.1498 0.909091 49.5991 0.901515 49.0484 0.886364C48.4977 0.886364 47.947 0.886364 47.3962 0.886364C46.8455 0.886364 46.2604 0.878788 45.6408 0.863636C45.0901 0.848485 44.5394 0.848485 43.9887 0.863636C43.5068 0.871212 42.9905 0.875 42.4398 0.875C42.0956 0.890152 41.7858 0.890152 41.5104 0.875C40.5467 0.837121 39.5829 0.82197 38.6192 0.829546C37.7242 0.837121 36.7949 0.848485 35.8311 0.863636C35.4869 0.871212 35.1083 0.875 34.6953 0.875C34.2822 0.875 33.9036 0.875 33.5594 0.875C30.5993 0.882576 27.6736 0.886364 24.7823 0.886364C21.9599 0.886364 19.0342 0.886364 16.0053 0.886364C15.1103 0.901515 14.2498 0.905303 13.4238 0.897727C12.6665 0.890152 11.8749 0.878788 11.0488 0.863636C10.2916 0.848485 9.56874 0.840909 8.88034 0.840909C8.26078 0.833333 7.57238 0.82197 6.81514 0.806818C5.64487 0.799243 4.37133 0.825758 2.99453 0.886364ZM77.4448 0.772727C77.9955 0.757576 78.4774 0.746212 78.8905 0.738636C79.3723 0.723485 79.8886 0.708333 80.4394 0.693182C80.6459 0.670455 80.8868 0.647727 81.1622 0.625C81.4375 0.602273 81.6785 0.57197 81.885 0.534091C82.0227 0.526515 82.0571 0.515152 81.9883 0.5C81.9194 0.484848 81.885 0.469697 81.885 0.454546L81.5752 0.443182C79.9919 0.412879 78.3397 0.420455 76.6188 0.465909C76.7564 0.526515 76.8941 0.583333 77.0318 0.636364C77.1695 0.681818 77.3071 0.727273 77.4448 0.772727Z" fill="#91CCD9"/>
</svg>
