<svg width="15" height="2" viewBox="0 0 15 2" fill="none" xmlns="http://www.w3.org/2000/svg">
<path d="M0.522 1.404C0.39 1.356 0.276 1.302 0.18 1.242C0.084 1.182 0.024 1.074 0 0.918C0 0.798 0.018 0.672 0.054 0.54C0.114 0.336 0.234 0.234 0.414 0.234C0.726 0.246 1.044 0.228 1.368 0.18C1.608 0.132 1.854 0.132 2.106 0.18C2.382 0.24 2.664 0.258 2.952 0.234C3.252 0.21 3.552 0.21 3.852 0.234C3.888 0.234 3.918 0.228 3.942 0.216C3.978 0.192 4.014 0.18 4.05 0.18C4.254 0.12 4.428 0.114 4.572 0.162C4.788 0.234 5.004 0.264 5.22 0.252C5.436 0.24 5.658 0.24 5.886 0.252H6.318C6.45 0.252 6.546 0.264 6.606 0.288C6.738 0.36 6.876 0.396 7.02 0.396C7.164 0.384 7.314 0.366 7.47 0.342C7.53 0.354 7.596 0.372 7.668 0.396C7.752 0.408 7.824 0.414 7.884 0.414C7.944 0.426 8.004 0.432 8.064 0.432C8.124 0.42 8.184 0.414 8.244 0.414C8.424 0.39 8.604 0.372 8.784 0.36C8.976 0.336 9.162 0.336 9.342 0.36H9.504C9.72 0.3 9.942 0.276 10.17 0.288C10.41 0.288 10.65 0.288 10.89 0.288C11.094 0.3 11.298 0.3 11.502 0.288C11.706 0.264 11.91 0.264 12.114 0.288C12.294 0.24 12.474 0.222 12.654 0.234C12.834 0.246 13.014 0.246 13.194 0.234C13.374 0.21 13.542 0.174 13.698 0.126C13.866 0.0779999 14.04 0.0359999 14.22 0C14.364 0.0359999 14.466 0.114 14.526 0.234C14.586 0.342 14.664 0.438 14.76 0.522C14.784 0.63 14.802 0.732 14.814 0.828C14.826 0.924 14.802 1.026 14.742 1.134C14.718 1.146 14.694 1.158 14.67 1.17C14.658 1.182 14.64 1.194 14.616 1.206C14.568 1.23 14.52 1.254 14.472 1.278C14.436 1.29 14.394 1.308 14.346 1.332C14.154 1.428 13.956 1.494 13.752 1.53C13.548 1.566 13.344 1.584 13.14 1.584C13.044 1.572 12.96 1.566 12.888 1.566C12.816 1.566 12.732 1.566 12.636 1.566C12.504 1.542 12.372 1.53 12.24 1.53C12.108 1.518 11.976 1.524 11.844 1.548C11.688 1.56 11.538 1.548 11.394 1.512C11.25 1.476 11.106 1.47 10.962 1.494C10.65 1.434 10.344 1.416 10.044 1.44C9.744 1.452 9.444 1.452 9.144 1.44C9.036 1.44 8.934 1.44 8.838 1.44C8.742 1.44 8.646 1.428 8.55 1.404C8.454 1.404 8.358 1.404 8.262 1.404C8.166 1.404 8.064 1.392 7.956 1.368C7.86 1.344 7.764 1.344 7.668 1.368C7.584 1.38 7.494 1.386 7.398 1.386C7.338 1.41 7.284 1.41 7.236 1.386C7.068 1.326 6.9 1.302 6.732 1.314C6.576 1.326 6.414 1.344 6.246 1.368C6.186 1.38 6.12 1.386 6.048 1.386C5.976 1.386 5.91 1.386 5.85 1.386C5.334 1.398 4.824 1.404 4.32 1.404C3.828 1.404 3.318 1.404 2.79 1.404C2.634 1.428 2.484 1.434 2.34 1.422C2.208 1.41 2.07 1.392 1.926 1.368C1.794 1.344 1.668 1.332 1.548 1.332C1.44 1.32 1.32 1.302 1.188 1.278C0.984 1.266 0.762 1.308 0.522 1.404ZM13.5 1.224C13.596 1.2 13.68 1.182 13.752 1.17C13.836 1.146 13.926 1.122 14.022 1.098C14.058 1.062 14.1 1.026 14.148 0.99C14.196 0.954 14.238 0.906 14.274 0.846C14.298 0.834 14.304 0.816 14.292 0.792C14.28 0.768 14.274 0.744 14.274 0.72L14.22 0.702C13.944 0.654 13.656 0.666 13.356 0.738C13.38 0.834 13.404 0.924 13.428 1.008C13.452 1.08 13.476 1.152 13.5 1.224Z" fill="#91CCD9"/>
</svg>
