<svg width="190" height="5" viewBox="0 0 190 5" fill="none" xmlns="http://www.w3.org/2000/svg">
<path d="M97.5384 4.49467C97.3172 4.4642 97.1236 4.43372 96.9578 4.40325C96.8472 4.35246 96.7089 4.30675 96.543 4.26613C96.3771 4.2255 96.1559 4.20518 95.8794 4.20518C95.1606 4.20518 94.4693 4.18487 93.8057 4.14424C93.1975 4.09345 92.5892 4.0579 91.9809 4.03758C91.3726 4.00711 90.7367 3.99695 90.0731 4.00711C89.4095 4.00711 88.7736 3.98172 88.1653 3.93093C87.8888 3.90046 87.5293 3.8903 87.087 3.90046C86.6446 3.90046 86.2851 3.90046 86.0086 3.90046C84.8474 3.88014 83.7137 3.85983 82.6078 3.83951C81.5571 3.80904 80.4788 3.76841 79.3728 3.71762C78.6539 3.69731 77.9627 3.66684 77.2991 3.62621C76.6355 3.58558 75.9443 3.54495 75.2254 3.50432C74.6171 3.45353 73.9812 3.42306 73.3176 3.4129C72.654 3.39259 72.0181 3.37227 71.4098 3.35196C70.6909 3.35196 70.0273 3.3418 69.4191 3.32148C68.8108 3.29101 68.2025 3.2707 67.5942 3.26054C66.9859 3.21991 66.3776 3.19451 65.7694 3.18436C65.2164 3.1742 64.6357 3.15896 64.0275 3.13865C63.6404 3.11833 63.2256 3.1031 62.7832 3.09294C62.3408 3.08278 61.8708 3.0777 61.3731 3.0777H46.0278C45.7513 3.0777 45.4748 3.08278 45.1983 3.09294C44.9218 3.1031 44.6453 3.10818 44.3688 3.10818C43.2075 3.15896 42.0463 3.18944 40.885 3.19959C39.7237 3.20975 38.5901 3.20467 37.4841 3.18436C36.8759 3.1742 36.2676 3.16404 35.6593 3.15389C35.051 3.14373 34.4704 3.13865 33.9174 3.13865C33.6962 3.11833 33.475 3.10818 33.2538 3.10818C33.0326 3.10818 32.7838 3.10818 32.5073 3.10818C31.2907 3.15896 30.0188 3.19452 28.6917 3.21483C27.3645 3.22499 26.0926 3.2707 24.8761 3.35196C24.3784 3.38243 23.8807 3.40782 23.383 3.42814C22.8853 3.44845 22.36 3.47384 21.807 3.50432C21.254 3.53479 20.701 3.54495 20.148 3.53479C19.0421 3.484 17.9914 3.484 16.996 3.53479C16.0559 3.58558 15.0882 3.64652 14.0928 3.71762C13.8163 3.7481 13.5399 3.77857 13.2634 3.80904C13.0422 3.82936 12.7933 3.83951 12.5168 3.83951C8.81183 3.93093 5.35567 4.08329 2.14835 4.2966C1.65066 4.2966 1.29122 4.28644 1.07003 4.26613C0.904132 4.23565 0.682937 4.2001 0.406445 4.15947C0.0193544 3.96648 -0.0912427 3.77857 0.0746531 3.59573C0.240549 3.4129 0.268198 3.23007 0.157601 3.04723C0.655288 2.96597 1.04238 2.89995 1.31887 2.84916C1.65066 2.79837 1.92716 2.75775 2.14835 2.72727C2.42484 2.6968 2.70133 2.67141 2.97783 2.65109C3.30962 2.63078 3.72436 2.61046 4.22205 2.59015C4.94093 2.56983 5.63216 2.53936 6.29574 2.49873C7.01462 2.4581 7.70586 2.42763 8.36944 2.40731C9.6966 2.37684 10.9961 2.34129 12.268 2.30066C13.5952 2.24987 14.9223 2.23464 16.2495 2.25495C16.6919 2.25495 17.1343 2.24987 17.5767 2.23972C18.019 2.22956 18.4614 2.2194 18.9038 2.20924C20.3969 2.12798 21.9176 2.08227 23.4659 2.07212C25.0143 2.06196 26.5627 2.05688 28.111 2.05688C29.7147 2.0772 31.3183 2.08735 32.922 2.08735C34.5257 2.08735 36.1293 2.0518 37.733 1.9807C38.1201 1.96039 38.5348 1.95531 38.9772 1.96546C39.4749 1.97562 39.9449 1.98578 40.3873 1.99594C41.6592 2.05688 42.8757 2.09243 44.037 2.10259C45.2536 2.11275 46.4978 2.11783 47.7697 2.11783H49.5116C50.5069 2.11783 51.447 2.12798 52.3318 2.1483C53.2719 2.16861 54.212 2.1483 55.152 2.08735C56.1474 2.08735 57.1428 2.08735 58.1382 2.08735C59.1888 2.08735 60.2395 2.09751 61.2902 2.11783C62.5067 2.1483 63.7233 2.18385 64.9399 2.22448C66.1564 2.25495 67.373 2.28542 68.5896 2.3159C69.4191 2.33621 70.2209 2.35145 70.9951 2.3616C71.7692 2.37176 72.5711 2.387 73.4006 2.40731C73.8429 2.40731 74.2577 2.41239 74.6448 2.42255C75.0872 2.43271 75.5295 2.43779 75.9719 2.43779C76.4696 2.43779 76.9673 2.43779 77.465 2.43779C77.9627 2.42763 78.5157 2.43271 79.124 2.45302C79.511 2.47334 79.9258 2.48349 80.3682 2.48349C80.8106 2.48349 81.253 2.48349 81.6953 2.48349C82.4695 2.48349 83.2437 2.48349 84.0179 2.48349C84.7921 2.47334 85.5662 2.49365 86.3404 2.54444C87.1146 2.56475 87.9164 2.57491 88.7459 2.57491C89.5754 2.57491 90.4049 2.57999 91.2344 2.59015C91.8426 2.61046 92.4509 2.64093 93.0592 2.68156C93.7228 2.71204 94.3864 2.74251 95.05 2.77298C95.6029 2.7933 96.1559 2.81361 96.7089 2.83393C97.2619 2.84408 97.8425 2.85932 98.4508 2.87963C99.2803 2.89995 100.137 2.92026 101.022 2.94058C101.962 2.95074 102.847 2.98121 103.677 3.032C104.285 3.05231 104.921 3.06755 105.584 3.0777C106.248 3.0777 106.884 3.0777 107.492 3.0777C108.819 3.05739 110.091 3.06755 111.308 3.10818C112.58 3.13865 113.824 3.13865 115.04 3.10818H115.87C117.695 3.18944 119.52 3.23007 121.344 3.23007C123.169 3.23007 124.994 3.24022 126.819 3.26054C127.427 3.26054 128.063 3.26562 128.727 3.27577C129.446 3.28593 130.109 3.30625 130.718 3.33672C131.492 3.36719 132.266 3.38243 133.04 3.38243C133.87 3.37227 134.671 3.37735 135.446 3.39766C136.552 3.40782 137.602 3.41798 138.598 3.42814C139.648 3.42814 140.671 3.46369 141.667 3.53479C141.888 3.53479 142.109 3.53987 142.33 3.55003C142.551 3.55003 142.717 3.54495 142.828 3.53479C143.768 3.51447 144.653 3.49924 145.482 3.48908C146.367 3.46877 147.224 3.44337 148.054 3.4129C148.662 3.40274 149.243 3.38751 149.796 3.36719C150.404 3.33672 151.012 3.30625 151.62 3.27577C152.063 3.26562 152.533 3.2707 153.031 3.29101C153.583 3.30117 154.081 3.29609 154.524 3.27577C155.021 3.25546 155.768 3.22499 156.763 3.18436C157.759 3.13357 158.754 3.08786 159.749 3.04723C160.8 2.99645 161.795 2.95074 162.735 2.91011C163.675 2.86948 164.367 2.83393 164.809 2.80345C165.417 2.74251 165.998 2.68664 166.551 2.63586C167.159 2.58507 167.768 2.53428 168.376 2.48349C169.316 2.40223 170.228 2.3159 171.113 2.22448C171.998 2.13306 172.938 2.0518 173.933 1.9807C175.316 1.87913 176.643 1.76232 177.915 1.63027C179.242 1.48806 180.459 1.30523 181.565 1.08177C181.675 1.06145 181.758 1.04622 181.813 1.03606C181.924 1.01574 182.062 1.00051 182.228 0.99035C183.058 0.858304 183.832 0.721178 184.551 0.578974C185.27 0.43677 185.823 0.264093 186.21 0.0609439C186.486 0.0406292 186.707 0.0253933 186.873 0.015236C187.094 0.00507866 187.316 0 187.537 0C187.979 0.101574 188.394 0.19807 188.781 0.289487C189.168 0.370746 189.555 0.452005 189.942 0.533265C190.163 0.807516 189.749 1.00559 188.698 1.12748C187.426 1.22905 186.237 1.35094 185.131 1.49314C184.081 1.62519 183.002 1.75724 181.896 1.88928C180.846 2.02133 179.74 2.14322 178.578 2.25495C177.417 2.35653 176.201 2.46318 174.929 2.57491C173.657 2.68664 172.357 2.80345 171.03 2.92534C169.703 3.04723 168.431 3.18436 167.215 3.33672C166.385 3.41798 165.528 3.49924 164.643 3.5805C163.814 3.6516 162.957 3.71254 162.072 3.76333C160.745 3.81412 159.473 3.88522 158.256 3.97664C157.04 4.0579 155.795 4.13408 154.524 4.20518C152.975 4.31691 151.399 4.37278 149.796 4.37278C148.302 4.37278 146.837 4.37786 145.399 4.38801C143.962 4.39817 142.524 4.43372 141.086 4.49467C140.367 4.51498 139.621 4.52514 138.846 4.52514C138.128 4.52514 137.409 4.52514 136.69 4.52514C135.584 4.52514 134.423 4.53022 133.206 4.54038C131.989 4.54038 130.828 4.54038 129.722 4.54038C128.506 4.54038 127.289 4.57085 126.072 4.63179C124.801 4.67242 123.473 4.71813 122.091 4.76892C120.764 4.80955 119.381 4.86541 117.944 4.93652C117.114 4.9873 116.257 5.00762 115.372 4.99746C114.543 4.9873 113.658 4.96699 112.718 4.93652C112.441 4.9162 112.11 4.90097 111.722 4.89081C111.391 4.87049 111.059 4.85018 110.727 4.82986C109.621 4.76892 108.543 4.72829 107.492 4.70797C106.441 4.6775 105.308 4.65211 104.091 4.63179C103.041 4.63179 101.962 4.61656 100.856 4.58608C99.8056 4.54545 98.6997 4.51498 97.5384 4.49467Z" fill="#91CCD9"/>
</svg>
