<svg width="21" height="21" viewBox="0 0 21 21" fill="none" xmlns="http://www.w3.org/2000/svg">
<g clip-path="url(#clip0)">
<path d="M20.8643 8.49382C20.8247 8.68013 20.785 8.86645 20.7453 9.05276C20.7057 9.23907 20.666 9.44867 20.6263 9.68156C20.5867 9.72814 20.5569 9.78636 20.5371 9.85623C20.5172 9.90281 20.4776 9.96103 20.4181 10.0309C20.1404 10.2871 19.8925 10.5782 19.6743 10.9042C19.476 11.207 19.2678 11.5214 19.0496 11.8474C18.9504 11.9173 18.8711 12.0105 18.8116 12.1269C18.7719 12.2201 18.7124 12.3132 18.6331 12.4064C18.5538 12.4995 18.4645 12.581 18.3654 12.6509C18.2662 12.7208 18.1869 12.8023 18.1274 12.8954C17.9092 13.1749 17.701 13.4544 17.5026 13.7338C17.3043 13.99 17.0961 14.2462 16.8779 14.5024C16.7192 14.6887 16.5705 14.8866 16.4316 15.0962C16.3126 15.2826 16.1738 15.4805 16.0152 15.6901C15.8168 15.9929 15.6185 16.2956 15.4202 16.5984C15.2417 16.8779 15.0433 17.1573 14.8252 17.4368C14.6268 17.7395 14.4285 18.0307 14.2302 18.3101C14.0318 18.5896 13.8434 18.8691 13.6649 19.1485C13.4864 19.4513 13.2881 19.7424 13.0699 20.0219C12.8716 20.3013 12.6634 20.5692 12.4452 20.8253C12.3659 20.9185 12.2667 20.9767 12.1477 21C12.0485 21 11.9494 20.9534 11.8502 20.8603C11.8106 20.837 11.761 20.8137 11.7015 20.7904C11.6618 20.7438 11.6221 20.6972 11.5825 20.6507C11.5428 20.6041 11.5031 20.5575 11.4635 20.5109C11.4238 20.4644 11.3841 20.4178 11.3445 20.3712C11.285 20.2082 11.2651 20.0452 11.285 19.8821C11.285 19.5561 11.2949 19.2417 11.3147 18.9389C11.3346 18.6129 11.3246 18.2868 11.285 17.9608C11.285 17.7279 11.3048 17.5067 11.3445 17.2971C11.3841 17.0642 11.4238 16.8313 11.4635 16.5984C11.5031 16.3888 11.4436 16.2374 11.285 16.1443C11.2453 16.0744 11.166 16.0394 11.047 16.0394C10.8685 15.9696 10.6999 15.9579 10.5412 16.0045C10.3826 16.0278 10.2239 16.0278 10.0652 16.0045C9.90659 15.9579 9.738 15.9346 9.55951 15.9346C9.40084 15.9346 9.24218 15.9579 9.08352 16.0045C8.94468 16.0278 8.81577 16.0394 8.69677 16.0394C8.57777 16.0394 8.45878 16.0394 8.33978 16.0394C8.22078 16.0394 8.1117 16.0278 8.01253 16.0045C7.91337 15.9579 7.78445 15.923 7.62579 15.8997C7.40763 15.9929 7.17955 16.0511 6.94155 16.0744C6.70356 16.0744 6.44573 16.0744 6.16806 16.0744C5.8904 16.121 5.62266 16.1559 5.36483 16.1792C5.107 16.1792 4.83925 16.2025 4.56159 16.2491C4.34343 16.2956 4.13518 16.3306 3.93685 16.3539C3.75835 16.3539 3.56002 16.3539 3.34186 16.3539H2.18163C1.9833 16.3539 1.79489 16.3655 1.61639 16.3888C1.43789 16.3888 1.26931 16.4354 1.11065 16.5285C1.03132 16.5751 0.912318 16.5984 0.753654 16.5984C0.495825 16.645 0.307412 16.5751 0.188414 16.3888C0.148748 16.3422 0.118998 16.2956 0.0991651 16.2491C0.079332 16.1792 0.0495825 16.1093 0.00991647 16.0394C0.00991647 15.8298 0.0297495 15.6319 0.0694155 15.4456C0.109082 15.236 0.118998 15.0264 0.0991651 14.8168C0.0991651 14.4907 0.109082 14.188 0.128915 13.9085C0.148748 13.629 0.118998 13.3379 0.039666 13.0352C2.98023e-08 12.8721 -0.0099165 12.7091 0.00991647 12.5461C0.0495825 12.3598 0.0495825 12.1735 0.00991647 11.9872C0.0495825 11.8009 0.0495825 11.6029 0.00991647 11.3933C-0.0099165 11.1604 2.98023e-08 10.9392 0.039666 10.7296C0.079332 10.5433 0.0892485 10.3686 0.0694155 10.2056C0.0495825 10.0192 0.059499 9.83294 0.0991651 9.64663C0.138831 9.39045 0.148748 9.14591 0.128915 8.91302C0.128915 8.68013 0.128915 8.4356 0.128915 8.17942C0.128915 7.89995 0.128915 7.62049 0.128915 7.34102C0.148748 7.03826 0.208247 6.73551 0.307412 6.43275C0.287579 6.3163 0.277662 6.2115 0.277662 6.11835C0.277662 6.0019 0.257829 5.90875 0.218163 5.83888C0.317328 5.55941 0.446243 5.40803 0.604906 5.38475C0.783404 5.33817 0.951984 5.25665 1.11065 5.14021C1.34864 5.14021 1.58664 5.14021 1.82464 5.14021C2.08247 5.11692 2.33038 5.08199 2.56837 5.03541C2.86587 4.96554 3.17328 4.91897 3.49061 4.89568C3.82777 4.87239 4.1451 4.80252 4.44259 4.68608C4.60126 4.6395 4.74009 4.61621 4.85909 4.61621C4.97808 4.61621 5.09708 4.61621 5.21608 4.61621C5.67224 4.61621 6.1284 4.61621 6.58456 4.61621C7.04072 4.61621 7.49687 4.60456 7.95303 4.58128H8.72652C8.82569 4.55799 8.92485 4.5347 9.02402 4.51141C9.12318 4.46483 9.22235 4.4299 9.32151 4.40661C9.42068 4.4299 9.50992 4.45319 9.58926 4.47647C9.68842 4.47647 9.77767 4.49976 9.857 4.54634C10.0553 4.47647 10.2338 4.4299 10.3925 4.40661C10.571 4.4299 10.7495 4.46483 10.928 4.51141C11.1263 4.55799 11.3048 4.54634 11.4635 4.47647C11.4833 4.4299 11.5031 4.39496 11.523 4.37168C11.5626 4.34838 11.5924 4.31345 11.6122 4.26687C11.6321 4.0107 11.6519 3.76616 11.6717 3.53327C11.7114 3.27709 11.7114 3.00927 11.6717 2.7298C11.6717 2.47362 11.642 2.22909 11.5825 1.9962C11.5428 1.76331 11.5726 1.53042 11.6717 1.29753C11.6519 1.18108 11.6321 1.07628 11.6122 0.983129C11.6122 0.866683 11.6023 0.750238 11.5825 0.633793C11.6618 0.470771 11.7411 0.319393 11.8205 0.17966C11.9196 0.0399247 12.0684 -0.0182983 12.2667 0.00499034C12.4055 0.0282804 12.5146 0.0865035 12.594 0.17966C12.6733 0.272814 12.7526 0.354325 12.832 0.424193C12.951 0.540637 13.0699 0.657082 13.1889 0.773527C13.3079 0.866683 13.417 0.971484 13.5162 1.08793C14.1905 1.62357 14.8252 2.21744 15.4202 2.86953C16.0152 3.49834 16.63 4.12714 17.2646 4.75594C17.344 4.82581 17.4134 4.89568 17.4729 4.96554C17.5522 5.03541 17.6315 5.09363 17.7109 5.14021C17.929 5.27994 18.1274 5.44297 18.3059 5.62928C18.5042 5.81559 18.7124 6.0019 18.9306 6.18821C19.1289 6.37453 19.3173 6.57248 19.4958 6.78208C19.6942 6.9684 19.9123 7.11977 20.1503 7.23622C20.3685 7.35266 20.5172 7.52733 20.5966 7.76022C20.6957 7.99311 20.785 8.23764 20.8643 8.49382ZM10.0652 5.34981C9.90659 5.39639 9.74792 5.44297 9.58926 5.48955C9.43059 5.53612 9.26201 5.55941 9.08352 5.55941C8.56786 5.55941 8.06212 5.55941 7.56629 5.55941C7.07047 5.55941 6.56472 5.57106 6.04907 5.59435C5.8309 5.59435 5.59291 5.59435 5.33508 5.59435C5.09708 5.59435 4.869 5.60599 4.65084 5.62928C4.33351 5.67586 4.0261 5.73408 3.7286 5.80395C3.43111 5.85052 3.1237 5.8971 2.80637 5.94368C2.50888 5.96697 2.21138 6.01355 1.91388 6.08341C1.61639 6.15328 1.33873 6.33959 1.0809 6.64235C1.04123 6.75879 1.00157 6.89853 0.961901 7.06155C0.922235 7.22457 0.902402 7.39924 0.902402 7.58555C0.902402 7.74858 0.912318 7.9116 0.932151 8.07462C0.971817 8.23764 1.00157 8.38902 1.0214 8.52876C1.0214 8.73836 0.981734 8.92467 0.902402 9.08769C0.842903 9.22742 0.832986 9.39045 0.872652 9.57676C0.872652 9.78636 0.862736 10.0076 0.842903 10.2405C0.82307 10.4501 0.813153 10.6481 0.813153 10.8344C0.813153 11.0673 0.813153 11.2885 0.813153 11.4981C0.832986 11.6844 0.872652 11.894 0.932151 12.1269C1.03132 12.5228 1.0214 12.8954 0.902402 13.2448C0.803237 13.6174 0.813153 13.9434 0.932151 14.2229C0.971817 14.3626 0.99165 14.5024 0.99165 14.6421C1.01148 14.7586 1.04123 14.875 1.0809 14.9914C1.12056 15.2476 1.22965 15.4106 1.40814 15.4805C1.70564 15.4106 2.00313 15.3757 2.30063 15.3757C2.59812 15.3524 2.91545 15.3757 3.25261 15.4456C3.31211 15.4689 3.41128 15.4805 3.55011 15.4805C3.76827 15.4572 3.97652 15.4339 4.17485 15.4106C4.39301 15.3874 4.61117 15.3524 4.82934 15.3058C5.226 15.1894 5.62266 15.1312 6.01932 15.1312C6.43581 15.1079 6.84239 15.073 7.23905 15.0264C7.59604 15.0031 7.95303 15.0031 8.31003 15.0264C8.68686 15.0497 9.05377 15.0031 9.41076 14.8866C9.74792 14.9332 10.0652 14.9332 10.3627 14.8866C10.6801 14.8401 11.0073 14.8168 11.3445 14.8168H11.9395C12.2171 14.9332 12.356 15.1778 12.356 15.5504C12.356 15.6901 12.346 15.8415 12.3262 16.0045C12.3064 16.1675 12.2865 16.3422 12.2667 16.5285C12.2469 16.645 12.227 16.7731 12.2072 16.9128C12.1874 17.0525 12.1775 17.1806 12.1775 17.2971C12.1576 17.6231 12.1477 17.9491 12.1477 18.2752C12.1477 18.5779 12.1477 18.8807 12.1477 19.1835C12.1477 19.3698 12.1775 19.4979 12.237 19.5677C12.2965 19.5677 12.356 19.5444 12.4155 19.4979C12.475 19.428 12.5245 19.3698 12.5642 19.3232C12.9014 18.8574 13.2187 18.3916 13.5162 17.9259C13.8137 17.4601 14.131 16.9943 14.4682 16.5285C14.6863 16.1792 14.9144 15.8531 15.1524 15.5504C15.3904 15.2243 15.6185 14.8866 15.8367 14.5373C15.9755 14.3044 16.1143 14.0832 16.2531 13.8736C16.4118 13.664 16.5804 13.466 16.7589 13.2797C16.9176 13.0934 17.0663 12.9187 17.2051 12.7557C17.3638 12.5694 17.5225 12.3831 17.6811 12.1968C17.82 11.9872 17.9489 11.7892 18.0679 11.6029C18.1869 11.4166 18.3257 11.2303 18.4844 11.044C18.8612 10.6015 19.1488 10.1473 19.3471 9.68156C19.4264 9.56511 19.4958 9.44867 19.5553 9.33223C19.6148 9.19249 19.6843 9.0644 19.7636 8.94796C19.8033 8.87809 19.8231 8.76165 19.8231 8.59862C19.6049 8.34244 19.3967 8.09791 19.1983 7.86502C19 7.60884 18.7918 7.35266 18.5736 7.09648C18.5339 7.04991 18.4943 7.00333 18.4546 6.95675C18.4348 6.91017 18.405 6.87524 18.3654 6.85195C18.3059 6.80537 18.2364 6.75879 18.1571 6.71222C18.0976 6.66564 18.0381 6.60742 17.9786 6.53755C17.8795 6.35124 17.7406 6.17657 17.5621 6.01355C17.3836 5.85052 17.1952 5.71079 16.9969 5.59435C16.8382 5.52448 16.6994 5.39639 16.5804 5.21008C16.3424 4.97719 16.1143 4.7443 15.8962 4.51141C15.678 4.25523 15.4301 4.03398 15.1524 3.84767C15.1128 3.77781 15.0334 3.673 14.9144 3.53327C14.6764 3.16065 14.3888 2.8346 14.0517 2.55513C13.7344 2.27567 13.4071 2.00784 13.0699 1.75166C13.0105 1.70509 12.9311 1.70509 12.832 1.75166C12.7328 1.79824 12.6733 1.87975 12.6535 1.9962C12.6535 2.06607 12.6435 2.13593 12.6237 2.2058C12.6237 2.25238 12.6237 2.3106 12.6237 2.38047C12.584 2.70651 12.5642 3.02091 12.5642 3.32367C12.584 3.62643 12.6435 3.94083 12.7427 4.26687C12.7824 4.36003 12.7923 4.46483 12.7725 4.58128C12.7526 4.67443 12.7427 4.77923 12.7427 4.89568C12.6832 5.22172 12.4948 5.38475 12.1775 5.38475C12.0188 5.38475 11.8502 5.40803 11.6717 5.45461C11.4932 5.4779 11.3147 5.45461 11.1362 5.38475C11.0172 5.33817 10.9082 5.33817 10.809 5.38475C10.6702 5.45461 10.5412 5.4779 10.4222 5.45461C10.3032 5.40803 10.1842 5.3731 10.0652 5.34981Z" fill="#010101"/>
</g>
<defs>
<clipPath id="clip0">
<rect width="21" height="21" fill="white"/>
</clipPath>
</defs>
</svg>
