<svg width="75" height="82" viewBox="0 0 75 82" fill="none" xmlns="http://www.w3.org/2000/svg">
<path d="M21.1845 60.1569C20.9504 59.5272 20.7553 59.0156 20.5993 58.622C20.5212 58.2285 20.4042 57.7955 20.2481 57.3233C20.7163 56.6148 21.0674 56.0638 21.3015 55.6703C21.6136 55.2767 21.9647 55.0012 22.3549 54.8438C22.745 54.6076 23.2522 54.4896 23.8764 54.4896C24.5006 54.4108 25.3589 54.3321 26.4513 54.2534C26.8414 54.4896 27.2706 54.7257 27.7388 54.9618C28.2069 55.1193 28.7141 55.3161 29.2603 55.5522C29.8845 55.7096 30.5478 55.749 31.25 55.6703C32.0303 55.5916 32.7325 55.3554 33.3567 54.9618C34.4491 54.2534 35.5805 53.7418 36.7509 53.4269C37.9994 53.1121 39.1308 52.6398 40.1451 52.0101C41.1595 51.4591 42.0958 50.8294 42.9541 50.1209C43.8904 49.4125 44.8658 48.7435 45.8801 48.1138C46.0362 47.8776 46.2703 47.7202 46.5824 47.6415C46.8945 47.484 47.2456 47.3266 47.6358 47.1692C49.0403 45.5949 50.4057 43.9813 51.7322 42.3283C53.0587 40.5966 54.5022 38.9042 56.0627 37.2513C56.687 36.7003 57.1941 36.1099 57.5843 35.4802C58.0524 34.7718 58.5206 33.9846 58.9888 33.1188C59.1448 32.6465 59.3399 32.2136 59.574 31.82C59.8081 31.3477 60.1202 30.8755 60.5103 30.4032C61.6027 28.9863 62.5 27.4908 63.2022 25.9165C63.9045 24.3422 64.6848 22.7679 65.5431 21.1937C65.9332 20.013 66.3624 18.8323 66.8305 17.6515C67.3767 15.1327 67.0646 12.6532 65.8942 10.2131C65.8942 10.0557 65.6211 9.81953 65.0749 9.50468C63.0462 9.34725 61.1735 9.62275 59.4569 10.3312C57.8184 11.0396 56.1408 11.7874 54.4242 12.5745C52.7856 14.1488 51.108 15.7231 49.3914 17.2973C47.7528 18.7929 46.1923 20.4459 44.7097 22.2563C44.3976 22.7286 44.0075 23.2009 43.5393 23.6731C43.0712 24.0667 42.603 24.4996 42.1348 24.9719C41.9007 25.2081 41.5496 25.4048 41.0815 25.5623C40.4572 25.7197 39.911 25.7197 39.4429 25.5623C38.9747 25.3261 38.4285 25.1293 37.8043 24.9719C37.6483 25.2081 37.4142 25.4048 37.1021 25.5623C36.868 25.641 36.6729 25.7984 36.5169 26.0346C36.2828 26.2707 36.0877 26.5462 35.9316 26.861C35.7756 27.0972 35.5805 27.3333 35.3464 27.5695C35.0343 28.0418 34.5272 28.2385 33.8249 28.1598C33.2007 28.0811 32.6935 27.7269 32.3034 27.0972C31.6791 26.1526 31.6011 25.1293 32.0693 24.0274C32.2253 23.9486 32.3814 23.8306 32.5375 23.6731C34.098 22.0202 35.5025 20.2491 36.7509 18.36C37.9994 16.3921 39.2868 14.4636 40.6133 12.5745C42.7981 9.58339 45.49 7.0252 48.6891 4.89993C49.3914 4.27022 50.3277 3.83729 51.4981 3.60115C52.2784 3.28629 53.3318 2.93208 54.6582 2.53851C56.0627 2.14494 57.4672 1.79073 58.8717 1.47588C60.2762 1.08231 61.6027 0.767456 62.8511 0.531318C64.1776 0.295175 65.1919 0.137747 65.8942 0.0590345H67.8839C68.4301 -0.0196782 68.8592 -0.0196782 69.1713 0.0590345C69.5615 0.0590345 69.9126 0.137747 70.2247 0.295173C70.6149 0.452603 71.005 0.688743 71.3951 1.00359C71.7853 1.31845 72.2924 1.75138 72.9167 2.30237C73.931 4.58507 74.5552 6.94648 74.7893 9.38661C75.0234 11.8267 75.0624 14.3062 74.9064 16.8251C74.7503 17.6909 74.5552 18.5568 74.3212 19.4226C74.1651 20.2097 74.009 21.0362 73.853 21.9021C73.6969 22.4531 73.3848 23.2402 72.9167 24.2635C72.4485 25.2868 71.9413 26.3888 71.3951 27.5695C70.927 28.6715 70.4198 29.7735 69.8736 30.8755C69.3274 31.8987 68.8983 32.6465 68.5861 33.1188C67.8059 34.4569 67.0256 35.7163 66.2453 36.897C65.465 38.0778 64.5677 39.1797 63.5534 40.203C62.6951 41.0689 61.8368 41.9741 60.9785 42.9186C60.1202 43.8632 59.3009 44.7684 58.5206 45.6343C57.1161 47.2085 55.6336 48.586 54.073 49.7667C52.5125 50.9474 50.9909 52.2069 49.5084 53.545C49.1183 53.9386 48.6891 54.2928 48.221 54.6076C47.8308 54.9225 47.4017 55.1586 46.9335 55.3161C45.7631 55.7883 44.7097 56.418 43.7734 57.2052C42.8371 57.9136 41.9398 58.7795 41.0815 59.8027C40.6913 60.1963 40.3402 60.5899 40.0281 60.9834C39.794 61.377 39.4819 61.7706 39.0918 62.1641C38.0774 62.4003 37.1021 62.6758 36.1657 62.9906C35.3074 63.2268 34.4491 63.4629 33.5908 63.6991C32.9666 63.5416 32.3814 63.3842 31.8352 63.2268C31.289 62.9906 30.7038 62.8726 30.0796 62.8726C29.4554 62.7151 28.7921 62.6364 28.0899 62.6364C27.3876 62.6364 26.6074 62.6364 25.7491 62.6364C25.2029 62.4003 24.5006 62.0854 23.6423 61.6919C22.862 61.2983 22.0428 60.7867 21.1845 60.1569ZM0 69.4845C0.390138 68.2251 0.819289 66.9657 1.28745 65.7063C1.83365 64.3681 2.2628 62.9906 2.57491 61.5738C2.96504 59.9208 3.47222 58.3859 4.09644 56.969C4.79869 55.5522 5.46192 54.0566 6.08614 52.4824C8.34894 50.5932 10.2996 48.5073 11.9382 46.2246C13.5768 43.8632 15.4885 41.6986 17.6732 39.7307C18.7656 39.2585 19.858 38.8649 20.9504 38.55C22.0428 38.1565 23.1351 37.7235 24.2275 37.2513C25.8661 36.6216 27.5437 36.2673 29.2603 36.1886C30.9769 36.1099 32.7325 36.1886 34.5272 36.4248C35.3074 36.5822 36.0097 36.8183 36.6339 37.1332C37.2581 37.448 37.8433 37.7235 38.3895 37.9597C39.1698 39.0617 39.5989 39.8095 39.677 40.203C39.755 40.5179 39.716 41.1476 39.5599 42.0922C38.4675 42.8006 37.3361 43.3516 36.1657 43.7451C35.0733 44.06 33.8639 43.8239 32.5375 43.0367C30.1186 43.0367 27.7388 43.1548 25.3979 43.3909C23.0571 43.6271 20.8333 44.5323 18.7266 46.1066C17.088 47.917 15.7225 49.8848 14.6302 52.0101C13.5378 54.0566 12.4454 56.1425 11.353 58.2678C10.9629 58.8975 10.6507 59.5666 10.4167 60.275C10.2606 60.9047 9.98752 61.5344 9.59738 62.1641C9.05119 63.1874 8.70006 64.2107 8.54401 65.234C8.38795 66.1786 8.38795 67.2018 8.54401 68.3038C8.70006 69.0122 8.89513 69.642 9.12921 70.1929C9.3633 70.6652 9.83146 71.0588 10.5337 71.3736C10.9238 71.7672 11.314 72.0821 11.7041 72.3182C12.1723 72.5544 12.6404 72.7905 13.1086 73.0266H16.1517C16.6979 73.0266 17.2051 73.0266 17.6732 73.0266C18.2194 73.0266 18.5705 72.9479 18.7266 72.7905C20.2871 72.0034 21.6916 71.2556 22.9401 70.5472C24.1885 69.76 25.476 68.9335 26.8024 68.0677C27.1926 68.2251 27.5437 68.3038 27.8558 68.3038C28.1679 68.3038 28.402 68.3825 28.5581 68.54C29.8065 69.1697 30.5478 69.9174 30.7818 70.7833C31.0939 71.5704 31.0159 72.515 30.5478 73.617C30.3917 74.0106 30.2356 74.3254 30.0796 74.5616C30.0016 74.719 29.8845 74.9158 29.7285 75.1519C27.4657 77.041 25.0468 78.3792 22.4719 79.1663C19.897 79.8747 17.3611 80.6619 14.8642 81.5277C14.4741 81.6851 14.123 81.8032 13.8109 81.8819C13.5768 81.9606 13.2647 82 12.8745 82H8.77809C5.34488 80.5044 2.41885 78.143 0 74.9158V69.4845Z" fill="#262425"/>
</svg>
