<svg width="67" height="100" viewBox="0 0 67 100" fill="none" xmlns="http://www.w3.org/2000/svg">
<path d="M27.8754 35.5817C27.4216 35.0024 27.098 34.6814 26.9046 34.6187C26.1627 34.2702 25.4051 33.9705 24.6317 33.7198C23.8898 33.3713 23.0838 33.056 22.2137 32.7739C22.0184 32.3864 21.5813 31.9206 20.9026 31.3765C20.9657 31.1809 20.9805 30.9696 20.947 30.7427C20.9134 30.5157 20.9282 30.3044 20.9914 30.1088C21.1176 29.7176 21.2439 29.3264 21.3701 28.9352C21.4964 28.544 21.7036 28.233 21.9916 28.0023C22.984 27.2437 23.6548 26.4888 24.0041 25.7377C24.446 24.3685 25.0339 23.2086 25.7679 22.2582C26.5985 21.339 27.364 20.2908 28.0644 19.1133C28.9897 17.9008 29.8183 16.6569 30.5503 15.3817C31.3138 14.0087 32.1257 12.6514 32.9859 11.3097C33.4318 10.5899 33.7326 9.82318 33.8885 9.00941C34.1726 8.12919 34.5208 7.21573 34.9331 6.26904C35.2192 5.71356 35.4727 5.09351 35.6937 4.40889C36.0113 3.75561 36.329 3.10233 36.6466 2.44905C37.3135 1.04469 38.4193 0.430872 39.9642 0.607596C40.6725 0.72919 41.3009 0.932915 41.8495 1.21877C42.4295 1.40682 43.1536 1.47952 44.0218 1.43685C44.6314 1.20235 45.2263 1.17912 45.8064 1.36718C46.5147 1.48877 47.2388 1.56146 47.9787 1.58525C48.8152 1.64038 49.5719 1.77765 50.2486 1.99705C51.0536 2.14998 51.8271 2.40072 52.5689 2.74926C53.6008 3.19183 54.5528 3.71653 55.4249 4.32336C56.4252 4.86373 57.5213 5.27307 58.713 5.55138L62.6374 8.28212C62.6394 8.60687 62.6571 8.88272 62.6907 9.10967C62.7242 9.33662 62.7578 9.56357 62.7913 9.79052C62.4086 10.3146 62.0742 10.8545 61.7881 11.4099C61.502 11.9654 61.2159 12.5209 60.9299 13.0764C60.7405 13.6632 60.4869 14.2832 60.1693 14.9365C59.9799 15.5233 59.6455 16.0631 59.1661 16.5559C59.3654 17.5929 59.7876 18.2699 60.4328 18.5871C60.853 18.9395 61.2733 19.2918 61.6936 19.6441C62.2421 19.9299 62.7422 20.2001 63.1941 20.4546C63.6143 20.807 64.002 21.0947 64.3572 21.3179C64.7439 21.4432 65.1306 21.5686 65.5173 21.694C65.906 22.1441 66.0856 22.5804 66.056 23.003C66.0264 23.4256 65.9968 23.8481 65.9672 24.2707C65.33 25.2525 64.6444 26.2186 63.9104 27.1691C63.1765 28.1195 62.4909 29.0857 61.8536 30.0675C59.9694 32.2656 58.2944 34.4775 56.8285 36.7032C56.0946 37.6536 55.3606 38.6041 54.6267 39.5546C53.8927 40.505 53.0947 41.4887 52.2325 42.5057C51.4985 43.4561 50.7646 44.4066 50.0307 45.3571C49.425 46.2411 48.7068 47.1426 47.8762 48.0617C47.4915 48.2611 47.1886 48.7031 46.9676 49.3877C46.9045 49.5834 46.9065 49.9081 46.9736 50.362C47.0722 50.7181 47.2025 50.9764 47.3643 51.1369L49.6905 52.8633C50.1108 53.2157 50.5784 53.4213 51.0933 53.4802C51.705 53.5704 52.1262 54.0851 52.3571 55.0243L51.5995 57.3715C49.3898 58.9239 47.4227 60.7171 45.6983 62.7509C45.0591 63.408 44.4198 64.065 43.7806 64.7221C43.1729 65.2813 42.5169 65.8249 41.8125 66.3528C39.0602 68.5936 36.3888 70.9146 33.7983 73.3159C31.336 75.6507 28.8254 77.9699 26.2665 80.2733C25.9153 80.6997 25.5315 81.0614 25.1152 81.3586C24.8272 81.5893 24.5075 81.9179 24.1564 82.3442C23.4224 83.2947 22.6401 84.2295 21.8095 85.1486C21.0105 85.9699 20.1956 86.8401 19.365 87.7592C18.5975 88.4828 17.8941 89.173 17.2549 89.8301C16.7439 90.4207 16.1362 90.9799 15.4319 91.5079C14.8242 92.0671 14.0883 92.6928 13.2241 93.385C12.3915 93.9794 11.3507 94.7223 10.1018 95.6139C9.33634 96.6621 8.74543 97.3349 8.32913 97.6321C8.00951 97.9606 7.16113 98.6039 5.78398 99.5619C5.26902 99.503 4.65738 99.4127 3.94906 99.2911C3.33742 99.2009 2.72578 99.1106 2.11414 99.0204C0.855337 98.2882 0.399551 97.3842 0.746776 96.3083C1.05848 94.6808 1.56551 93.4407 2.26789 92.588C2.74534 91.7705 3.22279 90.9529 3.70024 90.1354C4.17769 89.3179 4.80016 88.5473 5.56765 87.8238C6.58965 86.6426 7.53075 85.3812 8.39096 84.0395C9.28273 82.6 10.2071 81.2251 11.1639 79.9148C11.673 78.9994 12.2145 78.1487 12.7887 77.3625C13.491 76.5098 14.2743 75.7374 15.1385 75.0452C15.906 74.3217 16.5442 73.5023 17.0532 72.5869C17.6589 71.7029 18.2321 70.7543 18.7727 69.7412C18.9936 69.0566 19.2797 68.5011 19.6309 68.0748C20.1695 66.7368 20.0501 65.6178 19.2727 64.7175C18.6236 63.7508 17.7041 63.2907 16.5144 63.3372C15.228 63.3523 13.9721 63.1072 12.7469 62.6019C11.6834 62.2572 11.2286 61.5155 11.3825 60.377C11.5383 59.5632 11.7267 58.814 11.9477 58.1294C12.2002 57.347 12.4527 56.5646 12.7053 55.7822C13.7273 54.601 14.7177 53.5176 15.6766 52.532C16.667 51.4486 17.5765 50.285 18.4052 49.0411C19.076 48.2862 19.6985 47.5157 20.2726 46.7295C20.975 45.8768 21.5964 44.9439 22.137 43.9308C23.1255 42.5227 24.0981 41.1634 25.055 39.8531C26.1402 38.4763 27.0803 37.0525 27.8754 35.5817ZM30.4094 63.4663C30.0227 63.3409 29.7021 63.5071 29.4476 63.9648C29.2877 64.129 29.1763 64.309 29.1131 64.5046C29.1467 64.7315 29.0836 64.9271 28.9237 65.0914C28.3457 65.2281 27.9767 65.3786 27.8169 65.5428C27.7853 65.6406 27.8356 65.9811 27.9679 66.5641C28.3842 66.2669 28.7028 65.776 28.9237 65.0914C29.5018 64.9547 29.8698 64.6418 30.0276 64.1528C30.1539 63.7616 30.2969 63.4839 30.4567 63.3196C30.7132 63.1867 30.9539 63.1027 31.1789 63.0675C31.3702 62.8055 31.4649 62.5121 31.463 62.1873C31.0782 62.3867 30.8543 62.5842 30.7912 62.7798C30.6629 62.8463 30.5357 63.0751 30.4094 63.4663ZM43.049 39.6905C43.5324 39.8472 43.8382 39.8924 43.9664 39.8259C44.2229 39.693 44.3985 39.4798 44.4932 39.1864C44.6846 38.9243 44.9085 38.7268 45.165 38.5939C45.2282 38.3983 45.2114 38.2848 45.1147 38.2535C45.1463 38.1557 45.1778 38.0579 45.2094 37.9601L44.9194 37.8661C43.7632 38.1395 43.1723 38.8122 43.1467 39.8842C42.9533 39.8215 42.7925 39.8234 42.6643 39.8899L42.5696 40.1833C42.7629 40.246 42.9227 40.0817 43.049 39.6905ZM41.6224 35.1767C41.429 35.114 41.2682 35.1159 41.14 35.1823C40.114 35.714 39.3949 36.4532 38.9825 37.3999C38.9825 37.3999 38.9993 37.5134 39.0329 37.7403L39.4679 37.8813C40.8155 37.3459 41.4853 36.4286 41.4774 35.1296C42.089 35.2199 42.4737 35.0205 42.6316 34.5315C42.8229 34.2694 42.9818 33.9428 43.108 33.5516C44.3589 32.9848 45.1738 32.1146 45.5525 30.9409C45.5525 30.9409 45.4716 30.8607 45.3099 30.7002C44.1557 31.2983 43.4543 32.3134 43.2057 33.7453C42.6256 33.5572 42.1284 33.7742 41.7141 34.3961C41.651 34.5917 41.6036 34.7384 41.5721 34.8362C41.6372 34.9654 41.654 35.0789 41.6224 35.1767ZM26.4349 68.3359C26.6243 67.7491 26.4792 67.702 25.9998 68.1948C25.9682 68.2926 26.0008 68.3572 26.0975 68.3886L26.1951 68.5823C26.3234 68.5158 26.4033 68.4337 26.4349 68.3359ZM28.4497 42.7362C28.3214 42.8027 28.2257 42.9337 28.1626 43.1293C28.1311 43.2271 28.0511 43.3092 27.9229 43.3757C27.8598 43.5713 27.9249 43.7004 28.1182 43.7631C28.503 43.5637 28.6135 43.2214 28.4497 42.7362Z" fill="#2F2D2E"/>
</svg>
